<?xml version="1.0" standalone="no"?>
<!DOCTYPE svg PUBLIC "-//W3C//DTD SVG 1.1//EN" "http://www.w3.org/Graphics/SVG/1.1/DTD/svg11.dtd" >
<svg xmlns="http://www.w3.org/2000/svg">
<metadata></metadata>
<defs>
<font id="slipstream_letplain" horiz-adv-x="1509" >
<font-face units-per-em="2048" ascent="1638" descent="-410" />
<missing-glyph horiz-adv-x="655" />
<glyph horiz-adv-x="0" />
<glyph unicode="&#xd;" horiz-adv-x="655" />
<glyph unicode=" "  horiz-adv-x="655" />
<glyph unicode="&#x09;" horiz-adv-x="655" />
<glyph unicode="&#xa0;" horiz-adv-x="655" />
<glyph unicode="!" horiz-adv-x="815" d="M25 41l8 14l84 2q72 2 102 11l74 20q12 4 43 6l373 15l-54 -109h-309q-49 0 -80 10l-73 25q-10 2 -29 4zM92 170l8 12l93 2q61 2 100 13l72 20q14 2 41 6l370 13l-65 -121l-330 12q-18 0 -35 6l-70 23q-18 8 -32 8l-66 2zM162 297l4 12l156 4q18 0 86 23q45 14 84 14h346 l-60 -110l-327 14q-25 2 -39 6l-78 27q-6 4 -23 4zM297 551l4 12l150 2q8 2 22 4l68 21q31 8 71 14l369 12l-59 -108h-326q-29 0 -66 10q-45 12 -60 19.5t-21 7.5zM365 676l6 14l155 4q4 0 11 2l71 21l21 4q20 6 49 8l369 14l-64 -122l-324 14q-35 2 -71 14l-60 21 q-12 4 -24 4zM432 805l6 12l97 2q63 2 88 8l71 21q33 10 66 10l354 10l-63 -118l-320 10q-31 0 -102 26q-31 10 -58 15zM500 930l8 14l147 4q8 0 31 4l88 25q18 6 41 6l369 14l-68 -120l-285 10q-45 2 -124 24q-47 14 -62 17zM569 1059l9 12l147 2q12 0 84 23q49 14 82 16 l360 12l-63 -120l-332 12q-33 2 -76 18.5t-73 18.5zM633 1184l10 12l154 6q20 0 77 21q43 14 82 16l361 12l-64 -121l-247 9q-102 4 -138 16l-55 21q-16 6 -29 6zM700 1311l7 14l157 4q4 0 25 4q104 33 155 33h332l-55 -106l-315 10q-31 0 -60 8l-59 22q-18 6 -82 9z" />
<glyph unicode="&#x22;" horiz-adv-x="1185" d="M506 799l10 22h78q16 0 51 10l49 15q39 12 64 12l104 4l-51 -98h-88q-27 0 -70 14q-61 20 -94 21h-53zM508 924l8 24h100q53 0 86 13l33 12q23 8 62 10l129 6l-58 -110l-84 8q-29 2 -53 12l-26 10q-37 14 -91 15h-106zM508 1053l8 20h82q47 0 88 14q68 25 123 25l182 2 l-59 -110l-158 10q-37 2 -49 8l-43 18q-29 12 -84 13h-90zM510 1178l6 24h105q10 0 18 2l25 2q23 2 55 13l33 10q20 6 67 8l238 8l-21 -43h82q51 0 105 17l32 10q29 10 68 10l238 6l-58 -115l-164 9q-33 2 -112 22q-63 16 -101 17h-102l-25 -48l-163 9q-33 2 -113 22 q-63 16 -100 17h-113zM510 1305l6 24h105q31 0 59 8l63 19q35 10 107 10h8l260 -4l-16 -33h22q31 0 60 8l63 19q35 10 107 10h8l260 -4l-55 -102l-238 6q-82 2 -143 24q-39 14 -53 15h-46l-24 -45l-238 6q-88 2 -143 24q-35 14 -68 15h-104zM1010 799l10 22h78q16 0 51 10 l49 15q39 12 64 12l104 4l-51 -98h-88q-27 0 -70 14q-61 20 -94 21h-53zM1012 924l8 24h100q53 0 86 13l33 12q23 8 61 10l127 6l-55 -110l-84 8q-27 2 -53 12l-29 10q-41 14 -88 15h-106zM1012 1053l8 20h82q47 0 88 14q68 25 123 25l182 2l-59 -110l-158 10q-37 2 -49 8 l-43 18q-29 12 -86 13h-88z" />
<glyph unicode="#" horiz-adv-x="819" d="M68 0v1366h684v-1366h-684zM82 14h655v1338h-655v-1338z" />
<glyph unicode="$" horiz-adv-x="1294" d="M-41 57l6 15l154 4h8q4 4 20 6q4 0 31 8q72 23 101 23l929 6q-72 -45 -125 -66q-129 -51 -211 -49l-528 10q-59 0 -143 11l-68 24q-16 6 -31 6zM31 180l6 13l153 4l15 4l74 20q51 14 79 15l992 8q-76 -84 -136 -121l-884 16q-45 0 -117 29q-27 10 -33 10zM98 307l6 12 l129 3q29 0 48 6l65 20q39 12 82 12l1010 11q-27 -55 -82 -121l-965 16q-27 0 -49 8l-66 23q-20 6 -83 8zM111 -195l8 17h153q2 2 13 4l67 18q51 14 70 15l309 10l-61 -109l-254 2q-37 0 -88 19q-63 23 -84 22zM180 -68l4 17l154 2q16 0 78 20q45 14 86 17l297 10l-66 -121 l-262 14q-37 2 -70 15l-49 18q-16 6 -33 6zM403 940l7 12l151 2q8 2 27 7l37 10q66 20 92 20l436 13q-12 -20 -12 -35q0 -41 84 -78q6 -2 20 -8l-502 12q-61 2 -75.5 5t-92.5 30l-24 6zM406 809l6 16l120 2q37 0 58 7l88 24q14 4 53 8l535 11q113 -53 168 -123l-701 16 q-35 0 -86 8l-59 21q-39 14 -88 12zM442 1067l7 12l151 2q6 0 25 6q92 31 170 31l862 10l-70 -131l-22 9q-125 45 -236 45t-170 -41l-434 14q-29 0 -76 20q-35 14 -59 19zM510 684l8 14h90q55 0 105 15l63 18q2 0 47 8l615 11q37 -55 49 -123l-682 14q-35 0 -49 8l-76 27 q-10 4 -18 4zM537 1192l6 14l143 2q8 0 21 2l90 25q33 8 262 12l667 10l-65 -120l-821 12q-37 0 -58 8l-55 21q-31 10 -86 12zM705 557v4l4 10l110 2l49 2q8 0 37 9q41 12 125 26l459 13q2 -25 2 -52q0 -39 -4 -69l-473 12q-45 2 -125 29q-14 4 -33 10zM713 432l6 12l155 5 q10 0 23 4q102 33 141 32l447 11q-12 -49 -41 -119l-264 8q-66 2 -84 2q-39 0 -56 2q-61 2 -86 10l-57 19q-27 8 -74 10zM725 1319l6 16l84 -2q33 0 62 4l94 27q20 10 61 10l381 4q23 0 60 2h47q141 0 252 -39l-43 -81l-656 16q-80 2 -115 14l-53 19q-25 4 -59 6zM983 1446 l6 10l152 4q8 0 28 6l76 23q25 8 49 8l316 12l-66 -120l-266 12q-39 2 -96 22q-23 8 -49 17zM1051 1571l8 14h102q51 0 74 6l94 27q25 6 109 6l231 -2l-57 -109l-285 17q-18 2 -33 6l-67 25q-16 6 -33 6z" />
<glyph unicode="%" horiz-adv-x="2238" d="M344 41l8 12l49 2q23 0 68 2q18 0 45 2l98 29q8 2 43 8l381 13l-125 -109h-274q-20 0 -39 6l-70 23q-25 8 -104 10zM383 793l4 12l156 4q2 2 7 3t23 5q10 4 40 12.5t106 18.5l239 4q29 -4 33 -4q8 0 39 6l354 4q-2 0 -7 -9t-25 -32h16q41 0 94 19q47 16 105 18l364 14 l-143 -120l-162 6q-100 4 -115.5 6t-80.5 26q-35 12 -76 13h-8q-8 -2 -12.5 -4t-16.5 -15l-31 -26l-16 -17l-596 13q-12 2 -15 2l-34 8l-68 24q-16 6 -31 7zM387 922l4 12l152 4q18 0 37 6l16 4q76 23 98 25l236 14q-12 -27 -12 -43v-8h49q70 0 106 10l45 12l27 7q12 4 53 8 l258 12l-18 -43h49q61 0 96 10l62 19q31 10 55 10l379 14l-140 -123l-266 15q-25 2 -39 6l-73 25q-18 6 -58 6h-10l-66 2l-12 -19q-12 -25 -29 -43l-237 15q-14 0 -29 6l-55 20q-33 12 -78 13h-69q2 -35 32 -60l-260 19q-18 2 -57 12q-8 2 -37 10q-14 4 -30.5 9t-35.5 10z M438 1049l6 12l152 2q6 2 25 6q84 29 114 31l330 20q-49 -23 -80 -57h49q80 0 166 27q23 6 41 8l246 14q-6 -63 -29 -121l-239 15q-12 0 -35 8l-56 18q-37 12 -116 12h-45q-18 -25 -33 -53l-211 15q-23 2 -66 16q-59 20 -69 20zM463 666l4 12l149 4q8 2 31 6l90 27 q18 6 49 6l474 10l-54 -41h17q31 0 96 21q47 14 94 16l369 14l-56 -51h25q59 0 203 33q125 29 198 29q94 0 166 -38t88 -96l-493 15q-51 2 -92 20q-53 18 -92 19h-13q-8 -2 -14 -2l-62 -49l-202 10q-66 4 -140 24q-35 10 -61 15l-41 2h-18q-8 0 -41 -17q-104 -51 -230 -51 q-68 0 -108 12l-125 37q-14 4 -47 9l-66 2zM496 168l6 14l119 2q39 0 57 6l86 25q18 6 41 6l381 15l-142 -121l-274 12q-4 2 -8 2l-29 8l-61 21q-8 4 -54 8h-16q-8 2 -22 2h-84zM532 1171l7 17l92 2q70 2 82 6l78 23q35 10 59 10l616 10q20 -53 21 -102v-19l-354 8 q-29 4 -25 4q2 0 -23 -4l-133 2q-150 2 -178 13l-69 24q-18 6 -33 6h-140zM641 295l10 14l148 2q8 0 28 6q51 14 119 31l387 12l-141 -120l-272 14q-18 0 -33 6q-84 31 -99 31zM674 1298l6 17l111 2q33 0 65 4q12 2 88 16l103 21q94 18 153 18q195 0 264 -131l-514 15 q-33 0 -74.5 18t-60.5 18zM793 422l6 12l84 2q72 2 94 8l78 23q18 6 43 6l381 12l-52 -49h52q61 0 90 8l69 21l41 8l332 23q-49 -23 -80 -60h31q94 0 180 27q18 6 41 10l248 14q-6 -63 -29 -118l-229 10q-2 0 -10 2l-29 6l-70 25q-25 6 -106 6h-45q-10 -10 -35 -51l-213 12 q-2 0 -10 2l-33 6l-61 23q-23 8 -121 8h-37l-62 -53l-260 14q-29 2 -77 18q-29 10 -64 21zM942 547l6 14l123 4q39 2 49 4l80 23q33 10 154 12q78 4 278 10l-55 -51q59 0 94 10l58 17q41 12 65 12l616 12q20 -51 21 -98v-24l-346 8q-20 6 -29 6q-6 0 -24 -6l-263 6 q-31 0 -47 6l-67 23q-31 10 -70 10q-20 0 -33 -2l-63 -51l-252 14q-53 4 -115 26q-25 12 -37 13zM1327 168l6 14l152 2q8 2 10 3t18 3q47 16 140 33l248 4q4 -2 12 -3t24 -1q8 0 35 6l355 7q-37 -59 -113 -121l-584 12q-23 0 -70 12.5t-73 22.5l-12 4zM1329 295l6 14l152 2 q2 0 8 2q23 6 76 21q39 12 69 14l236 12q-14 -23 -14 -43v-8h32q94 0 164 23q45 14 78 16l264 12q-27 -61 -69 -120l-240 14q-4 2 -18 4l-74 27q-23 8 -115 8l-20 -2q2 -33 28 -58l-288 21q-12 0 -29 6l-80 27q-8 2 -53 4zM1405 39l6 16l139 2q6 0 101 25q49 14 73 14 l482 10q-172 -127 -357 -126q-61 0 -102 12l-123 37q-39 8 -72 8zM1540 1055l8 12l111 2q45 0 78 10l69 21q25 8 45 8l375 14l-141 -121l-141 7q-31 0 -70 2q-23 2 -55 4l-15 2l-12 2q-33 10 -100 31q-4 2 -11 2zM1690 1182l8 14l147 2q16 0 90 25q49 12 72 12l369 12 l-142 -121l-249 13q-23 2 -39 6l-84 26l-31 7zM1839 1309l8 14l148 2q2 0 8 2h8l105 29q27 10 106 10h287l-125 -111l-236 11q-47 2 -129 30q-12 4 -28 9z" />
<glyph unicode="&#x26;" horiz-adv-x="1564" d="M121 301l6 12l149 4q18 0 70 17q61 20 133 20l156 2l278 2q49 -10 88 -10q49 0 127 12l398 5l-64 -121l-1104 24l-65 23q-12 4 -62 6q-14 0 -41 2zM141 172l6 14h62q86 0 121 11l69 20q33 10 103 10l958 11l-67 -121l-967 14q-14 0 -45 10l-62 21q-25 8 -30 8h-90z M141 426l6 14l113 2q16 0 49 2l97 29q20 6 81 8l447 17q-74 -33 -74 -80q0 -33 33 -53l-412 16q-63 2 -88 10l-82 27q-18 6 -28 6zM197 553l10 14l147 4q8 0 25 4l76 21q37 10 63 10l1249 10l-63 -120l-617 8q-10 2 -24 2l-41 4q-4 0 -41 -4h-16l-492 6q-2 0 -8 2l-25 6 l-63 23q-10 4 -43 8zM270 47l4 12l150 4q2 0 10 3l27 4l74 22q25 8 57 8l799 13l-52 -93l-24 -4q-158 -31 -299 -39q-76 -4 -172 -4q-193 0 -299 35q-25 8 -70 21q-20 6 -47 12zM332 680l6 14l55 2q47 0 117 9l84 22q23 6 45 6l1198 10l-65 -120l-1168 16q-27 0 -98 29 q-12 4 -33 8zM449 934l6 14l147 2q10 2 33 6l70 21q33 10 53 10l493 17q-98 -41 -98 -113q0 -2 2 -10v-13l-424 23q-20 2 -68.5 20.5t-70.5 18.5zM465 805l6 16l152 4q2 0 10 2l35 7l53 14q53 14 74 14l1106 6l-62 -118l-1089 14q-10 0 -29 6l-66 23q-6 0 -22 4q-29 6 -35 6 zM506 1061l4 14l154 2q2 0 8 2l20 4q8 2 31 11q70 20 102 20l861 10l-58 -106q-100 14 -182 14q-102 0 -180 -22l-398 6q-90 2 -116 10l-72 25q-6 2 -102 8zM608 1188l4 14l152 2q4 0 24 4l76 23q33 10 72 10l815 10l-61 -121l-789 15q-33 0 -72 16q-55 23 -71 23zM799 1315 l6 12l113 2q47 0 63 4l188 37q115 23 267 23q193 0 372 -33l-53 -103l-668 15q-29 0 -71 16q-53 18 -70 23zM942 422l8 16l135 2q2 2 7 2l22 7l66 18q18 6 67 12l348 10l-65 -120l-328 14q-4 0 -12 2l-23 6l-77 27q-6 2 -13 2z" />
<glyph unicode="'" horiz-adv-x="681" d="M506 799l10 22h78q16 0 51 10l49 15q39 12 64 12l104 4l-51 -98h-88q-27 0 -70 14q-61 20 -94 21h-53zM508 924l8 24h100q53 0 86 13l33 12q23 8 62 10l129 6l-58 -110l-84 8q-29 2 -53 12l-26 10q-37 14 -91 15h-106zM508 1053l8 20h82q47 0 88 14q68 25 123 25l182 2 l-59 -110l-158 10q-37 2 -49 8l-43 18q-29 12 -84 13h-90zM510 1178l6 24h105q10 0 18 2l25 2q23 2 55 13l33 10q20 6 67 8l238 8l-58 -115l-163 9q-33 2 -113 22q-63 16 -100 17h-113zM510 1305l6 24h105q31 0 59 8l63 19q35 10 107 10h8l260 -4l-55 -102l-238 6 q-88 2 -143 24q-35 14 -68 15h-104z" />
<glyph unicode="(" horiz-adv-x="952" d="M203 41l10 16l147 2q12 0 93 25q14 4 61 12l293 15q-6 -82 -6 -123l-223 8q-104 4 -134 14l-61 23q-14 6 -61 6zM207 -86l6 14l43 2q10 0 74 2q27 0 69 7l80 22q20 6 31 6l291 17l2 -109l-293 -2q-29 0 -53 8l-74 25q-18 6 -35 6zM211 170l6 14h49q84 0 106.5 3t94.5 26 q8 2 47 10l309 15q-4 -25 -4 -23l-4 -25q0 16 -6 -51l-2 -22l-313 12q-25 0 -39 6l-64 23q-27 10 -74 10zM225 297l6 12l156 4q6 0 74 21q51 16 76 16l315 12q-8 -33 -23 -98l-6 -24l-309 16q-23 2 -121 33q-8 4 -16 4zM246 424l6 12l158 4q4 0 24 6l41 13l31 8q37 10 53 10 l338 12q-14 -37 -43 -120l-279 10q-61 2 -99 15.5t-97 25.5zM291 551l8 12l143 2q16 0 93 25q41 12 71 14l350 12q-4 -10 -14 -29.5t-22 -45.5l-13 -29l-8 -16l-321 12q-23 0 -37 6l-76 27q-10 4 -25 4l-106 2zM346 678l8 12l152 4q8 0 76 21q49 14 86 16l364 12 q-18 -27 -59 -96l-12 -24l-316 12q-16 0 -123 33q-16 6 -24 6zM420 803l6 14l149 4q4 0 11 2l65 19l27 6q20 4 55 10l385 12l-84 -120l-321 12q-37 2 -117 33q-14 6 -29 6zM510 932l6 14l143 2q6 0 31 4l70 21q39 10 71 12l386 12l-97 -120l-336 14q-18 0 -32 6 q-43 14 -93 31zM612 1059l9 14l135 2q6 0 16 2h12l93 27q27 8 51 8l397 12l-102 -120l-203 8q-63 2 -94 4q-61 4 -131 31q-20 8 -31 8zM729 1186l4 14l152 2q6 0 20 4l84 25q23 6 129 10l316 10l-105 -121l-325 15q-25 2 -91 26q-25 10 -34 11zM864 1313l6 12l152 4 q23 0 82 21q39 12 70 14l126 6l252 8q-6 -6 -22 -24l-39 -41l-29 -33l-24 -25l-291 15q-25 2 -60 16q-51 23 -71 23zM1016 1440l6 12l158 4q10 0 47 12q74 23 143 23l293 -2l-104 -107l-248 13q-35 2 -117 32q-20 8 -29 9z" />
<glyph unicode=")" horiz-adv-x="954" d="M-82 -82l6 12l150 2q8 0 22 5l76 22q31 8 61 10l363 15l-129 -109l-217 -2q-59 0 -90 10l-72 25q-10 4 -20 4l-66 2zM47 43l4 12l158 4q10 0 82 23q43 14 71 14l379 10q-53 -49 -139 -118l-278 14q-18 0 -33 6q-43 14 -94 31zM154 170l6 14l153 2l19 6q20 5 47 13l35 10 q18 4 47 8l403 13q-33 -41 -116 -121l-316 14q-23 2 -55 14q-53 23 -72 23zM262 297l4 12l150 4q8 0 22 4l76 21q43 12 64 12l397 10l-8 -8q-63 -78 -97 -110l-307 12q-47 2 -119 31q-18 8 -30 8zM362 422l9 14l155 2q8 0 15 2l59 17l27 8q31 10 57 10l387 10l-90 -118 l-332 12q-25 4 -35 6l-69 25q-23 8 -35 8zM457 547l6 14l80 2h53q33 4 45 6l84 25q12 4 49 8l377 12l-12 -20q-35 -57 -66 -100l-342 14q-12 0 -29 6l-65 23q-20 8 -72 8zM537 672l6 14l153 6q4 0 25 4l74 23q31 8 61 10l356 12q-14 -37 -43 -92l-14 -28l-326 12 q-37 2 -108 29q-20 8 -31 8zM606 801l8 14l152 2q4 2 8 2l86 25q25 4 66 12l336 12q-6 -23 -31 -90l-12 -30l-312 12q-23 0 -131 33q-10 4 -18 4zM657 928l11 14l149 4q14 0 33 6q92 31 119 31l325 10q-18 -84 -30 -121l-330 15q-8 2 -25 6l-75 27q-16 6 -29 6zM698 1055 l2 14l43 2q27 0 76 2q20 0 49 2l88 25q27 8 48 10l309 12q-6 -70 -19 -123l-325 17q-23 2 -58 14l-37 14q-20 8 -36 9h-66zM721 1184l6 14l111 2q49 0 61 4l82 23q16 6 41 8l303 14l-2 -26q-2 -31 -8 -95l-309 13q-25 0 -107 30q-10 4 -29 9zM731 1313l6 10l154 4q8 0 35 8 q90 27 127 29l272 12v-69q0 -29 -2 -54l-303 17q-43 2 -115 30q-14 6 -22 7zM733 1438l8 14l146 2q14 0 39 8q90 29 131 29h258q8 -66 8 -109l-299 13q-27 2 -119 32q-16 6 -22 7z" />
<glyph unicode="*" horiz-adv-x="1146" d="M438 807l8 14h93q51 0 90 10l69 19q18 6 39 8l234 16l-154 -108h-72q-33 0 -87 19.5t-74 19.5zM565 1061l6 12l152 4q10 0 29 6q45 14 129 31l667 10l-65 -120l-635 16q-2 0 -14 2l-21 4l-70 25q-14 4 -51 8h-37zM618 934l7 14l100 2q61 2 76 4l69 21q29 8 88 14 q35 4 109 10q53 6 98 9l-75 -56q12 2 20 2l70 21q2 2 49 12l53 12q4 2 21 5l59 -125l-158 14q-8 0 -26 6l-84 27q-12 4 -25 4q-8 0 -16 -2l-72 -49q-102 14 -123 22l-61 23q-16 6 -31 6zM723 1313l6 16l145 2q10 0 25 4l84 23q39 10 68 10q33 0 53 -2l53 -106l-158 14 q-27 2 -94 29q-20 8 -39 8zM780 1186l11 16l147 2q12 0 33 6q41 12 159 39q2 0 31 4l23 -47l16 4l76 23q16 4 39 6l250 14l-189 -125l-14 2q-76 10 -123 27l-25 8q-2 2 -14 4l23 -43l-160 19q-20 2 -82 24l-23 9q-10 2 -24 6zM981 807l6 12l117 2q35 0 61 8l82 23 q16 4 56 10l40 6l23 4l51 -108h-135q-37 0 -84 19.5t-65 19.5zM1210 1313l9 14l141 2q12 0 33 4l88 27q20 6 73 6h183l-162 -109l-35 5q-47 6 -151 38q-18 8 -35 9z" />
<glyph unicode="+" horiz-adv-x="819" d="M68 0v1366h684v-1366h-684zM82 14h655v1338h-655v-1338z" />
<glyph unicode="," horiz-adv-x="757" d="M-201 -340l6 16l154 5q16 0 47 10q78 25 115 26l254 13l-101 -109h-178q-45 0 -114 27q-18 10 -35 10zM-94 -209l6 12l151 4q14 0 33 7l47 14q49 14 80 16l269 13l-109 -121l-188 12q-29 2 -76 19.5t-64 17.5zM-2 43l8 14l150 4h8l22 7l56 16q39 12 63 12l377 15 l-64 -121l-325 10q-31 0 -78 18l-39 15q-23 8 -35 8zM12 -82l8 12l148 4q37 10 102 27q33 6 56 8l286 15l-114 -121l-195 12q-37 2 -74 16q-47 18 -131 23zM68 170l4 14l153 4q12 0 49 13q70 23 115 24l361 15l-66 -123l-319 12q-33 2 -60 10l-53 19q-35 12 -94 12h-90z M133 297l6 14l150 4q6 0 20 2l72 21q51 14 123 14h305l-55 -108l-332 12q-29 2 -105 29q-27 10 -41 10z" />
<glyph unicode="-" horiz-adv-x="1009" d="M240 477l8 12l151 3q6 0 21 4l72 20q41 12 65 12l594 9l-59 -105h-551q-29 0 -47 6l-82 29q-10 2 -25 4zM309 602l6 12l154 4q6 0 27 7l43 12q10 2 26 8q37 10 51 10l603 9l-66 -123l-405 12q-29 2 -89 4q-43 2 -114 12l-66 25q-14 4 -30 4zM379 731l6 12l150 2 q18 0 36 7q92 29 179 28h528l-57 -112l-447 14q-37 2 -72 2q-61 2 -81 10l-74 25q-16 6 -29 6z" />
<glyph unicode="." horiz-adv-x="759" d="M0 41l6 14l154 4q2 0 26 4q96 31 138 33l360 13l-57 -109h-324q-53 0 -106 23q-35 14 -43 14zM68 168l6 14h76q74 0 106 11l53 16q39 12 92 14l349 15l-66 -123l-319 12q-45 2 -119 31q-20 8 -31 8zM135 295l2 14l158 4q16 0 70 19q61 20 239 20h207l-57 -108l-295 10 q-70 2 -148 33q-10 2 -22 4z" />
<glyph unicode="/" horiz-adv-x="1546" d="M-141 -76l8 13h47q14 0 70 2q35 2 45 4l98 28q18 6 43 6l381 13l-127 -107h-272q-23 0 -39 4l-70 25q-23 8 -104 10zM-6 41l8 12l49 2q23 0 68 2q18 0 45 2l100 29q14 4 43 8l381 13l-127 -107l-272 -2q-18 0 -39 6l-72 23q-27 8 -102 10zM147 168l5 14l120 2q39 0 58 6 l86 25q18 6 41 6l379 15l-140 -119l-274 10q-8 2 -10 2l-29 8l-70 25q-14 4 -45 4h-14q-10 2 -23 2h-84zM293 295l8 14l148 2q10 0 30 6q98 31 119 31l385 12l-139 -118l-273 12q-18 0 -32 6q-84 31 -99 31zM442 422l7 12l86 2q72 2 94 8l78 23q18 6 43 6l380 12l-141 -120 l-270 16q-12 0 -62 16q-12 6 -39 15q-16 6 -26 6zM594 547l4 14l125 4q39 2 49 4l78 23q31 8 156 12q41 2 165 6q45 2 111 4l-145 -122l-260 14q-29 2 -66 16q-43 18 -74 23zM743 676l7 14l118 2q39 0 58 6l86 25q18 6 41 6l379 12l-144 -120l-270 14q-4 2 -8 2l-29 8 l-61 21q-8 4 -54 8h-16q-8 2 -23 2h-84zM891 803l8 14l148 2q8 0 28 6q98 31 121 31l383 12l-139 -118l-256 12q-47 2 -89 19.5t-59 17.5zM1040 930l7 12l86 2q70 2 92 8l78 23q18 6 43 6l380 12l-139 -121l-256 15q-12 0 -76 20l-38 13q-18 6 -29 6zM1192 1055l8 12l109 2 q49 0 80 10l69 21q27 8 45 8l373 12l-141 -121l-265 15q-29 2 -65 14l-62 21q-4 2 -10 2zM1341 1182l9 14l147 2q16 0 90 25q49 12 72 12l369 12l-144 -121l-248 13q-33 2 -75 18q-51 20 -78 21zM1491 1309l6 14l150 2q2 0 8 2h8l104 29q33 8 107 8l287 -2l-127 -107 l-234 11q-53 2 -129 30q-23 8 -29 9zM1620 1425l8 13l148 4q10 0 16 2l104 29q23 6 107 6h287l-125 -109l-236 12q-55 2 -129 31q-14 6 -26 6z" />
<glyph unicode="0" horiz-adv-x="1595" d="M166 418l6 16l152 2q2 0 88 25q39 12 65 12l375 14q10 -68 68 -118q4 -2 14 -13l-408 19q-92 4 -116 12l-70 23q-8 2 -23 6zM184 291l9 16l155 4q6 0 21 4q102 33 161 33l422 2q39 -8 76 -8q41 0 102 12l619 8q-27 -35 -53 -59l-51 -47l-17 -16l-1161 12q-18 0 -41 8 l-59 21q-23 8 -37 8zM184 547l6 14l84 2q37 0 95 6l84 25q14 4 43 8l378 12q-20 -59 -22 -122l-289 10q-113 4 -135 12l-63 23q-18 6 -95 8zM217 674l6 14l139 2q18 2 50 8l69 23q16 6 43 6l420 14l-12 -20q-37 -61 -55 -100l-330 10q-72 2 -146 31q-27 10 -36 10zM246 164 l6 16l113 2q47 0 71 8l78 23q27 8 55 8l1051 15q-41 -39 -82 -66l-43 -29q-33 -23 -51 -28q-162 2 -490 8q-152 2 -325 2q-115 0 -144 10l-57 21l-25 6q-4 2 -8 2zM281 801l6 14l151 4q10 0 29 6q94 31 125 31l467 12q-59 -57 -101 -108l-8 -10l-387 10q-25 0 -71 19.5 t-64 19.5zM365 37l8 16l153 4q16 0 35 6q84 27 117 31l758 15q-233 -135 -529 -136q-205 0 -321 41q-49 16 -76 23h-145zM369 928l6 14l153 4q10 0 23 4l88 27q18 6 45 6l598 18q-129 -53 -215 -127l-350 11q-74 2 -92 8l-82 27q-8 2 -33 6zM483 1053l6 18l154 2q4 0 29 8 q86 29 166 29l1128 12q20 -57 27 -121l-518 7q-57 10 -93 10q-33 0 -82 -10l-497 6q-63 0 -80 6l-72 24q-16 6 -39 7zM629 1180l12 18l150 2q33 8 86 23q66 16 165 16h23l827 10q47 -57 72 -121l-1051 15q-31 0 -79 18q-33 12 -54 17zM866 1307l8 18h123q18 2 35 2l135 31 q6 0 27 4q172 29 315 29q248 0 377 -134l-735 11q-39 0 -76 16q-43 18 -63 19zM993 420l8 14l154 2q10 2 39 10q84 29 141 29h58l450 12q-35 -55 -88 -120l-481 12q-20 0 -62.5 16.5t-72.5 18.5zM1149 547l6 14h102q41 0 82 8l80 25q16 4 45 6l451 16q-8 -18 -55 -106 q-4 -4 -11 -16l-415 12q-2 0 -13 2l-28 6q-20 4 -56 18q-25 10 -34 11zM1249 674l8 14l148 2q10 0 25 6l98 27q20 6 47 6l389 12q-10 -37 -45 -120l-381 12q-25 0 -73 18.5t-72 18.5zM1298 928l9 14l149 2q25 4 68 19q57 18 90 20l379 12q2 -23 2 -53q0 -37 -4 -68l-404 13 q-4 0 -45 8l-74 25q-6 4 -24 4zM1305 801l4 14h118q6 0 39 4q8 2 17 2l86 27q23 6 55 8l365 12q-4 -55 -23 -120l-383 12q-10 0 -41 10l-20 6q-29 10 -72 23z" />
<glyph unicode="1" horiz-adv-x="882" d="M123 41l4 12l154 6q8 0 26 4q102 31 139 33l359 15l-60 -111h-319q-33 0 -115 29q-18 6 -41 8l-26 2zM190 170l9 12l149 4q4 0 25 4q43 14 123 31l376 17l-63 -121l-223 6q-100 2 -125 6t-80 25q-33 12 -45 12zM258 295l6 14l152 4q39 10 100 27q31 8 49 8l19 2l356 15 l-66 -121l-284 8q-78 2 -150 31q-20 8 -30 8zM324 424l8 12l149 4q8 0 25 4l88 25q18 6 39 6l375 17l-66 -123l-336 12q-2 0 -10 2l-31 6q-14 4 -61 23q-14 6 -27 6zM352 1057l8 14l144 2q10 0 31 6l94 27q20 6 47 6l667 14l-63 -120l-633 10q-31 0 -53 8l-66 23 q-20 8 -65 8zM393 549l4 12l150 4q10 0 31 6l77 23q27 8 41 8l377 16l-61 -120l-330 10q-23 0 -39 6l-82 27q-18 6 -29 6zM418 1178l8 20l149 2q6 0 21 4l100 29q20 6 43 6l670 14l-61 -118l-562 8q-106 2 -137 12l-59 21q-2 0 -10 2h-11h-151zM459 676l8 14l151 2l9 2l28 8 q6 0 33 9q63 20 88 20l365 12l-62 -118l-334 10q-33 0 -116 33q-8 2 -21 6zM481 1307l15 18l147 4q6 0 21 2l94 27q29 8 139 8h569l-53 -104l-633 8q-39 0 -65 10l-58 20q-12 6 -28 7h-148zM526 803l6 14l154 4q6 0 84 23q29 8 66 14l374 14l-65 -120l-258 8q-98 4 -119 10 l-66 23q-20 8 -67 8zM596 930l2 12l150 4q31 4 86 23q49 16 71 16l371 14l-64 -122l-333 12q-27 0 -75 19.5t-67 19.5z" />
<glyph unicode="2" horiz-adv-x="1224" d="M-96 41l6 14l149 2q10 0 31 6q106 33 137 33l961 15l-60 -111h-860q-98 0 -123 8l-65 23q-16 6 -37 6zM-49 168l6 14l147 2q14 0 89 23q53 16 79 16l981 15l-65 -123l-959 12q-10 0 -84 25q-33 12 -53 12zM14 293l9 14l147 4q12 0 73.5 18.5t90.5 18.5l985 12l-62 -118 l-895 10q-84 2 -165 33q-16 6 -31 6zM111 422l10 14l151 2q10 2 11 2l63 19q45 12 86 14l598 16q-10 -8 -22 -14l-27 -16q-66 -41 -121 -99l-459 21q-35 2 -114 31q-16 6 -27 6zM244 549l4 12l153 4q10 0 84 23q45 14 78 14l727 8q-12 -6 -69 -32q-18 -8 -47 -23l-78 -35 q-2 0 -33 -14l-19 -8l-397 6q-141 2 -184 18q-59 23 -68 23zM416 1057l8 14l149 2q14 0 69.5 19.5t96.5 19.5l889 14q6 -39 6 -63q0 -6 -4 -59l-913 12q-35 0 -84 16l-51 17q-6 4 -19 4zM469 674l8 16l117 2q25 0 53 8q51 14 131 29l715 14q-51 -49 -176 -122l-453 10 q-129 2 -155 12l-66 23q-16 6 -41 6zM483 1184l9 14l149 2q14 0 88 25q41 14 74 14l772 14q43 -57 53 -123l-833 13q-49 2 -80 12l-60 21q-10 4 -28 4zM551 1311l8 14l100 2q45 0 54 2q16 2 86 21q25 6 161 26.5t240 20.5q260 0 373 -137l-719 10q-51 0 -127 30q-20 8 -27 9 zM731 803l6 12l154 4q8 0 88 25q31 10 74 14l534 12q-33 -66 -88 -120l-471 10q-35 0 -78 16q-55 20 -73 23zM858 930l6 12l150 4q20 0 86 23q47 16 78 16l450 14q-6 -47 -37 -122l-379 10q-94 2 -176 33q-16 6 -22 6z" />
<glyph unicode="3" horiz-adv-x="1200" d="M-96 37l4 14l151 4q8 2 11 2l26 6q2 2 39 13q59 18 88 18l875 17q-205 -137 -604 -138q-61 0 -158 9q-88 8 -125 16l-137 33q-16 4 -25 4zM-27 166l4 12l152 6q16 0 66 17q63 20 110 20l942 17q-6 -6 -26 -29q-59 -66 -117 -94l-825 10q-29 0 -70 14q-61 18 -69.5 20.5 t-14.5 2.5zM39 293l6 14l152 2q4 2 8 2l26 6q6 4 37 13q59 18 86 18l977 17q-25 -53 -80 -123l-889 12q-70 0 -137 27q-27 10 -41 10zM352 549l6 10l152 6q12 0 25 4l75 23q33 10 64 10l690 16q8 -49 8 -77q0 -23 -2 -43l-729 8q-14 2 -41 8l-70 25q-16 4 -71 6zM422 674 l6 14l152 4q4 0 10 2l90 25q33 10 57 10l561 16q45 -57 64 -120l-643 8q-37 0 -64 10l-55 21q-23 8 -33 8zM485 1055l7 14l151 4q12 0 25 4l92 27q18 6 43 6l805 18v-20q0 -49 -21 -100l-801 8q-37 0 -53 6l-69 25q-16 6 -41 6zM487 803l9 12l151 4q18 6 90 25q43 12 72 12 l692 16q-92 -88 -190 -122l-494 10q-31 0 -88 10l-63 23q-16 6 -33 6zM549 1182l10 12l152 6l82 23q49 14 73 14l703 16q35 -49 39 -120l-770 10q-29 0 -72 18.5t-61 18.5zM592 420l6 14l141 4q27 4 70 17q33 10 94 22l465 15q-4 -51 -33 -121l-350 6q-119 2 -154 12l-63 19 q-43 12 -104 12h-72zM614 1309l11 14l159 6q14 0 47 6l91 25q135 37 292 37q258 0 353 -137l-666 10q-23 0 -74 19.5t-75 19.5h-138zM868 930l9 14l81 2q72 2 152 25q55 16 78 16l397 12q-23 -63 -80 -122l-307 12q-68 2 -98 12l-51 17q-31 10 -54 10z" />
<glyph unicode="4" horiz-adv-x="1388" d="M0 295l4 14l150 4q14 0 26 4l92 27q27 8 93 8l1134 13l-65 -123l-1131 14q-37 0 -59 8l-58 21q-18 6 -92 8zM68 424l6 14l153 2q2 0 4 1t23 5q6 0 56 15.5t79 15.5l1178 12l-64 -120l-1136 14q-61 0 -113 25q-27 12 -39 12zM137 551l6 12l148 4q8 0 22 4l95 27q20 6 59 6 l1165 12l-61 -120l-1108 12q-47 0 -72 8l-74 23q-18 8 -32 8h-41zM205 678l6 12l147 4q10 0 17 2l59 17l31 10q39 8 55 8l428 12l-57 -51l55 -2q51 -2 98 12q84 25 119 27l363 14l-64 -122l-327 14q-31 2 -84 20q-45 16 -64 17h-45l-80 2l-69 -62l-301 25q-20 2 -43 6 l-62 23q-25 8 -78 10zM367 805l8 14l151 2q10 0 82 23q43 14 74 14l422 12l-60 -51q18 2 41 4l89 25q14 6 61 8l358 14l-63 -120l-322 10q-25 0 -53 10l-80 27q-6 2 -41 2h-16l-62 -49l-311 12l-12 4l-23 4q-16 4 -61 23q-18 8 -35 8zM504 43l8 14l94 2q70 2 82 7l82 22 q16 4 47 8l371 13l-60 -109h-331q-23 0 -113 31q-23 8 -33 8zM524 932l6 12l150 4q10 0 25 4l88 25q25 6 51 8l422 19l-33 -29l428 22l-64 -120l-325 12q-35 2 -78 16l-29 10l-6 3l-51 -44l-250 13q-70 4 -80 8l-78 27l-30 6zM571 170l9 14l151 2l17 4l69 19q23 6 64 14 l374 15l-63 -121l-336 10q-2 0 -8 2l-37 8q-33 14 -94 29zM682 1057l8 14l148 2q10 2 12 3t17.5 3t64.5 17.5t74 15.5l723 12l-66 -123l-698 15q-12 0 -43 10l-58 18q-8 4 -43 11zM838 1184l6 14l155 4q2 0 11 2l20 4q10 2 41 13q59 18 88 18l635 12l-61 -121l-607 13 q-29 0 -88 20l-43 15q-4 2 -8 2zM993 1311l11 16h98q57 0 78 6l73 23q25 8 78 10h88h434l-55 -109l-485 13q-53 2 -65.5 3t-35.5 11l-41 19q-14 4 -26 4z" />
<glyph unicode="5" horiz-adv-x="1226" d="M-27 41l7 12l106 4q31 2 70 6l88 25q29 8 65 8l891 10q-233 -133 -625 -133q-137 0 -236 14.5t-138 26.5l-64 21q-12 4 -33 4zM41 168l8 14l148 2q12 0 26 6l92 25l23 4q23 4 33 4l979 10q-51 -63 -140 -120l-872 12q-47 0 -117 31q-10 4 -24 8zM109 295l6 14l151 2 q2 0 8 2l27 6l59 17q43 12 78 12l992 12q-33 -72 -74 -120l-955 14q-55 0 -110 27q-6 2 -35 12zM311 678l4 10l74 2q20 0 60 2q31 2 40 4l82 23q25 6 54 10l792 12q39 -43 49 -123l-829 13q-59 0 -160 35q-16 6 -22 6zM377 803l6 12l152 4q14 0 32 6q49 14 127 31l353 12h22 q264 0 346 -123l-727 15q-53 2 -133 31q-10 4 -27 8zM444 928l7 14l145 2q8 2 82 23q39 12 78 14l360 23l-72 -132l-307 15q-37 2 -114 31q-20 8 -33 8zM510 1055l10 14l154 4q8 0 22 4l101 27q23 6 37 6l854 12l-66 -121l-719 11q-63 2 -151 12l-60 20q-23 8 -37 9z M575 1182l9 14l155 4q12 0 19 2l98 27q20 6 47 6l850 14l-63 -121l-818 13q-31 0 -81 18.5t-66 18.5zM643 1307l12 16l154 4q6 0 18 2l74 23q47 14 74 14h840l-58 -113l-831 15q-27 0 -107 30q-10 6 -16 7zM664 420l8 14l151 2q10 2 33 8q100 31 127 31l483 10 q-8 -59 -32 -120l-490 14q-23 0 -59 14q-61 23 -74 23zM696 547l6 14l150 2q8 0 22 4l58 17q27 8 82 16l454 12q4 -53 5 -63q0 -8 -5 -57l-464 12q-43 2 -80 14q-51 18 -68.5 21.5t-75.5 5.5z" />
<glyph unicode="6" horiz-adv-x="1325" d="M166 420l6 12l152 4q14 0 32 6q49 14 123 31l395 14q-4 -29 -4 -32q0 -10 2 -21l101 2q35 0 53 6l74 23q18 4 49 8l465 14q-20 -63 -53 -118l-377 8q-80 2 -88 6l-84 27q-18 6 -60 6h-75q8 -31 45 -58l-459 19q-16 0 -55 10q-10 4 -32 10t-33 10.5t-28 8.5zM168 291l6 14 l154 4q4 0 12 2l20 4q4 2 37 13q57 18 105 18l432 6h6l21 -4q4 -2 18 -2q18 0 51 8l526 6q-41 -66 -90 -122l-907 12q-51 0 -110 2q-14 0 -39 8l-72 23q-10 2 -27 6zM205 547l8 12l145 4q16 0 99 25q31 8 51 10l457 25q-68 -63 -88 -131l-365 12q-41 2 -94 20q-39 14 -70 19 zM215 164l6 14l154 4q12 0 31 6q94 31 137 31l919 14q-63 -66 -137 -122l-817 12q-25 0 -113 31q-23 8 -30 8zM258 674l8 12l148 4q4 0 24 4l80 25q16 4 60 10l1040 14q14 -53 14 -120l-452 4q-25 51 -80 51t-131 -51l-412 4q-35 0 -86 20q-43 16 -80 19zM348 801l6 14 l146 2q8 0 30 6l93 25q10 6 51 6l880 14q43 -51 62 -120l-954 12q-25 0 -72 8l-78 27q-10 4 -33 4zM381 37l8 14l109 2q53 0 88 13q82 27 116 26l615 14q-188 -133 -438 -133q-166 0 -279 41q-49 18 -63 19zM453 928l6 14l149 2q12 0 78 21q57 18 92 18l494 4 q182 2 276 -113l-805 13q-14 0 -69 14l-43 17q-12 4 -33 8zM573 1055l7 14l147 2q16 0 84 19q37 10 100 20l498 14q-37 -39 -119 -120l-10 -11l-424 21q-23 2 -43 8l-65 22q-23 8 -54 9zM717 1178l6 16l156 4l96 27q41 12 67 12l521 14l-146 -123l-416 13q-29 2 -53 10 l-57 20q-16 6 -25 7h-149zM866 1307l6 16h111l41 4q18 0 18 2l93 25q45 12 84 12h503l-151 -109l-404 13q-45 2 -127 28q-8 2 -20 7zM942 547l8 12l125 4q31 2 43 4l99 27q14 4 45 8l370 12q0 -59 -18 -122l-385 14q-27 4 -41 6l-76 27q-18 4 -80 6z" />
<glyph unicode="7" horiz-adv-x="1073" d="M55 41l4 12l156 4q10 0 25 6q47 14 127 31l387 15q-18 -43 -43 -109h-357q-33 0 -73 14q-57 20 -62 21q-12 4 -43 4zM119 168l4 14h102q47 0 82 11l78 22q18 4 47 6l391 15q-23 -39 -65 -121l-344 12q-45 2 -111 29q-14 4 -37 8zM190 295l5 14l155 2q18 4 82 23 q41 14 68 14l403 14q-4 -6 -9 -15t-7 -11l-17 -25q-12 -18 -43 -71l-346 14q-29 2 -78 18.5t-71 20.5zM274 422l9 14l149 2q4 0 19 4l65 19q23 6 66 14l415 14q-4 -6 -22.5 -30.5t-52.5 -71.5l-15 -18l-344 12q-33 2 -74 16q-51 20 -77 21zM317 1057l7 14l157 2q8 2 31 8 q96 29 131 29l997 14l-133 -120l-891 10q-29 2 -120 35q-16 6 -27 6zM369 549l6 12l137 4q10 0 23 2l106 29q20 6 43 6l422 14l-102 -120l-326 10q-43 2 -90 16l-64 21q-4 2 -18 2zM383 1184l6 14l160 2q4 0 37 10q90 29 129 29l997 12l-65 -123l-981 15q-20 0 -48 10 l-38 14q-37 14 -86 15zM449 1309l10 16l153 2q6 2 21 4l67 21q47 14 142 14h930l-60 -109l-940 13q-68 0 -102 14l-43 16q-14 4 -27 5zM475 676l6 14l150 2q18 0 71.5 17.5t88.5 19.5l436 14l-115 -120l-235 6q-129 4 -162 14l-68 23q-18 6 -26 6zM594 803l8 14l148 2 q20 0 74.5 18.5t82.5 18.5l127 4l322 8l-49 -47q-20 -18 -72 -71l-336 10q-37 2 -47 6l-84 27q-18 6 -31 6zM733 930l6 12l150 4q12 0 45 10q84 25 123 27l442 14l-135 -120l-311 10q-63 2 -138 31q-16 4 -36 8z" />
<glyph unicode="8" horiz-adv-x="1300" d="M63 299l7 14l155 2q2 0 15 4q111 35 157 35h375q55 -29 96 -28q53 0 115 30l506 4q-37 -70 -82 -120l-1051 16q-23 0 -51 10l-63 23q-20 4 -35 6zM82 426l6 12l123 4q37 2 55 7l68 18q53 14 104 14h45q41 0 129 4q104 4 160 4q-25 -39 -24 -73q0 -25 20 -56l-182 13 q-31 2 -125 6t-113.5 8t-89.5 29q-16 6 -27 6zM90 170l8 16l103 2q31 0 94 11q84 27 131 26l977 11q-51 -63 -137 -123l-881 16q-23 0 -39 6l-78 27q-16 6 -37 6zM154 553l6 14h112q43 0 78 11l64 18q39 10 114 12q68 0 263 6q59 4 176 9q-123 -49 -189 -127l-327 14 q-27 2 -41 4q-6 2 -78 29q-16 6 -33 6zM199 45l4 14l153 2q6 0 21 5l92 24q20 8 43 8l748 11q-195 -137 -484 -138q-74 0 -186 15q-55 6 -98 18l-132 35h-8l-63 2zM295 678l8 14l92 2q76 2 133.5 19.5t85.5 17.5l879 10q43 -57 53 -123l-954 19q-41 0 -123 33q-16 6 -25 6z M485 932l7 14l153 2q2 0 23 4l75 23q16 4 39 6l336 25q-31 -33 -39 -62h47q90 0 144 17q33 10 102 22l352 12q-18 -61 -88 -121l-284 13q-27 2 -56 8l-59 23q-23 8 -78 8h-82v-11q0 -25 33 -47l-317 21q-49 4 -88 16l-62 21q-6 2 -16 2zM510 1061l6 12l150 2q8 0 24 4 q63 16 94 27l54 6l915 10q0 -57 -24 -121l-416 7q-29 43 -78 43q-55 0 -111 -43l-317 10q-31 0 -90 20q-47 14 -72 17zM530 805l7 14l108 2q27 0 82 8l72 21q27 8 51 8l778 10q-49 -41 -149 -77l-23 -9q23 -18 33 -34l-623 12q-63 2 -96 12l-68 23q-18 6 -26 6zM596 1186 l6 14h111q47 0 67 6l74 23q31 10 100 10l764 10q35 -57 35 -106v-17l-833 17q-35 0 -78 10q-49 10 -82 21q-20 6 -29 6zM782 1311l9 14l153 2q2 0 19 4l38 10q172 45 355 45q276 0 360 -131l-629 15q-45 2 -86 16q-53 20 -73 21zM834 422l8 14l151 2q4 0 15 4l86 23 q37 10 53 10l391 12q-16 -72 -47 -120l-311 10q-86 2 -170 35q-16 6 -25 6zM881 549l8 14l147 2q18 0 82 21q49 16 76 16l352 12q4 -16 4 -36q0 -41 -10 -84l-280 8q-86 2 -109 6t-92 31q-16 6 -23 6z" />
<glyph unicode="9" horiz-adv-x="1302" d="M236 678l4 14l139 2q14 0 29 4l96 27q23 6 84 6h12l70 2l243 2q27 -53 84 -53q59 0 127 53l523 6q-29 -61 -52 -100l-12 -20l-962 12q-113 2 -150 14l-59 21q-10 6 -33 6zM246 805l6 14l149 4q8 0 23 4l86 23q18 6 57 8l377 12q-35 -57 -35 -104q0 -14 2 -27l-360 23 q-72 4 -137 35q-14 6 -25 6zM268 41l4 16l160 2q4 0 31 9q18 6 65 18q35 10 58 10l514 13l-135 -109h-398q-35 0 -80 18.5t-73 22.5h-146zM274 551l7 14l153 4q8 0 29 6l57 17q43 12 78 12l981 10q-43 -72 -84 -120l-850 12q-102 2 -143 16l-58 21q-16 6 -28 6zM283 934 l6 12l147 4q8 0 27 4l80 23q29 8 100 10l72 2l381 12l-9 -4q-47 -23 -73 -53l139 2q2 0 8 2l27 6l55 17q29 8 57 10l33 2l371 12v-18q0 -45 -14 -105l-369 13q-63 2 -94 12l-68 23q-12 6 -31 6l-135 2q-18 -18 -43 -51l-370 12q-14 0 -43 6l-86 31q-14 4 -27 4zM367 1061 l6 12l139 2q14 0 63 15q35 10 109 22l999 8q18 -55 21 -121l-487 9q-33 8 -52 8q-10 0 -45 -6l-471 6q-12 2 -35 8l-73 27q-12 2 -31 6zM412 168l6 16l157 2q18 4 39 11q6 2 25 8q63 18 98 18l510 10l-139 -120l-410 14q-23 0 -32 6l-72 25q-12 4 -37 8zM430 424l8 14l115 2 q51 0 84 11l63 18q27 8 56 8l733 10l-16 -20q-10 -12 -23 -29l-61 -69l-5 -2l-651 14q-55 2 -131 31q-20 8 -29 8zM485 1186l7 14l153 4q6 0 23 4l57 17q55 16 133 16l760 8q43 -57 63 -123l-850 15q-84 2 -131 20q-55 23 -71 23zM551 297l8 14l156 2q14 0 37 9 q74 25 211 28l413 10l-96 -96l-12 -12q-4 -4 -13 -10l-401 12q-37 2 -78 14l-51 17q-25 8 -39 8zM674 1313l6 12l98 2q14 0 33 2h20q-6 0 82 19q16 4 56 12q137 29 284 29q72 0 138 -15q141 -31 221 -119l-639 15q-41 0 -74 12l-57 21q-6 2 -37 4zM948 801l8 14l156 4 q6 0 18 4q100 33 136 33l424 10q-14 -59 -41 -121l-398 13q-47 2 -86 16q-31 12 -75 25z" />
<glyph unicode=":" horiz-adv-x="776" d="M16 41l7 14l153 4q2 0 27 4q96 31 137 33l360 13l-57 -109h-340q-23 0 -45 8q-76 29 -88 29zM84 168l6 14h76q70 0 106 11l82 22q10 2 37 8l375 15l-66 -123l-335 12q-2 2 -15 4l-18 4q-10 0 -70 23q-23 8 -31 8zM152 295l2 14l157 4q16 0 70 19q61 20 240 20h206 l-57 -108l-332 10q-37 4 -110 33q-10 2 -23 4zM272 553l7 12l153 4q8 0 27 6q88 29 137 31l360 15l-59 -107l-322 -4q-27 0 -61 10l-88 27zM340 678l6 14l76 2q43 0 106 8l58 17q43 12 88 14l348 15l-66 -123l-319 12q-39 2 -119 31q-23 8 -33 8zM408 805l2 14l157 4 q18 0 72.5 19.5t237.5 19.5h206l-59 -108l-305 10q-55 2 -135 33q-16 6 -23 6z" />
<glyph unicode=";" horiz-adv-x="761" d="M-199 -340l6 16l154 5q8 0 84 22q37 10 64 12l268 15l-103 -109h-176q-43 0 -114 29q-20 8 -35 8zM-92 -209l6 12l152 4q10 0 30 7l72 20q33 8 57 10l269 13l-111 -121l-190 12q-25 2 -71 19.5t-67 17.5zM0 43l8 14l150 4h8l22 7l54 16q37 12 63 12l379 15l-66 -121 l-325 12q-16 0 -117 31q-23 8 -35 8zM14 -82l6 12l150 4q8 0 67.5 16.5t94.5 18.5l280 15l-112 -121l-195 12q-31 2 -75 17.5t-76 17.5zM68 170l6 14l153 4q35 10 92 27q39 8 72 10l361 15l-66 -123l-321 12q-31 2 -58 10l-53 19q-35 12 -94 12h-92zM135 297l6 14l150 4 q6 0 20 2l72 21q51 14 121 14h307l-57 -108l-314 12q-43 2 -121 29q-29 10 -40 10zM272 553l7 12l151 4q4 0 27 6q31 8 86 23q27 6 53 8l358 15l-57 -107l-317 -4q-53 0 -98.5 18.5t-57.5 18.5zM338 678l8 14l74 2q43 0 108 8l82 23q18 6 49 8l363 15l-66 -123l-321 12 q-57 2 -123 33q-14 6 -27 6zM408 805l2 14l155 4q23 0 72 19q57 20 237 20h209l-59 -108l-279 10q-82 2 -161 33q-16 6 -25 6z" />
<glyph unicode="&#x3c;" horiz-adv-x="819" d="M68 0v1366h684v-1366h-684zM82 14h655v1338h-655v-1338z" />
<glyph unicode="=" horiz-adv-x="819" d="M68 0v1366h684v-1366h-684zM82 14h655v1338h-655v-1338z" />
<glyph unicode="&#x3e;" horiz-adv-x="819" d="M68 0v1366h684v-1366h-684zM82 14h655v1338h-655v-1338z" />
<glyph unicode="?" horiz-adv-x="1187" d="M199 43l6 12l84 2q78 2 94 9l84 22q16 4 39 8l375 15l-56 -111h-333q-27 0 -113 31q-23 8 -35 8zM266 170l8 14l152 2q10 0 35 9q74 25 125 26l364 17l-65 -121l-320 10q-35 2 -123 33q-16 6 -28 6zM334 297l6 14l152 2q4 0 10 2l94 27q37 10 133 10h281l-56 -108 l-333 10q-12 2 -15 2q-14 2 -31 8l-65 23q-10 4 -78 6zM492 551l8 14l145 2q18 0 55 13q72 23 109 24l393 12q-63 -39 -125 -108h-252q-68 0 -96 10l-61 23q-16 6 -31 6zM545 1055l8 16l154 6q10 0 22 4q109 33 158 33l837 14v-22q0 -43 -14 -100l-526 6q-72 25 -154 24 q-61 0 -137 -14q-33 -6 -47 -6q-29 0 -80 19.5t-70 19.5h-151zM586 678l6 14l153 2q4 0 19 4l90 25q29 6 59 10l551 12q-53 -29 -100 -49l-64 -28l-36 -19q-8 -2 -15 -6l-22 -12q-4 -2 -17 -6l-303 10q-55 2 -80 10l-61 21q-16 6 -29 6l-57 2zM608 1182l13 18l149 2 q10 2 11 3t30 7q33 16 94 27q18 2 37 2l744 12q31 -49 36 -120l-825 12q-25 0 -57 14q-53 23 -111 23h-121zM674 1307l12 20h74q59 0 86 4q39 6 129 23q221 41 358 41q246 0 348 -135l-714 12q-35 0 -93 20q-49 16 -88 17zM741 805l9 14l147 2q10 0 31 6l47 15q51 14 92 16 l569 14q-74 -82 -166 -120l-360 8q-25 0 -78 4q-35 2 -51 8l-55 21q-14 4 -99 10zM965 930l8 16l155 2q6 0 31 8q82 27 117 29l432 14q-18 -53 -43 -90q-12 -18 -25 -30l-378 10q-33 0 -127 35q-10 2 -23 4z" />
<glyph unicode="@" horiz-adv-x="819" d="M68 0v1366h684v-1366h-684zM82 14h655v1338h-655v-1338z" />
<glyph unicode="A" d="M-150 41l7 14l157 4q10 0 78 21q43 12 72 14l436 17l-96 -111h-348q-39 0 -119 29q-20 8 -39 8zM-35 168l6 14l154 4q6 0 22 4l95 27q18 6 43 6l422 13l-105 -121l-350 12q-29 0 -76 17.5t-70 21.5zM78 295l6 14l149 2q14 0 67.5 17.5t80.5 19.5l444 23l-114 -131 l-334 14q-45 2 -121 31q-16 6 -27 6zM190 422l9 14l149 2q2 0 8 2l72 19l18 6q37 12 84 12h62l1048 12l-20 -120l-1014 10q-119 2 -137 2q-27 2 -57 14l-68 23zM301 547l8 16l113 2q43 0 63 6l90 25q20 6 52 6l1038 14l-23 -122l-1005 12q-76 0 -156 31q-16 6 -28 6z M414 674l6 14l153 4q14 0 65.5 16.5t88.5 20.5l416 10l-41 -49h37q66 0 98 10l68 21q16 4 38 6l343 16l-21 -122l-350 12q-10 2 -33 8q-90 31 -139 31h-58l-53 -62l-350 25q-12 0 -27 6q-35 14 -90 29zM526 801l6 14l150 4q8 0 27 4l88 25q12 4 45 8l411 12l-41 -49 q35 2 111 25q39 12 57 12l328 14l-20 -122l-324 12q-31 2 -51 8l-74 25q-8 4 -47 4l-45 -49l-340 12q-23 0 -59 16q-47 20 -72 21zM639 928l8 14l150 4q6 0 80 21l22 6q35 10 53 10l416 21l-29 -37q10 2 21 4l35 6q16 2 45 6l293 14l-23 -123l-280 11q-45 2 -59.5 4 t-55.5 16q-4 2 -21 6l-37 -37l-296 11q-61 2 -105 18q-59 23 -76 23zM750 1055l10 14l151 4q14 0 35 8q14 4 66 15l41 8q29 6 53 6l647 14l-20 -123l-594 11q-61 0 -140 8l-69 24q-14 6 -47 7zM864 1182l6 14l144 4q29 0 106 21q63 16 94 16l562 12l-21 -121l-506 9 q-111 2 -135 10l-65 22q-18 4 -50 9zM879 43l8 12l160 4q8 0 20 4l51 17q47 14 80 16l375 15l-19 -111h-342q-55 0 -86 10l-69 23q-2 2 -27 6zM911 168l7 14l153 4q8 0 76 21q35 10 76 16l372 13l-20 -119l-389 12q-18 0 -58 14q-12 6 -38 15q-16 8 -33 8zM942 295l6 12 l150 4q14 0 28 6l72 21q33 10 55 10l367 14l-25 -120l-368 12q-25 0 -70 18.5t-67 18.5zM977 1309l8 14l150 4q6 0 20 2l80 25q33 10 88 10h160l313 2l-18 -111l-498 13q-39 0 -59 8l-54 18q-27 10 -51 11z" />
<glyph unicode="B" horiz-adv-x="1345" d="M0 41l6 12l125 4q39 2 64 9l77 22q27 8 64 8l1001 21q-76 -57 -227 -90q-125 -27 -233 -27h-568q-41 0 -78 12l-55 19q-16 6 -37 6zM68 166l6 14l153 4q29 6 68 19q65 22 99 22h3l1086 17q-57 -70 -137 -121l-996 6q-27 0 -98 29q-20 8 -31 8zM135 293l6 16l148 2 q12 0 26 6l76 23q39 12 80 12l1088 17q-23 -57 -72 -125l-1059 10q-18 0 -39 4l-80 27q-18 6 -33 6zM201 422l6 14l153 4q16 0 48 11l45 14q29 10 43 10l393 25l-72 -138l-344 21q-6 0 -24 4l-62 23q-25 8 -92 10zM268 547l8 14l101 4q31 0 84 8l78 23q27 8 69 8l975 17 q16 -47 16 -91v-12q-2 -10 -2 -18l-1042 8q-20 0 -37 6l-82 29q-8 2 -20 2zM336 676l6 12l113 4q47 2 63 6l96 27q10 4 88 8h58l700 15q72 -20 121 -121l-950 8q-18 0 -39 4l-82 29q-16 6 -41 6zM403 805l7 12l90 2q70 2 98 10l61 19q33 10 148 12l913 19 q-119 -123 -252 -123h-4l-706 6q-96 0 -174 31q-14 6 -27 6zM469 930l6 14l150 4q14 0 26 4l86 27l37 6l383 23l-72 -136l-299 15q-10 2 -38 8q-61 16 -130 33zM535 1053l10 20l149 2q2 0 8 2l27 6q4 0 37 11q63 20 102 20l955 16q0 -53 -23 -120l-969 8q-37 0 -77 16 q-49 18 -74 19h-145zM602 1182l10 18l152 2q8 0 31 8q84 31 129 31l866 16q33 -57 33 -120l-772 6q-88 0 -197 8l-66 20q-10 4 -79 7zM670 1307l8 20l149 2q8 2 9 2l92 25q39 10 147 10h344q18 0 140 -6q98 -4 146 -24t81 -72l-805 8q-33 0 -50.5 4t-84.5 24q-20 6 -29 7 h-147zM932 424l8 14l139 4q12 0 27 4l90 25q10 2 23.5 5t33.5 5l342 13q-8 -49 -32 -119l-336 8l-21 4l-22 2q4 0 -21 6l-51 19q-10 2 -35 6zM1184 932l6 14l139 6q8 0 123 29q27 8 39 8l307 15q-27 -68 -72 -119l-245 8q-35 2 -54 8l-53 21q-16 4 -45 8z" />
<glyph unicode="C" horiz-adv-x="1232" d="M166 422l6 14l150 2q4 0 10 2l63 17l29 8q33 10 55 10l404 12q35 -86 139 -120l-561 12q-31 0 -66 13.5t-76 25.5zM182 293l6 16l136 2q8 0 18 2h12l97 29q27 8 47 8l544 12q37 -6 86 -6q109 0 222 27l-78 -143l-805 14q-23 0 -39 6l-70 25q-14 6 -59 6zM184 549l6 12 l144 4q12 2 33 4l77 25q23 6 54 8l387 14q-12 -51 -13 -71q0 -12 7 -53l-412 16q-25 0 -100 29q-14 6 -29 6zM223 676l6 12l156 4l14 4l72 21q47 14 76 14l405 10q-47 -72 -67 -123l-379 17q-23 0 -107 31q-16 6 -24 6zM233 168l9 14h94q55 0 84 8l78 23q27 8 49 8l723 15 l-64 -121l-684 12q-25 0 -47 8l-57 21q-16 6 -68 8q-8 0 -45 2zM279 805l8 12l119 2q37 0 63 8l70 21q25 8 51 8l487 14q-59 -49 -108 -108l-13 -14l-401 14q-20 0 -92 29q-14 6 -43 10zM358 930l9 14l98 2q57 2 90 10l68 19q35 10 67 10l656 10q-147 -35 -261 -118l-395 10 q-70 2 -155 33q-12 6 -21 6zM377 41l6 12l141 4q12 2 31 4l76 23q39 12 69 12l502 13l-59 -113q-6 0 -16.5 -3t-36.5 -7l-48 -9q-49 -4 -92 -4q-92 0 -180 13q-70 10 -229 49h-9q-4 2 -6 2zM469 1057l8 16h148q14 0 32 8q94 29 136 29l950 14l-76 -139q-82 25 -166 25 q-53 0 -123 -11l-471 11q-57 2 -108 4q-57 4 -74.5 7t-79.5 26q-16 6 -24 6zM612 1178l11 20l143 2q10 0 25 4l96 27q20 6 47 6l874 14l-63 -121l-817 11q-49 0 -76 10l-61 23q-10 4 -70 4h-109zM838 1305l8 18l151 4q2 0 9 2h10l229 39q133 23 281 23q174 0 336 -39 l-52 -95l-673 11q-25 0 -47 8l-66 22q-2 0 -31 7q-12 2 -37 2z" />
<glyph unicode="D" horiz-adv-x="1538" d="M0 39l8 16l152 2q6 0 20 4l78 23q41 12 64 12l1060 17q-172 -113 -448 -113h-615q-51 0 -81 10l-64 21q-18 6 -35 6zM68 168l6 14l149 2q12 0 39 9q45 14 135 30l1166 17q-33 -31 -72 -58l-74 -51l-16 -8l-8 -8l-973 12q-59 0 -75.5 2t-59.5 16l-33 11q-25 8 -37 8z M135 293l8 16l119 2q39 0 57 6l91 27q18 4 53 4l1233 21q-55 -68 -129 -125l-1112 10q-33 0 -71 11t-101 26zM203 420l8 16l135 2q20 0 62 13q12 4 41.5 13t64.5 13l373 12l-70 -129l-340 21q-37 8 -80 25q-33 12 -59 12zM270 549l6 14l148 2q6 0 35 8l78 23q18 6 38 6 l377 14l-65 -122l-338 14q-27 2 -51 12q-53 25 -74 25zM338 676l6 14l111 2q47 0 65 6l82 25q16 4 45 6l346 14h27l-64 -120h-8l-284 10q-55 2 -68 6l-80 27q-16 6 -47 6zM406 803l6 14l143 4q33 0 90 21q45 16 74 16l368 12l-16 -30q-14 -29 -49 -92l-287 12q-59 2 -90 10 l-63 23q-16 6 -35 6zM473 930l6 14l82 2q80 2 94 6l74 23q23 6 45 8l385 23l-67 -129l-13 -3l-323 15q-2 0 -11 2l-30 6l-66 23q-23 8 -57 8zM541 1057l6 14l147 2q8 0 23 4l88 25q35 10 72 10l1030 14q25 -66 28 -120l-1112 10q-10 0 -43 8l-59 23q-18 8 -70 8zM608 1186 l6 14h148l24 6l93 25l24 4q12 2 33 4l893 12q51 -51 76 -121l-987 13q-47 0 -130 31q-14 6 -30 6zM676 1311l6 16h96q53 0 135 23q51 14 97 14l510 2q193 0 301 -104l-856 8q-29 4 -39 6l-78 27q-16 6 -31 6zM954 422l7 14l151 4q12 0 25 4l53 17l27 6q20 4 53 10l518 17 q-35 -59 -88 -123l-430 10q-45 0 -74 10l-63 21q-23 8 -70 8zM1108 549l6 14l152 4q14 0 82 21q53 16 71 16l439 14q-14 -35 -54 -100q-2 -6 -12 -20l-379 10q-39 2 -90 18q-31 10 -70 21zM1202 676l8 14l152 4q12 0 70.5 18.5t83.5 18.5l391 14q-6 -27 -13 -40l-8 -19 l-14 -39q-2 -6 -10 -22l-316 8q-68 2 -100 12l-72 23q-12 6 -24 6zM1235 803l8 14l150 4q10 0 90 25q27 8 69 14l381 12q-8 -68 -24 -120l-383 12q-39 2 -107 29q-14 4 -33 8zM1241 932l6 12l152 4q2 0 92 27q37 10 72 12l372 12l4 -53q0 -18 -6 -67l-409 12q-20 0 -43 8 l-76 25q-10 4 -29 4z" />
<glyph unicode="E" horiz-adv-x="1280" d="M0 41l6 12l148 4q12 0 61 15l43 12q4 4 18 6q29 6 50 6l876 15l-57 -111h-846q-37 0 -59 8l-64 23q-16 6 -29 6zM68 168l6 12l149 4q16 0 72.5 19.5t91.5 19.5l885 15l-64 -121l-893 16q-8 2 -26 8q-59 23 -74 23zM135 295l4 12l115 4q27 0 59 4l80 23q33 10 53 10 l367 17l524 -3l-63 -120l-860 12q-16 0 -33 6l-62 23q-23 8 -100 10zM203 422l6 14l151 2q27 6 80 23q41 14 68 14l377 12l-66 -120l-332 14q-27 2 -67 16l-39 15q-14 6 -33 6zM270 547l4 14l152 4q6 0 35 8l37 11q63 18 102 18l873 16l-64 -122h-850q-25 0 -72 26 q-39 23 -67 23zM336 676l8 14h129q27 0 91.5 20.5t92.5 20.5l883 14l-65 -122l-859 12q-14 0 -36 8q-78 29 -97 29zM403 803l9 14l147 2q16 0 67.5 17.5t86.5 19.5l358 14h535l-64 -120l-741 10q-31 0 -86 2q-43 2 -58 4l-86 29q-14 4 -79 6zM471 930l6 12l152 4q8 0 26 6 q92 29 127 31l371 14l-63 -120l-336 12q-18 0 -35 6l-74 25q-10 4 -29 8zM539 1057l6 14l149 2q12 0 39 8q45 14 129 31l879 14l-64 -120h-811q-37 0 -71 12l-76 26q-18 6 -41 11zM604 1182l6 16l148 2q8 0 30 6l97 27q20 6 43 6l880 14l-65 -123l-850 13q-35 0 -74 16 q-51 20 -71 21zM670 1309l10 16l117 2q39 0 57 6l86 25q2 0 53 6q18 2 121 2h750l-54 -106l-860 10q-27 0 -94 24q-29 10 -35 11z" />
<glyph unicode="F" horiz-adv-x="1208" d="M0 39l6 14l150 4q8 0 96 27q20 6 63 12l367 15l-55 -111h-316q-39 0 -145 33q-10 4 -23 4zM68 168l6 12l145 4q43 12 125 33q25 6 43 6l363 15l-64 -123l-305 10q-55 2 -133 31q-16 8 -31 8zM135 293l6 14l152 4q10 2 39 11q78 25 112 26l373 17l-63 -121l-340 10l-6 2 l-31 6q-4 0 -15 4q-61 25 -79 25zM201 422l4 14l153 2q8 2 11.5 3t25.5 8q4 0 66 18q25 8 45 8l379 17l-64 -123l-334 12q-20 0 -43 8l-65 23q-18 6 -27 6h-28zM268 549l11 14l127 2q29 0 59 10q98 31 194 31h13l772 15l-66 -123l-829 10q-20 0 -65.5 18.5t-65.5 18.5z M336 676l6 14l152 4q14 0 86 23q45 14 79 14l852 17l-63 -121l-830 8q-27 0 -65 16q-45 18 -72 23zM403 803l5 12l157 6q10 0 27 6q88 29 121 31l370 14h494l-64 -120l-833 10q-6 0 -31.5 9t-60.5 20q-25 8 -39 10zM471 930l6 14l150 4q16 0 86 23q41 12 73 14l369 14 l-65 -122l-328 12q-25 0 -113 31q-12 4 -31 8zM539 1057l8 14l135 4q37 2 100.5 20.5t96.5 18.5l831 14l-63 -120h-496l-305 8q-41 2 -68 10l-55 18q-31 10 -43 11zM606 1184l6 14l131 4q33 2 52 6l86 25q27 8 61 8l836 16l-64 -120l-819 6q-27 4 -47 10l-53 16 q-47 14 -78 15h-111zM672 1311l8 16l100 2q61 2 78 6l70 21q27 8 84 10h69h752l-53 -102l-799 8q-47 0 -70 8l-57 20q-29 10 -74 11h-108z" />
<glyph unicode="G" horiz-adv-x="1488" d="M166 420l6 14l150 4q8 0 24 4l78 23q31 8 70 10l376 14q23 -88 103 -129l-520 19q-25 0 -56 12q-63 25 -78 25zM182 293l8 14l150 4q8 0 29 6q113 33 143 33l477 4q35 -8 64 -8q37 0 77 12l447 7l-64 -125l-1040 12q-25 0 -41 6l-74 27q-16 6 -41 6zM184 547l9 14l151 4 q14 0 82 21q53 16 74 16l381 12q-14 -51 -15 -84q0 2 4 -38l-295 10q-29 0 -86 4q-25 2 -55 6l-92 31q2 0 -10 2zM225 676l6 12l150 4q16 0 84 21q47 14 63 14l418 14q-31 -47 -63 -120l-250 8q-27 2 -81 4t-65 4q-18 2 -41 12q-59 20 -69 21zM233 168l7 14l149 2q14 0 35 6 l82 25q18 6 55 6l950 15l-65 -121l-887 10q-55 0 -78 8l-65 23q-20 6 -60 8zM279 801l6 14l149 4q2 0 10 2l25 4q4 2 36 11.5t83 19.5l483 10q-63 -47 -121 -121l-393 15q-8 2 -29 6l-73 25q-25 8 -33 8zM360 930l9 12l120 2q31 0 64 10l63 19q35 10 70 10h164l485 10 q-127 -31 -258 -121l-352 13q-84 2 -105.5 6t-78.5 27q-14 6 -27 6zM379 39l6 14l152 4q18 0 79 21q49 16 82 16l744 15l-56 -105q-88 -14 -198 -22q-137 -10 -209 -11q-182 0 -268 23l-125 33q-35 10 -90 10zM469 1057l8 14l144 2q18 0 32 6l66 19q43 12 67 12l1135 14 l-78 -147q-131 39 -289 39q-96 0 -182 -15l-616 13q-27 0 -74 19.5t-74 19.5zM614 1182l9 16h127q18 2 51 8l84 25q25 6 121 8l983 12l-64 -123l-1003 13q-43 0 -66 8l-68 25q-16 4 -24 4zM838 1309l8 14l151 4q6 0 19 2q49 6 135 21l137 24q92 16 271 17q197 0 333 -21 l56 -8q33 -4 90 -19l-45 -83l-865 8q-12 0 -57 14l-39 12q-16 4 -41 11zM965 420l6 14l137 4q8 0 20 2l99 27q27 8 49 8l369 14l-64 -118l-6 -2l-336 12q-29 2 -55 14q-53 20 -70 21zM1034 547l6 14l148 4q10 0 22 4l60 19q47 14 139 14h295l-57 -108l-332 12q-29 2 -109 31 q-23 8 -35 8z" />
<glyph unicode="H" horiz-adv-x="1562" d="M0 43l4 12l154 4q18 0 73.5 18.5t73.5 18.5l379 15l-57 -111h-312q-47 0 -90 16q-51 20 -67 21zM68 170l8 12l147 4q16 0 88 23q41 12 84 14l357 15l-66 -123l-342 14q-2 0 -12 2l-19 4q-14 2 -63 23q-20 8 -33 8zM135 295l8 16l150 2q8 0 84 23q27 8 65 14l377 15 l-63 -123l-301 12q-55 2 -78 10l-66 23q-16 6 -32 6zM203 424l8 12l147 4q25 0 58 13q59 20 88 22l387 23l-70 -129l-313 12q-47 2 -129 33q-16 6 -25 6zM272 549l7 16l139 2q12 0 92 21q51 16 100 16l1147 14l-65 -122l-1121 12q-33 0 -55 8l-76 27q-4 2 -28 2zM340 678 l4 12l150 4q14 0 26 4l66 19q49 14 82 14l1157 12l-66 -122l-1134 14q-12 0 -43 10l-62 21q-20 6 -57 8zM408 803l8 14l153 4q2 0 9 2l84 25q25 4 63 10l1165 12l-63 -122l-1131 14q-20 0 -49 10l-65 23q-16 6 -35 6zM475 932l8 14l150 2l8 2l23 4l46 14q46 15 78 17l371 12 l-72 -131l-315 23q-45 4 -113 29q-27 10 -36 10zM543 1059l6 12l139 4q8 0 17 2h10l96 27q18 6 53 8l361 12l-64 -120l-334 12q-23 0 -104 31q-10 4 -27 8zM610 1186l8 14l152 2q10 0 78 21q51 16 74 16l370 12l-63 -121l-334 13q-41 2 -70 14q-55 25 -63 25zM676 1309 l10 18l145 2q14 0 27 4l74 23q33 10 104 10h318l-60 -109l-348 15q-12 0 -43 12q-53 20 -82 25h-145zM801 41l6 16l149 2q8 0 27 4l82 23q35 10 51 10l371 15l-60 -111h-321q-35 0 -66 10l-75 25q-2 2 -17 2l-41 2zM870 170l7 12l153 4q10 0 88 25q14 4 62 12l376 15 l-65 -123l-336 12q-14 2 -41 8l-70 25q-16 6 -30 6zM938 295l6 14l105 2q57 2 79 8l68 21q31 10 55 10l371 15l-63 -121l-285 8q-72 2 -94 10l-62 23q-2 0 -39 8zM1006 422l6 14l153 2q2 2 13 4l57 15l33 10q23 8 47 8l375 14l-66 -120l-334 12q-2 0 -8 2l-29 4l-63 23 q-8 4 -57 8zM1276 930l8 14l152 4q4 0 28 4l74 23q25 8 45 8l375 14l-66 -120l-305 10q-37 2 -90 18l-45 15q-16 8 -31 8zM1346 1057l6 14l143 4q10 0 31 4l94 27q16 4 53 6l352 12l-63 -120l-313 12q-39 2 -60 8l-61 20q-31 10 -51 11zM1407 1182l8 16l154 4q18 0 80 21 q37 12 73 16l369 12l-63 -121l-330 15q-35 2 -74 14q-43 20 -61 21zM1475 1309l10 16l153 4q6 0 21 4l80 23q37 10 129 10h284l-57 -106l-319 8q-41 2 -72 14l-39 16q-25 10 -35 11h-155z" />
<glyph unicode="I" horiz-adv-x="763" d="M0 41l6 14l141 4q12 0 27 4l84 23q35 10 57 10l369 13l-57 -109h-318q-31 0 -61 8q-6 4 -35 10q-12 6 -31.5 13.5t-36.5 7.5zM68 170l6 12l123 2q43 0 100 19.5t88 19.5l367 13l-66 -123l-336 14q-20 0 -100 29q-29 10 -37 10zM135 295l8 16l152 2q6 0 20 4l91 25 q18 4 47 6l366 14l-63 -120l-326 12q-31 2 -51 8l-60 21q-29 10 -63 10zM205 424l10 14h117q39 0 59 6l84 25q18 6 43 6l371 12l-68 -120l-325 12q-37 6 -50 10l-65 23q-16 6 -31 6zM272 549l9 14l147 2q18 0 70 17l32 10q25 8 45 8l381 14l-65 -120l-326 12q-29 2 -110 31 q-23 8 -33 8zM340 676l6 12l152 4q6 0 28 6l54 15q57 16 84 16l358 12l-66 -120l-319 12q-27 2 -90 22q-47 16 -68 17zM408 801l6 14l151 4q4 0 10 2l27 6l66 19q35 10 55 10l369 12l-66 -123l-319 15q-37 2 -78 16q-61 23 -78 23zM477 930l6 12l154 4q8 0 22 4l95 27 q4 2 39 6l366 12l-65 -121l-316 13q-31 2 -87 19.5t-89 19.5zM545 1057l8 12l147 4q20 0 68 17q57 18 92 20l367 12l-64 -121l-205 9q-76 2 -174 14l-71 25q-10 4 -27 4zM612 1182l6 16l154 2q4 0 76 21q55 16 84 16l362 12l-65 -121l-316 13q-33 2 -84 18q-61 20 -75 21z M676 1309l8 16l150 2q4 0 28 4l92 27q29 8 88 8l312 -2l-56 -109l-325 13q-43 2 -72 14l-43 14q-20 10 -45 11z" />
<glyph unicode="J" horiz-adv-x="911" d="M-164 39l6 14l156 4l20 4q106 35 127 35l639 21q-127 -117 -313 -117h-346q-20 0 -45 8l-64 21q-18 8 -32 8zM-96 166l8 14l154 6h6l26 9q4 0 33 10q49 16 88 18l682 23q-51 -76 -113 -127l-598 10q-29 0 -71 16q-49 18 -72 19zM-31 295l8 14l97 2q31 0 84 8l71 23 q29 8 72 10l674 19q-27 -53 -72 -121l-633 6q-18 0 -114 27q-20 6 -62 8zM358 424l9 14l143 4q16 0 35 7l73 22q41 12 93 12h20l311 15l-65 -123l-272 8q-66 2 -83.5 5t-78.5 26q-23 8 -39 8zM426 551l8 14l115 4q45 2 57 4l96 29q12 6 35 6l373 17l-63 -121l-342 8 q-10 0 -35 8l-70 23q-18 6 -35 6zM492 680l6 12l151 4q8 2 29 6q8 2 76 21q41 10 61 12l361 19l-64 -123l-328 10q-29 0 -71 14q-63 20 -76 21zM559 807l8 14l144 4q20 0 39 6l81 25q16 6 37 6l373 19l-63 -123l-279 8q-74 2 -160 31q-25 8 -32 8zM625 934l8 14l149 4 q6 0 33 9q96 29 141 30l351 19l-62 -121l-327 6q-12 2 -54 10q-10 2 -34.5 9.5t-22.5 7.5q-20 10 -35 10zM690 1061l8 14l109 2q37 0 51 3t84 26q35 10 62 12l368 19l-61 -123l-322 8q-29 0 -51 8l-66 23q-25 8 -110 8h-72zM756 1188l8 16l151 4q12 0 31 6l68 21 q39 12 57 12l369 10l-64 -114l-329 8q-20 0 -43 8l-70 23q-12 4 -27 4zM821 1307l8 14l154 6q12 0 31 6q96 29 250 31l233 2l-53 -102l-303 6q-70 2 -133 26q-20 8 -37 9z" />
<glyph unicode="K" horiz-adv-x="1372" d="M0 41l8 14l113 2q45 0 63 6l86 25q27 8 47 8l367 15l-57 -111h-240q-117 0 -141 8l-62 21q-20 6 -41 8l-34 2zM68 168l8 14l153 4q2 0 7.5 2t25.5 5q8 2 25 8q68 20 88 20l377 17l-64 -123l-346 14q-16 0 -74 23q-12 4 -51 14zM137 295l6 14l154 4q18 0 70.5 17.5 t87.5 19.5l364 15l-26 -54l90 2q45 0 63 4l80 25q16 4 41 6l350 19l10 -123l-264 6q-131 2 -157 12l-64 23q-18 6 -78 8l-80 2l-28 -51l-340 12q-18 0 -41 8l-60 21q-23 8 -47 8zM203 422l8 14l149 4q6 0 29 6l84 23q18 6 49 8l365 15l-25 -52h31q27 0 35 2l94 27q12 4 43 6 l342 14l10 -118l-287 8q-109 4 -129 10l-69 25q-18 6 -47 6h-35l-29 -51l-260 10q-92 4 -117 12l-65 23q-16 4 -39 4zM272 551l7 10l151 6q2 0 8 2l70 19l27 8l40 8l383 21l-24 -52q20 4 22 7l58 16q18 6 39 6l342 14l10 -118l-369 10q-23 0 -100 29q-8 4 -21 4l-26 -45 l-328 14q-25 2 -35 4l-77 25q-18 6 -31 6zM344 676l6 14l152 4q6 0 20 4l96 27q14 6 52 6l714 14l11 -122l-805 20l-72 25q-16 6 -39 6zM410 805l8 14h110q45 0 64 8l80 23q33 8 102 10l762 12l-152 -120l-569 8q-129 2 -149 8l-91 29q6 0 -36 2zM475 932l6 12l154 4 q18 4 80 23q41 12 71 14l373 14l-18 -36q16 4 22 6q55 16 82 16l445 14l-150 -122l-274 10q-70 2 -92 10l-25 8q-18 6 -33 10l-29 -47l-260 17q-70 4 -91 9t-87 28q-16 6 -24 6zM541 1055l10 16l147 4q25 0 77 17.5t81 19.5l371 14l-25 -51h23q31 0 82 17.5t102 19.5l434 14 l-145 -120l-322 12q-29 2 -49 8l-65 23q-18 6 -50 6h-24l-29 -51l-338 14q-18 0 -63 16q-53 18 -72 19zM608 1186l8 12l154 4q14 4 68.5 19.5t85.5 17.5l368 14l-26 -53h55q72 0 100 8l84 25q12 4 45 8l447 14l-146 -120l-329 10q-2 0 -9 2l-36 8l-62 21q-25 8 -74 8h-18 l-66 2l-28 -56l-318 13q-16 0 -120 31q-10 4 -29 8zM674 1311l8 16l149 2q16 0 41 8q90 29 168 29h314l-58 -106l-335 12q-35 2 -68 14q-49 20 -64 21zM768 168l6 14l148 4q18 0 65 15q29 8 86 22l354 15l11 -123l-348 12q-41 2 -55.5 5t-84.5 26q-25 8 -37 8zM774 41l8 14 l150 4q10 0 31 7l77 22q25 6 52 8l348 15l8 -111h-373q-35 0 -78 16q-57 23 -71 23zM1386 1313l11 14l149 4q10 0 33 6q98 27 162 27l393 2l-127 -104l-326 10q-33 0 -77 18q-27 10 -64 21z" />
<glyph unicode="L" horiz-adv-x="1046" d="M0 41l4 12l156 6q8 0 22 4q57 16 146 33l833 15l-57 -111h-787q-47 0 -77 10l-70 23q-6 4 -27 4zM68 168l6 14l151 4q10 0 25 4l88 25q29 8 55 8l836 15l-66 -121l-788 10q-45 2 -70 10l-57 21q-16 6 -37 6zM135 295l8 14l148 4q8 0 24 4l95 27l36 6l373 12h477l-63 -118 l-690 8q-139 2 -170 12l-66 23q-16 6 -28 6zM203 422l8 14l151 2q2 0 15 4l61 19l25 6q27 6 55 10l367 12l-64 -120l-286 10q-53 2 -71 5t-85 28q-23 8 -35 8zM270 549q2 6 9 14l149 2q8 0 23 6l67 19q43 12 60 12l374 14l-63 -120l-281 10q-80 2 -104 12l-49 19 q-27 10 -54 10zM338 676l4 12l158 4q6 0 22 6q82 29 129 31l369 14l-66 -122l-338 14q-14 0 -36 8q-82 29 -95 29zM406 805l6 12l153 2q10 2 39 10q80 25 107 27l376 14l-63 -120l-199 6q-150 4 -178 14l-67 23q-18 6 -25 6zM473 930l8 14l133 2q6 0 15 2h10l90 25 q41 10 123 14l303 12l-63 -120l-293 8q-55 2 -148 33q-16 6 -33 6zM539 1057l8 14l151 2q2 0 35 8q8 2 33 11l33 10q23 8 47 8l377 14l-64 -120l-328 12q-29 2 -49 8l-71 25q-8 4 -21 4zM604 1182l8 16l152 4q23 0 70 17q59 20 88 20l366 12l-63 -121l-338 13q-41 2 -107 31 q-18 6 -26 6zM672 1311l8 14l158 4q14 0 32 8q90 29 131 29h347l-56 -106l-295 10q-84 2 -141 28q-12 4 -29 9z" />
<glyph unicode="M" horiz-adv-x="1748" d="M0 43l8 14l148 2q10 0 37 9q88 27 124 28l369 15l-59 -111h-326q-33 0 -123 33q-16 6 -28 6zM68 170l6 12l153 4q12 0 37 9q80 25 119 26l371 17l-66 -123l-231 10q-8 0 -72 2q-55 2 -133 31q-20 8 -31 8zM137 297l8 14l148 2q16 0 35 9q96 27 125 28l368 15l-65 -121 l-334 10q-25 0 -103 31q-20 8 -32 8zM205 424l6 12l151 4q14 0 29 6l74 21q35 10 53 10l371 15l-66 -123l-334 12q-10 2 -28 6l-78 25q-14 8 -47 8zM274 551l7 14l151 2q8 0 21 4l67 21q37 10 72 12l364 12l-26 -51h53q51 0 92 13q72 20 92 24l238 14l-55 -53l28 2l52 4 q16 2 86 23q31 10 51 10l375 14l-66 -122l-328 14q-27 2 -41 6l-73 25q-25 8 -82 8h-23l-47 -41l-121 2q-25 0 -41 6l-71 25q-25 8 -82 8h-47l-27 -51l-313 12q-49 2 -125 31q-20 8 -33 8zM342 680l10 12h105q43 0 57 4l88 27q16 4 37 6l389 25l-29 -60q23 0 37 4l80 23 q25 6 49 8l387 19l-55 -52q12 2 86 23q33 10 53 10l373 14l-65 -120l-338 12q-25 0 -66 17.5t-74 19.5l-53 -49l-285 12q-10 2 -30 8l-47 16q-33 12 -64 15l-29 -51l-217 8q-33 0 -86 3t-75 11l-64 23q-16 6 -31 6h-34zM410 805l6 12l147 4q10 0 23 4l76 23q35 10 75 10h80 l1258 10l-64 -120l-1298 14q-39 0 -88 18q-55 20 -76 21zM475 932l8 12l156 6q10 0 23 4q104 33 172 33h110l1200 12l-65 -122l-1297 12q-51 0 -127 31q-20 8 -32 8zM543 1057l10 16l152 2q6 0 24 6q90 31 131 31l526 12l9 -51h53q18 0 113 27q41 12 75 12l574 12l-64 -123 l-542 15q-29 0 -50 8l-63 23q-23 8 -61 8h-31l8 -58l-500 17q-102 4 -145 20q-51 20 -68 21zM610 1184l8 16l150 2q8 0 29 6l71 21q33 10 56 10l444 12l18 -121l-473 13q-39 2 -82 16l-45 17q-16 6 -36 6zM678 1309l10 18l152 2q6 2 22 6q106 31 146 31h344l14 -106l-391 12 q-16 0 -121 28q-18 6 -31 7zM985 41l8 16l152 2q4 0 24 4q47 16 129 33l373 13l-57 -109h-287q-76 0 -98 8l-68 25q-10 4 -24 4zM1053 168l8 14l151 4q23 0 72 19l27 6q16 6 53 12l375 13l-64 -121l-338 12q-14 0 -100 31q-16 6 -33 6zM1122 297l8 12l154 4q2 0 23 4 q47 16 133 33l366 12l-63 -120l-295 12q-31 2 -68 4l-80 27q-10 4 -34 8zM1188 422l8 14l156 4q6 0 18 4q100 29 135 31l369 17l-64 -121l-340 10q-27 0 -73.5 19.5t-67.5 19.5zM1477 1182l8 16l149 4q8 0 23 2l88 27q25 8 51 8l481 12l-63 -121l-445 13q-14 0 -43 6l-75 27 q-18 6 -29 6h-145zM1665 1309l6 16l150 4q8 0 30 4l70 23q31 10 166 10h246l-56 -109l-297 13q-57 2 -79 10l-60 20q-16 8 -33 9h-143z" />
<glyph unicode="N" horiz-adv-x="1587" d="M0 43l6 12l152 4q20 0 73.5 18.5t77.5 18.5l375 15l-57 -111h-291q-68 0 -96 10l-62 23q-10 2 -35 6zM70 170l6 14l149 2q2 0 11 2l30 7l43 14q39 12 72 14l143 6l228 7l-66 -121l-334 12q-23 0 -63 16q-59 23 -72 23zM137 297l6 12l111 4q29 0 78 9l69 20q25 8 50 8 l368 12l-63 -120l-336 12q-25 4 -69 20.5t-97 18.5zM205 424l10 14l119 2q41 0 65 9l70 20q25 8 109 10l280 10h31l-31 -53h86q4 0 19 2h22q18 4 45 8l68 19q23 6 59 12l555 12l-65 -122l-525 14q-16 0 -37 8q-76 29 -92 29l-139 4l-31 -53l-346 14q-18 0 -51 14 q-43 18 -70 23zM272 551l7 12l153 4q8 0 76 21q51 16 76 16l370 12l-24 -51h35q33 0 71 13q81 26 115 26h2l627 12l-66 -122l-424 10q-47 0 -141 2q-59 2 -113 22q-39 16 -57 17l-61 2l-27 -51l-14 -2l-277 14q-37 2 -86 8l-68 25q-16 6 -30 6zM342 678l6 12l152 4 q10 0 73 19q31 8 80 18l373 14l-27 -47h7q4 0 20 4q8 2 35 11l35 10q27 8 53 8l698 12l-65 -122l-656 14q-35 0 -45 4l-71 25q-10 2 -25 6l-27 -47l-340 14q-18 0 -38 8l-58 21q-18 6 -59 8zM410 805l6 14l151 2q8 0 27 6q96 31 139 31l653 12l5 -49q10 2 22 4l84 23 q18 6 49 8l369 14l-64 -120l-335 12q-20 0 -43 8l-56 18q-2 4 -24 7l4 -56l-617 19q-102 2 -127 12l-67 25q-14 6 -37 6zM477 932l4 12l154 4q10 0 22 4l91 27q33 6 59 6l569 12l4 -51h43q39 0 68 8l72 21q33 10 55 10l362 12l-63 -120l-4 -3l-311 13q-35 2 -89.5 20.5 t-93.5 18.5h-37l4 -49l-622 12q-27 0 -109 31q-23 8 -28 8zM543 1059l10 14l143 2q14 0 29 4l92 27q20 6 37 6l510 12l6 -53l115 2q47 0 74 8l73 21q25 6 51 10l365 12l-63 -120l-334 12q-25 0 -71 18.5t-71 18.5l-137 2l2 -51l-514 12q-51 2 -76 10l-63 23q-20 6 -78 8z M612 1184l11 16l84 2q74 2 88 6l71 21q33 10 62 10l426 12l10 -121l-416 11q-86 2 -155 30q-12 4 -31 9zM680 1311l8 16l148 2q6 0 26 4l76 23q35 10 109 10h296l11 -109l-389 13q-27 0 -84 22q-43 16 -62 17zM846 295l10 14l148 2q8 0 73 21l27 8q25 8 55 8l486 14 l-64 -120l-440 12q-37 0 -117 31q-16 6 -27 6zM856 168l4 14l152 4q18 0 76.5 17.5t97.5 19.5l391 13l-66 -121l-358 12q-39 2 -119 31q-23 8 -33 8zM866 43l8 12l148 4q18 0 72 17q66 20 90 20l325 13l-57 -109h-268q-70 0 -127 25q-27 12 -39 12zM1432 1184l6 14l155 2 q4 2 11 2l24 6l66 21q23 8 49 8l373 14l-66 -123l-321 15q-33 2 -72 16q-57 23 -78 23zM1503 1309l6 14l154 6q6 0 23 4q111 33 204 33h285l-57 -109l-297 11q-74 2 -133 28q-23 10 -31 11z" />
<glyph unicode="O" horiz-adv-x="1710" d="M166 420l8 16h102q47 0 97 15l63 18q12 4 45 8l377 12q8 -53 29.5 -79.5t75.5 -49.5l-514 21q-12 0 -29 6l-74 25q-25 8 -76 8h-104zM184 295l4 12l138 4q25 0 36 4l97 27q4 4 33 6q10 2 24 2l494 2q18 -2 43.5 -5t31.5 -3q29 0 113 14l664 9q-31 -41 -123 -123l-1268 10 q-16 2 -45 8l-68 25q-10 2 -51 4zM186 549l9 14l139 2q12 0 35 6l96 27q10 2 43 4l371 14q-20 -61 -21 -106v-16l-344 12q-66 2 -125 24q-37 14 -47 15zM225 676l6 14l150 2q14 0 78 21q43 14 80 18l411 12q-41 -59 -69 -120l-318 10q-72 2 -94 10l-66 23q-23 8 -36 8z M238 168l4 12l90 4q37 2 102 11q49 14 129 28l1170 15q-57 -49 -177 -123l-1019 12q-37 0 -123 31q-16 6 -29 6zM281 803l6 14l143 2q18 0 33 6l86 25q35 10 59 10l457 10q-74 -68 -109 -120l-335 10q-76 2 -162 33q-23 8 -33 8zM360 932l9 12l151 4q6 0 21 4l77 23 q33 10 54 10l633 19q-139 -49 -230 -127l-413 12q-39 2 -119 31q-14 4 -39 8zM381 41l6 14l127 2q35 0 53 6l74 23q18 10 61 10l842 15q-252 -137 -569 -138q-166 0 -273 27l-131 33q-14 4 -34 4zM471 1057l8 14l90 2q68 2 97 10l75 23q18 6 62 6l1278 14q23 -61 26 -122 l-565 6q-70 10 -115 10q-41 0 -98 -8l-569 6q-29 0 -45 6l-66 23q-23 8 -33 8zM614 1184l15 16l141 2q16 0 41 8l39 13q51 16 88 16l1057 14q57 -59 82 -120l-1162 10q-29 0 -84 19.5t-75 19.5zM840 1311l10 16l172 4q41 0 161 21.5t175 27.5q80 8 180 9q317 0 451 -132 l-842 13q-51 0 -92 16l-43 17q-14 4 -31 4zM1096 422l8 14l147 4q18 0 37 6l39 13l25 8q12 4 55 10l549 15l-21 -31l-20 -31q-27 -39 -47 -57l-486 8q-29 0 -63 16q-61 20 -72 21zM1249 549l6 14l127 2q31 0 64 10l61 19q31 10 58 10l463 14q-23 -45 -68 -122l-414 12 q-39 0 -112 29q-20 8 -31 8zM1346 678l6 12l151 4q12 0 33 8q10 2 33 9l78 18q14 0 24 2l406 14q-25 -76 -49 -122l-355 12q-25 0 -74 8q-94 29 -114 29zM1378 803l2 14l154 4q8 0 41 10q78 25 141 27l387 14q-12 -76 -24 -122l-398 12q-45 2 -116 26q-29 10 -39 11z M1380 930l6 14l146 4q14 0 39 8q86 27 141 29l395 12q2 -23 2 -49q0 -8 -4 -69l-438 12q-20 0 -31 4l-75 25q-23 8 -62 8z" />
<glyph unicode="P" horiz-adv-x="1335" d="M0 41l6 14l154 4q12 0 30 7q86 27 115 30l377 13l-57 -109h-306q-47 0 -77 10l-66 23q-16 6 -41 6zM68 170l6 12l133 2q27 0 45 6l88 27q16 4 49 6l361 13l-64 -121l-311 12q-47 2 -64 8l-61 23q-14 6 -35 6zM135 295l10 14l111 2q33 0 48 3t91 26q23 6 49 10l375 12 l-65 -122l-330 14q-18 0 -47 10l-62 21q-25 8 -36 8zM203 422l6 14l156 4q18 0 59 15l37 12q27 8 55 10l375 21l-68 -127l-327 10q-29 0 -111 31q-16 6 -31 6zM268 549l11 14l129 2q31 0 51 8l82 23q20 8 55 8l930 12q-72 -50 -188 -84q-110 -33 -195 -32h-10l-558 8 q-37 0 -65 10l-74 25q-10 4 -53 4zM340 676l6 14l150 4q10 0 24 4l66 19q49 14 86 14l999 14q-47 -53 -90 -88l-18 -14q-18 -14 -29 -20l-911 12q-16 0 -39 8l-66 23q-16 6 -31 6zM408 803l4 14l153 4q10 0 29 6q94 31 139 31l1022 14q-33 -70 -80 -120l-966 10 q-49 0 -121 31q-18 8 -33 8zM475 932l4 12l150 4q10 0 30 6l74 21q27 8 39 8l387 21l-69 -134l-328 19q-27 2 -47 10l-70 23q-12 6 -27 6zM543 1059l8 14h133q16 0 37 6l78 23q33 10 67 10l944 14q2 -23 2 -47q0 -35 -8 -75l-952 12q-57 0 -129 31q-12 4 -31 8zM608 1184 l8 14l103 2q53 2 72 6l77 23q33 10 72 10l825 12q37 -61 43 -121l-897 13q-33 0 -86 19.5t-73 19.5zM676 1311l8 16h113q43 0 112 21q61 18 152 18h438q184 0 260 -106l-801 12q-27 0 -61 14q-57 23 -68 23zM1188 930l8 16l141 2q12 2 13 2l26 4q8 2 31 11q61 18 86 20 l309 14q-12 -70 -45 -122l-278 12q-25 2 -39 6l-72 25q-12 4 -61 6z" />
<glyph unicode="Q" horiz-adv-x="1708" d="M166 416l8 14l145 2q18 0 93 25q37 12 88 14l358 12q8 -53 28.5 -79.5t74.5 -49.5l-500 21q-31 2 -74 16q-57 20 -78 21zM182 289l6 12l154 6q8 0 25 4l67 19q49 14 125 14l432 4q59 -8 96 -8t97 8l884 8l-96 -118l-1489 10q-37 0 -53 6l-72 25q-23 8 -34 8zM186 543 l4 12l154 4q10 0 29 6q94 29 129 31l377 14q-20 -57 -21 -121l-356 11q-59 2 -133 30q-20 8 -33 9zM225 670l6 14l152 2q6 0 20 4q55 16 138 35l407 12l-12 -22q-33 -47 -55 -101l-308 11q-35 2 -180 37q-10 4 -20 4zM236 162l4 12l153 4q6 0 25 6q104 33 133 33l1413 12 l-104 -120l-1315 10q-41 0 -64 8l-67 25q-16 6 -31 6zM279 797l6 12l151 4q10 0 25 6q106 33 133 33l471 10q-8 -8 -25 -22q-49 -47 -86 -97l-389 13q-29 0 -59 12q-61 23 -84 27zM360 926l9 12l135 2q18 0 117 27q37 10 51 10l633 20q-117 -41 -232 -129l-432 15 q-16 0 -33 6l-71 24q-23 8 -33 9zM377 35l8 14l143 4q12 0 35 4l90 27q20 6 47 6l1158 14l-91 -110l-432 -2q-98 0 -159 -8l-17 -2q-66 -8 -198 -9q-86 0 -170 11q-43 4 -101 14l-121 29q-6 2 -24 2zM471 1051l4 14l154 2q8 2 28 8q102 31 138 31l82 -2l1198 14 q16 -51 24 -123l-557 6q-86 12 -123 13q-37 0 -92 -13l-477 7q-115 2 -139 10l-70 24q-4 2 -11 4.5t-9 2.5zM614 1178l9 14l153 4q45 10 117 27q39 8 61 8l1039 14l4 -6q51 -53 76 -117l-1158 15q-76 0 -151 39zM840 1305l8 14l133 2q47 0 90 8l215 37q96 16 244 16 q186 0 291.5 -36.5t165.5 -94.5l-846 11q-33 0 -82 18q-55 20 -72 20zM1094 416l6 12l151 4q10 0 31 6q43 14 125 31l520 14q-43 -63 -100 -125l-424 15q-39 0 -74 12l-61 21q-14 4 -56 6zM1245 541l10 16h121q27 0 37 4l105 29q18 6 49 6l436 12q-31 -66 -72 -119l-385 11 q-37 0 -96 22q-45 16 -66 17zM1343 670l11 14l125 2q29 0 49 6l74 21q37 10 100 12l356 12q-16 -53 -49 -123l-364 15q-45 2 -80 13t-76 24zM1376 797l6 14l152 2q20 0 73.5 18.5t80.5 18.5l403 12q0 -8 -4 -20l-2 -19q-4 -18 -25 -80l-383 11q-41 2 -116 28q-27 10 -39 11z M1378 924l6 12l152 4q10 0 31 6l84 25q18 6 43 6l405 14v-47q0 -27 -6 -76l-410 15q-41 2 -67 10l-55 18q-25 8 -33 9z" />
<glyph unicode="R" horiz-adv-x="1454" d="M0 43l6 14l125 2q33 0 66 11l69 20q16 4 47 6l369 15l-57 -111h-281q-72 0 -125 18q-33 10 -88 23zM68 172l6 12l129 2q27 0 53 9l72 20q6 2 57 10l367 13l-66 -123l-328 14q-23 0 -53.5 10.5t-60.5 20.5q-16 6 -27 6zM137 297l8 14l142 4q10 0 28 4l91 25q27 8 53 8 l360 10l-65 -120l-305 12q-51 2 -101.5 21.5t-91.5 19.5zM201 424l10 14l149 4q8 0 25 4l84 23q27 6 47 8l375 21l-31 -60h109q47 0 84 11l65 18q27 8 39 8l309 12l47 -120l-278 10q-23 2 -66 4q-27 0 -73 8l-66 23l-20 6q2 0 -11 2l-147 2l-31 -53l-284 12q-76 4 -122 21.5 t-69 17.5zM272 551l7 12l153 4q29 6 90 25q41 12 66 12l977 12q-59 -37 -121 -65l20 -55l-893 12q-18 0 -43 8q-6 0 -32.5 9.5t-32.5 9.5q-12 6 -39 12zM340 678l8 14l152 4q16 0 35 6q92 29 114 29l1065 10q-70 -80 -145 -123l-916 17q-39 0 -73.5 12t-69.5 23q-12 4 -21 4 zM410 807l6 12l147 2q4 0 25 4q55 16 125 33l1087 10q-47 -86 -84 -120l-1036 16q-10 0 -27 6l-16 6l-57 21q-16 6 -29 6zM477 932l4 12l152 4q12 2 59 15q27 10 76 20l395 25l-71 -140l-351 25q-18 2 -47 12q-57 23 -67 23zM545 1059l6 14h123q33 0 67 10l76 23q18 6 68 6 l970 10q0 -12 3 -26v-19q0 -37 -11 -76l-1018 17q-18 0 -49 8l-63 25q-14 6 -35 6zM612 1186l6 14h119q41 4 58 8l88 25q23 4 49 6l880 10q33 -61 41 -121l-940 17q-61 2 -101 19.5t-50 17.5zM680 1313l8 14l146 2q16 0 36 6q102 31 177 31h460q231 0 301 -111l-819 15 q-43 0 -82 14l-53 19q-16 6 -27 6zM893 297l6 12l148 4q14 0 49 11l59 16q12 4 33 8l325 14l48 -122l-289 10q-92 4 -117 8q-14 2 -82 27q-16 6 -29 6zM930 170l6 12l154 4q4 0 14 2l88 25q18 8 41 8l332 15l47 -121l-344 10q-82 2 -150 31q-14 4 -35 8zM967 41l8 16l151 2 q2 0 9 2l82 23q2 0 18 5t31 5l348 15l41 -109h-393q-33 0 -113 31q-14 6 -29 6zM1188 930l8 14h111q51 0 94 14l55 19q16 4 45 8l346 12q-12 -68 -47 -125l-334 15q-23 0 -47 10l-53 21q-27 6 -63 8z" />
<glyph unicode="S" horiz-adv-x="1159" d="M-96 39l6 12l147 4q20 0 97 25q31 10 67 14l928 15q-121 -76 -254 -107t-344 -31q-225 0 -352 31l-119 29q-14 4 -39 4zM-29 166l9 12l145 4q53 18 166 39l1001 19q-41 -51 -112 -109l-11 -8q-2 0 -8 -6l-866 8q-61 0 -84 8l-64 23q-14 4 -51 6zM39 293l6 12l141 4 q18 0 33 6l94 27q20 6 45 6l1022 19q-33 -61 -84 -125l-970 10q-27 0 -109 29q-23 8 -33 8zM338 928l8 14l131 2q25 0 92 21q61 18 78 18l443 16q-10 -18 -11 -32q0 -41 78 -78q12 -4 29 -12l-504 10q-86 2 -168 31q-16 6 -27 6zM342 801l6 14l141 2q20 2 97 25q47 14 71 14 l543 16q123 -51 168 -120l-727 8q-35 0 -78 16q-51 20 -84 21zM377 1053l6 16l147 4q8 0 31 4l88 27q18 6 47 6l897 18l-69 -131l-41 15q-100 35 -215 35q-111 0 -170 -41l-371 8q-92 2 -129 16q-57 23 -74 23h-147zM449 674l6 14l118 4q39 2 72 10l76 21q20 6 37 6l616 16 q41 -55 49 -120l-667 8q-45 0 -103 22q-20 8 -63 17zM469 1178l8 18l152 4q8 0 28 6l82 25q18 6 47 6l875 20l-68 -122l-825 8q-27 0 -45 6l-80 27q-6 2 -16 2h-158zM643 549l6 12l150 6q6 0 20 2l86 25q27 8 49 8l471 16q4 -45 5 -53q0 -29 -9 -67l-471 8q-47 0 -125 31 q-20 8 -34 8zM653 422l6 14l150 2q23 4 88 25q29 8 68 14l456 17q-10 -66 -41 -123l-438 10q-35 0 -106 29q-20 8 -29 8zM655 1311l9 14h106q41 0 205 29q223 39 395 39q188 0 336 -50l-43 -81l-705 8q-43 0 -65 8l-55 18q-35 12 -74 13z" />
<glyph unicode="T" horiz-adv-x="1173" d="M205 43l8 14l152 2q10 2 34 9q97 30 118 30h1l371 13l-60 -111h-329q-33 0 -81 19.5t-79 19.5zM272 170l7 12l151 4q4 0 37 9q78 27 121 28l368 15l-65 -123l-262 10q-29 2 -68 4q-20 2 -43 6l-69 25q-14 6 -43 6zM340 297l8 12l152 4q2 0 6 2h6l59 17l29 10q12 2 45 8 l379 12q-41 -80 -59 -112l-7 -8l-241 8q-25 0 -72 4q-35 2 -47 6l-84 27q-10 2 -25 6zM410 424l6 14h147q16 0 76 21q51 16 80 18l373 15l-64 -121l-326 10q-39 2 -114 31q-20 8 -31 8zM430 1055l10 18l144 2q39 10 114 29q31 8 56 8l956 14l-63 -125l-908 15q-45 0 -125 28 q-29 10 -39 11h-145zM477 551l6 14l142 2q27 0 84 18.5t86 18.5l364 12l-65 -122l-234 10q-100 4 -118.5 7t-88.5 28q-23 8 -32 8zM498 1184l8 16l149 2q10 0 25 4l94 27q20 6 49 6l955 14l-64 -120l-889 8h-15q-36 0 -62 8l-70 22q-16 6 -55 9zM545 678l4 12l121 2 q39 0 65 8l78 23q27 8 43 8l371 12l-66 -122l-207 10q-113 6 -135 8t-53 12q-57 20 -74 21zM561 1309l10 18l152 2q10 0 25 4l96 27q16 6 49 6h944l-57 -106l-916 10q-39 0 -76 14l-49 19q-10 4 -24 4zM612 803l9 16l147 2q39 10 98 25q39 10 60 10l368 14l-63 -120l-270 10 q-90 4 -162 31q-27 10 -43 10zM680 932l8 14h146q2 0 94 25q23 8 65 14l371 12l-66 -120l-329 12q-29 0 -49 8l-62 23q-20 8 -45 8z" />
<glyph unicode="U" d="M166 291l8 14l152 4q14 0 84 23q51 16 77 16l437 6h6l43 -10q8 -2 37 -2q45 0 100 14l481 6q-41 -70 -75 -120l-1061 10q-31 0 -68 14q-29 10 -74 23zM184 166l6 12l111 2q41 0 74 10l78 23q12 4 45 8l1011 15q-55 -72 -118 -121l-918 10q-27 4 -41 6l-78 27q-18 4 -37 4 zM199 418l6 12l151 6q4 0 78 21q49 14 90 16l334 14q-12 -37 -12 -51q0 -45 65 -76l-438 21q-37 2 -88 22q-25 10 -33 11zM246 545l8 14l149 2q4 0 17 4q49 16 137 35l367 14l-64 -122l-338 12q-25 4 -100 31q-8 2 -21 6zM285 41l6 12l153 2q2 2 13 4l69 19l19 6 q29 10 59 10l778 17q-170 -137 -518 -138q-215 0 -348 39l-70 21q-12 4 -22 4zM313 672l6 12l103 2q53 2 76 8l73 23q31 10 56 10l364 12l-63 -121l-314 13q-35 2 -92 20.5t-96 18.5zM381 799l4 12l154 4q27 6 75 21.5t80 17.5l365 14l-64 -120l-331 12q-29 2 -37 4l-66 22 l-26 9q-4 0 -9 2zM446 924l9 14l153 6q10 0 27.5 6t58.5 17.5t72 13.5l360 12l-63 -121l-338 13q-18 0 -59 16q-53 20 -72 21zM514 1051l8 16l148 2q37 8 90 25q35 12 57 12l375 16l-62 -123l-325 13q-25 0 -100 26q-29 8 -46 9zM578 1178l10 16l151 4q12 0 88 23 q39 12 60 12l373 14l-66 -121l-307 13q-70 2 -123 26q-23 10 -33 11zM645 1305l8 16l97 2q29 0 96 10l72 19q55 14 77 14h324l-55 -113l-297 11q-53 2 -101 18q-57 20 -71 21zM975 420l8 14l150 4q25 0 76 16.5t77 18.5l373 16l-64 -120l-329 10q-31 0 -68 16q-53 23 -74 23 zM1042 547l11 14l145 2q16 0 71.5 17.5t86.5 21.5l368 12l-61 -118l-324 10q-23 0 -49 6l-78 27q-10 6 -61 6zM1112 674l6 14l86 -2h14q42 0 76 10l68 21q29 8 59 10l371 16l-63 -120h-21l-319 10q-4 2 -9 2l-28 6l-56 18l-28 9q-4 2 -8 2zM1180 801l4 12l141 2q20 0 107 27 q27 8 51 12l377 16l-66 -122l-297 10q-51 2 -76 10l-73 25q-10 4 -27 4zM1245 928l8 12l148 4q2 0 90 25q41 12 63 12l371 16l-63 -120l-263 8q-20 0 -61 2q-16 2 -41 6l-78 25q-10 2 -28 6zM1309 1051l8 16l151 4q12 0 25 4l82 25q25 8 43 8l373 16l-64 -120l-336 10l-30 6 l-74 27q-20 4 -31 4h-147zM1376 1178l6 18l156 2q4 0 88 25q37 10 68 12l362 16l-61 -121l-340 11q-10 2 -33 8q-78 29 -90 29h-156zM1442 1305l8 18h119q33 0 61 8l72 21q51 14 217 14h197l-56 -111l-270 11q-74 2 -90 8l-74 24q-18 6 -39 7h-145z" />
<glyph unicode="V" horiz-adv-x="1398" d="M254 41l4 12l154 4q14 0 32 6q43 14 125 31l529 15l-88 -109h-451q-39 0 -90 18.5t-80 18.5zM283 168l8 12l149 4q14 0 31 9q103 30 126 30h1l604 10l-100 -120l-533 14q-31 0 -45 8l-69 25q-14 4 -29 4zM311 295l6 12l152 4q10 0 29 6q109 33 200 35l611 10l-103 -122 l-497 12l-230 35q-8 4 -16 4zM340 422l8 12l152 4l10 2l74 23q45 14 80 14l749 12l-100 -122l-692 14q-31 4 -50 10l-57 21q-6 4 -22 4zM369 547l6 16l149 2q10 0 69.5 17.5t88.5 19.5l332 14l-8 -34q80 20 96 20l416 14l-101 -120l-330 10q-35 2 -94 22l-12 -41l-342 23 q-10 0 -27 6l-61 21q-23 8 -49 8zM397 676l9 12l147 4q4 0 10 2l27 6q6 4 45 15q47 14 70 14l342 14l-13 -49q35 0 80 15q61 18 98 20l408 12l-98 -120l-355 14q-6 0 -12 2l-25 6l-63 23q-10 2 -39 6l-12 -49l-338 12q-31 2 -103 31q-14 6 -26 6zM426 803l6 12l105 2 q53 2 71 8l74 21q33 10 104 12l293 12l-14 -51h35q57 0 86 8l69 21q33 10 56 10l415 12l-100 -122l-348 14q-20 0 -37 6l-88 29q-6 2 -68 2l-22 2l-14 -53l-342 14q-12 0 -43 8l-54 21q-23 8 -88 10zM453 930l8 14l143 2q20 0 39 6l86 27q12 2 41 6l340 12l-14 -55l147 4 q16 0 37 8l63 15q27 8 78 16l408 14l-98 -120l-349 10q-27 0 -49 8l-61 21q-31 10 -68 10h-110l-15 -54l-295 13q-63 2 -86 10l-71 25q-10 4 -25 4zM483 1055l6 18h150q6 0 27 6q47 16 131 33l346 12l-31 -120l-346 12q-23 0 -53 12q-57 23 -78 23zM512 1182l8 16l152 4 q16 0 33 6l36 13l27 8q25 4 57 10l351 12l-31 -121l-361 15q-31 2 -92 22q-35 12 -51 13zM535 1309l10 16l135 2q14 0 59 12q129 27 144 27h319l-24 -109l-328 11q-35 0 -78 12l-65 18q-18 8 -37 9zM1188 1057l8 14l150 2q12 0 26 6l96 27l37 6l428 12l-98 -118l-346 10 q-37 2 -111 26q-35 12 -53 13zM1288 1182l8 16l150 4q8 0 22 2l101 29l37 6l430 12l-99 -121l-374 17q-31 2 -90 24q-14 4 -33 9zM1391 1309l6 16l168 4q18 0 41 4l102 29q14 4 51 4h369l-84 -106l-363 12q-39 2 -65 12l-39 16q-20 6 -35 7z" />
<glyph unicode="W" horiz-adv-x="2164" d="M254 51l8 12l150 3q4 0 18 4l64 18q47 14 73 14l449 13l-80 -115h-352q-47 0 -88 16q-72 29 -134 31zM283 176l6 14l155 3q8 0 23 4q80 23 111.5 27.5t126.5 6.5l405 9l-90 -121l-432 12q-25 0 -123 33q-25 8 -39 8zM313 303l11 14l137 -2q10 0 43 11q95 30 151 30h4h35 l510 9l-37 -52h111q27 0 31 2l84 23q23 12 65 12l600 8l-102 -120l-443 14q-102 4 -116 8l-76 25l-29 8q2 0 -8 2l-131 2l-39 -53l-500 14q-31 0 -63 12l-64 23q-2 0 -34 6zM344 428l6 14l150 2q12 0 39 9q89 28 134 28h3l622 11l-36 -52h61q23 0 57 11q81 24 120 24h3 l660 8l-101 -118l-610 16l-31 8l-67 23q-25 8 -72 8h-35l-41 -49l-565 14q-10 0 -121 33q-12 4 -33 8zM375 555l6 14l149 2q14 0 76 18.5t90 18.5l695 8l-35 -49q23 0 104 23q43 12 70 12l737 8l-100 -121l-662 17q-25 0 -69 16q-57 20 -97 23l-39 -49l-638 16 q-25 0 -73 19.5t-71 19.5zM403 682l7 12l143 2q14 0 35 6q104 33 155 33l308 6l-9 -34q20 2 27 6l41 10q29 8 49 8l332 17l-31 -43q16 4 21 6l41 10q20 4 45 6l276 12l-8 -37q55 25 98 25l439 8l-101 -119l-362 15q-29 2 -68 14q-8 0 -20 6l-13 -39l-229 17q-68 4 -127 24 q-6 4 -25 9l-34 -41l-246 14q-45 2 -117 27l-10 -44l-301 19q-57 4 -98 18q-29 10 -76 23zM432 809l8 12l90 2q76 2 86 6l91 25q14 4 67 6l311 12l-12 -51q25 0 53 8q88 27 131 27l619 10l-12 -51q37 2 67 12q74 25 107 25l438 10l-98 -119l-355 13q-41 2 -85 18.5t-80 20.5 l-13 -50l-573 15q-72 2 -94 10l-74 27l-37 4l-14 -53l-289 14q-70 4 -146 33q-8 2 -36 10zM463 934l10 14h94l23 2l37 2q16 0 28 6l68 19q16 4 45 10l350 10l-12 -51h53q39 0 68 8l78 23q20 6 51 6l555 8l-17 -53l39 2l56 2q18 6 90 27q25 8 53 8l448 10l-98 -119l-258 11 q-68 2 -164 14l-73 25q-4 2 -21 2l-49 2h-25l-16 -52l-502 17q-74 2 -86 6l-82 27q-25 8 -41 8h-65l-15 -51l-342 16q-23 2 -64.5 18.5t-64.5 16.5zM489 1059l9 16h94q57 0 86 8l80 23q18 4 47 6l346 12l-12 -53l147 2q14 0 29 4l67 19q43 12 66 12l496 10l-15 -51l80 -2 q16 0 47 2l47 4l78 23q33 10 55 10l449 10l-98 -121l-381 17q-12 0 -109 32l-18 5h-6l-148 4l-12 -54l-389 13q-125 4 -154 14l-61 23q-20 8 -60 8l-114 2l-15 -53l-348 14q-49 18 -129 37zM518 1186l8 16h156l8 4l37 8q4 2 23 7q31 8 79 18l355 12l-31 -121l-332 15 q-43 2 -80 16q-51 20 -71 21zM547 1313l6 14h117q33 0 80 12q100 27 131 27h331l-26 -109l-355 15q-23 0 -66.5 18.5t-64.5 18.5zM1075 45l6 12l152 4q8 0 22 5q103 30 132 30h2l458 13l-90 -109h-368q-43 0 -95 18l-34 13q-29 10 -35 10zM1108 172l8 12l117 2q43 0 70 9 q80 23 99 26.5t68 3.5l482 8l-99 -120l-448 16q-31 2 -80 19.5t-70 17.5zM1227 1182l8 14l82 2h51q33 0 74 12q80 25 112 25l422 10l-30 -121l-424 15q-31 2 -68 14t-78 25zM1321 1305l8 18l158 2q23 4 96 25q61 16 225 16h197l-27 -115l-348 13q-39 2 -69 12l-56 20 q-16 6 -30 7zM2021 1176l7 14l149 4q10 0 33 6l84 23q29 8 45 8l452 10l-100 -121l-371 15q-51 2 -94 18q-53 20 -92 21zM2118 1303l8 14l186 4q8 0 25 4l69 21q72 20 123 20h355l-88 -121l-381 17q-14 0 -99 22q-45 14 -98 16z" />
<glyph unicode="X" horiz-adv-x="1466" d="M-109 47l7 12l153 2q18 4 78 21q39 14 72 16l454 15l-108 -113h-314q-74 0 -155 31q-27 10 -35 10zM25 174l6 12l159 4q12 0 34 7.5t73 21.5q31 6 55 6l428 13l-118 -121l-357 14q-25 0 -67.5 18.5t-65.5 18.5zM160 301l6 12h139q10 0 33 6l94 27q18 6 49 6l422 10 l-47 -51h47q78 0 137 17q78 20 107 22l328 12l2 -120l-361 12q-27 0 -37 4l-73 25q-37 12 -119 12h-47l-54 -51l-346 12q-45 18 -131 39zM293 424l4 14l152 4q6 0 26 4l84 25q12 4 45 8l432 19l-51 -56h6q2 0 23 4q4 2 65 19q20 6 64 12l327 12l5 -122l-355 14q-31 2 -78 18 q-35 12 -81 19l-52 -49l-329 14q-16 2 -45 8l-66 25q-16 6 -33 6zM424 551l8 14l146 4q10 0 28 4l70 19q33 12 69 12l723 12l2 -122l-741 14q-41 0 -94 20q-25 10 -92 21zM559 680l6 12h107q45 0 80 10l77 23q18 6 48 6l626 12l-37 -36l2 -84l-602 12q-43 0 -86 16 q-61 23 -73 23zM600 1311l10 18h142q14 0 34 6l82 25q20 6 74 6h320v-109l-363 13q-37 2 -82 18q-53 20 -69 21zM602 1059l8 14l154 2q2 0 14 4q104 31 148 33l338 12v-49q29 0 49 8q88 27 123 27l442 12l-119 -121l-350 15q-45 2 -76 16q-43 14 -67 19v-56l-369 21 q-35 2 -51 8l-66 25q-20 8 -37 8zM602 1186l8 14l113 2q51 0 103.5 17.5t95.5 19.5l342 12v-53h41q88 0 127 10l55 15q29 8 90 16l428 10l-121 -121l-352 15q-29 2 -43 6l-72 25q-25 8 -98 8h-55v-52l-326 13q-88 4 -160 31q-10 4 -24 8zM604 805l6 14h117q33 0 119 23 q61 16 80 16l702 10l-119 -120l-614 14q-29 0 -70 16q-55 23 -82 23zM604 932l6 14l150 2q10 0 22 4l60 19q43 14 96 14l815 12l-119 -123l-712 15q-55 2 -103 18l-45 17q-14 4 -24 4zM819 43l4 12l154 4q16 0 86 23q25 8 63 14l353 13l2 -109h-330q-72 0 -150 31 q-20 8 -30 8zM821 170l6 14h99q61 0 94 11l67 20q25 8 46 8l344 15l2 -123l-365 12q-27 0 -77 19.5t-74 19.5zM1368 1309l8 16h115q25 2 57 6l94 27q29 8 132 8h342l-105 -109l-264 9q-106 4 -135 12l-72 22q-10 2 -27 7z" />
<glyph unicode="Y" horiz-adv-x="1308" d="M283 45l6 12l153 4q2 0 27 5q47 16 129 32l367 11l-58 -109h-313q-82 0 -135 29l-25 12zM350 172l8 12h101q45 0 73 9l80 22q20 6 56 10l366 11l-65 -121l-338 14q-23 0 -68 17.5t-123 21.5zM418 297l8 14l147 2q8 0 23 4l92 27l23 4q6 2 32 2l357 12l-64 -120l-303 12 q-57 2 -88 14l-53 21q-8 2 -27 6zM485 424l11 14l147 2q4 0 10 2l64 17l24 8q14 4 54 10l374 12l-65 -120l-260 10q-92 4 -117 12l-63 23q-4 2 -101 8zM496 1311l10 16l123 2q35 0 47 4l67 21q41 12 152 12h225l8 -111l-325 15q-53 2 -88 16l-41 17q-2 0 -29 6zM510 1186 l8 14l144 2q12 2 14 2l90 27q16 4 41 6l319 14l7 -123l-338 17q-4 0 -136 33q-12 4 -18 4zM520 1059l6 14l142 2q12 0 24 4l68 21q29 8 57 10l316 14l4 -53h28q84 0 117 10l45 15q43 14 74 14l426 12l-123 -121l-332 13q-25 0 -45 8l-53 18q-35 12 -90 13h-47l2 -52l-332 15 q-29 2 -74 16q-33 10 -71 23zM526 932l9 14l143 2q2 0 6 2t20.5 5t55.5 14.5t61 13.5l318 14l2 -45q96 31 129 31l424 12l-121 -121l-342 13q-25 0 -88 24l2 -45l-338 23q-31 2 -66 16q-53 23 -71 23zM535 805l4 14l145 2q2 0 23 4q100 31 190 33l668 10l-127 -120l-619 14 q-33 0 -82 19.5t-63 19.5zM543 553l8 12l149 2q8 0 31 8q74 27 141 29l426 10l-122 -120l-340 14q-18 0 -78 18l-41 13q-27 8 -37 8zM543 678l4 12l147 4q16 0 88 23q45 14 68 14l582 10l-125 -120l-459 14q-25 0 -68 8l-71 25q-23 8 -54 8zM1204 1182l8 14l115 2l47 2 q10 2 29 6l70 21q25 6 55 8l430 14l-125 -121l-330 15q-41 2 -127 33q-10 4 -16 4zM1325 1309l8 14l172 4q10 0 25 4l80 23q43 12 207 12h258l-109 -111l-342 15q-23 0 -61 16q-45 18 -74 19z" />
<glyph unicode="Z" horiz-adv-x="1320" d="M-106 45l4 12l151 4q14 0 35 7q49 16 145 32l1123 9l-60 -109h-1099q-27 0 -56 10l-59 21q-29 10 -45 10zM25 172l4 12h75q76 0 119 13q95 28 129 28h2l1065 11l-65 -121l-1014 14q-45 0 -70 8l-67 23q-18 6 -74 8zM156 299l4 12l157 4q8 0 21 4q96 31 149 31h994 l-58 -110l-974 16q-27 0 -43 6l-72 25q-16 6 -27 6zM287 424l4 14l151 2q12 2 13 2l32 9l33 10q51 14 92 16l475 12l-131 -129l-313 19q-102 6 -139 20q-57 23 -72 23zM418 551l6 12l149 4q2 0 9 2h8l84 25q33 10 61 10l482 10l-123 -118l-275 8q-139 4 -162 12l-73 27 q-12 6 -25 6zM469 1057l6 14l107 2q45 0 80 10l81 23q20 6 52 6l944 10l-123 -121l-842 15q-43 0 -92 18q-27 10 -80 21zM537 1186l8 12l147 4q12 0 27 4q59 16 139 33l1012 10l-125 -121l-901 15q-41 0 -87 16.5t-58.5 18.5t-47.5 4zM547 678l6 14l135 2q33 0 93.5 18.5 t99.5 18.5l469 12l-125 -122l-391 14q-25 0 -113 33q-16 6 -25 6zM604 1311l6 16l148 2q10 0 33 6l75 21q39 10 90 10h1029l-109 -111l-989 15q-20 2 -99 30q-23 8 -34 9zM678 805l6 12l150 4q8 0 26 4l68 19q41 10 86 12l465 12l-125 -120l-375 14q-63 2 -121 26 q-29 12 -37 13zM807 930l8 14l156 4q8 0 29.5 5t56.5 18q25 6 65 12l488 12l-125 -121l-365 13q-45 2 -133 33q-16 6 -29 6z" />
<glyph unicode="[" horiz-adv-x="1034" d="M-84 -88l6 14l148 4q12 0 61 15l43 12l18 4q19 4 50 8l630 11l-57 -107h-600q-37 0 -59 8l-64 23q-18 4 -29 4zM-18 35l6 14l147 4q12 0 62 15l43 12q25 6 67 12l635 17l-65 -121l-545 8h-51q-37 0 -60 8l-63 23q-18 4 -29 4zM49 164l6 12l150 4q16 0 69.5 18.5 t94.5 18.5l637 12l-62 -114l-592 6q-41 0 -82 16q-55 23 -73 23zM117 289l4 14l112 2q43 0 62 6l78 23q33 10 53 10l293 12l-66 -120l-245 12q-25 2 -46 8l-61 20q-37 12 -102 13h-82zM182 418l8 12l152 4q10 0 78 21q41 12 69 16l297 12l-65 -118l-252 12q-27 2 -68 16 l-39 15q-16 6 -32 6zM250 543l6 14l152 4q14 0 34 8l37 11q63 18 103 18l266 6l-62 -115l-260 15q-23 2 -55 14q-57 23 -70 23zM317 670l9 14l129 2q27 0 92 21q55 16 92 18l279 12l-66 -123l-240 13q-35 2 -75 18q-53 23 -78 23zM385 793l8 14l148 2q12 0 43 10 q76 25 139 29l262 16l-63 -116l-234 4q-47 0 -93 18t-122 21zM453 924l6 14l151 4q2 0 27 4l47 15q55 16 94 18l273 12l-64 -121l-254 13q-10 2 -33 8l-73 24q-18 6 -31 7zM520 1053l6 12l150 4q14 0 39 8q92 29 129 31l274 12l-65 -119l-205 7q-51 2 -72 8l-76 24 q-18 8 -41 9zM584 1178l8 16l147 2q8 0 31 6l96 27q20 6 43 6l635 14l-65 -121l-572 5q-41 0 -101.5 21.5t-76.5 21.5zM651 1303l11 18h116q37 0 58 6l86 25q37 10 69 10h105l510 6l-58 -111l-594 9q-59 0 -116 24q-25 10 -35 10zM713 1421l10 19h117q37 0 57 6l86 24 q37 10 72 11h610l-55 -105l-602 8q-45 0 -107 25q-12 4 -35 10z" />
<glyph unicode="\" horiz-adv-x="1845" d="M612 1425l6 13l125 4q4 0 13 2l59 29q8 6 94 6h291l41 -109l-252 12q-70 4 -178 31q-23 6 -39 6zM666 1309l6 14l123 2q6 2 12 2l59 29q14 8 97 8l288 -2l43 -107l-252 11q-66 2 -180 30q-14 4 -37 9zM715 1182l8 14l121 2q29 14 82 35q10 2 22 2l348 12l47 -121l-268 13 q-20 0 -45 6l-129 26q-12 2 -37 7zM768 1055l6 12l86 2q47 2 64 10l37 21q14 8 32 8l355 12l47 -121l-154 9q-53 0 -133 6l-18 2l-17 2l-53 12l-94 19q-6 2 -15 2zM809 930l6 12l64 2q68 2 79 8l43 23q10 6 33 6l363 12l47 -121l-295 17q-18 2 -88 16q-33 10 -96 21z M860 803l6 14l123 2q8 0 19 6l41 23q14 8 32 8l365 12l47 -118l-293 12q-23 0 -131 26q-41 10 -57 11zM913 676l5 14l94 2q31 0 47 6l47 25q10 6 31 6l360 12l47 -120l-295 14q-4 2 -12 2l-39 8l-94 21q-23 4 -39 6l-29 2h-16q-10 2 -23 2h-84zM963 547l6 14l96 4q41 2 43 4 l43 23q20 10 72 10q-6 0 63 2q8 0 156 6q41 2 104 4l49 -122l-286 14q-35 2 -88 16q-61 16 -109 23zM1010 422l6 12l63 2q68 2 80 8l43 23q10 6 31 6l364 12l48 -120l-295 16q-18 2 -88 16q-18 4 -60 15q-18 6 -37 6zM1061 295l6 14l121 2q10 0 20 6l39 23q18 8 35 8l365 12 l47 -118l-293 12q-18 0 -131 27q-43 10 -58 10zM1114 168l4 14l92 2q33 0 50 6l47 25q8 6 30 6l359 15l47 -119l-293 10q-4 2 -12 2l-39 8l-94 21q-23 4 -39 6l-29 2h-16q-10 2 -25 2h-82zM1159 41l6 12l29 2q57 4 104 4l56 29q12 4 32 8l361 13l41 -107l-270 -2 q-16 0 -48 6l-108 23q-39 8 -121 10zM1206 -76l8 13h29q92 0 105 6l55 28q10 6 31 6l360 15l43 -109h-272q-14 0 -47 4l-109 25q-37 8 -121 10z" />
<glyph unicode="]" horiz-adv-x="1034" d="M-84 -88l6 14l148 4q12 0 61 15l43 12l18 4q19 4 50 8l630 11l-57 -107h-600q-37 0 -59 8l-64 23q-18 4 -29 4zM-18 35l6 14l147 4q12 0 62 15l43 12q25 6 67 12l635 17l-65 -121l-545 8h-51q-37 0 -60 8l-63 23q-18 4 -29 4zM49 164l6 12l150 4q16 0 69.5 18.5 t94.5 18.5l637 10l-62 -112l-590 6q-37 0 -84 16q-63 23 -88 23zM471 289l6 14l113 2q47 0 112 21q57 16 93 18l280 12l-65 -120l-246 12q-23 2 -55 12q-84 29 -154 29h-84zM539 418l6 12l151 4q10 0 80 21q43 12 70 16l295 12l-66 -118l-246 12q-35 2 -73 16l-39 15 q-16 6 -31 6zM584 1178l8 16l147 2q8 0 31 6l96 27q20 6 43 6l635 14l-65 -121l-578 5q-31 0 -125 30q-35 12 -55 13zM606 543l6 14l150 4q16 0 35 8l37 11q63 18 102 18l268 6l-61 -115l-262 15q-18 0 -54 14q-59 23 -71 23zM651 1303l11 18h116q37 0 58 6l86 25 q37 10 69 10h105l510 6l-58 -111l-616 9q-27 0 -94 24q-29 10 -35 10zM674 670l6 14l129 2q29 0 92 21q53 16 92 18l281 12l-68 -123l-225 9q-35 2 -90 24q-47 20 -72 21zM713 1421l10 19h117q37 0 57 6l86 24q37 10 72 11h610l-55 -105l-615 8q-27 0 -94 25l-35 10z M741 793l7 14l149 2q16 0 70 18q47 16 84 19l288 18l-61 -116l-236 4q-37 0 -47 4l-88 28q-8 4 -78 7zM807 924l6 14l154 4q4 0 24 4l35 10q35 10 100 23l279 12l-64 -121l-239 13q-41 2 -94 22q-41 16 -60 17zM874 1053l9 12l149 4q12 0 37 8q92 29 129 31l275 12l-64 -119 l-205 7q-53 2 -74 8l-75 24q-18 8 -41 9z" />
<glyph unicode="^" horiz-adv-x="819" d="M68 0v1366h684v-1366h-684zM82 14h655v1338h-655v-1338z" />
<glyph unicode="_" horiz-adv-x="1024" d="M0 -274h1024v-293h-1024v293z" />
<glyph unicode="`" horiz-adv-x="792" d="M858 1751l10 14l154 4q12 0 29 7q90 31 143 30h285l18 -110l-356 14q-2 0 -8.5 2t-26.5 6q16 0 -76 25q-12 4 -22 4zM911 1624l7 14l155 2q2 2 6 2l31 9q8 2 31 8q53 16 92 18l266 15l21 -123l-308 12q-39 2 -82 18q-51 20 -69 21zM963 1497l8 14l149 2q10 0 37 9 q88 29 109 28l254 13l16 -109h-197q-104 0 -129 8l-71 25q-16 6 -31 6l-61 2z" />
<glyph unicode="a" d="M-150 41l7 14l157 4q10 0 78 21q43 12 72 14l436 17l-96 -111h-348q-39 0 -119 29q-20 8 -39 8zM-35 168l6 14l154 4q6 0 22 4l95 27q18 6 43 6l422 13l-105 -121l-350 12q-29 0 -76 17.5t-70 21.5zM78 295l6 14l149 2q14 0 67.5 17.5t80.5 19.5l444 23l-114 -131 l-334 14q-45 2 -121 31q-16 6 -27 6zM190 422l9 14l149 2q2 0 8 2l72 19l18 6q37 12 84 12h62l1048 12l-20 -120l-1014 10q-119 2 -137 2q-27 2 -57 14l-68 23zM301 547l8 16l113 2q43 0 63 6l90 25q20 6 52 6l1038 14l-23 -122l-1005 12q-76 0 -156 31q-16 6 -28 6z M414 674l6 14l153 4q14 0 65.5 16.5t88.5 20.5l416 10l-41 -49h37q66 0 98 10l68 21q16 4 38 6l343 16l-21 -122l-350 12q-10 2 -33 8q-90 31 -139 31h-58l-53 -62l-350 25q-12 0 -27 6q-35 14 -90 29zM526 801l6 14l150 4q8 0 27 4l88 25q12 4 45 8l411 12l-41 -49 q35 2 111 25q39 12 57 12l328 14l-20 -122l-324 12q-31 2 -51 8l-74 25q-8 4 -47 4l-45 -49l-340 12q-23 0 -59 16q-47 20 -72 21zM639 928l8 14l150 4q6 0 80 21l22 6q35 10 53 10l416 21l-29 -37q10 2 21 4l35 6q16 2 45 6l293 14l-23 -123l-280 11q-45 2 -59.5 4 t-55.5 16q-4 2 -21 6l-37 -37l-296 11q-61 2 -105 18q-59 23 -76 23zM750 1055l10 14l151 4q14 0 35 8q14 4 66 15l41 8q29 6 53 6l647 14l-20 -123l-594 11q-61 0 -140 8l-69 24q-14 6 -47 7zM864 1182l6 14l144 4q29 0 106 21q63 16 94 16l562 12l-21 -121l-506 9 q-111 2 -135 10l-65 22q-18 4 -50 9zM879 43l8 12l160 4q8 0 20 4l51 17q47 14 80 16l375 15l-19 -111h-342q-55 0 -86 10l-69 23q-2 2 -27 6zM911 168l7 14l153 4q8 0 76 21q35 10 76 16l372 13l-20 -119l-389 12q-18 0 -58 14q-12 6 -38 15q-16 8 -33 8zM942 295l6 12 l150 4q14 0 28 6l72 21q33 10 55 10l367 14l-25 -120l-368 12q-25 0 -70 18.5t-67 18.5zM977 1309l8 14l150 4q6 0 20 2l80 25q33 10 88 10h160l313 2l-18 -111l-498 13q-39 0 -59 8l-54 18q-27 10 -51 11z" />
<glyph unicode="b" horiz-adv-x="1345" d="M0 41l6 12l125 4q39 2 64 9l77 22q27 8 64 8l1001 21q-76 -57 -227 -90q-125 -27 -233 -27h-568q-41 0 -78 12l-55 19q-16 6 -37 6zM68 166l6 14l153 4q29 6 68 19q65 22 99 22h3l1086 17q-57 -70 -137 -121l-996 6q-27 0 -98 29q-20 8 -31 8zM135 293l6 16l148 2 q12 0 26 6l76 23q39 12 80 12l1088 17q-23 -57 -72 -125l-1059 10q-18 0 -39 4l-80 27q-18 6 -33 6zM201 422l6 14l153 4q16 0 48 11l45 14q29 10 43 10l393 25l-72 -138l-344 21q-6 0 -24 4l-62 23q-25 8 -92 10zM268 547l8 14l101 4q31 0 84 8l78 23q27 8 69 8l975 17 q16 -47 16 -91v-12q-2 -10 -2 -18l-1042 8q-20 0 -37 6l-82 29q-8 2 -20 2zM336 676l6 12l113 4q47 2 63 6l96 27q10 4 88 8h58l700 15q72 -20 121 -121l-950 8q-18 0 -39 4l-82 29q-16 6 -41 6zM403 805l7 12l90 2q70 2 98 10l61 19q33 10 148 12l913 19 q-119 -123 -252 -123h-4l-706 6q-96 0 -174 31q-14 6 -27 6zM469 930l6 14l150 4q14 0 26 4l86 27l37 6l383 23l-72 -136l-299 15q-10 2 -38 8q-61 16 -130 33zM535 1053l10 20l149 2q2 0 8 2l27 6q4 0 37 11q63 20 102 20l955 16q0 -53 -23 -120l-969 8q-37 0 -77 16 q-49 18 -74 19h-145zM602 1182l10 18l152 2q8 0 31 8q84 31 129 31l866 16q33 -57 33 -120l-772 6q-88 0 -197 8l-66 20q-10 4 -79 7zM670 1307l8 20l149 2q8 2 9 2l92 25q39 10 147 10h344q18 0 140 -6q98 -4 146 -24t81 -72l-805 8q-33 0 -50.5 4t-84.5 24q-20 6 -29 7 h-147zM932 424l8 14l139 4q12 0 27 4l90 25q10 2 23.5 5t33.5 5l342 13q-8 -49 -32 -119l-336 8l-21 4l-22 2q4 0 -21 6l-51 19q-10 2 -35 6zM1184 932l6 14l139 6q8 0 123 29q27 8 39 8l307 15q-27 -68 -72 -119l-245 8q-35 2 -54 8l-53 21q-16 4 -45 8z" />
<glyph unicode="c" horiz-adv-x="1232" d="M166 422l6 14l150 2q4 0 10 2l63 17l29 8q33 10 55 10l404 12q35 -86 139 -120l-561 12q-31 0 -66 13.5t-76 25.5zM182 293l6 16l136 2q8 0 18 2h12l97 29q27 8 47 8l544 12q37 -6 86 -6q109 0 222 27l-78 -143l-805 14q-23 0 -39 6l-70 25q-14 6 -59 6zM184 549l6 12 l144 4q12 2 33 4l77 25q23 6 54 8l387 14q-12 -51 -13 -71q0 -12 7 -53l-412 16q-25 0 -100 29q-14 6 -29 6zM223 676l6 12l156 4l14 4l72 21q47 14 76 14l405 10q-47 -72 -67 -123l-379 17q-23 0 -107 31q-16 6 -24 6zM233 168l9 14h94q55 0 84 8l78 23q27 8 49 8l723 15 l-64 -121l-684 12q-25 0 -47 8l-57 21q-16 6 -68 8q-8 0 -45 2zM279 805l8 12l119 2q37 0 63 8l70 21q25 8 51 8l487 14q-59 -49 -108 -108l-13 -14l-401 14q-20 0 -92 29q-14 6 -43 10zM358 930l9 14l98 2q57 2 90 10l68 19q35 10 67 10l656 10q-147 -35 -261 -118l-395 10 q-70 2 -155 33q-12 6 -21 6zM377 41l6 12l141 4q12 2 31 4l76 23q39 12 69 12l502 13l-59 -113q-6 0 -16.5 -3t-36.5 -7l-48 -9q-49 -4 -92 -4q-92 0 -180 13q-70 10 -229 49h-9q-4 2 -6 2zM469 1057l8 16h148q14 0 32 8q94 29 136 29l950 14l-76 -139q-82 25 -166 25 q-53 0 -123 -11l-471 11q-57 2 -108 4q-57 4 -74.5 7t-79.5 26q-16 6 -24 6zM612 1178l11 20l143 2q10 0 25 4l96 27q20 6 47 6l874 14l-63 -121l-817 11q-49 0 -76 10l-61 23q-10 4 -70 4h-109zM838 1305l8 18l151 4q2 0 9 2h10l229 39q133 23 281 23q174 0 336 -39 l-52 -95l-673 11q-25 0 -47 8l-66 22q-2 0 -31 7q-12 2 -37 2z" />
<glyph unicode="d" horiz-adv-x="1538" d="M0 39l8 16l152 2q6 0 20 4l78 23q41 12 64 12l1060 17q-172 -113 -448 -113h-615q-51 0 -81 10l-64 21q-18 6 -35 6zM68 168l6 14l149 2q12 0 39 9q45 14 135 30l1166 17q-33 -31 -72 -58l-74 -51l-16 -8l-8 -8l-973 12q-59 0 -75.5 2t-59.5 16l-33 11q-25 8 -37 8z M135 293l8 16l119 2q39 0 57 6l91 27q18 4 53 4l1233 21q-55 -68 -129 -125l-1112 10q-33 0 -71 11t-101 26zM203 420l8 16l135 2q20 0 62 13q12 4 41.5 13t64.5 13l373 12l-70 -129l-340 21q-37 8 -80 25q-33 12 -59 12zM270 549l6 14l148 2q6 0 35 8l78 23q18 6 38 6 l377 14l-65 -122l-338 14q-27 2 -51 12q-53 25 -74 25zM338 676l6 14l111 2q47 0 65 6l82 25q16 4 45 6l346 14h27l-64 -120h-8l-284 10q-55 2 -68 6l-80 27q-16 6 -47 6zM406 803l6 14l143 4q33 0 90 21q45 16 74 16l368 12l-16 -30q-14 -29 -49 -92l-287 12q-59 2 -90 10 l-63 23q-16 6 -35 6zM473 930l6 14l82 2q80 2 94 6l74 23q23 6 45 8l385 23l-67 -129l-13 -3l-323 15q-2 0 -11 2l-30 6l-66 23q-23 8 -57 8zM541 1057l6 14l147 2q8 0 23 4l88 25q35 10 72 10l1030 14q25 -66 28 -120l-1112 10q-10 0 -43 8l-59 23q-18 8 -70 8zM608 1186 l6 14h148l24 6l93 25l24 4q12 2 33 4l893 12q51 -51 76 -121l-987 13q-47 0 -130 31q-14 6 -30 6zM676 1311l6 16h96q53 0 135 23q51 14 97 14l510 2q193 0 301 -104l-856 8q-29 4 -39 6l-78 27q-16 6 -31 6zM954 422l7 14l151 4q12 0 25 4l53 17l27 6q20 4 53 10l518 17 q-35 -59 -88 -123l-430 10q-45 0 -74 10l-63 21q-23 8 -70 8zM1108 549l6 14l152 4q14 0 82 21q53 16 71 16l439 14q-14 -35 -54 -100q-2 -6 -12 -20l-379 10q-39 2 -90 18q-31 10 -70 21zM1202 676l8 14l152 4q12 0 70.5 18.5t83.5 18.5l391 14q-6 -27 -13 -40l-8 -19 l-14 -39q-2 -6 -10 -22l-316 8q-68 2 -100 12l-72 23q-12 6 -24 6zM1235 803l8 14l150 4q10 0 90 25q27 8 69 14l381 12q-8 -68 -24 -120l-383 12q-39 2 -107 29q-14 4 -33 8zM1241 932l6 12l152 4q2 0 92 27q37 10 72 12l372 12l4 -53q0 -18 -6 -67l-409 12q-20 0 -43 8 l-76 25q-10 4 -29 4z" />
<glyph unicode="e" horiz-adv-x="1280" d="M0 41l6 12l148 4q12 0 61 15l43 12q4 4 18 6q29 6 50 6l876 15l-57 -111h-846q-37 0 -59 8l-64 23q-16 6 -29 6zM68 168l6 12l149 4q16 0 72.5 19.5t91.5 19.5l885 15l-64 -121l-893 16q-8 2 -26 8q-59 23 -74 23zM135 295l4 12l115 4q27 0 59 4l80 23q33 10 53 10 l367 17l524 -3l-63 -120l-860 12q-16 0 -33 6l-62 23q-23 8 -100 10zM203 422l6 14l151 2q27 6 80 23q41 14 68 14l377 12l-66 -120l-332 14q-27 2 -67 16l-39 15q-14 6 -33 6zM270 547l4 14l152 4q6 0 35 8l37 11q63 18 102 18l873 16l-64 -122h-850q-25 0 -72 26 q-39 23 -67 23zM336 676l8 14h129q27 0 91.5 20.5t92.5 20.5l883 14l-65 -122l-859 12q-14 0 -36 8q-78 29 -97 29zM403 803l9 14l147 2q16 0 67.5 17.5t86.5 19.5l358 14h535l-64 -120l-741 10q-31 0 -86 2q-43 2 -58 4l-86 29q-14 4 -79 6zM471 930l6 12l152 4q8 0 26 6 q92 29 127 31l371 14l-63 -120l-336 12q-18 0 -35 6l-74 25q-10 4 -29 8zM539 1057l6 14l149 2q12 0 39 8q45 14 129 31l879 14l-64 -120h-811q-37 0 -71 12l-76 26q-18 6 -41 11zM604 1182l6 16l148 2q8 0 30 6l97 27q20 6 43 6l880 14l-65 -123l-850 13q-35 0 -74 16 q-51 20 -71 21zM670 1309l10 16l117 2q39 0 57 6l86 25q2 0 53 6q18 2 121 2h750l-54 -106l-860 10q-27 0 -94 24q-29 10 -35 11z" />
<glyph unicode="f" horiz-adv-x="1208" d="M0 39l6 14l150 4q8 0 96 27q20 6 63 12l367 15l-55 -111h-316q-39 0 -145 33q-10 4 -23 4zM68 168l6 12l145 4q43 12 125 33q25 6 43 6l363 15l-64 -123l-305 10q-55 2 -133 31q-16 8 -31 8zM135 293l6 14l152 4q10 2 39 11q78 25 112 26l373 17l-63 -121l-340 10l-6 2 l-31 6q-4 0 -15 4q-61 25 -79 25zM201 422l4 14l153 2q8 2 11.5 3t25.5 8q4 0 66 18q25 8 45 8l379 17l-64 -123l-334 12q-20 0 -43 8l-65 23q-18 6 -27 6h-28zM268 549l11 14l127 2q29 0 59 10q98 31 194 31h13l772 15l-66 -123l-829 10q-20 0 -65.5 18.5t-65.5 18.5z M336 676l6 14l152 4q14 0 86 23q45 14 79 14l852 17l-63 -121l-830 8q-27 0 -65 16q-45 18 -72 23zM403 803l5 12l157 6q10 0 27 6q88 29 121 31l370 14h494l-64 -120l-833 10q-6 0 -31.5 9t-60.5 20q-25 8 -39 10zM471 930l6 14l150 4q16 0 86 23q41 12 73 14l369 14 l-65 -122l-328 12q-25 0 -113 31q-12 4 -31 8zM539 1057l8 14l135 4q37 2 100.5 20.5t96.5 18.5l831 14l-63 -120h-496l-305 8q-41 2 -68 10l-55 18q-31 10 -43 11zM606 1184l6 14l131 4q33 2 52 6l86 25q27 8 61 8l836 16l-64 -120l-819 6q-27 4 -47 10l-53 16 q-47 14 -78 15h-111zM672 1311l8 16l100 2q61 2 78 6l70 21q27 8 84 10h69h752l-53 -102l-799 8q-47 0 -70 8l-57 20q-29 10 -74 11h-108z" />
<glyph unicode="g" horiz-adv-x="1488" d="M166 420l6 14l150 4q8 0 24 4l78 23q31 8 70 10l376 14q23 -88 103 -129l-520 19q-25 0 -56 12q-63 25 -78 25zM182 293l8 14l150 4q8 0 29 6q113 33 143 33l477 4q35 -8 64 -8q37 0 77 12l447 7l-64 -125l-1040 12q-25 0 -41 6l-74 27q-16 6 -41 6zM184 547l9 14l151 4 q14 0 82 21q53 16 74 16l381 12q-14 -51 -15 -84q0 2 4 -38l-295 10q-29 0 -86 4q-25 2 -55 6l-92 31q2 0 -10 2zM225 676l6 12l150 4q16 0 84 21q47 14 63 14l418 14q-31 -47 -63 -120l-250 8q-27 2 -81 4t-65 4q-18 2 -41 12q-59 20 -69 21zM233 168l7 14l149 2q14 0 35 6 l82 25q18 6 55 6l950 15l-65 -121l-887 10q-55 0 -78 8l-65 23q-20 6 -60 8zM279 801l6 14l149 4q2 0 10 2l25 4q4 2 36 11.5t83 19.5l483 10q-63 -47 -121 -121l-393 15q-8 2 -29 6l-73 25q-25 8 -33 8zM360 930l9 12l120 2q31 0 64 10l63 19q35 10 70 10h164l485 10 q-127 -31 -258 -121l-352 13q-84 2 -105.5 6t-78.5 27q-14 6 -27 6zM379 39l6 14l152 4q18 0 79 21q49 16 82 16l744 15l-56 -105q-88 -14 -198 -22q-137 -10 -209 -11q-182 0 -268 23l-125 33q-35 10 -90 10zM469 1057l8 14l144 2q18 0 32 6l66 19q43 12 67 12l1135 14 l-78 -147q-131 39 -289 39q-96 0 -182 -15l-616 13q-27 0 -74 19.5t-74 19.5zM614 1182l9 16h127q18 2 51 8l84 25q25 6 121 8l983 12l-64 -123l-1003 13q-43 0 -66 8l-68 25q-16 4 -24 4zM838 1309l8 14l151 4q6 0 19 2q49 6 135 21l137 24q92 16 271 17q197 0 333 -21 l56 -8q33 -4 90 -19l-45 -83l-865 8q-12 0 -57 14l-39 12q-16 4 -41 11zM965 420l6 14l137 4q8 0 20 2l99 27q27 8 49 8l369 14l-64 -118l-6 -2l-336 12q-29 2 -55 14q-53 20 -70 21zM1034 547l6 14l148 4q10 0 22 4l60 19q47 14 139 14h295l-57 -108l-332 12q-29 2 -109 31 q-23 8 -35 8z" />
<glyph unicode="h" horiz-adv-x="1562" d="M0 43l4 12l154 4q18 0 73.5 18.5t73.5 18.5l379 15l-57 -111h-312q-47 0 -90 16q-51 20 -67 21zM68 170l8 12l147 4q16 0 88 23q41 12 84 14l357 15l-66 -123l-342 14q-2 0 -12 2l-19 4q-14 2 -63 23q-20 8 -33 8zM135 295l8 16l150 2q8 0 84 23q27 8 65 14l377 15 l-63 -123l-301 12q-55 2 -78 10l-66 23q-16 6 -32 6zM203 424l8 12l147 4q25 0 58 13q59 20 88 22l387 23l-70 -129l-313 12q-47 2 -129 33q-16 6 -25 6zM272 549l7 16l139 2q12 0 92 21q51 16 100 16l1147 14l-65 -122l-1121 12q-33 0 -55 8l-76 27q-4 2 -28 2zM340 678 l4 12l150 4q14 0 26 4l66 19q49 14 82 14l1157 12l-66 -122l-1134 14q-12 0 -43 10l-62 21q-20 6 -57 8zM408 803l8 14l153 4q2 0 9 2l84 25q25 4 63 10l1165 12l-63 -122l-1131 14q-20 0 -49 10l-65 23q-16 6 -35 6zM475 932l8 14l150 2l8 2l23 4l46 14q46 15 78 17l371 12 l-72 -131l-315 23q-45 4 -113 29q-27 10 -36 10zM543 1059l6 12l139 4q8 0 17 2h10l96 27q18 6 53 8l361 12l-64 -120l-334 12q-23 0 -104 31q-10 4 -27 8zM610 1186l8 14l152 2q10 0 78 21q51 16 74 16l370 12l-63 -121l-334 13q-41 2 -70 14q-55 25 -63 25zM676 1309 l10 18l145 2q14 0 27 4l74 23q33 10 104 10h318l-60 -109l-348 15q-12 0 -43 12q-53 20 -82 25h-145zM801 41l6 16l149 2q8 0 27 4l82 23q35 10 51 10l371 15l-60 -111h-321q-35 0 -66 10l-75 25q-2 2 -17 2l-41 2zM870 170l7 12l153 4q10 0 88 25q14 4 62 12l376 15 l-65 -123l-336 12q-14 2 -41 8l-70 25q-16 6 -30 6zM938 295l6 14l105 2q57 2 79 8l68 21q31 10 55 10l371 15l-63 -121l-285 8q-72 2 -94 10l-62 23q-2 0 -39 8zM1006 422l6 14l153 2q2 2 13 4l57 15l33 10q23 8 47 8l375 14l-66 -120l-334 12q-2 0 -8 2l-29 4l-63 23 q-8 4 -57 8zM1276 930l8 14l152 4q4 0 28 4l74 23q25 8 45 8l375 14l-66 -120l-305 10q-37 2 -90 18l-45 15q-16 8 -31 8zM1346 1057l6 14l143 4q10 0 31 4l94 27q16 4 53 6l352 12l-63 -120l-313 12q-39 2 -60 8l-61 20q-31 10 -51 11zM1407 1182l8 16l154 4q18 0 80 21 q37 12 73 16l369 12l-63 -121l-330 15q-35 2 -74 14q-43 20 -61 21zM1475 1309l10 16l153 4q6 0 21 4l80 23q37 10 129 10h284l-57 -106l-319 8q-41 2 -72 14l-39 16q-25 10 -35 11h-155z" />
<glyph unicode="i" horiz-adv-x="763" d="M0 41l6 14l141 4q12 0 27 4l84 23q35 10 57 10l369 13l-57 -109h-318q-31 0 -61 8q-6 4 -35 10q-12 6 -31.5 13.5t-36.5 7.5zM68 170l6 12l123 2q43 0 100 19.5t88 19.5l367 13l-66 -123l-336 14q-20 0 -100 29q-29 10 -37 10zM135 295l8 16l152 2q6 0 20 4l91 25 q18 4 47 6l366 14l-63 -120l-326 12q-31 2 -51 8l-60 21q-29 10 -63 10zM205 424l10 14h117q39 0 59 6l84 25q18 6 43 6l371 12l-68 -120l-325 12q-37 6 -50 10l-65 23q-16 6 -31 6zM272 549l9 14l147 2q18 0 70 17l32 10q25 8 45 8l381 14l-65 -120l-326 12q-29 2 -110 31 q-23 8 -33 8zM340 676l6 12l152 4q6 0 28 6l54 15q57 16 84 16l358 12l-66 -120l-319 12q-27 2 -90 22q-47 16 -68 17zM408 801l6 14l151 4q4 0 10 2l27 6l66 19q35 10 55 10l369 12l-66 -123l-319 15q-37 2 -78 16q-61 23 -78 23zM477 930l6 12l154 4q8 0 22 4l95 27 q4 2 39 6l366 12l-65 -121l-316 13q-31 2 -87 19.5t-89 19.5zM545 1057l8 12l147 4q20 0 68 17q57 18 92 20l367 12l-64 -121l-205 9q-76 2 -174 14l-71 25q-10 4 -27 4zM612 1182l6 16l154 2q4 0 76 21q55 16 84 16l362 12l-65 -121l-316 13q-33 2 -84 18q-61 20 -75 21z M676 1309l8 16l150 2q4 0 28 4l92 27q29 8 88 8l312 -2l-56 -109l-325 13q-43 2 -72 14l-43 14q-20 10 -45 11z" />
<glyph unicode="j" horiz-adv-x="911" d="M-164 39l6 14l156 4l20 4q106 35 127 35l639 21q-127 -117 -313 -117h-346q-20 0 -45 8l-64 21q-18 8 -32 8zM-96 166l8 14l154 6h6l26 9q4 0 33 10q49 16 88 18l682 23q-51 -76 -113 -127l-598 10q-29 0 -71 16q-49 18 -72 19zM-31 295l8 14l97 2q31 0 84 8l71 23 q29 8 72 10l674 19q-27 -53 -72 -121l-633 6q-18 0 -114 27q-20 6 -62 8zM358 424l9 14l143 4q16 0 35 7l73 22q41 12 93 12h20l311 15l-65 -123l-272 8q-66 2 -83.5 5t-78.5 26q-23 8 -39 8zM426 551l8 14l115 4q45 2 57 4l96 29q12 6 35 6l373 17l-63 -121l-342 8 q-10 0 -35 8l-70 23q-18 6 -35 6zM492 680l6 12l151 4q8 2 29 6q8 2 76 21q41 10 61 12l361 19l-64 -123l-328 10q-29 0 -71 14q-63 20 -76 21zM559 807l8 14l144 4q20 0 39 6l81 25q16 6 37 6l373 19l-63 -123l-279 8q-74 2 -160 31q-25 8 -32 8zM625 934l8 14l149 4 q6 0 33 9q96 29 141 30l351 19l-62 -121l-327 6q-12 2 -54 10q-10 2 -34.5 9.5t-22.5 7.5q-20 10 -35 10zM690 1061l8 14l109 2q37 0 51 3t84 26q35 10 62 12l368 19l-61 -123l-322 8q-29 0 -51 8l-66 23q-25 8 -110 8h-72zM756 1188l8 16l151 4q12 0 31 6l68 21 q39 12 57 12l369 10l-64 -114l-329 8q-20 0 -43 8l-70 23q-12 4 -27 4zM821 1307l8 14l154 6q12 0 31 6q96 29 250 31l233 2l-53 -102l-303 6q-70 2 -133 26q-20 8 -37 9z" />
<glyph unicode="k" horiz-adv-x="1372" d="M0 41l8 14l113 2q45 0 63 6l86 25q27 8 47 8l367 15l-57 -111h-240q-117 0 -141 8l-62 21q-20 6 -41 8l-34 2zM68 168l8 14l153 4q2 0 7.5 2t25.5 5q8 2 25 8q68 20 88 20l377 17l-64 -123l-346 14q-16 0 -74 23q-12 4 -51 14zM137 295l6 14l154 4q18 0 70.5 17.5 t87.5 19.5l364 15l-26 -54l90 2q45 0 63 4l80 25q16 4 41 6l350 19l10 -123l-264 6q-131 2 -157 12l-64 23q-18 6 -78 8l-80 2l-28 -51l-340 12q-18 0 -41 8l-60 21q-23 8 -47 8zM203 422l8 14l149 4q6 0 29 6l84 23q18 6 49 8l365 15l-25 -52h31q27 0 35 2l94 27q12 4 43 6 l342 14l10 -118l-287 8q-109 4 -129 10l-69 25q-18 6 -47 6h-35l-29 -51l-260 10q-92 4 -117 12l-65 23q-16 4 -39 4zM272 551l7 10l151 6q2 0 8 2l70 19l27 8l40 8l383 21l-24 -52q20 4 22 7l58 16q18 6 39 6l342 14l10 -118l-369 10q-23 0 -100 29q-8 4 -21 4l-26 -45 l-328 14q-25 2 -35 4l-77 25q-18 6 -31 6zM344 676l6 14l152 4q6 0 20 4l96 27q14 6 52 6l714 14l11 -122l-805 20l-72 25q-16 6 -39 6zM410 805l8 14h110q45 0 64 8l80 23q33 8 102 10l762 12l-152 -120l-569 8q-129 2 -149 8l-91 29q6 0 -36 2zM475 932l6 12l154 4 q18 4 80 23q41 12 71 14l373 14l-18 -36q16 4 22 6q55 16 82 16l445 14l-150 -122l-274 10q-70 2 -92 10l-25 8q-18 6 -33 10l-29 -47l-260 17q-70 4 -91 9t-87 28q-16 6 -24 6zM541 1055l10 16l147 4q25 0 77 17.5t81 19.5l371 14l-25 -51h23q31 0 82 17.5t102 19.5l434 14 l-145 -120l-322 12q-29 2 -49 8l-65 23q-18 6 -50 6h-24l-29 -51l-338 14q-18 0 -63 16q-53 18 -72 19zM608 1186l8 12l154 4q14 4 68.5 19.5t85.5 17.5l368 14l-26 -53h55q72 0 100 8l84 25q12 4 45 8l447 14l-146 -120l-329 10q-2 0 -9 2l-36 8l-62 21q-25 8 -74 8h-18 l-66 2l-28 -56l-318 13q-16 0 -120 31q-10 4 -29 8zM674 1311l8 16l149 2q16 0 41 8q90 29 168 29h314l-58 -106l-335 12q-35 2 -68 14q-49 20 -64 21zM768 168l6 14l148 4q18 0 65 15q29 8 86 22l354 15l11 -123l-348 12q-41 2 -55.5 5t-84.5 26q-25 8 -37 8zM774 41l8 14 l150 4q10 0 31 7l77 22q25 6 52 8l348 15l8 -111h-373q-35 0 -78 16q-57 23 -71 23zM1386 1313l11 14l149 4q10 0 33 6q98 27 162 27l393 2l-127 -104l-326 10q-33 0 -77 18q-27 10 -64 21z" />
<glyph unicode="l" horiz-adv-x="1046" d="M0 41l4 12l156 6q8 0 22 4q57 16 146 33l833 15l-57 -111h-787q-47 0 -77 10l-70 23q-6 4 -27 4zM68 168l6 14l151 4q10 0 25 4l88 25q29 8 55 8l836 15l-66 -121l-788 10q-45 2 -70 10l-57 21q-16 6 -37 6zM135 295l8 14l148 4q8 0 24 4l95 27l36 6l373 12h477l-63 -118 l-690 8q-139 2 -170 12l-66 23q-16 6 -28 6zM203 422l8 14l151 2q2 0 15 4l61 19l25 6q27 6 55 10l367 12l-64 -120l-286 10q-53 2 -71 5t-85 28q-23 8 -35 8zM270 549q2 6 9 14l149 2q8 0 23 6l67 19q43 12 60 12l374 14l-63 -120l-281 10q-80 2 -104 12l-49 19 q-27 10 -54 10zM338 676l4 12l158 4q6 0 22 6q82 29 129 31l369 14l-66 -122l-338 14q-14 0 -36 8q-82 29 -95 29zM406 805l6 12l153 2q10 2 39 10q80 25 107 27l376 14l-63 -120l-199 6q-150 4 -178 14l-67 23q-18 6 -25 6zM473 930l8 14l133 2q6 0 15 2h10l90 25 q41 10 123 14l303 12l-63 -120l-293 8q-55 2 -148 33q-16 6 -33 6zM539 1057l8 14l151 2q2 0 35 8q8 2 33 11l33 10q23 8 47 8l377 14l-64 -120l-328 12q-29 2 -49 8l-71 25q-8 4 -21 4zM604 1182l8 16l152 4q23 0 70 17q59 20 88 20l366 12l-63 -121l-338 13q-41 2 -107 31 q-18 6 -26 6zM672 1311l8 14l158 4q14 0 32 8q90 29 131 29h347l-56 -106l-295 10q-84 2 -141 28q-12 4 -29 9z" />
<glyph unicode="m" horiz-adv-x="1748" d="M0 43l8 14l148 2q10 0 37 9q88 27 124 28l369 15l-59 -111h-326q-33 0 -123 33q-16 6 -28 6zM68 170l6 12l153 4q12 0 37 9q80 25 119 26l371 17l-66 -123l-231 10q-8 0 -72 2q-55 2 -133 31q-20 8 -31 8zM137 297l8 14l148 2q16 0 35 9q96 27 125 28l368 15l-65 -121 l-334 10q-25 0 -103 31q-20 8 -32 8zM205 424l6 12l151 4q14 0 29 6l74 21q35 10 53 10l371 15l-66 -123l-334 12q-10 2 -28 6l-78 25q-14 8 -47 8zM274 551l7 14l151 2q8 0 21 4l67 21q37 10 72 12l364 12l-26 -51h53q51 0 92 13q72 20 92 24l238 14l-55 -53l28 2l52 4 q16 2 86 23q31 10 51 10l375 14l-66 -122l-328 14q-27 2 -41 6l-73 25q-25 8 -82 8h-23l-47 -41l-121 2q-25 0 -41 6l-71 25q-25 8 -82 8h-47l-27 -51l-313 12q-49 2 -125 31q-20 8 -33 8zM342 680l10 12h105q43 0 57 4l88 27q16 4 37 6l389 25l-29 -60q23 0 37 4l80 23 q25 6 49 8l387 19l-55 -52q12 2 86 23q33 10 53 10l373 14l-65 -120l-338 12q-25 0 -66 17.5t-74 19.5l-53 -49l-285 12q-10 2 -30 8l-47 16q-33 12 -64 15l-29 -51l-217 8q-33 0 -86 3t-75 11l-64 23q-16 6 -31 6h-34zM410 805l6 12l147 4q10 0 23 4l76 23q35 10 75 10h80 l1258 10l-64 -120l-1298 14q-39 0 -88 18q-55 20 -76 21zM475 932l8 12l156 6q10 0 23 4q104 33 172 33h110l1200 12l-65 -122l-1297 12q-51 0 -127 31q-20 8 -32 8zM543 1057l10 16l152 2q6 0 24 6q90 31 131 31l526 12l9 -51h53q18 0 113 27q41 12 75 12l574 12l-64 -123 l-542 15q-29 0 -50 8l-63 23q-23 8 -61 8h-31l8 -58l-500 17q-102 4 -145 20q-51 20 -68 21zM610 1184l8 16l150 2q8 0 29 6l71 21q33 10 56 10l444 12l18 -121l-473 13q-39 2 -82 16l-45 17q-16 6 -36 6zM678 1309l10 18l152 2q6 2 22 6q106 31 146 31h344l14 -106l-391 12 q-16 0 -121 28q-18 6 -31 7zM985 41l8 16l152 2q4 0 24 4q47 16 129 33l373 13l-57 -109h-287q-76 0 -98 8l-68 25q-10 4 -24 4zM1053 168l8 14l151 4q23 0 72 19l27 6q16 6 53 12l375 13l-64 -121l-338 12q-14 0 -100 31q-16 6 -33 6zM1122 297l8 12l154 4q2 0 23 4 q47 16 133 33l366 12l-63 -120l-295 12q-31 2 -68 4l-80 27q-10 4 -34 8zM1188 422l8 14l156 4q6 0 18 4q100 29 135 31l369 17l-64 -121l-340 10q-27 0 -73.5 19.5t-67.5 19.5zM1477 1182l8 16l149 4q8 0 23 2l88 27q25 8 51 8l481 12l-63 -121l-445 13q-14 0 -43 6l-75 27 q-18 6 -29 6h-145zM1665 1309l6 16l150 4q8 0 30 4l70 23q31 10 166 10h246l-56 -109l-297 13q-57 2 -79 10l-60 20q-16 8 -33 9h-143z" />
<glyph unicode="n" horiz-adv-x="1587" d="M0 43l6 12l152 4q20 0 73.5 18.5t77.5 18.5l375 15l-57 -111h-291q-68 0 -96 10l-62 23q-10 2 -35 6zM70 170l6 14l149 2q2 0 11 2l30 7l43 14q39 12 72 14l143 6l228 7l-66 -121l-334 12q-23 0 -63 16q-59 23 -72 23zM137 297l6 12l111 4q29 0 78 9l69 20q25 8 50 8 l368 12l-63 -120l-336 12q-25 4 -69 20.5t-97 18.5zM205 424l10 14l119 2q41 0 65 9l70 20q25 8 109 10l280 10h31l-31 -53h86q4 0 19 2h22q18 4 45 8l68 19q23 6 59 12l555 12l-65 -122l-525 14q-16 0 -37 8q-76 29 -92 29l-139 4l-31 -53l-346 14q-18 0 -51 14 q-43 18 -70 23zM272 551l7 12l153 4q8 0 76 21q51 16 76 16l370 12l-24 -51h35q33 0 71 13q81 26 115 26h2l627 12l-66 -122l-424 10q-47 0 -141 2q-59 2 -113 22q-39 16 -57 17l-61 2l-27 -51l-14 -2l-277 14q-37 2 -86 8l-68 25q-16 6 -30 6zM342 678l6 12l152 4 q10 0 73 19q31 8 80 18l373 14l-27 -47h7q4 0 20 4q8 2 35 11l35 10q27 8 53 8l698 12l-65 -122l-656 14q-35 0 -45 4l-71 25q-10 2 -25 6l-27 -47l-340 14q-18 0 -38 8l-58 21q-18 6 -59 8zM410 805l6 14l151 2q8 0 27 6q96 31 139 31l653 12l5 -49q10 2 22 4l84 23 q18 6 49 8l369 14l-64 -120l-335 12q-20 0 -43 8l-56 18q-2 4 -24 7l4 -56l-617 19q-102 2 -127 12l-67 25q-14 6 -37 6zM477 932l4 12l154 4q10 0 22 4l91 27q33 6 59 6l569 12l4 -51h43q39 0 68 8l72 21q33 10 55 10l362 12l-63 -120l-4 -3l-311 13q-35 2 -89.5 20.5 t-93.5 18.5h-37l4 -49l-622 12q-27 0 -109 31q-23 8 -28 8zM543 1059l10 14l143 2q14 0 29 4l92 27q20 6 37 6l510 12l6 -53l115 2q47 0 74 8l73 21q25 6 51 10l365 12l-63 -120l-334 12q-25 0 -71 18.5t-71 18.5l-137 2l2 -51l-514 12q-51 2 -76 10l-63 23q-20 6 -78 8z M612 1184l11 16l84 2q74 2 88 6l71 21q33 10 62 10l426 12l10 -121l-416 11q-86 2 -155 30q-12 4 -31 9zM680 1311l8 16l148 2q6 0 26 4l76 23q35 10 109 10h296l11 -109l-389 13q-27 0 -84 22q-43 16 -62 17zM846 295l10 14l148 2q8 0 73 21l27 8q25 8 55 8l486 14 l-64 -120l-440 12q-37 0 -117 31q-16 6 -27 6zM856 168l4 14l152 4q18 0 76.5 17.5t97.5 19.5l391 13l-66 -121l-358 12q-39 2 -119 31q-23 8 -33 8zM866 43l8 12l148 4q18 0 72 17q66 20 90 20l325 13l-57 -109h-268q-70 0 -127 25q-27 12 -39 12zM1432 1184l6 14l155 2 q4 2 11 2l24 6l66 21q23 8 49 8l373 14l-66 -123l-321 15q-33 2 -72 16q-57 23 -78 23zM1503 1309l6 14l154 6q6 0 23 4q111 33 204 33h285l-57 -109l-297 11q-74 2 -133 28q-23 10 -31 11z" />
<glyph unicode="o" horiz-adv-x="1710" d="M166 420l8 16h102q47 0 97 15l63 18q12 4 45 8l377 12q8 -53 29.5 -79.5t75.5 -49.5l-514 21q-12 0 -29 6l-74 25q-25 8 -76 8h-104zM184 295l4 12l138 4q25 0 36 4l97 27q4 4 33 6q10 2 24 2l494 2q18 -2 43.5 -5t31.5 -3q29 0 113 14l664 9q-31 -41 -123 -123l-1268 10 q-16 2 -45 8l-68 25q-10 2 -51 4zM186 549l9 14l139 2q12 0 35 6l96 27q10 2 43 4l371 14q-20 -61 -21 -106v-16l-344 12q-66 2 -125 24q-37 14 -47 15zM225 676l6 14l150 2q14 0 78 21q43 14 80 18l411 12q-41 -59 -69 -120l-318 10q-72 2 -94 10l-66 23q-23 8 -36 8z M238 168l4 12l90 4q37 2 102 11q49 14 129 28l1170 15q-57 -49 -177 -123l-1019 12q-37 0 -123 31q-16 6 -29 6zM281 803l6 14l143 2q18 0 33 6l86 25q35 10 59 10l457 10q-74 -68 -109 -120l-335 10q-76 2 -162 33q-23 8 -33 8zM360 932l9 12l151 4q6 0 21 4l77 23 q33 10 54 10l633 19q-139 -49 -230 -127l-413 12q-39 2 -119 31q-14 4 -39 8zM381 41l6 14l127 2q35 0 53 6l74 23q18 10 61 10l842 15q-252 -137 -569 -138q-166 0 -273 27l-131 33q-14 4 -34 4zM471 1057l8 14l90 2q68 2 97 10l75 23q18 6 62 6l1278 14q23 -61 26 -122 l-565 6q-70 10 -115 10q-41 0 -98 -8l-569 6q-29 0 -45 6l-66 23q-23 8 -33 8zM614 1184l15 16l141 2q16 0 41 8l39 13q51 16 88 16l1057 14q57 -59 82 -120l-1162 10q-29 0 -84 19.5t-75 19.5zM840 1311l10 16l172 4q41 0 161 21.5t175 27.5q80 8 180 9q317 0 451 -132 l-842 13q-51 0 -92 16l-43 17q-14 4 -31 4zM1096 422l8 14l147 4q18 0 37 6l39 13l25 8q12 4 55 10l549 15l-21 -31l-20 -31q-27 -39 -47 -57l-486 8q-29 0 -63 16q-61 20 -72 21zM1249 549l6 14l127 2q31 0 64 10l61 19q31 10 58 10l463 14q-23 -45 -68 -122l-414 12 q-39 0 -112 29q-20 8 -31 8zM1346 678l6 12l151 4q12 0 33 8q10 2 33 9l78 18q14 0 24 2l406 14q-25 -76 -49 -122l-355 12q-25 0 -74 8q-94 29 -114 29zM1378 803l2 14l154 4q8 0 41 10q78 25 141 27l387 14q-12 -76 -24 -122l-398 12q-45 2 -116 26q-29 10 -39 11z M1380 930l6 14l146 4q14 0 39 8q86 27 141 29l395 12q2 -23 2 -49q0 -8 -4 -69l-438 12q-20 0 -31 4l-75 25q-23 8 -62 8z" />
<glyph unicode="p" horiz-adv-x="1335" d="M0 41l6 14l154 4q12 0 30 7q86 27 115 30l377 13l-57 -109h-306q-47 0 -77 10l-66 23q-16 6 -41 6zM68 170l6 12l133 2q27 0 45 6l88 27q16 4 49 6l361 13l-64 -121l-311 12q-47 2 -64 8l-61 23q-14 6 -35 6zM135 295l10 14l111 2q33 0 48 3t91 26q23 6 49 10l375 12 l-65 -122l-330 14q-18 0 -47 10l-62 21q-25 8 -36 8zM203 422l6 14l156 4q18 0 59 15l37 12q27 8 55 10l375 21l-68 -127l-327 10q-29 0 -111 31q-16 6 -31 6zM268 549l11 14l129 2q31 0 51 8l82 23q20 8 55 8l930 12q-72 -49 -188 -84q-111 -32 -195 -32h-10l-558 8 q-37 0 -65 10l-74 25q-10 4 -53 4zM340 676l6 14l150 4q10 0 24 4l66 19q49 14 86 14l999 14q-47 -53 -90 -88l-18 -14q-18 -14 -29 -20l-911 12q-16 0 -39 8l-66 23q-16 6 -31 6zM408 803l4 14l153 4q10 0 29 6q94 31 139 31l1022 14q-33 -70 -80 -120l-966 10 q-49 0 -121 31q-18 8 -33 8zM475 932l4 12l150 4q10 0 30 6l74 21q27 8 39 8l387 21l-69 -134l-328 19q-27 2 -47 10l-70 23q-12 6 -27 6zM543 1059l8 14h133q16 0 37 6l78 23q33 10 67 10l944 14q2 -23 2 -47q0 -35 -8 -75l-952 12q-57 0 -129 31q-12 4 -31 8zM608 1184 l8 14l103 2q53 2 72 6l77 23q33 10 72 10l825 12q37 -61 43 -121l-897 13q-33 0 -86 19.5t-73 19.5zM676 1311l8 16h113q43 0 112 21q61 18 152 18h438q184 0 260 -106l-801 12q-27 0 -61 14q-57 23 -68 23zM1188 930l8 16l141 2q12 2 13 2l26 4q8 2 31 11q61 18 86 20 l309 14q-12 -70 -45 -122l-278 12q-25 2 -39 6l-72 25q-12 4 -61 6z" />
<glyph unicode="q" horiz-adv-x="1708" d="M166 416l8 14l145 2q18 0 93 25q37 12 88 14l358 12q8 -53 28.5 -79.5t74.5 -49.5l-500 21q-31 2 -74 16q-57 20 -78 21zM182 289l6 12l154 6q8 0 25 4l67 19q49 14 125 14l432 4q59 -8 96 -8t97 8l884 8l-96 -118l-1489 10q-37 0 -53 6l-72 25q-23 8 -34 8zM186 543 l4 12l154 4q10 0 29 6q94 29 129 31l377 14q-20 -57 -21 -121l-356 11q-59 2 -133 30q-20 8 -33 9zM225 670l6 14l152 2q6 0 20 4q55 16 138 35l407 12l-12 -22q-33 -47 -55 -101l-308 11q-35 2 -180 37q-10 4 -20 4zM236 162l4 12l153 4q6 0 25 6q104 33 133 33l1413 12 l-104 -120l-1315 10q-41 0 -64 8l-67 25q-16 6 -31 6zM279 797l6 12l151 4q10 0 25 6q106 33 133 33l471 10q-8 -8 -25 -22q-49 -47 -86 -97l-389 13q-29 0 -59 12q-61 23 -84 27zM360 926l9 12l135 2q18 0 117 27q37 10 51 10l633 20q-117 -41 -232 -129l-432 15 q-16 0 -33 6l-71 24q-23 8 -33 9zM377 35l8 14l143 4q12 0 35 4l90 27q20 6 47 6l1158 14l-91 -110l-432 -2q-98 0 -159 -8l-17 -2q-66 -8 -198 -9q-86 0 -170 11q-43 4 -101 14l-121 29q-6 2 -24 2zM471 1051l4 14l154 2q8 2 28 8q102 31 138 31l82 -2l1198 14 q16 -51 24 -123l-557 6q-86 12 -123 13q-37 0 -92 -13l-477 7q-115 2 -139 10l-70 24q-4 2 -11 4.5t-9 2.5zM614 1178l9 14l153 4q45 10 117 27q39 8 61 8l1039 14l4 -6q51 -53 76 -117l-1158 15q-76 0 -151 39zM840 1305l8 14l133 2q47 0 90 8l215 37q96 16 244 16 q186 0 291.5 -36.5t165.5 -94.5l-846 11q-33 0 -82 18q-55 20 -72 20zM1094 416l6 12l151 4q10 0 31 6q43 14 125 31l520 14q-43 -63 -100 -125l-424 15q-39 0 -74 12l-61 21q-14 4 -56 6zM1245 541l10 16h121q27 0 37 4l105 29q18 6 49 6l436 12q-31 -66 -72 -119l-385 11 q-37 0 -96 22q-45 16 -66 17zM1343 670l11 14l125 2q29 0 49 6l74 21q37 10 100 12l356 12q-16 -53 -49 -123l-364 15q-45 2 -80 13t-76 24zM1376 797l6 14l152 2q20 0 73.5 18.5t80.5 18.5l403 12q0 -8 -4 -20l-2 -19q-4 -18 -25 -80l-383 11q-41 2 -116 28q-27 10 -39 11z M1378 924l6 12l152 4q10 0 31 6l84 25q18 6 43 6l405 14v-47q0 -27 -6 -76l-410 15q-41 2 -67 10l-55 18q-25 8 -33 9z" />
<glyph unicode="r" horiz-adv-x="1454" d="M0 43l6 14l125 2q33 0 66 11l69 20q16 4 47 6l369 15l-57 -111h-281q-72 0 -125 18q-33 10 -88 23zM68 172l6 12l129 2q27 0 53 9l72 20q6 2 57 10l367 13l-66 -123l-328 14q-23 0 -53.5 10.5t-60.5 20.5q-16 6 -27 6zM137 297l8 14l142 4q10 0 28 4l91 25q27 8 53 8 l360 10l-65 -120l-305 12q-51 2 -101.5 21.5t-91.5 19.5zM201 424l10 14l149 4q8 0 25 4l84 23q27 6 47 8l375 21l-31 -60h109q47 0 84 11l65 18q27 8 39 8l309 12l47 -120l-278 10q-23 2 -66 4q-27 0 -73 8l-66 23l-20 6q2 0 -11 2l-147 2l-31 -53l-284 12q-76 4 -122 21.5 t-69 17.5zM272 551l7 12l153 4q29 6 90 25q41 12 66 12l977 12q-59 -37 -121 -65l20 -55l-893 12q-18 0 -43 8q-6 0 -32.5 9.5t-32.5 9.5q-12 6 -39 12zM340 678l8 14l152 4q16 0 35 6q92 29 114 29l1065 10q-70 -80 -145 -123l-916 17q-39 0 -73.5 12t-69.5 23q-12 4 -21 4 zM410 807l6 12l147 2q4 0 25 4q55 16 125 33l1087 10q-47 -86 -84 -120l-1036 16q-10 0 -27 6l-16 6l-57 21q-16 6 -29 6zM477 932l4 12l152 4q12 2 59 15q27 10 76 20l395 25l-71 -140l-351 25q-18 2 -47 12q-57 23 -67 23zM545 1059l6 14h123q33 0 67 10l76 23q18 6 68 6 l970 10q0 -12 3 -26v-19q0 -37 -11 -76l-1018 17q-18 0 -49 8l-63 25q-14 6 -35 6zM612 1186l6 14h119q41 4 58 8l88 25q23 4 49 6l880 10q33 -61 41 -121l-940 17q-61 2 -101 19.5t-50 17.5zM680 1313l8 14l146 2q16 0 36 6q102 31 177 31h460q231 0 301 -111l-819 15 q-43 0 -82 14l-53 19q-16 6 -27 6zM893 297l6 12l148 4q14 0 49 11l59 16q12 4 33 8l325 14l48 -122l-289 10q-92 4 -117 8q-14 2 -82 27q-16 6 -29 6zM930 170l6 12l154 4q4 0 14 2l88 25q18 8 41 8l332 15l47 -121l-344 10q-82 2 -150 31q-14 4 -35 8zM967 41l8 16l151 2 q2 0 9 2l82 23q2 0 18 5t31 5l348 15l41 -109h-393q-33 0 -113 31q-14 6 -29 6zM1188 930l8 14h111q51 0 94 14l55 19q16 4 45 8l346 12q-12 -68 -47 -125l-334 15q-23 0 -47 10l-53 21q-27 6 -63 8z" />
<glyph unicode="s" horiz-adv-x="1159" d="M-96 39l6 12l147 4q20 0 97 25q31 10 67 14l928 15q-121 -76 -254 -107t-344 -31q-225 0 -352 31l-119 29q-14 4 -39 4zM-29 166l9 12l145 4q53 18 166 39l1001 19q-41 -51 -112 -109l-11 -8q-2 0 -8 -6l-866 8q-61 0 -84 8l-64 23q-14 4 -51 6zM39 293l6 12l141 4 q18 0 33 6l94 27q20 6 45 6l1022 19q-33 -61 -84 -125l-970 10q-27 0 -109 29q-23 8 -33 8zM338 928l8 14l131 2q25 0 92 21q61 18 78 18l443 16q-10 -18 -11 -32q0 -41 78 -78q12 -4 29 -12l-504 10q-86 2 -168 31q-16 6 -27 6zM342 801l6 14l141 2q20 2 97 25q47 14 71 14 l543 16q123 -51 168 -120l-727 8q-35 0 -78 16q-51 20 -84 21zM377 1053l6 16l147 4q8 0 31 4l88 27q18 6 47 6l897 18l-69 -131l-41 15q-100 35 -215 35q-111 0 -170 -41l-371 8q-92 2 -129 16q-57 23 -74 23h-147zM449 674l6 14l118 4q39 2 72 10l76 21q20 6 37 6l616 16 q41 -55 49 -120l-667 8q-45 0 -103 22q-20 8 -63 17zM469 1178l8 18l152 4q8 0 28 6l82 25q18 6 47 6l875 20l-68 -122l-825 8q-27 0 -45 6l-80 27q-6 2 -16 2h-158zM643 549l6 12l150 6q6 0 20 2l86 25q27 8 49 8l471 16q4 -45 5 -53q0 -29 -9 -67l-471 8q-47 0 -125 31 q-20 8 -34 8zM653 422l6 14l150 2q23 4 88 25q29 8 68 14l456 17q-10 -66 -41 -123l-438 10q-35 0 -106 29q-20 8 -29 8zM655 1311l9 14h106q41 0 205 29q223 39 395 39q188 0 336 -50l-43 -81l-705 8q-43 0 -65 8l-55 18q-35 12 -74 13z" />
<glyph unicode="t" horiz-adv-x="1173" d="M205 43l8 14l152 2q10 2 34 9q97 30 118 30h1l371 13l-60 -111h-329q-33 0 -81 19.5t-79 19.5zM272 170l7 12l151 4q4 0 37 9q78 27 121 28l368 15l-65 -123l-262 10q-29 2 -68 4q-20 2 -43 6l-69 25q-14 6 -43 6zM340 297l8 12l152 4q2 0 6 2h6l59 17l29 10q12 2 45 8 l379 12q-41 -80 -59 -112l-7 -8l-241 8q-25 0 -72 4q-35 2 -47 6l-84 27q-10 2 -25 6zM410 424l6 14h147q16 0 76 21q51 16 80 18l373 15l-64 -121l-326 10q-39 2 -114 31q-20 8 -31 8zM430 1055l10 18l144 2q39 10 114 29q31 8 56 8l956 14l-63 -125l-908 15q-45 0 -125 28 q-29 10 -39 11h-145zM477 551l6 14l142 2q27 0 84 18.5t86 18.5l364 12l-65 -122l-234 10q-100 4 -118.5 7t-88.5 28q-23 8 -32 8zM498 1184l8 16l149 2q10 0 25 4l94 27q20 6 49 6l955 14l-64 -120l-889 8h-15q-36 0 -62 8l-70 22q-16 6 -55 9zM545 678l4 12l121 2 q39 0 65 8l78 23q27 8 43 8l371 12l-66 -122l-207 10q-113 6 -135 8t-53 12q-57 20 -74 21zM561 1309l10 18l152 2q10 0 25 4l96 27q16 6 49 6h944l-57 -106l-916 10q-39 0 -76 14l-49 19q-10 4 -24 4zM612 803l9 16l147 2q39 10 98 25q39 10 60 10l368 14l-63 -120l-270 10 q-90 4 -162 31q-27 10 -43 10zM680 932l8 14h146q2 0 94 25q23 8 65 14l371 12l-66 -120l-329 12q-29 0 -49 8l-62 23q-20 8 -45 8z" />
<glyph unicode="u" d="M166 291l8 14l152 4q14 0 84 23q51 16 77 16l437 6h6l43 -10q8 -2 37 -2q45 0 100 14l481 6q-41 -70 -75 -120l-1061 10q-31 0 -68 14q-29 10 -74 23zM184 166l6 12l111 2q41 0 74 10l78 23q12 4 45 8l1011 15q-55 -72 -118 -121l-918 10q-27 4 -41 6l-78 27q-18 4 -37 4 zM199 418l6 12l151 6q4 0 78 21q49 14 90 16l334 14q-12 -37 -12 -51q0 -45 65 -76l-438 21q-37 2 -88 22q-25 10 -33 11zM246 545l8 14l149 2q4 0 17 4q49 16 137 35l367 14l-64 -122l-338 12q-25 4 -100 31q-8 2 -21 6zM285 41l6 12l153 2q2 2 13 4l69 19l19 6 q29 10 59 10l778 17q-170 -137 -518 -138q-215 0 -348 39l-70 21q-12 4 -22 4zM313 672l6 12l103 2q53 2 76 8l73 23q31 10 56 10l364 12l-63 -121l-314 13q-35 2 -92 20.5t-96 18.5zM381 799l4 12l154 4q27 6 75 21.5t80 17.5l365 14l-64 -120l-331 12q-29 2 -37 4l-66 22 l-26 9q-4 0 -9 2zM446 924l9 14l153 6q10 0 27.5 6t58.5 17.5t72 13.5l360 12l-63 -121l-338 13q-18 0 -59 16q-53 20 -72 21zM514 1051l8 16l148 2q37 8 90 25q35 12 57 12l375 16l-62 -123l-325 13q-25 0 -100 26q-29 8 -46 9zM578 1178l10 16l151 4q12 0 88 23 q39 12 60 12l373 14l-66 -121l-307 13q-70 2 -123 26q-23 10 -33 11zM645 1305l8 16l97 2q29 0 96 10l72 19q55 14 77 14h324l-55 -113l-297 11q-53 2 -101 18q-57 20 -71 21zM975 420l8 14l150 4q25 0 76 16.5t77 18.5l373 16l-64 -120l-329 10q-31 0 -68 16q-53 23 -74 23 zM1042 547l11 14l145 2q16 0 71.5 17.5t86.5 21.5l368 12l-61 -118l-324 10q-23 0 -49 6l-78 27q-10 6 -61 6zM1112 674l6 14l86 -2h14q42 0 76 10l68 21q29 8 59 10l371 16l-63 -120h-21l-319 10q-4 2 -9 2l-28 6l-56 18l-28 9q-4 2 -8 2zM1180 801l4 12l141 2q20 0 107 27 q27 8 51 12l377 16l-66 -122l-297 10q-51 2 -76 10l-73 25q-10 4 -27 4zM1245 928l8 12l148 4q2 0 90 25q41 12 63 12l371 16l-63 -120l-263 8q-20 0 -61 2q-16 2 -41 6l-78 25q-10 2 -28 6zM1309 1051l8 16l151 4q12 0 25 4l82 25q25 8 43 8l373 16l-64 -120l-336 10l-30 6 l-74 27q-20 4 -31 4h-147zM1376 1178l6 18l156 2q4 0 88 25q37 10 68 12l362 16l-61 -121l-340 11q-10 2 -33 8q-78 29 -90 29h-156zM1442 1305l8 18h119q33 0 61 8l72 21q51 14 217 14h197l-56 -111l-270 11q-74 2 -90 8l-74 24q-18 6 -39 7h-145z" />
<glyph unicode="v" horiz-adv-x="1398" d="M254 41l4 12l154 4q14 0 32 6q43 14 125 31l529 15l-88 -109h-451q-39 0 -90 18.5t-80 18.5zM283 168l8 12l149 4q14 0 31 9q103 30 126 30h1l604 10l-100 -120l-533 14q-31 0 -45 8l-69 25q-14 4 -29 4zM311 295l6 12l152 4q10 0 29 6q109 33 200 35l611 10l-103 -122 l-497 12l-230 35q-8 4 -16 4zM340 422l8 12l152 4l10 2l74 23q45 14 80 14l749 12l-100 -122l-692 14q-31 4 -50 10l-57 21q-6 4 -22 4zM369 547l6 16l149 2q10 0 69.5 17.5t88.5 19.5l332 14l-8 -34q80 20 96 20l416 14l-101 -120l-330 10q-35 2 -94 22l-12 -41l-342 23 q-10 0 -27 6l-61 21q-23 8 -49 8zM397 676l9 12l147 4q4 0 10 2l27 6q6 4 45 15q47 14 70 14l342 14l-13 -49q35 0 80 15q61 18 98 20l408 12l-98 -120l-355 14q-6 0 -12 2l-25 6l-63 23q-10 2 -39 6l-12 -49l-338 12q-31 2 -103 31q-14 6 -26 6zM426 803l6 12l105 2 q53 2 71 8l74 21q33 10 104 12l293 12l-14 -51h35q57 0 86 8l69 21q33 10 56 10l415 12l-100 -122l-348 14q-20 0 -37 6l-88 29q-6 2 -68 2l-22 2l-14 -53l-342 14q-12 0 -43 8l-54 21q-23 8 -88 10zM453 930l8 14l143 2q20 0 39 6l86 27q12 2 41 6l340 12l-14 -55l147 4 q16 0 37 8l63 15q27 8 78 16l408 14l-98 -120l-349 10q-27 0 -49 8l-61 21q-31 10 -68 10h-110l-15 -54l-295 13q-63 2 -86 10l-71 25q-10 4 -25 4zM483 1055l6 18h150q6 0 27 6q47 16 131 33l346 12l-31 -120l-346 12q-23 0 -53 12q-57 23 -78 23zM512 1182l8 16l152 4 q16 0 33 6l36 13l27 8q25 4 57 10l351 12l-31 -121l-361 15q-31 2 -92 22q-35 12 -51 13zM535 1309l10 16l135 2q14 0 59 12q129 27 144 27h319l-24 -109l-328 11q-35 0 -78 12l-65 18q-18 8 -37 9zM1188 1057l8 14l150 2q12 0 26 6l96 27l37 6l428 12l-98 -118l-346 10 q-37 2 -111 26q-35 12 -53 13zM1288 1182l8 16l150 4q8 0 22 2l101 29l37 6l430 12l-99 -121l-374 17q-31 2 -90 24q-14 4 -33 9zM1391 1309l6 16l168 4q18 0 41 4l102 29q14 4 51 4h369l-84 -106l-363 12q-39 2 -65 12l-39 16q-20 6 -35 7z" />
<glyph unicode="w" horiz-adv-x="2164" d="M254 51l8 12l150 3q4 0 18 4l64 18q47 14 73 14l449 13l-80 -115h-352q-47 0 -88 16q-72 29 -134 31zM283 176l6 14l155 3q8 0 23 4q80 23 111.5 27.5t126.5 6.5l405 9l-90 -121l-432 12q-25 0 -123 33q-25 8 -39 8zM313 303l11 14l137 -2q10 0 43 11q95 30 151 30h4h35 l510 9l-37 -52h111q27 0 31 2l84 23q23 12 65 12l600 8l-102 -120l-443 14q-102 4 -116 8l-76 25l-29 8q2 0 -8 2l-131 2l-39 -53l-500 14q-31 0 -63 12l-64 23q-2 0 -34 6zM344 428l6 14l150 2q12 0 39 9q89 28 134 28h3l622 11l-36 -52h61q23 0 57 11q81 24 120 24h3 l660 8l-101 -118l-610 16l-31 8l-67 23q-25 8 -72 8h-35l-41 -49l-565 14q-10 0 -121 33q-12 4 -33 8zM375 555l6 14l149 2q14 0 76 18.5t90 18.5l695 8l-35 -49q23 0 104 23q43 12 70 12l737 8l-100 -121l-662 17q-25 0 -69 16q-57 20 -97 23l-39 -49l-638 16 q-25 0 -73 19.5t-71 19.5zM403 682l7 12l143 2q14 0 35 6q104 33 155 33l308 6l-9 -34q20 2 27 6l41 10q29 8 49 8l332 17l-31 -43q16 4 21 6l41 10q20 4 45 6l276 12l-8 -37q55 25 98 25l439 8l-101 -119l-362 15q-29 2 -68 14q-8 0 -20 6l-13 -39l-229 17q-68 4 -127 24 q-6 4 -25 9l-34 -41l-246 14q-45 2 -117 27l-10 -44l-301 19q-57 4 -98 18q-29 10 -76 23zM432 809l8 12l90 2q76 2 86 6l91 25q14 4 67 6l311 12l-12 -51q25 0 53 8q88 27 131 27l619 10l-12 -51q37 2 67 12q74 25 107 25l438 10l-98 -119l-355 13q-41 2 -85 18.5t-80 20.5 l-13 -50l-573 15q-72 2 -94 10l-74 27l-37 4l-14 -53l-289 14q-70 4 -146 33q-8 2 -36 10zM463 934l10 14h94l23 2l37 2q16 0 28 6l68 19q16 4 45 10l350 10l-12 -51h53q39 0 68 8l78 23q20 6 51 6l555 8l-17 -53l39 2l56 2q18 6 90 27q25 8 53 8l448 10l-98 -119l-258 11 q-68 2 -164 14l-73 25q-4 2 -21 2l-49 2h-25l-16 -52l-502 17q-74 2 -86 6l-82 27q-25 8 -41 8h-65l-15 -51l-342 16q-23 2 -64.5 18.5t-64.5 16.5zM489 1059l9 16h94q57 0 86 8l80 23q18 4 47 6l346 12l-12 -53l147 2q14 0 29 4l67 19q43 12 66 12l496 10l-15 -51l80 -2 q16 0 47 2l47 4l78 23q33 10 55 10l449 10l-98 -121l-381 17q-12 0 -109 32l-18 5h-6l-148 4l-12 -54l-389 13q-125 4 -154 14l-61 23q-20 8 -60 8l-114 2l-15 -53l-348 14q-49 18 -129 37zM518 1186l8 16h156l8 4l37 8q4 2 23 7q31 8 79 18l355 12l-31 -121l-332 15 q-43 2 -80 16q-51 20 -71 21zM547 1313l6 14h117q33 0 80 12q100 27 131 27h331l-26 -109l-355 15q-23 0 -66.5 18.5t-64.5 18.5zM1075 45l6 12l152 4q8 0 22 5q103 30 132 30h2l458 13l-90 -109h-368q-43 0 -95 18l-34 13q-29 10 -35 10zM1108 172l8 12l117 2q43 0 70 9 q80 23 99 26.5t68 3.5l482 8l-99 -120l-448 16q-31 2 -80 19.5t-70 17.5zM1227 1182l8 14l82 2h51q33 0 74 12q80 25 112 25l422 10l-30 -121l-424 15q-31 2 -68 14t-78 25zM1321 1305l8 18l158 2q23 4 96 25q61 16 225 16h197l-27 -115l-348 13q-39 2 -69 12l-56 20 q-16 6 -30 7zM2021 1176l7 14l149 4q10 0 33 6l84 23q29 8 45 8l452 10l-100 -121l-371 15q-51 2 -94 18q-53 20 -92 21zM2118 1303l8 14l186 4q8 0 25 4l69 21q72 20 123 20h355l-88 -121l-381 17q-14 0 -99 22q-45 14 -98 16z" />
<glyph unicode="x" horiz-adv-x="1466" d="M-109 47l7 12l153 2q18 4 78 21q39 14 72 16l454 15l-108 -113h-314q-74 0 -155 31q-27 10 -35 10zM25 174l6 12l159 4q12 0 34 7.5t73 21.5q31 6 55 6l428 13l-118 -121l-357 14q-25 0 -67.5 18.5t-65.5 18.5zM160 301l6 12h139q10 0 33 6l94 27q18 6 49 6l422 10 l-47 -51h47q78 0 137 17q78 20 107 22l328 12l2 -120l-361 12q-27 0 -37 4l-73 25q-37 12 -119 12h-47l-54 -51l-346 12q-45 18 -131 39zM293 424l4 14l152 4q6 0 26 4l84 25q12 4 45 8l432 19l-51 -56h6q2 0 23 4q4 2 65 19q20 6 64 12l327 12l5 -122l-355 14q-31 2 -78 18 q-35 12 -81 19l-52 -49l-329 14q-16 2 -45 8l-66 25q-16 6 -33 6zM424 551l8 14l146 4q10 0 28 4l70 19q33 12 69 12l723 12l2 -122l-741 14q-41 0 -94 20q-25 10 -92 21zM559 680l6 12h107q45 0 80 10l77 23q18 6 48 6l626 12l-37 -36l2 -84l-602 12q-43 0 -86 16 q-61 23 -73 23zM600 1311l10 18h142q14 0 34 6l82 25q20 6 74 6h320v-109l-363 13q-37 2 -82 18q-53 20 -69 21zM602 1059l8 14l154 2q2 0 14 4q104 31 148 33l338 12v-49q29 0 49 8q88 27 123 27l442 12l-119 -121l-350 15q-45 2 -76 16q-43 14 -67 19v-56l-369 21 q-35 2 -51 8l-66 25q-20 8 -37 8zM602 1186l8 14l113 2q51 0 103.5 17.5t95.5 19.5l342 12v-53h41q88 0 127 10l55 15q29 8 90 16l428 10l-121 -121l-352 15q-29 2 -43 6l-72 25q-25 8 -98 8h-55v-52l-326 13q-88 4 -160 31q-10 4 -24 8zM604 805l6 14h117q33 0 119 23 q61 16 80 16l702 10l-119 -120l-614 14q-29 0 -70 16q-55 23 -82 23zM604 932l6 14l150 2q10 0 22 4l60 19q43 14 96 14l815 12l-119 -123l-712 15q-55 2 -103 18l-45 17q-14 4 -24 4zM819 43l4 12l154 4q16 0 86 23q25 8 63 14l353 13l2 -109h-330q-72 0 -150 31 q-20 8 -30 8zM821 170l6 14h99q61 0 94 11l67 20q25 8 46 8l344 15l2 -123l-365 12q-27 0 -77 19.5t-74 19.5zM1368 1309l8 16h115q25 2 57 6l94 27q29 8 132 8h342l-105 -109l-264 9q-106 4 -135 12l-72 22q-10 2 -27 7z" />
<glyph unicode="y" horiz-adv-x="1308" d="M283 45l6 12l153 4q2 0 27 5q47 16 129 32l367 11l-58 -109h-313q-82 0 -135 29l-25 12zM350 172l8 12h101q45 0 73 9l80 22q20 6 56 10l366 11l-65 -121l-338 14q-23 0 -68 17.5t-123 21.5zM418 297l8 14l147 2q8 0 23 4l92 27l23 4q6 2 32 2l357 12l-64 -120l-303 12 q-57 2 -88 14l-53 21q-8 2 -27 6zM485 424l11 14l147 2q4 0 10 2l64 17l24 8q14 4 54 10l374 12l-65 -120l-260 10q-92 4 -117 12l-63 23q-4 2 -101 8zM496 1311l10 16l123 2q35 0 47 4l67 21q41 12 152 12h225l8 -111l-325 15q-53 2 -88 16l-41 17q-2 0 -29 6zM510 1186 l8 14l144 2q12 2 14 2l90 27q16 4 41 6l319 14l7 -123l-338 17q-4 0 -136 33q-12 4 -18 4zM520 1059l6 14l142 2q12 0 24 4l68 21q29 8 57 10l316 14l4 -53h28q84 0 117 10l45 15q43 14 74 14l426 12l-123 -121l-332 13q-25 0 -45 8l-53 18q-35 12 -90 13h-47l2 -52l-332 15 q-29 2 -74 16q-33 10 -71 23zM526 932l9 14l143 2q2 0 6 2t20.5 5t55.5 14.5t61 13.5l318 14l2 -45q96 31 129 31l424 12l-121 -121l-342 13q-25 0 -88 24l2 -45l-338 23q-31 2 -66 16q-53 23 -71 23zM535 805l4 14l145 2q2 0 23 4q100 31 190 33l668 10l-127 -120l-619 14 q-33 0 -82 19.5t-63 19.5zM543 553l8 12l149 2q8 0 31 8q74 27 141 29l426 10l-122 -120l-340 14q-18 0 -78 18l-41 13q-27 8 -37 8zM543 678l4 12l147 4q16 0 88 23q45 14 68 14l582 10l-125 -120l-459 14q-25 0 -68 8l-71 25q-23 8 -54 8zM1204 1182l8 14l115 2l47 2 q10 2 29 6l70 21q25 6 55 8l430 14l-125 -121l-330 15q-41 2 -127 33q-10 4 -16 4zM1325 1309l8 14l172 4q10 0 25 4l80 23q43 12 207 12h258l-109 -111l-342 15q-23 0 -61 16q-45 18 -74 19z" />
<glyph unicode="z" horiz-adv-x="1320" d="M-106 45l4 12l151 4q14 0 35 7q49 16 145 32l1123 9l-60 -109h-1099q-27 0 -56 10l-59 21q-29 10 -45 10zM25 172l4 12h75q76 0 119 13q95 28 129 28h2l1065 11l-65 -121l-1014 14q-45 0 -70 8l-67 23q-18 6 -74 8zM156 299l4 12l157 4q8 0 21 4q96 31 149 31h994 l-58 -110l-974 16q-27 0 -43 6l-72 25q-16 6 -27 6zM287 424l4 14l151 2q12 2 13 2l32 9l33 10q51 14 92 16l475 12l-131 -129l-313 19q-102 6 -139 20q-57 23 -72 23zM418 551l6 12l149 4q2 0 9 2h8l84 25q33 10 61 10l482 10l-123 -118l-275 8q-139 4 -162 12l-73 27 q-12 6 -25 6zM469 1057l6 14l107 2q45 0 80 10l81 23q20 6 52 6l944 10l-123 -121l-842 15q-43 0 -92 18q-27 10 -80 21zM537 1186l8 12l147 4q12 0 27 4q59 16 139 33l1012 10l-125 -121l-901 15q-41 0 -87 16.5t-58.5 18.5t-47.5 4zM547 678l6 14l135 2q33 0 93.5 18.5 t99.5 18.5l469 12l-125 -122l-391 14q-25 0 -113 33q-16 6 -25 6zM604 1311l6 16l148 2q10 0 33 6l75 21q39 10 90 10h1029l-109 -111l-989 15q-20 2 -99 30q-23 8 -34 9zM678 805l6 12l150 4q8 0 26 4l68 19q41 10 86 12l465 12l-125 -120l-375 14q-63 2 -121 26 q-29 12 -37 13zM807 930l8 14l156 4q8 0 29.5 5t56.5 18q25 6 65 12l488 12l-125 -121l-365 13q-45 2 -133 33q-16 6 -29 6z" />
<glyph unicode="{" horiz-adv-x="819" d="M68 0v1366h684v-1366h-684zM82 14h655v1338h-655v-1338z" />
<glyph unicode="|" horiz-adv-x="819" d="M68 0v1366h684v-1366h-684zM82 14h655v1338h-655v-1338z" />
<glyph unicode="}" horiz-adv-x="819" d="M68 0v1366h684v-1366h-684zM82 14h655v1338h-655v-1338z" />
<glyph unicode="~" horiz-adv-x="819" d="M68 0v1366h684v-1366h-684zM82 14h655v1338h-655v-1338z" />
<glyph unicode="&#xa1;" horiz-adv-x="815" d="M27 45l6 10l149 4q8 0 23 4l67 19q51 14 70 14l369 13l-60 -109h-323q-45 0 -115 29l-35 10zM94 170l6 12l156 4q4 0 10 2l92 27q25 8 50 8l370 15l-65 -123l-310 12q-74 2 -143 35q-10 4 -18 4zM162 297l8 12l94 2q33 0 90 8l70 21q31 8 65 10l355 12l-64 -118l-319 10 q-35 2 -103 25q-39 14 -57 14zM229 424l9 14l147 2q8 0 31 6l90 25q20 6 39 6l368 12l-65 -120l-285 10q-70 2 -96 12l-57 21q-23 8 -35 8zM299 553l8 10l148 4q6 0 18 2l66 19q55 16 75 16l367 12l-63 -120l-328 12q-31 2 -80 19.5t-74 19.5zM362 676l11 14l153 4 q10 0 78 21q51 14 82 16l361 12l-64 -120l-248 10q-90 4 -105.5 7t-86.5 28q-16 6 -29 6zM430 805l8 14l158 2q8 0 22 6q113 33 144 33l344 -2l-55 -106l-318 10q-27 0 -55 10l-62 21q-27 8 -81 10zM563 1057l8 14h84q68 0 103 10l76 23q16 6 43 6l370 14l-53 -108h-307 q-57 0 -82 8l-72 25q-18 6 -28 6zM631 1184l8 14h92q55 0 100 12l74 21q20 6 39 6l371 12l-66 -121l-329 13q-12 2 -33 6l-70 24q-14 4 -35 9l-63 2zM700 1313l7 10l155 6q20 0 75.5 17.5t92.5 17.5h47l299 2l-57 -111l-330 15q-23 0 -39 6l-76 24q-18 6 -24 7z" />
<glyph unicode="&#xa2;" horiz-adv-x="1382" d="M260 551l6 14l150 2l10 2l92 27q23 4 55 10l437 12q25 -96 108 -120l-563 12q-33 0 -68 14q-55 23 -73 23zM276 424l7 14l135 2q12 2 31 4l96 27q20 8 47 8l541 13q49 -8 94 -9q88 0 217 29l-78 -143l-805 14q-20 0 -39 8l-69 23q-14 8 -60 8zM279 678l6 14l143 4 q18 0 31 4l80 23q35 10 53 10l463 12q-45 -53 -45 -114v-8l-449 14q-18 0 -100 29q-12 4 -29 8zM281 -86l8 16l151 2q12 2 13 2l67 21q45 14 70 14l309 11l-61 -107h-260q-29 0 -72 14q-61 20 -70.5 22.5t-15.5 4.5h-139zM319 807l7 12l98 2q63 2 92 10l66 21q25 8 67 8 l656 10q-166 -37 -246 -118l-410 10q-70 2 -153 35q-10 2 -23 4zM328 297l8 16l94 -2q51 -2 84 8l78 23q35 10 49 10l723 13l-64 -121l-684 12q-16 0 -47 8l-57 21q-8 4 -68 10h-45zM348 43l4 14l154 4q20 0 78 21q37 12 71 14l312 13l-64 -121l-278 14q-2 0 -11 2l-18 4 l-76 27q-16 6 -26 6zM416 170l4 14l143 4q18 0 31 5l74 20q43 12 69 12l559 13l-59 -113q-102 -16 -186 -16q-10 0 -80 4l-279 16q-18 2 -64 19.5t-63 17.5zM428 934l8 14l148 2q14 0 34 6q49 14 134 31l950 12l-74 -137q-74 20 -172 21q-66 0 -102 -4l-19 -2l-469 10 q-35 2 -108 4q-55 2 -72.5 6t-81.5 27q-14 4 -24 6zM571 1055l11 18l143 4q8 0 25 2l96 27q20 8 47 8l874 14l-63 -120l-844 10q-4 0 -16 2l-33 8l-61 21q-18 6 -70 6h-109zM797 1182l8 18l153 4q4 0 25 4l78 25q23 6 53 8l471 19q170 -10 236 -33l-52 -94l-673 12 q-33 0 -85.5 19.5t-95.5 19.5zM1026 1323l6 10l154 4q6 0 26 4l76 23q25 6 51 8l314 12l-64 -120l-270 14q-39 2 -84 18q-27 10 -80 21zM1096 1448l8 12h100q43 0 74 8l94 25q25 6 111 6h229l-57 -110l-283 16q-12 0 -35 8l-67 23q-16 6 -33 6z" />
<glyph unicode="&#xa3;" horiz-adv-x="1581" d="M39 45l6 12h70q80 0 116 11l82 22q29 8 47 8l1141 11l-59 -109h-1082q-51 0 -147 33q-18 6 -25 6l-147 4zM106 168l7 14l147 4q8 0 31 7l84 22q37 10 90 10l1104 8l-66 -120l-1114 14q-2 2 -12 2l-21 6l-82 27q-12 4 -28 4zM174 295l8 16l152 2q2 0 8 2t23 4q8 2 30 11 q63 20 107 20l1134 10l-63 -120l-1018 12q-109 2 -141 12l-60 21q-23 8 -35 8zM309 549l6 14l113 2q49 0 68 6l84 25q18 6 57 6l940 12l-66 -120l-890 12q-41 0 -84 16q-68 25 -86 25zM377 676l8 14l152 4q6 0 22 4q104 31 143 31l943 10l-66 -121l-899 15q-39 0 -83 17.5 t-73 23.5zM444 803l9 14h131q6 0 24 4l27 6l49 15q47 14 84 14l944 12l-63 -120l-799 10q-127 2 -154 8l-67 25q-20 8 -111 10zM451 422l10 14l145 4q8 0 27 4l90 25q18 4 51 6l414 17l-70 -132l-364 19q-55 2 -127 31q-20 8 -31 8zM733 930l8 14l119 2q39 0 66 8l71 21 q18 6 45 6l519 16q-102 -41 -158 -129l-381 19q-33 2 -66 14l-41 17q-27 8 -41 8zM807 1057l8 14l141 2q8 0 27 2l92 27q27 8 53 8l832 12l-68 -127q-115 25 -184 25q-57 0 -133 -16l-455 12q-25 0 -86 12l-61 19q-10 6 -17 6zM895 1184l4 12l152 4q8 0 30 6l90 25 q20 6 52 6l802 12l-63 -121l-758 13q-45 0 -106 22q-45 16 -60 17zM1067 1311l8 14l156 2q4 0 26 4l138 25q123 23 221 26q45 2 96 2q61 0 167 -8t198 -28l-47 -95l-635 15q-70 2 -146 30q-20 8 -35 9z" />
<glyph unicode="&#xa4;" horiz-adv-x="1241" d="M86 424l207 205q-88 117 -88 256t88 256l-207 205l72 73l207 -207q119 90 256 91q141 0 260 -91l204 207l72 -73l-205 -205q86 -113 86 -256q0 -141 -86 -256l205 -205l-72 -74l-204 207q-113 -88 -260 -88q-143 0 -256 88l-207 -207zM309 887q0 -131 91.5 -223.5 t222.5 -92.5q129 0 221 93.5t92 222.5q0 131 -91 222t-222 91t-222.5 -91t-91.5 -222z" />
<glyph unicode="&#xa5;" horiz-adv-x="1374" d="M266 553l6 12l148 2q14 0 35 6q57 16 93 23.5t60 7.5l1022 10l-65 -122l-1004 16q-23 0 -88 20l-47 15q-6 4 -16 4zM322 45l4 12l155 4q2 0 27 5q47 16 129 32l367 11l-58 -109h-287q-76 0 -120 18l-41 17q-10 2 -27 6zM334 678l4 12l149 4q16 0 86 23q45 14 68 14 l1057 10l-64 -120l-995 14q-45 0 -68 8l-71 25q-23 8 -54 8zM389 172l8 12h101q45 0 73 9l78 22q33 10 58 10l364 11l-65 -121l-336 14q-25 0 -70 17.5t-123 21.5zM399 805l7 14l143 2q2 0 22 4q100 31 191 33l1005 12l-65 -122l-1018 14q-27 0 -76 19.5t-67 19.5zM457 297 l8 14l145 2q8 0 23 4l92 27l25 4q6 2 32 2l357 12l-64 -118l-303 10q-55 2 -88 14l-55 21q-8 2 -25 6zM524 424l11 14l147 2q4 0 10 2l64 17l24 8q14 4 54 10l374 15l-65 -123l-260 10q-94 4 -119 12l-64 23q-4 2 -100 8zM535 1311l10 16l123 2q35 0 47 4l67 21 q41 12 150 12h229l4 -111l-325 15q-55 2 -88 16l-39 17q-2 0 -29 6zM549 1186l6 14l145 2q12 2 13 2l92 27q16 4 41 6l319 14l6 -123l-335 15q-18 0 -60 12q-23 6 -51.5 16.5t-36.5 10.5zM557 1059l6 14l142 2q14 0 94 25q29 8 57 10l315 14l3 -53h30q82 0 117 10 q43 14 119 29l426 12l-125 -123l-338 15q-12 2 -39 8l-51 18q-35 12 -90 13h-49l4 -49l-291 10q-76 2 -115 18q-53 23 -72 23zM563 932l10 14l144 2q2 0 6 2l78 21q41 10 73 12l304 14v-45q100 31 131 31l424 12l-129 -121l-322 13q-35 2 -102 24l4 -43l-312 19 q-59 4 -153 37q-6 2 -17 4zM1243 1182l8 14l115 2l47 2q16 4 27 6l71 21q25 8 56 8l430 14l-125 -121l-328 13q-14 0 -67 14q-35 10 -72 23zM1364 1309l8 14l172 4q12 0 25 4l78 23q43 12 208 12h259l-109 -111l-344 15q-20 0 -59 16q-45 18 -74 19z" />
<glyph unicode="&#xa7;" horiz-adv-x="819" d="M68 0v1366h684v-1366h-684zM82 14h655v1338h-655v-1338z" />
<glyph unicode="&#xa8;" horiz-adv-x="1404" d="M858 1503l6 13l88 4q39 2 92 6l72 20q25 8 47 8l324 15l-25 -49l23 -2q53 -4 104 10l64 18q27 8 43 8l321 13l-57 -111l-148 4h-106q-45 0 -70 8l-59 21q-31 10 -90 10h-35l-25 -39h-284q-4 2 -8 2l-33 6q-6 2 -23 9q-57 23 -73 22zM926 1630l8 12l90 3q35 0 74 4l90 26 q25 6 51 8l315 13l-26 -51h57q35 0 72 10l74 20q18 6 43 6l311 11l-64 -119l-252 14q-45 2 -59 6l-63 23q-29 10 -84 10h-45l-27 -51l-287 14q-10 0 -30 6l-23 7l-4 4h-2q14 0 -43 14q-12 2 -27 6zM993 1757l13 15l114 2q41 0 54 4l79 22q37 10 64 10h297l-19 -36q4 -2 9 -2 h47q43 2 57 6l90 24l31 6q6 0 14 2h15l288 -2l-55 -108l-266 14q-39 2 -56 8l-59 23q-23 8 -82 8h-43q-10 -18 -29 -49v-2l-223 10q-63 2 -80 6q-55 23 -92 33q-10 2 -18 2z" />
<glyph unicode="&#xa9;" horiz-adv-x="819" d="M68 0v1366h684v-1366h-684zM82 14h655v1338h-655v-1338z" />
<glyph unicode="&#xaa;" horiz-adv-x="819" d="M68 0v1366h684v-1366h-684zM82 14h655v1338h-655v-1338z" />
<glyph unicode="&#xab;" horiz-adv-x="1253" d="M246 281l4 14l153 4q16 0 80 20q39 12 72 15l225 16l-8 -53h39q84 0 129 14q66 20 94 23l232 14l-21 -108h-166q-74 0 -106 10l-58 18q-33 10 -106 11h-41l-6 -39h-150q-100 0 -135 12l-53 18q-23 8 -59 9zM254 410l8 12l150 4q4 0 28 4l84 25q18 6 35 6l246 14l-8 -51 h49q59 0 80 6l84 25q18 6 30 6l250 14l-24 -121l-236 13q-27 2 -51 10l-57 20q-23 8 -58 9h-71l-11 -52l-235 13q-31 2 -111 30q-14 6 -28 6zM266 537l6 12l129 2q29 0 125 29q23 6 43 8l258 16l-8 -53h39q45 0 105.5 16.5t93.5 18.5l256 16l-23 -121l-231 13q-23 0 -51 4 l-70 24q-29 10 -86 10h-37l-8 -51l-232 13q-51 2 -71 10l-58 20q-16 6 -26 6zM326 664l8 12l110 2q49 0 74 8l78 23q18 6 35 6l307 14l-43 -51h41q43 0 137 29q25 8 41 8l309 14l-106 -121l-234 13q-4 2 -8 2l-22 6l-62 22q-37 8 -67 8h-45l-48 -51l-153 8q-86 4 -96 9 l-74 24q-23 8 -41 8l-66 2zM436 791l10 12l107 2q14 0 41 2q4 0 51 12q35 10 92 23l312 16l-45 -53h28q49 0 154 29q16 8 41 8l305 12l-107 -121l-231 15q-10 2 -35 8q-84 31 -117 30h-55l-45 -51l-215 13q-43 2 -85 19t-58 17zM545 915l8 15l139 4q31 0 76 16q59 20 111 21 h266l-29 -39h39q31 0 45 4l88 25q37 10 133 10h209l-92 -111l-233 14q-14 0 -35 9l-64 22q-14 4 -37 6l-36 2h-35l-45 -51l-135 6q-104 4 -132 15l-63 22l-18 4q-6 2 -13 4z" />
<glyph unicode="&#xac;" horiz-adv-x="1705" d="M254 741v117h1198v-502h-115v385h-1083z" />
<glyph unicode="&#xad;" horiz-adv-x="1009" d="M240 477l8 12l151 3q6 0 21 4l72 20q41 12 65 12l594 9l-59 -105h-551q-29 0 -47 6l-82 29q-10 2 -25 4zM309 602l6 12l154 4q6 0 27 7l43 12q10 2 26 8q37 10 51 10l603 9l-66 -123l-405 12q-29 2 -89 4q-43 2 -114 12l-66 25q-14 4 -30 4zM379 731l6 12l150 2 q18 0 36 7q92 29 179 28h528l-57 -112l-447 14q-37 2 -72 2q-61 2 -81 10l-74 25q-16 6 -29 6z" />
<glyph unicode="&#xae;" horiz-adv-x="819" d="M68 0v1366h684v-1366h-684zM82 14h655v1338h-655v-1338z" />
<glyph unicode="&#xaf;" horiz-adv-x="819" d="M68 0v1366h684v-1366h-684zM82 14h655v1338h-655v-1338z" />
<glyph unicode="&#xb0;" horiz-adv-x="819" d="M68 0v1366h684v-1366h-684zM82 14h655v1338h-655v-1338z" />
<glyph unicode="&#xb1;" horiz-adv-x="1124" d="M96 0v127h934v-127h-934zM96 565v127h404v312h127v-312h403v-127h-403v-311h-127v311h-404z" />
<glyph unicode="&#xb4;" horiz-adv-x="1042" d="M858 1497l6 12l154 4q31 10 96 25l14 2q14 4 37 8l348 13l-122 -109h-193q-63 0 -94 10l-70 23q-18 6 -26 6zM975 1622l6 14l72 -2h8q68 0 102 11l86 24q25 4 39 6l369 11l-137 -121l-244 12l-23 4q-57 18 -131 37zM1092 1749l8 14l151 2q4 0 11 2l47 13l43 12 q37 10 71 10q12 0 74 -2l289 -2l-121 -106l-293 14q-23 2 -67.5 20.5t-67.5 18.5z" />
<glyph unicode="&#xb6;" horiz-adv-x="819" d="M68 0v1366h684v-1366h-684zM82 14h655v1338h-655v-1338z" />
<glyph unicode="&#xb7;" horiz-adv-x="841" d="M272 549l9 12l151 4q8 0 27 6q90 29 139 31l358 14l-57 -108h-321q-35 0 -86.5 18.5t-71.5 18.5zM340 674l8 14l74 2q43 0 106 8l84 25q18 6 35 6l377 14l-66 -122l-323 12q-37 2 -117 31q-23 8 -31 8zM408 801l2 14l157 4q16 0 70 19q61 20 240 20h206l-57 -108l-330 12 q-37 2 -110 31q-14 6 -25 6z" />
<glyph unicode="&#xb8;" horiz-adv-x="819" d="M68 0v1366h684v-1366h-684zM82 14h655v1338h-655v-1338z" />
<glyph unicode="&#xba;" horiz-adv-x="819" d="M68 0v1366h684v-1366h-684zM82 14h655v1338h-655v-1338z" />
<glyph unicode="&#xbb;" horiz-adv-x="1261" d="M121 281l8 14l150 4q18 0 36 6q92 29 111 29l307 12l-41 -49h35q45 0 68 6l82 23q29 8 38 8l306 12l-93 -108l-147 2q-104 2 -125 8l-65 22q-25 8 -60 9h-57l-35 -39h-197q-51 0 -75 8l-60 20q-27 8 -86 11zM231 408l7 14l149 4q16 0 96 25q29 8 58 10l305 14l-45 -51h26 q63 0 97 10l51 17q14 4 49 10l309 12l-106 -121l-226 15q-20 2 -40 8l-62 20q-31 10 -82 11h-33l-45 -54l-217 15q-29 2 -53 10l-61 20q-18 6 -29 6zM340 532l8 15l92 2q61 2 92 10l78 23q16 4 47 6l297 12l-43 -49h41q43 0 58 4l88 25q14 4 39 8l305 12l-103 -121l-221 13 q-23 2 -43 8l-61 20q-23 10 -94 10h-27l-43 -51l-217 15q-39 2 -88 18q-23 8 -58 16zM418 662l6 12l106 4q33 2 72 6l84 23q12 4 33 6l250 16l-4 -55l34 2l76 4q14 0 84 22q27 8 58 11l239 14l-8 -123l-250 14q-31 2 -53 11l-55 20q-29 10 -84 10q4 0 -11 -2h-32l-5 -51 l-245 12q-33 2 -86 21q-23 10 -56 18zM440 788l9 13l149 4q8 0 29 6l69 20q25 6 41 9l240 16l-4 -53h78q47 0 131 26q18 6 45 11l239 14l-10 -121q-2 0 -4 -2l-131 8l-121 6q-2 2 -6 3l-23 6l-57 20q-29 10 -94 10h-47l-4 -51l-230 12q-31 2 -84 20.5t-63 18.5l-148 2z M463 918l8 10l147 4q14 0 27 4l86 25q10 0 31.5 4t32.5 4h190l-2 -39h23q104 0 127 6l90 25q31 8 55 8h195l-7 -109l-247 14l-29 9l-62 20q-31 10 -96 10h-26l-23 -2l-4 -51l-176 10q-57 4 -79 8.5t-81 24.5q-14 6 -29 6z" />
<glyph unicode="&#xbf;" horiz-adv-x="1183" d="M31 293l6 16l137 2q25 0 76 17q70 23 110 22l680 12q41 -4 50 -4q55 0 149 25l-76 -143l-829 12q-35 0 -58 8l-69 25q-14 6 -60 6zM55 168l8 14h95q63 0 135 23q29 8 88 18l778 13l-63 -121l-752 12q-25 0 -47 8l-57 21q-16 6 -68 8q-8 0 -45 2zM55 422l6 14l152 2 q2 0 10 2l90 25q35 10 56 10l596 12q-2 -10 -2 -20q0 -76 63 -100l-659 12q-49 0 -84 14q-66 25 -74 25zM156 549l6 12l143 4q14 0 33 4l78 25q25 8 53 8l586 14q-76 -66 -90 -124l-467 14q-63 2 -77.5 5t-80.5 26q-16 6 -31 6zM199 41l6 12l141 4q12 2 31 4l76 23 q25 8 69 12l572 13l-62 -113q-6 0 -16 -3t-37 -7l-47 -9q-35 -6 -137 -6q-96 0 -203 15q-41 4 -230 49h-8q-4 2 -6 2zM393 676l6 12l156 4l14 4l72 21q49 14 76 14l485 10q-57 -55 -145 -123l-330 15q-53 2 -72.5 6t-85.5 27q-16 6 -24 6zM610 805l6 12l121 2q45 0 113 23 q39 12 84 14l356 14q-41 -72 -84 -122l-329 14q-33 2 -91 20q-37 12 -61 19zM741 1057l9 14h84q68 0 102 10l76 23q18 6 41 6l372 14l-57 -108h-303q-57 0 -82 8l-74 25q-18 6 -28 6zM809 1184l8 14h92q55 0 101 12l71 21q18 6 41 6l371 12l-66 -121l-329 13q-25 4 -35 6 l-68 24q-14 4 -34 9zM879 1313l4 10l155 6q12 0 86 23q41 12 84 12h47l299 2l-59 -111l-328 15q-23 0 -39 6l-75 24q-18 6 -25 7z" />
<glyph unicode="&#xc0;" d="M-150 41l7 14l157 4q10 0 78 21q43 12 72 14l436 17l-96 -111h-348q-39 0 -119 29q-20 8 -39 8zM-35 168l6 14l154 4q6 0 22 4l95 27q18 6 43 6l422 13l-105 -121l-350 12q-29 0 -76 17.5t-70 21.5zM78 295l6 14l149 2q14 0 67.5 17.5t80.5 19.5l444 23l-114 -131 l-334 14q-45 2 -121 31q-16 6 -27 6zM190 422l9 14l149 2q2 0 8 2l72 19l18 6q37 12 84 12h62l1048 12l-20 -120l-1014 10q-119 2 -137 2q-27 2 -57 14l-68 23zM301 547l8 16l113 2q43 0 63 6l90 25q20 6 52 6l1038 14l-23 -122l-1005 12q-76 0 -156 31q-16 6 -28 6z M414 674l6 14l153 4q14 0 65.5 16.5t88.5 20.5l416 10l-41 -49h37q66 0 98 10l68 21q16 4 38 6l343 16l-21 -122l-350 12q-10 2 -33 8q-90 31 -139 31h-58l-53 -62l-350 25q-12 0 -27 6q-35 14 -90 29zM526 801l6 14l150 4q8 0 27 4l88 25q12 4 45 8l411 12l-41 -49 q35 2 111 25q39 12 57 12l328 14l-20 -122l-324 12q-31 2 -51 8l-74 25q-8 4 -47 4l-45 -49l-340 12q-23 0 -59 16q-47 20 -72 21zM639 928l8 14l150 4q6 0 80 21l22 6q35 10 53 10l416 21l-29 -37q10 2 21 4l35 6q16 2 45 6l293 14l-23 -123l-280 11q-45 2 -59.5 4 t-55.5 16q-4 2 -21 6l-37 -37l-296 11q-61 2 -105 18q-59 23 -76 23zM750 1055l10 14l151 4q14 0 35 8q14 4 66 15l41 8q29 6 53 6l647 14l-20 -123l-594 11q-61 0 -140 8l-69 24q-14 6 -47 7zM864 1182l6 14l144 4q29 0 106 21q63 16 94 16l562 12l-21 -121l-506 9 q-111 2 -135 10l-65 22q-18 4 -50 9zM879 43l8 12l160 4q8 0 20 4l51 17q47 14 80 16l375 15l-19 -111h-342q-55 0 -86 10l-69 23q-2 2 -27 6zM911 168l7 14l153 4q8 0 76 21q35 10 76 16l372 13l-20 -119l-389 12q-18 0 -58 14q-12 6 -38 15q-16 8 -33 8zM942 295l6 12 l150 4q14 0 28 6l72 21q33 10 55 10l367 14l-25 -120l-368 12q-25 0 -70 18.5t-67 18.5zM977 1309l8 14l150 4q6 0 20 2l80 25q33 10 88 10h160l313 2l-18 -111l-498 13q-39 0 -59 8l-54 18q-27 10 -51 11zM1048 1751l10 14l154 4q12 0 29 7q90 31 143 30h285l18 -110 l-356 14q-2 0 -8.5 2t-26.5 6q16 0 -76 25q-12 4 -22 4zM1101 1624l7 14l155 2q2 2 6 2l31 9q8 2 31 8q53 16 92 18l266 15l21 -123l-308 12q-39 2 -82 18q-51 20 -69 21zM1153 1497l8 14l149 2q10 0 37 9q88 29 109 28l254 13l16 -109h-197q-104 0 -129 8l-71 25 q-16 6 -31 6l-61 2z" />
<glyph unicode="&#xc1;" d="M-150 41l7 14l157 4q10 0 78 21q43 12 72 14l436 17l-96 -111h-348q-39 0 -119 29q-20 8 -39 8zM-35 168l6 14l154 4q6 0 22 4l95 27q18 6 43 6l422 13l-105 -121l-350 12q-29 0 -76 17.5t-70 21.5zM78 295l6 14l149 2q14 0 67.5 17.5t80.5 19.5l444 23l-114 -131 l-334 14q-45 2 -121 31q-16 6 -27 6zM190 422l9 14l149 2q2 0 8 2l72 19l18 6q37 12 84 12h62l1048 12l-20 -120l-1014 10q-119 2 -137 2q-27 2 -57 14l-68 23zM301 547l8 16l113 2q43 0 63 6l90 25q20 6 52 6l1038 14l-23 -122l-1005 12q-76 0 -156 31q-16 6 -28 6z M414 674l6 14l153 4q14 0 65.5 16.5t88.5 20.5l416 10l-41 -49h37q66 0 98 10l68 21q16 4 38 6l343 16l-21 -122l-350 12q-10 2 -33 8q-90 31 -139 31h-58l-53 -62l-350 25q-12 0 -27 6q-35 14 -90 29zM526 801l6 14l150 4q8 0 27 4l88 25q12 4 45 8l411 12l-41 -49 q35 2 111 25q39 12 57 12l328 14l-20 -122l-324 12q-31 2 -51 8l-74 25q-8 4 -47 4l-45 -49l-340 12q-23 0 -59 16q-47 20 -72 21zM639 928l8 14l150 4q6 0 80 21l22 6q35 10 53 10l416 21l-29 -37q10 2 21 4l35 6q16 2 45 6l293 14l-23 -123l-280 11q-45 2 -59.5 4 t-55.5 16q-4 2 -21 6l-37 -37l-296 11q-61 2 -105 18q-59 23 -76 23zM750 1055l10 14l151 4q14 0 35 8q14 4 66 15l41 8q29 6 53 6l647 14l-20 -123l-594 11q-61 0 -140 8l-69 24q-14 6 -47 7zM864 1182l6 14l144 4q29 0 106 21q63 16 94 16l562 12l-21 -121l-506 9 q-111 2 -135 10l-65 22q-18 4 -50 9zM879 43l8 12l160 4q8 0 20 4l51 17q47 14 80 16l375 15l-19 -111h-342q-55 0 -86 10l-69 23q-2 2 -27 6zM911 168l7 14l153 4q8 0 76 21q35 10 76 16l372 13l-20 -119l-389 12q-18 0 -58 14q-12 6 -38 15q-16 8 -33 8zM942 295l6 12 l150 4q14 0 28 6l72 21q33 10 55 10l367 14l-25 -120l-368 12q-25 0 -70 18.5t-67 18.5zM977 1309l8 14l150 4q6 0 20 2l80 25q33 10 88 10h160l313 2l-18 -111l-498 13q-39 0 -59 8l-54 18q-27 10 -51 11zM1200 1497l6 12l154 4q31 10 96 25l14 2q14 4 37 8l348 13 l-122 -109h-193q-63 0 -94 10l-70 23q-18 6 -26 6zM1317 1622l6 14l72 -2h8q68 0 102 11l86 24q25 4 39 6l369 11l-137 -121l-244 12l-23 4q-57 18 -131 37zM1434 1749l8 14l151 2q4 0 11 2l47 13l43 12q37 10 71 10q12 0 74 -2l289 -2l-121 -106l-293 14q-23 2 -67.5 20.5 t-67.5 18.5z" />
<glyph unicode="&#xc2;" d="M-150 41l7 14l157 4q10 0 78 21q43 12 72 14l436 17l-96 -111h-348q-39 0 -119 29q-20 8 -39 8zM-35 168l6 14l154 4q6 0 22 4l95 27q18 6 43 6l422 13l-105 -121l-350 12q-29 0 -76 17.5t-70 21.5zM78 295l6 14l149 2q14 0 67.5 17.5t80.5 19.5l444 23l-114 -131 l-334 14q-45 2 -121 31q-16 6 -27 6zM190 422l9 14l149 2q2 0 8 2l72 19l18 6q37 12 84 12h62l1048 12l-20 -120l-1014 10q-119 2 -137 2q-27 2 -57 14l-68 23zM301 547l8 16l113 2q43 0 63 6l90 25q20 6 52 6l1038 14l-23 -122l-1005 12q-76 0 -156 31q-16 6 -28 6z M414 674l6 14l153 4q14 0 65.5 16.5t88.5 20.5l416 10l-41 -49h37q66 0 98 10l68 21q16 4 38 6l343 16l-21 -122l-350 12q-10 2 -33 8q-90 31 -139 31h-58l-53 -62l-350 25q-12 0 -27 6q-35 14 -90 29zM526 801l6 14l150 4q8 0 27 4l88 25q12 4 45 8l411 12l-41 -49 q35 2 111 25q39 12 57 12l328 14l-20 -122l-324 12q-31 2 -51 8l-74 25q-8 4 -47 4l-45 -49l-340 12q-23 0 -59 16q-47 20 -72 21zM639 928l8 14l150 4q6 0 80 21l22 6q35 10 53 10l416 21l-29 -37q10 2 21 4l35 6q16 2 45 6l293 14l-23 -123l-280 11q-45 2 -59.5 4 t-55.5 16q-4 2 -21 6l-37 -37l-296 11q-61 2 -105 18q-59 23 -76 23zM750 1055l10 14l151 4q14 0 35 8q14 4 66 15l41 8q29 6 53 6l647 14l-20 -123l-594 11q-61 0 -140 8l-69 24q-14 6 -47 7zM864 1182l6 14l144 4q29 0 106 21q63 16 94 16l562 12l-21 -121l-506 9 q-111 2 -135 10l-65 22q-18 4 -50 9zM879 43l8 12l160 4q8 0 20 4l51 17q47 14 80 16l375 15l-19 -111h-342q-55 0 -86 10l-69 23q-2 2 -27 6zM911 168l7 14l153 4q8 0 76 21q35 10 76 16l372 13l-20 -119l-389 12q-18 0 -58 14q-12 6 -38 15q-16 8 -33 8zM913 1507l6 13 h148q12 0 26 6l86 22q20 6 39 6l365 19l-62 -57h35q16 0 23 2q29 8 88 22q16 6 39 8l227 15l39 -109l-287 2q-4 0 -37 8q-80 31 -102 31h-51l-45 -37l-244 4q-14 0 -37 4l-76 27q-18 6 -28 7t-56 3zM942 295l6 12l150 4q14 0 28 6l72 21q33 10 55 10l367 14l-25 -120 l-368 12q-25 0 -70 18.5t-67 18.5zM977 1309l8 14l150 4q6 0 20 2l80 25q33 10 88 10h160l313 2l-18 -111l-498 13q-39 0 -59 8l-54 18q-27 10 -51 11zM1063 1632l6 13l145 2q4 0 33 4l82 24q18 6 47 6l508 9l45 -121l-582 16l-8 2l-33 6q-8 2 -28 11q-29 10 -70 22z M1214 1755l8 14l150 3q10 0 25 4l73 20q41 12 121 10l248 -4l43 -108l-379 16l-41 8q-16 6 -74 27q-14 4 -24 6z" />
<glyph unicode="&#xc3;" d="M-145 41l6 14l157 4q10 0 78 21q43 12 72 14l436 17l-96 -111h-348q-39 0 -119 29q-20 8 -39 8zM-31 168l6 14l154 4q6 0 23 4l94 27q18 6 43 6l422 13l-105 -121l-350 12q-29 0 -76 17.5t-69 21.5zM82 295l6 14l150 2q14 0 67 17.5t80 19.5l444 23l-114 -131l-334 14 q-45 2 -121 31q-16 6 -27 6zM195 422l8 14l149 2q2 0 8 2l72 19l19 6q37 12 84 12h61l1049 12l-21 -120l-1014 10q-119 2 -137 2q-27 2 -57 14l-68 23zM305 547l8 16l113 2q43 0 63 6l91 25q20 6 51 6l1038 14l-22 -122l-1006 12q-76 0 -156 31q-16 6 -28 6zM418 674l6 14 l154 4q14 0 65 16.5t88 20.5l416 10l-41 -49h37q66 0 98 10l68 21q16 4 39 6l342 16l-21 -122l-350 12q-10 2 -33 8q-90 31 -139 31h-57l-54 -62l-350 25q-12 0 -27 6q-35 14 -90 29zM530 801l7 14l149 4q8 0 27 4l88 25q12 4 45 8l411 12l-40 -49q35 2 110 25q39 12 57 12 l328 14l-20 -122l-324 12q-31 2 -51 8l-74 25q-8 4 -47 4l-45 -49l-340 12q-23 0 -59 16q-47 20 -72 21zM643 928l8 14l150 4q6 0 80 21l22 6q35 10 53 10l416 21l-29 -37q10 2 21 4l35 6q16 2 45 6l293 14l-23 -123l-280 11q-45 2 -59.5 4t-55.5 16q-4 2 -21 6l-36 -37 l-297 11q-61 2 -105 18q-59 23 -76 23zM754 1055l10 14l151 4q14 0 35 8q14 4 66 15l41 8q29 6 53 6l647 14l-20 -123l-594 11q-61 0 -139 8l-70 24q-14 6 -47 7zM868 1182l6 14l144 4q29 0 106 21q63 16 95 16l561 12l-21 -121l-506 9q-111 2 -135 10l-65 22q-18 4 -49 9z M883 43l8 12l160 4q8 0 20 4l51 17q47 14 80 16l375 15l-18 -111h-342q-55 0 -87 10l-69 23q-2 2 -27 6zM915 168l7 14l153 4q8 0 76 21q35 10 76 16l372 13l-20 -119l-389 12q-18 0 -57 14q-12 6 -39 15q-16 8 -33 8zM946 295l6 12l150 4q14 0 28 6l72 21q33 10 55 10 l367 14l-25 -120l-368 12q-25 0 -70 18.5t-67 18.5zM981 1309l8 14l150 4q6 0 20 2l80 25q33 10 88 10h160l313 2l-18 -111l-498 13q-39 0 -59 8l-54 18q-27 10 -51 11zM1016 1497l4 12l151 2q10 0 33 9q80 29 137 28l668 8q-111 -111 -262 -110q-49 0 -88 12l-109 35 q-12 4 -24 4q-49 0 -72 -33q-6 -10 -10 -12h-144q-4 0 -14 2q-16 2 -35 8l-67 23q-16 6 -29 6zM1102 1620l6 14l106 2q55 2 89 11q74 20 71 20q29 6 92 6l643 10q-27 -55 -92 -120l-620 14q-31 4 -45 8l-60 21q-35 12 -53 12h-51zM1241 1749l10 12h97q41 0 67 6l129 29 q10 4 43 6h29q82 0 156 -33q35 -16 63 -20l12 -2l15 -2h8q4 -2 8 -2q47 0 86 47h188q-8 -45 -38 -104l-576 16q-33 0 -57 10l-54 21q-10 4 -100 10z" />
<glyph unicode="&#xc4;" d="M-150 41l7 14l157 4q10 0 78 21q43 12 72 14l436 17l-96 -111h-348q-39 0 -119 29q-20 8 -39 8zM-35 168l6 14l154 4q6 0 22 4l95 27q18 6 43 6l422 13l-105 -121l-350 12q-29 0 -76 17.5t-70 21.5zM78 295l6 14l149 2q14 0 67.5 17.5t80.5 19.5l444 23l-114 -131 l-334 14q-45 2 -121 31q-16 6 -27 6zM190 422l9 14l149 2q2 0 8 2l72 19l18 6q37 12 84 12h62l1048 12l-20 -120l-1014 10q-119 2 -137 2q-27 2 -57 14l-68 23zM301 547l8 16l113 2q43 0 63 6l90 25q20 6 52 6l1038 14l-23 -122l-1005 12q-76 0 -156 31q-16 6 -28 6z M414 674l6 14l153 4q14 0 65.5 16.5t88.5 20.5l416 10l-41 -49h37q66 0 98 10l68 21q16 4 38 6l343 16l-21 -122l-350 12q-10 2 -33 8q-90 31 -139 31h-58l-53 -62l-350 25q-12 0 -27 6q-35 14 -90 29zM526 801l6 14l150 4q8 0 27 4l88 25q12 4 45 8l411 12l-41 -49 q35 2 111 25q39 12 57 12l328 14l-20 -122l-324 12q-31 2 -51 8l-74 25q-8 4 -47 4l-45 -49l-340 12q-23 0 -59 16q-47 20 -72 21zM639 928l8 14l150 4q6 0 80 21l22 6q35 10 53 10l416 21l-29 -37q10 2 21 4l35 6q16 2 45 6l293 14l-23 -123l-280 11q-45 2 -59.5 4 t-55.5 16q-4 2 -21 6l-37 -37l-296 11q-61 2 -105 18q-59 23 -76 23zM750 1055l10 14l151 4q14 0 35 8q14 4 66 15l41 8q29 6 53 6l647 14l-20 -123l-594 11q-61 0 -140 8l-69 24q-14 6 -47 7zM864 1182l6 14l144 4q29 0 106 21q63 16 94 16l562 12l-21 -121l-506 9 q-111 2 -135 10l-65 22q-18 4 -50 9zM879 43l8 12l160 4q8 0 20 4l51 17q47 14 80 16l375 15l-19 -111h-342q-55 0 -86 10l-69 23q-2 2 -27 6zM899 1503l6 13l88 4q39 2 92 6l72 20q25 8 47 8l324 15l-25 -49l23 -2q53 -4 104 10l64 18q27 8 43 8l321 13l-57 -111l-148 4 h-106q-45 0 -70 8l-59 21q-31 10 -90 10h-35l-25 -39h-284q-4 2 -8 2l-33 6q-6 2 -23 9q-57 23 -73 22zM911 168l7 14l153 4q8 0 76 21q35 10 76 16l372 13l-20 -119l-389 12q-18 0 -58 14q-12 6 -38 15q-16 8 -33 8zM942 295l6 12l150 4q14 0 28 6l72 21q33 10 55 10 l367 14l-25 -120l-368 12q-25 0 -70 18.5t-67 18.5zM967 1630l8 12l90 3q35 0 74 4l90 26q25 6 51 8l315 13l-26 -51h57q35 0 72 10l74 20q18 6 43 6l311 11l-64 -119l-252 14q-45 2 -59 6l-63 23q-29 10 -84 10h-45l-27 -51l-287 14q-10 0 -31 6l-22 7l-4 4h-2q14 0 -43 14 q-12 2 -27 6zM977 1309l8 14l150 4q6 0 20 2l80 25q33 10 88 10h160l313 2l-18 -111l-498 13q-39 0 -59 8l-54 18q-27 10 -51 11zM1034 1757l13 15l114 2q41 0 53 4l80 22q37 10 64 10h297l-19 -36q4 -2 9 -2h47q43 2 57 6l90 24l31 6q6 0 14 2h14l289 -2l-55 -108l-266 14 q-39 2 -56 8l-59 23q-23 8 -82 8h-43q-10 -18 -29 -49v-2l-223 10q-63 2 -80 6q-55 23 -92 33q-10 2 -18 2z" />
<glyph unicode="&#xc5;" d="M-150 41l7 14l157 4q10 0 78 21q43 12 72 14l436 17l-96 -111h-348q-39 0 -119 29q-20 8 -39 8zM-35 168l6 14l154 4q6 0 22 4l95 27q18 6 43 6l422 13l-105 -121l-350 12q-29 0 -76 17.5t-70 21.5zM78 295l6 14l149 2q14 0 67.5 17.5t80.5 19.5l444 23l-114 -131 l-334 14q-45 2 -121 31q-16 6 -27 6zM190 422l9 14l149 2q2 0 8 2l72 19l18 6q37 12 84 12h62l1048 12l-20 -120l-1014 10q-119 2 -137 2q-27 2 -57 14l-68 23zM301 547l8 16l113 2q43 0 63 6l90 25q20 6 52 6l1038 14l-23 -122l-1005 12q-76 0 -156 31q-16 6 -28 6z M414 674l6 14l153 4q14 0 65.5 16.5t88.5 20.5l416 10l-41 -49h37q66 0 98 10l68 21q16 4 38 6l343 16l-21 -122l-350 12q-10 2 -33 8q-90 31 -139 31h-58l-53 -62l-350 25q-12 0 -27 6q-35 14 -90 29zM526 801l6 14l150 4q8 0 27 4l88 25q12 4 45 8l411 12l-41 -49 q35 2 111 25q39 12 57 12l328 14l-20 -122l-324 12q-31 2 -51 8l-74 25q-8 4 -47 4l-45 -49l-340 12q-23 0 -59 16q-47 20 -72 21zM639 928l8 14l150 4q6 0 80 21l22 6q35 10 53 10l416 21l-29 -37q10 2 21 4l35 6q16 2 45 6l293 14l-23 -123l-280 11q-45 2 -59.5 4 t-55.5 16q-4 2 -21 6l-37 -37l-296 11q-61 2 -105 18q-59 23 -76 23zM750 1055l10 14l151 4q14 0 35 8q14 4 66 15l41 8q29 6 53 6l647 14l-20 -123l-594 11q-61 0 -140 8l-69 24q-14 6 -47 7zM864 1182l6 14l144 4q29 0 106 21q63 16 94 16l562 12l-21 -121l-506 9 q-111 2 -135 10l-65 22q-18 4 -50 9zM879 43l8 12l160 4q8 0 20 4l51 17q47 14 80 16l375 15l-19 -111h-342q-55 0 -86 10l-69 23q-2 2 -27 6zM911 168l7 14l153 4q8 0 76 21q35 10 76 16l372 13l-20 -119l-389 12q-18 0 -58 14q-12 6 -38 15q-16 8 -33 8zM942 295l6 12 l150 4q14 0 28 6l72 21q33 10 55 10l367 14l-25 -120l-368 12q-25 0 -70 18.5t-67 18.5zM977 1309l8 14l150 4q6 0 20 2l80 25q33 10 88 10h160l313 2l-18 -111l-498 13q-39 0 -59 8l-54 18q-27 10 -51 11zM1089 1507l6 15l154 4q10 0 24 4l91 24q23 6 51 11q78 10 114 10 q51 -2 134 -2h233l-18 -37q-35 -72 -148 -72h-172l-137 2h-8q-20 -2 -35 -2q-2 2 -14 4q-20 2 -54 15q-59 23 -71 22zM1155 1630l8 19l153 4q14 0 68.5 16.5t71.5 16.5l155 14l-24 -51h24q61 0 90 8l64 18q0 8 59 13l140 10l-64 -119q-12 2 -31 4q-94 10 -133 23 q-68 23 -75 22l-76 2q-2 2 -8 2l-27 -53l-82 10q-49 6 -61 10l-72 25q-18 6 -33 6h-147zM1224 1755l11 21l120 2q35 0 47 4l80 22q43 12 129 13h17l307 -2q59 0 59 -46q0 -10 -4 -22l-22 -41h-371q-66 0 -117 18l-67 25q-23 8 -35 8z" />
<glyph unicode="&#xc6;" horiz-adv-x="2037" d="M-150 41l9 14l129 2q33 0 45 4l92 27q18 6 43 6l469 15l-86 -109h-401q-29 0 -41 4l-76 25q-16 8 -45 8zM-37 168l6 12l64 2l96 4q12 2 33 9l63 18q25 6 56 8l458 15l-96 -121l-305 10q-53 2 -135 12l-64 23q-16 4 -22 4zM78 295l8 14l150 2q12 0 30 6l45 15l29 8 q20 6 51 10l461 21l-107 -129l-385 12q-25 0 -70.5 19.5t-64.5 19.5zM193 422l4 14l153 2l8 2l101 29q29 8 76 8h24q25 2 47 2l1036 13l-63 -123l-1001 10q-98 0 -117 3t-96 32q-16 6 -27 6zM303 549l6 14h140q2 0 18 4l39 11l47 14q39 12 70 12l1605 12l-63 -118l-1571 10 q-33 4 -47 8l-74 25q-16 6 -61 6zM418 676l6 14l151 2q4 0 17 4q117 35 147 35l418 12l-41 -51h47q90 0 121 8l84 23q29 8 47 8l883 14l-64 -120l-856 10q-20 0 -39 8q-45 14 -92 29l-141 4l-57 -64l-344 23q-27 2 -75 20.5t-69 18.5zM530 803l7 14l114 2q45 0 70 8l67 21 q29 8 91 10l381 10l-41 -51l38 2q117 6 95 6l69 23q10 0 31 6q6 2 27 2l352 16h532l-63 -122l-848 12q-23 0 -39 6l-78 27q-18 6 -90 6h-39l-45 -51l-342 12q-29 2 -110 31q-23 8 -33 8zM643 930l6 14l154 4q10 0 22 4l90 27q12 4 25 4l432 23l-47 -62q6 2 27 2q41 2 53 4 t86 25q25 8 49 8l373 14l-64 -120l-331 12q-16 2 -48 8l-61 23q-23 8 -66 8q-20 0 -34 -2l-43 -49l-348 14q-20 0 -56 14q-57 23 -67 23zM754 1057l6 14l155 4q6 0 13 2l30 8l64 19q27 8 55 8l1422 14l-64 -120h-483l-887 10q-51 0 -90 16q-49 20 -70 21zM756 41l6 14l106 2 q51 0 70 6l92 27q20 6 51 6l879 15l-59 -111h-846q-41 0 -117 29q-20 8 -33 8zM823 170l6 12l150 4q20 0 77.5 18.5t82.5 18.5l889 15l-64 -121l-827 10q-57 0 -93 14q-57 23 -71 23zM866 1184l11 16l77 -2q57 -2 107 12l82 23q10 0 31.5 3t31.5 3l1360 14l-65 -123 l-1348 13q-25 0 -71 18.5t-64 18.5zM889 295l6 14l156 2l8 2l28 9q6 0 55.5 13t71.5 13l355 12h520l-59 -118l-844 12q-43 0 -125 33q-8 2 -19 4zM979 1311l8 14l154 4q2 0 8 2l96 27q29 8 68 8h1313l-56 -106l-1278 10h-16q-31 0 -57 8l-66 20q-16 4 -53 11z" />
<glyph unicode="&#xc7;" horiz-adv-x="1249" d="M219 422l8 14l150 2q4 0 10 2l94 25q37 10 58 10l403 12q27 -84 129 -120l-561 12q-29 0 -63.5 13.5t-75.5 25.5zM223 293l8 16l138 2q8 0 16 2h12l99 29q27 8 49 8l545 12l24 -4h43h33q92 4 186 21l23 4l-88 -143l-805 14q-23 0 -39 6l-68 25q-14 6 -57 6zM248 549l8 12 l143 4q12 2 33 4l80 25q23 6 55 8l387 14q-18 -55 -18 -86q0 -20 2 -38l-410 16q-23 0 -98 29q-14 6 -29 6zM264 168l10 14h95q55 0 84 8l79 23q27 8 50 8l725 15l-74 -121l-682 12q-27 0 -47 8l-55 21q-16 6 -68 8q-8 0 -45 2zM276 -209l7 12l153 4q14 0 33 7q92 27 119 28 l323 15l-90 -107h-280q-16 0 -68 21q-35 14 -49 14zM299 676l8 12l156 4q2 2 12 4l76 21q51 14 76 14l407 10q-45 -57 -78 -123l-378 17q-18 0 -105 31q-12 6 -22 6zM365 805l8 12l121 2q37 0 63 8l72 21q27 8 51 8l489 14q-12 -12 -16 -14q-41 -35 -82 -76l-33 -32l-401 14 q-18 0 -88 29q-12 6 -43 10zM397 41l6 12l144 4q12 2 31 4l75 23q39 12 72 12l504 13l-70 -113q-41 -10 -121 -10q-4 0 -18 2l-309 10q-16 0 -90 20q-18 6 -60 17h-8q-4 2 -6 2zM410 -82l8 12l149 4q10 0 41 9l56 14q12 2 36 10h11q4 2 6 2l299 13l-101 -119l-237 12 q-16 4 -27 6l-65 25q-18 4 -90 8zM457 930l8 14l98 2q59 2 92 10l68 19q35 10 70 10l655 10q-123 -29 -201 -75l-30 -19q-10 -8 -23 -14q-12 -12 -25 -13h-12q-6 0 -33 3q-33 2 -59 2l-283 8q-70 2 -149 33q-16 6 -23 6zM578 1057l8 16h147q16 0 35 8q102 29 137 29l950 14 l-86 -139q-98 23 -192 23q-53 0 -94 -9l-471 11q-57 2 -109 4q-57 4 -73.5 7t-75.5 26q-16 6 -25 6zM731 1178l10 20l146 2q10 0 24 4l99 27q20 6 49 6l874 14l-73 -121l-844 11q-8 0 -15 2l-32 8l-60 23q-18 4 -69 4h-109zM967 1305l10 18l153 4q2 0 9 2h10l231 39 q133 23 283 23q172 0 332 -39l-58 -95l-720 19l-64 22q-39 8 -68 9z" />
<glyph unicode="&#xc8;" horiz-adv-x="1280" d="M0 41l6 12l148 4q12 0 61 15l43 12q4 4 18 6q29 6 50 6l876 15l-57 -111h-846q-37 0 -59 8l-64 23q-16 6 -29 6zM68 168l6 12l149 4q16 0 72.5 19.5t91.5 19.5l885 15l-64 -121l-893 16q-8 2 -26 8q-59 23 -74 23zM135 295l4 12l115 4q27 0 59 4l80 23q33 10 53 10 l367 17l524 -3l-63 -120l-860 12q-16 0 -33 6l-62 23q-23 8 -100 10zM203 422l6 14l151 2q27 6 80 23q41 14 68 14l377 12l-66 -120l-332 14q-27 2 -67 16l-39 15q-14 6 -33 6zM270 547l4 14l152 4q6 0 35 8l37 11q63 18 102 18l873 16l-64 -122h-850q-25 0 -72 26 q-39 23 -67 23zM336 676l8 14h129q27 0 91.5 20.5t92.5 20.5l883 14l-65 -122l-859 12q-14 0 -36 8q-78 29 -97 29zM403 803l9 14l147 2q16 0 67.5 17.5t86.5 19.5l358 14h535l-64 -120l-741 10q-31 0 -86 2q-43 2 -58 4l-86 29q-14 4 -79 6zM471 930l6 12l152 4q8 0 26 6 q92 29 127 31l371 14l-63 -120l-336 12q-18 0 -35 6l-74 25q-10 4 -29 8zM539 1057l6 14l149 2q12 0 39 8q45 14 129 31l879 14l-64 -120h-811q-37 0 -71 12l-76 26q-18 6 -41 11zM604 1182l6 16l148 2q8 0 30 6l97 27q20 6 43 6l880 14l-65 -123l-850 13q-35 0 -74 16 q-51 20 -71 21zM670 1309l10 16l117 2q39 0 57 6l86 25q2 0 53 6q18 2 121 2h750l-54 -106l-860 10q-27 0 -94 24q-29 10 -35 11zM926 1751l10 14l154 4q12 0 29 7q90 31 143 30h285l18 -110l-356 14q-2 0 -8.5 2t-26.5 6q16 0 -76 25q-12 4 -22 4zM979 1624l7 14l155 2 q2 2 6 2l31 9q8 2 31 8q53 16 92 18l266 15l21 -123l-308 12q-39 2 -82 18q-51 20 -69 21zM1031 1497l8 14l149 2q10 0 37 9q88 29 109 28l254 13l16 -109h-197q-104 0 -129 8l-71 25q-16 6 -31 6l-61 2z" />
<glyph unicode="&#xc9;" horiz-adv-x="1280" d="M0 41l6 12l148 4q12 0 61 15l43 12q4 4 18 6q29 6 50 6l876 15l-57 -111h-846q-37 0 -59 8l-64 23q-16 6 -29 6zM68 168l6 12l149 4q16 0 72.5 19.5t91.5 19.5l885 15l-64 -121l-893 16q-8 2 -26 8q-59 23 -74 23zM135 295l4 12l115 4q27 0 59 4l80 23q33 10 53 10 l367 17l524 -3l-63 -120l-860 12q-16 0 -33 6l-62 23q-23 8 -100 10zM203 422l6 14l151 2q27 6 80 23q41 14 68 14l377 12l-66 -120l-332 14q-27 2 -67 16l-39 15q-14 6 -33 6zM270 547l4 14l152 4q6 0 35 8l37 11q63 18 102 18l873 16l-64 -122h-850q-25 0 -72 26 q-39 23 -67 23zM336 676l8 14h129q27 0 91.5 20.5t92.5 20.5l883 14l-65 -122l-859 12q-14 0 -36 8q-78 29 -97 29zM403 803l9 14l147 2q16 0 67.5 17.5t86.5 19.5l358 14h535l-64 -120l-741 10q-31 0 -86 2q-43 2 -58 4l-86 29q-14 4 -79 6zM471 930l6 12l152 4q8 0 26 6 q92 29 127 31l371 14l-63 -120l-336 12q-18 0 -35 6l-74 25q-10 4 -29 8zM539 1057l6 14l149 2q12 0 39 8q45 14 129 31l879 14l-64 -120h-811q-37 0 -71 12l-76 26q-18 6 -41 11zM604 1182l6 16l148 2q8 0 30 6l97 27q20 6 43 6l880 14l-65 -123l-850 13q-35 0 -74 16 q-51 20 -71 21zM670 1309l10 16l117 2q39 0 57 6l86 25q2 0 53 6q18 2 121 2h750l-54 -106l-860 10q-27 0 -94 24q-29 10 -35 11zM1022 1497l6 12l154 4q31 10 96 25l14 2q14 4 37 8l348 13l-122 -109h-193q-63 0 -94 10l-70 23q-18 6 -26 6zM1139 1622l6 14l72 -2h8 q68 0 102 11l86 24q25 4 39 6l369 11l-137 -121l-244 12l-23 4q-57 18 -131 37zM1256 1749l8 14l151 2q4 0 11 2l47 13l43 12q37 10 71 10q12 0 74 -2l289 -2l-121 -106l-293 14q-23 2 -67.5 20.5t-67.5 18.5z" />
<glyph unicode="&#xca;" horiz-adv-x="1280" d="M0 41l6 12l148 4q12 0 61 15l43 12q4 4 18 6q29 6 50 6l876 15l-57 -111h-846q-37 0 -59 8l-64 23q-16 6 -29 6zM68 168l6 12l149 4q16 0 72.5 19.5t91.5 19.5l885 15l-64 -121l-893 16q-8 2 -26 8q-59 23 -74 23zM135 295l4 12l115 4q27 0 59 4l80 23q33 10 53 10 l367 17l524 -3l-63 -120l-860 12q-16 0 -33 6l-62 23q-23 8 -100 10zM203 422l6 14l151 2q27 6 80 23q41 14 68 14l377 12l-66 -120l-332 14q-27 2 -67 16l-39 15q-14 6 -33 6zM270 547l4 14l152 4q6 0 35 8l37 11q63 18 102 18l873 16l-64 -122h-850q-25 0 -72 26 q-39 23 -67 23zM336 676l8 14h129q27 0 91.5 20.5t92.5 20.5l883 14l-65 -122l-859 12q-14 0 -36 8q-78 29 -97 29zM403 803l9 14l147 2q16 0 67.5 17.5t86.5 19.5l358 14h535l-64 -120l-741 10q-31 0 -86 2q-43 2 -58 4l-86 29q-14 4 -79 6zM471 930l6 12l152 4q8 0 26 6 q92 29 127 31l371 14l-63 -120l-336 12q-18 0 -35 6l-74 25q-10 4 -29 8zM539 1057l6 14l149 2q12 0 39 8q45 14 129 31l879 14l-64 -120h-811q-37 0 -71 12l-76 26q-18 6 -41 11zM604 1182l6 16l148 2q8 0 30 6l97 27q20 6 43 6l880 14l-65 -123l-850 13q-35 0 -74 16 q-51 20 -71 21zM670 1309l10 16l117 2q39 0 57 6l86 25q2 0 53 6q18 2 121 2h750l-54 -106l-860 10q-27 0 -94 24q-29 10 -35 11zM805 1507l6 13h148q12 0 26 6l86 22q20 6 39 6l365 19l-62 -57h35q16 0 23 2q29 8 88 22q16 6 39 8l227 15l39 -109l-287 2q-4 0 -37 8 q-80 31 -102 31h-51l-45 -37l-244 4q-14 0 -37 4l-76 27q-18 6 -28 7t-56 3zM955 1632l6 13l145 2q4 0 33 4l82 24q18 6 47 6l508 9l45 -121l-582 16l-8 2l-33 6q-8 2 -28 11q-29 10 -70 22zM1106 1755l8 14l150 3q10 0 25 4l73 20q41 12 121 10l248 -4l43 -108l-379 16 l-41 8q-16 6 -74 27q-14 4 -24 6z" />
<glyph unicode="&#xcb;" horiz-adv-x="1280" d="M0 41l6 12l148 4q12 0 61 15l43 12q4 4 18 6q29 6 50 6l876 15l-57 -111h-846q-37 0 -59 8l-64 23q-16 6 -29 6zM68 168l6 12l149 4q16 0 72.5 19.5t91.5 19.5l885 15l-64 -121l-893 16q-8 2 -26 8q-59 23 -74 23zM135 295l4 12l115 4q27 0 59 4l80 23q33 10 53 10 l367 17l524 -3l-63 -120l-860 12q-16 0 -33 6l-62 23q-23 8 -100 10zM203 422l6 14l151 2q27 6 80 23q41 14 68 14l377 12l-66 -120l-332 14q-27 2 -67 16l-39 15q-14 6 -33 6zM270 547l4 14l152 4q6 0 35 8l37 11q63 18 102 18l873 16l-64 -122h-850q-25 0 -72 26 q-39 23 -67 23zM336 676l8 14h129q27 0 91.5 20.5t92.5 20.5l883 14l-65 -122l-859 12q-14 0 -36 8q-78 29 -97 29zM403 803l9 14l147 2q16 0 67.5 17.5t86.5 19.5l358 14h535l-64 -120l-741 10q-31 0 -86 2q-43 2 -58 4l-86 29q-14 4 -79 6zM471 930l6 12l152 4q8 0 26 6 q92 29 127 31l371 14l-63 -120l-336 12q-18 0 -35 6l-74 25q-10 4 -29 8zM539 1057l6 14l149 2q12 0 39 8q45 14 129 31l879 14l-64 -120h-811q-37 0 -71 12l-76 26q-18 6 -41 11zM604 1182l6 16l148 2q8 0 30 6l97 27q20 6 43 6l880 14l-65 -123l-850 13q-35 0 -74 16 q-51 20 -71 21zM670 1309l10 16l117 2q39 0 57 6l86 25q2 0 53 6q18 2 121 2h750l-54 -106l-860 10q-27 0 -94 24q-29 10 -35 11zM786 1503l6 13l88 4q39 2 92 6l72 20q25 8 47 8l324 15l-25 -49l23 -2q53 -4 104 10l64 18q27 8 43 8l321 13l-57 -111l-148 4h-106 q-45 0 -70 8l-59 21q-31 10 -90 10h-35l-25 -39h-284q-4 2 -8 2l-33 6q-6 2 -23 9q-57 23 -73 22zM854 1630l8 12l90 3q35 0 74 4l90 26q25 6 51 8l315 13l-26 -51h57q35 0 72 10l74 20q18 6 43 6l311 11l-64 -119l-252 14q-45 2 -59 6l-63 23q-29 10 -84 10h-45l-27 -51 l-287 14q-10 0 -30 6l-23 7l-4 4h-2q14 0 -43 14q-12 2 -27 6zM921 1757l13 15l114 2q41 0 54 4l79 22q37 10 64 10h297l-19 -36q4 -2 9 -2h47q43 2 57 6l90 24l31 6q6 0 14 2h15l288 -2l-55 -108l-266 14q-39 2 -56 8l-59 23q-23 8 -82 8h-43q-10 -18 -29 -49v-2l-223 10 q-63 2 -80 6q-55 23 -92 33q-10 2 -18 2z" />
<glyph unicode="&#xcc;" horiz-adv-x="763" d="M0 41l6 14l141 4q12 0 27 4l84 23q35 10 57 10l369 13l-57 -109h-318q-31 0 -61 8q-6 4 -35 10q-12 6 -31.5 13.5t-36.5 7.5zM68 170l6 12l123 2q43 0 100 19.5t88 19.5l367 13l-66 -123l-336 14q-20 0 -100 29q-29 10 -37 10zM135 295l8 16l152 2q6 0 20 4l91 25 q18 4 47 6l366 14l-63 -120l-326 12q-31 2 -51 8l-60 21q-29 10 -63 10zM205 424l10 14h117q39 0 59 6l84 25q18 6 43 6l371 12l-68 -120l-325 12q-37 6 -50 10l-65 23q-16 6 -31 6zM272 549l9 14l147 2q18 0 70 17l32 10q25 8 45 8l381 14l-65 -120l-326 12q-29 2 -110 31 q-23 8 -33 8zM340 676l6 12l152 4q6 0 28 6l54 15q57 16 84 16l358 12l-66 -120l-319 12q-27 2 -90 22q-47 16 -68 17zM408 801l6 14l151 4q4 0 10 2l27 6l66 19q35 10 55 10l369 12l-66 -123l-319 15q-37 2 -78 16q-61 23 -78 23zM477 930l6 12l154 4q8 0 22 4l95 27 q4 2 39 6l366 12l-65 -121l-316 13q-31 2 -87 19.5t-89 19.5zM545 1057l8 12l147 4q20 0 68 17q57 18 92 20l367 12l-64 -121l-205 9q-76 2 -174 14l-71 25q-10 4 -27 4zM612 1182l6 16l154 2q4 0 76 21q55 16 84 16l362 12l-65 -121l-316 13q-33 2 -84 18q-61 20 -75 21z M665 1751l10 14l154 4q12 0 29 7q90 31 143 30h285l18 -110l-356 14q-2 0 -8.5 2t-26.5 6q16 0 -76 25q-12 4 -22 4zM676 1309l8 16l150 2q4 0 28 4l92 27q29 8 88 8l312 -2l-56 -109l-325 13q-43 2 -72 14l-43 14q-20 10 -45 11zM718 1624l7 14l155 2q2 2 6 2l31 9 q8 2 31 8q53 16 92 18l266 15l21 -123l-308 12q-39 2 -82 18q-51 20 -69 21zM770 1497l8 14l149 2q10 0 37 9q88 29 109 28l254 13l16 -109h-197q-104 0 -129 8l-71 25q-16 6 -31 6l-61 2z" />
<glyph unicode="&#xcd;" horiz-adv-x="763" d="M0 41l6 14l141 4q12 0 27 4l84 23q35 10 57 10l369 13l-57 -109h-318q-31 0 -61 8q-6 4 -35 10q-12 6 -31.5 13.5t-36.5 7.5zM68 170l6 12l123 2q43 0 100 19.5t88 19.5l367 13l-66 -123l-336 14q-20 0 -100 29q-29 10 -37 10zM135 295l8 16l152 2q6 0 20 4l91 25 q18 4 47 6l366 14l-63 -120l-326 12q-31 2 -51 8l-60 21q-29 10 -63 10zM205 424l10 14h117q39 0 59 6l84 25q18 6 43 6l371 12l-68 -120l-325 12q-37 6 -50 10l-65 23q-16 6 -31 6zM272 549l9 14l147 2q18 0 70 17l32 10q25 8 45 8l381 14l-65 -120l-326 12q-29 2 -110 31 q-23 8 -33 8zM340 676l6 12l152 4q6 0 28 6l54 15q57 16 84 16l358 12l-66 -120l-319 12q-27 2 -90 22q-47 16 -68 17zM408 801l6 14l151 4q4 0 10 2l27 6l66 19q35 10 55 10l369 12l-66 -123l-319 15q-37 2 -78 16q-61 23 -78 23zM477 930l6 12l154 4q8 0 22 4l95 27 q4 2 39 6l366 12l-65 -121l-316 13q-31 2 -87 19.5t-89 19.5zM545 1057l8 12l147 4q20 0 68 17q57 18 92 20l367 12l-64 -121l-205 9q-76 2 -174 14l-71 25q-10 4 -27 4zM612 1182l6 16l154 2q4 0 76 21q55 16 84 16l362 12l-65 -121l-316 13q-33 2 -84 18q-61 20 -75 21z M676 1309l8 16l150 2q4 0 28 4l92 27q29 8 88 8l312 -2l-56 -109l-325 13q-43 2 -72 14l-43 14q-20 10 -45 11zM817 1497l6 12l154 4q31 10 96 25l14 2q14 4 37 8l348 13l-122 -109h-193q-63 0 -94 10l-70 23q-18 6 -26 6zM934 1622l6 14l72 -2h8q68 0 102 11l86 24 q25 4 39 6l369 11l-137 -121l-244 12l-23 4q-57 18 -131 37zM1051 1749l8 14l151 2q4 0 11 2l47 13l43 12q37 10 71 10q12 0 74 -2l289 -2l-121 -106l-293 14q-23 2 -67.5 20.5t-67.5 18.5z" />
<glyph unicode="&#xce;" horiz-adv-x="763" d="M0 41l6 14l141 4q12 0 27 4l84 23q35 10 57 10l369 13l-57 -109h-318q-31 0 -61 8q-6 4 -35 10q-12 6 -31.5 13.5t-36.5 7.5zM68 170l6 12l123 2q43 0 100 19.5t88 19.5l367 13l-66 -123l-336 14q-20 0 -100 29q-29 10 -37 10zM135 295l8 16l152 2q6 0 20 4l91 25 q18 4 47 6l366 14l-63 -120l-326 12q-31 2 -51 8l-60 21q-29 10 -63 10zM205 424l10 14h117q39 0 59 6l84 25q18 6 43 6l371 12l-68 -120l-325 12q-37 6 -50 10l-65 23q-16 6 -31 6zM272 549l9 14l147 2q18 0 70 17l32 10q25 8 45 8l381 14l-65 -120l-326 12q-29 2 -110 31 q-23 8 -33 8zM340 676l6 12l152 4q6 0 28 6l54 15q57 16 84 16l358 12l-66 -120l-319 12q-27 2 -90 22q-47 16 -68 17zM408 801l6 14l151 4q4 0 10 2l27 6l66 19q35 10 55 10l369 12l-66 -123l-319 15q-37 2 -78 16q-61 23 -78 23zM477 930l6 12l154 4q8 0 22 4l95 27 q4 2 39 6l366 12l-65 -121l-316 13q-31 2 -87 19.5t-89 19.5zM545 1057l8 12l147 4q20 0 68 17q57 18 92 20l367 12l-64 -121l-205 9q-76 2 -174 14l-71 25q-10 4 -27 4zM545 1507l6 13h148q12 0 26 6l86 22q20 6 39 6l365 19l-62 -57h35q16 0 23 2q29 8 88 22q16 6 39 8 l227 15l39 -109l-287 2q-4 0 -37 8q-80 31 -102 31h-51l-45 -37l-244 4q-14 0 -37 4l-76 27q-18 6 -28 7t-56 3zM612 1182l6 16l154 2q4 0 76 21q55 16 84 16l362 12l-65 -121l-316 13q-33 2 -84 18q-61 20 -75 21zM676 1309l8 16l150 2q4 0 28 4l92 27q29 8 88 8l312 -2 l-56 -109l-325 13q-43 2 -72 14l-43 14q-20 10 -45 11zM695 1632l6 13l145 2q4 0 33 4l82 24q18 6 47 6l508 9l45 -121l-582 16l-8 2l-33 6q-8 2 -28 11q-29 10 -70 22zM846 1755l8 14l150 3q10 0 25 4l73 20q41 12 121 10l248 -4l43 -108l-379 16l-41 8q-16 6 -74 27 q-14 4 -24 6z" />
<glyph unicode="&#xcf;" horiz-adv-x="763" d="M0 41l6 14l141 4q12 0 27 4l84 23q35 10 57 10l369 13l-57 -109h-318q-31 0 -61 8q-6 4 -35 10q-12 6 -31.5 13.5t-36.5 7.5zM68 170l6 12l123 2q43 0 100 19.5t88 19.5l367 13l-66 -123l-336 14q-20 0 -100 29q-29 10 -37 10zM135 295l8 16l152 2q6 0 20 4l91 25 q18 4 47 6l366 14l-63 -120l-326 12q-31 2 -51 8l-60 21q-29 10 -63 10zM205 424l10 14h117q39 0 59 6l84 25q18 6 43 6l371 12l-68 -120l-325 12q-37 6 -50 10l-65 23q-16 6 -31 6zM272 549l9 14l147 2q18 0 70 17l32 10q25 8 45 8l381 14l-65 -120l-326 12q-29 2 -110 31 q-23 8 -33 8zM340 676l6 12l152 4q6 0 28 6l54 15q57 16 84 16l358 12l-66 -120l-319 12q-27 2 -90 22q-47 16 -68 17zM408 801l6 14l151 4q4 0 10 2l27 6l66 19q35 10 55 10l369 12l-66 -123l-319 15q-37 2 -78 16q-61 23 -78 23zM477 930l6 12l154 4q8 0 22 4l95 27 q4 2 39 6l366 12l-65 -121l-316 13q-31 2 -87 19.5t-89 19.5zM543 1503l6 13l88 4q39 2 92 6l72 20q25 8 47 8l324 15l-25 -49l23 -2q53 -4 104 10l64 18q27 8 43 8l321 13l-57 -111l-148 4h-106q-45 0 -70 8l-59 21q-31 10 -90 10h-35l-25 -39h-284q-4 2 -8 2l-33 6 q-6 2 -23 9q-57 23 -73 22zM545 1057l8 12l147 4q20 0 68 17q57 18 92 20l367 12l-64 -121l-205 9q-76 2 -174 14l-71 25q-10 4 -27 4zM611 1630l8 12l90 3q35 0 74 4l90 26q25 6 51 8l315 13l-26 -51h57q35 0 72 10l74 20q18 6 43 6l311 11l-64 -119l-252 14q-45 2 -59 6 l-63 23q-29 10 -84 10h-45l-27 -51l-287 14q-10 0 -30 6l-23 7l-4 4h-2q14 0 -43 14q-12 2 -27 6zM612 1182l6 16l154 2q4 0 76 21q55 16 84 16l362 12l-65 -121l-316 13q-33 2 -84 18q-61 20 -75 21zM676 1309l8 16l150 2q4 0 28 4l92 27q29 8 88 8l312 -2l-56 -109 l-325 13q-43 2 -72 14l-43 14q-20 10 -45 11zM678 1757l13 15l114 2q41 0 54 4l79 22q37 10 64 10h297l-19 -36q4 -2 9 -2h47q43 2 57 6l90 24l31 6q6 0 14 2h15l288 -2l-55 -108l-266 14q-39 2 -56 8l-59 23q-23 8 -82 8h-43q-10 -18 -29 -49v-2l-223 10q-63 2 -80 6 q-55 23 -92 33q-10 2 -18 2z" />
<glyph unicode="&#xd1;" horiz-adv-x="1587" d="M0 43l6 12l152 4q20 0 73.5 18.5t77.5 18.5l375 15l-57 -111h-291q-68 0 -96 10l-62 23q-10 2 -35 6zM70 170l6 14l149 2q2 0 11 2l30 7l43 14q39 12 72 14l143 6l228 7l-66 -121l-334 12q-23 0 -63 16q-59 23 -72 23zM137 297l6 12l111 4q29 0 78 9l69 20q25 8 50 8 l368 12l-63 -120l-336 12q-25 4 -69 20.5t-97 18.5zM205 424l10 14l119 2q41 0 65 9l70 20q25 8 109 10l280 10h31l-31 -53h86q4 0 19 2h22q18 4 45 8l68 19q23 6 59 12l555 12l-65 -122l-525 14q-16 0 -37 8q-76 29 -92 29l-139 4l-31 -53l-346 14q-18 0 -51 14 q-43 18 -70 23zM272 551l7 12l153 4q8 0 76 21q51 16 76 16l370 12l-24 -51h35q33 0 71 13q84 27 117 26l627 12l-66 -122l-424 10q-47 0 -141 2q-59 2 -113 22q-39 16 -57 17l-61 2l-27 -51l-14 -2l-277 14q-37 2 -86 8l-68 25q-16 6 -30 6zM342 678l6 12l152 4q10 0 73 19 q31 8 80 18l373 14l-27 -47h7q4 0 20 4q8 2 35 11l35 10q27 8 53 8l698 12l-65 -122l-656 14q-35 0 -45 4l-71 25q-10 2 -25 6l-27 -47l-340 14q-18 0 -38 8l-58 21q-18 6 -59 8zM410 805l6 14l151 2q8 0 27 6q96 31 139 31l653 12l5 -49q10 2 22 4l84 23q18 6 49 8l369 14 l-64 -120l-335 12q-20 0 -43 8l-56 18q-2 4 -24 7l4 -56l-617 19q-102 2 -127 12l-67 25q-14 6 -37 6zM477 932l4 12l154 4q10 0 22 4l91 27q33 6 59 6l569 12l4 -51h43q39 0 68 8l72 21q33 10 55 10l362 12l-63 -120l-4 -3l-311 13q-35 2 -89.5 20.5t-93.5 18.5h-37l4 -49 l-622 12q-27 0 -109 31q-23 8 -28 8zM543 1059l10 14l143 2q14 0 29 4l92 27q20 6 37 6l510 12l6 -53l115 2q47 0 74 8l73 21q25 6 51 10l365 12l-63 -120l-334 12q-25 0 -71 18.5t-71 18.5l-137 2l2 -51l-514 12q-51 2 -76 10l-63 23q-20 6 -78 8zM612 1184l11 16l84 2 q74 2 88 6l71 21q33 10 62 10l426 12l10 -121l-416 11q-86 2 -155 30q-12 4 -31 9zM680 1311l8 16l148 2q6 0 26 4l76 23q35 10 109 10h296l11 -109l-389 13q-27 0 -84 22q-43 16 -62 17zM846 295l10 14l148 2q8 0 73 21l27 8q25 8 55 8l486 14l-64 -120l-440 12 q-37 0 -117 31q-16 6 -27 6zM856 168l4 14l152 4q18 0 76.5 17.5t97.5 19.5l391 13l-66 -121l-358 12q-39 2 -119 31q-23 8 -33 8zM866 43l8 12l148 4q18 0 72 17q66 20 90 20l325 13l-57 -109h-268q-70 0 -127 25q-27 12 -39 12zM998 1497l4 12l152 2q10 0 32 9 q80 29 138 28l667 8q-111 -111 -262 -110q-49 0 -88 12l-109 35q-12 4 -24 4q-49 0 -72 -33q-6 -10 -10 -12h-143q-4 0 -15 2q-16 2 -35 8l-67 23q-16 6 -29 6zM1084 1620l6 14l107 2q55 2 88 11q74 20 71 20q29 6 92 6l644 10q-27 -55 -93 -120l-620 14q-31 4 -45 8l-60 21 q-35 12 -53 12h-51zM1223 1749l10 12h97q41 0 67 6l129 29q10 4 43 6h29q82 0 156 -33q35 -16 63 -20l12 -2l15 -2h8q4 -2 8 -2q47 0 86 47h189q-8 -45 -39 -104l-576 16q-33 0 -57 10l-53 21q-10 4 -101 10zM1432 1184l6 14l155 2q4 2 11 2l24 6l66 21q23 8 49 8l373 14 l-66 -123l-321 15q-33 2 -72 16q-57 23 -78 23zM1503 1309l6 14l154 6q6 0 23 4q111 33 204 33h285l-57 -109l-297 11q-74 2 -133 28q-23 10 -31 11z" />
<glyph unicode="&#xd2;" horiz-adv-x="1710" d="M166 420l8 16h102q47 0 97 15l63 18q12 4 45 8l377 12q8 -53 29.5 -79.5t75.5 -49.5l-514 21q-12 0 -29 6l-74 25q-25 8 -76 8h-104zM184 295l4 12l138 4q25 0 36 4l97 27q4 4 33 6q10 2 24 2l494 2q18 -2 43.5 -5t31.5 -3q29 0 113 14l664 9q-31 -41 -123 -123l-1268 10 q-16 2 -45 8l-68 25q-10 2 -51 4zM186 549l9 14l139 2q12 0 35 6l96 27q10 2 43 4l371 14q-20 -61 -21 -106v-16l-344 12q-66 2 -125 24q-37 14 -47 15zM225 676l6 14l150 2q14 0 78 21q43 14 80 18l411 12q-41 -59 -69 -120l-318 10q-72 2 -94 10l-66 23q-23 8 -36 8z M238 168l4 12l90 4q37 2 102 11q49 14 129 28l1170 15q-57 -49 -177 -123l-1019 12q-37 0 -123 31q-16 6 -29 6zM281 803l6 14l143 2q18 0 33 6l86 25q35 10 59 10l457 10q-74 -68 -109 -120l-335 10q-76 2 -162 33q-23 8 -33 8zM360 932l9 12l151 4q6 0 21 4l77 23 q33 10 54 10l633 19q-139 -49 -230 -127l-413 12q-39 2 -119 31q-14 4 -39 8zM381 41l6 14l127 2q35 0 53 6l74 23q18 10 61 10l842 15q-252 -137 -569 -138q-166 0 -273 27l-131 33q-14 4 -34 4zM471 1057l8 14l90 2q68 2 97 10l75 23q18 6 62 6l1278 14q23 -61 26 -122 l-565 6q-70 10 -115 10q-41 0 -98 -8l-569 6q-29 0 -45 6l-66 23q-23 8 -33 8zM614 1184l15 16l141 2q16 0 41 8l39 13q51 16 88 16l1057 14q57 -59 82 -120l-1162 10q-29 0 -84 19.5t-75 19.5zM840 1311l10 16l172 4q41 0 161 21.5t175 27.5q80 8 180 9q317 0 451 -132 l-842 13q-51 0 -92 16l-43 17q-14 4 -31 4zM1096 422l8 14l147 4q18 0 37 6l39 13l25 8q12 4 55 10l549 15l-21 -31l-20 -31q-27 -39 -47 -57l-486 8q-29 0 -63 16q-61 20 -72 21zM1143 1751l10 14l154 4q12 0 29 7q90 31 143 30h285l18 -110l-356 14q-2 0 -8.5 2t-26.5 6 q16 0 -76 25q-12 4 -22 4zM1196 1624l7 14l155 2q2 2 6 2l31 9q8 2 31 8q53 16 92 18l266 15l21 -123l-308 12q-39 2 -82 18q-51 20 -69 21zM1248 1497l8 14l149 2q10 0 37 9q88 29 109 28l254 13l16 -109h-197q-104 0 -129 8l-71 25q-16 6 -31 6l-61 2zM1249 549l6 14 l127 2q31 0 64 10l61 19q31 10 58 10l463 14q-23 -45 -68 -122l-414 12q-39 0 -112 29q-20 8 -31 8zM1346 678l6 12l151 4q12 0 33 8q10 2 33 9l78 18q14 0 24 2l406 14q-25 -76 -49 -122l-355 12q-25 0 -74 8q-94 29 -114 29zM1378 803l2 14l154 4q8 0 41 10q78 25 141 27 l387 14q-12 -76 -24 -122l-398 12q-45 2 -116 26q-29 10 -39 11zM1380 930l6 14l146 4q14 0 39 8q86 27 141 29l395 12q2 -23 2 -49q0 -8 -4 -69l-438 12q-20 0 -31 4l-75 25q-23 8 -62 8z" />
<glyph unicode="&#xd3;" horiz-adv-x="1710" d="M166 420l8 16h102q47 0 97 15l63 18q12 4 45 8l377 12q8 -53 29.5 -79.5t75.5 -49.5l-514 21q-12 0 -29 6l-74 25q-25 8 -76 8h-104zM184 295l4 12l138 4q25 0 36 4l97 27q4 4 33 6q10 2 24 2l494 2q18 -2 43.5 -5t31.5 -3q29 0 113 14l664 9q-31 -41 -123 -123l-1268 10 q-16 2 -45 8l-68 25q-10 2 -51 4zM186 549l9 14l139 2q12 0 35 6l96 27q10 2 43 4l371 14q-20 -61 -21 -106v-16l-344 12q-66 2 -125 24q-37 14 -47 15zM225 676l6 14l150 2q14 0 78 21q43 14 80 18l411 12q-41 -59 -69 -120l-318 10q-72 2 -94 10l-66 23q-23 8 -36 8z M238 168l4 12l90 4q37 2 102 11q49 14 129 28l1170 15q-57 -49 -177 -123l-1019 12q-37 0 -123 31q-16 6 -29 6zM281 803l6 14l143 2q18 0 33 6l86 25q35 10 59 10l457 10q-74 -68 -109 -120l-335 10q-76 2 -162 33q-23 8 -33 8zM360 932l9 12l151 4q6 0 21 4l77 23 q33 10 54 10l633 19q-139 -49 -230 -127l-413 12q-39 2 -119 31q-14 4 -39 8zM381 41l6 14l127 2q35 0 53 6l74 23q18 10 61 10l842 15q-252 -137 -569 -138q-166 0 -273 27l-131 33q-14 4 -34 4zM471 1057l8 14l90 2q68 2 97 10l75 23q18 6 62 6l1278 14q23 -61 26 -122 l-565 6q-70 10 -115 10q-41 0 -98 -8l-569 6q-29 0 -45 6l-66 23q-23 8 -33 8zM614 1184l15 16l141 2q16 0 41 8l39 13q51 16 88 16l1057 14q57 -59 82 -120l-1162 10q-29 0 -84 19.5t-75 19.5zM840 1311l10 16l172 4q41 0 161 21.5t175 27.5q80 8 180 9q317 0 451 -132 l-842 13q-51 0 -92 16l-43 17q-14 4 -31 4zM1096 422l8 14l147 4q18 0 37 6l39 13l25 8q12 4 55 10l549 15l-21 -31l-20 -31q-27 -39 -47 -57l-486 8q-29 0 -63 16q-61 20 -72 21zM1241 1497l6 12l154 4q31 10 96 25l14 2q14 4 37 8l348 13l-122 -109h-193q-63 0 -94 10 l-70 23q-18 6 -26 6zM1249 549l6 14l127 2q31 0 64 10l61 19q31 10 58 10l463 14q-23 -45 -68 -122l-414 12q-39 0 -112 29q-20 8 -31 8zM1346 678l6 12l151 4q12 0 33 8q10 2 33 9l78 18q14 0 24 2l406 14q-25 -76 -49 -122l-355 12q-25 0 -74 8q-94 29 -114 29zM1358 1622 l6 14l72 -2h8q68 0 102 11l86 24q25 4 39 6l369 11l-137 -121l-244 12l-23 4q-57 18 -131 37zM1378 803l2 14l154 4q8 0 41 10q78 25 141 27l387 14q-12 -76 -24 -122l-398 12q-45 2 -116 26q-29 10 -39 11zM1380 930l6 14l146 4q14 0 39 8q86 27 141 29l395 12q2 -23 2 -49 q0 -8 -4 -69l-438 12q-20 0 -31 4l-75 25q-23 8 -62 8zM1475 1749l8 14l151 2q4 0 11 2l47 13l43 12q37 10 71 10q12 0 74 -2l289 -2l-121 -106l-293 14q-23 2 -67.5 20.5t-67.5 18.5z" />
<glyph unicode="&#xd4;" horiz-adv-x="1710" d="M166 420l8 16h102q47 0 97 15l63 18q12 4 45 8l377 12q8 -53 29.5 -79.5t75.5 -49.5l-514 21q-12 0 -29 6l-74 25q-25 8 -76 8h-104zM184 295l4 12l138 4q25 0 36 4l97 27q4 4 33 6q10 2 24 2l494 2q18 -2 43.5 -5t31.5 -3q29 0 113 14l664 9q-31 -41 -123 -123l-1268 10 q-16 2 -45 8l-68 25q-10 2 -51 4zM186 549l9 14l139 2q12 0 35 6l96 27q10 2 43 4l371 14q-20 -61 -21 -106v-16l-344 12q-66 2 -125 24q-37 14 -47 15zM225 676l6 14l150 2q14 0 78 21q43 14 80 18l411 12q-41 -59 -69 -120l-318 10q-72 2 -94 10l-66 23q-23 8 -36 8z M238 168l4 12l90 4q37 2 102 11q49 14 129 28l1170 15q-57 -49 -177 -123l-1019 12q-37 0 -123 31q-16 6 -29 6zM281 803l6 14l143 2q18 0 33 6l86 25q35 10 59 10l457 10q-74 -68 -109 -120l-335 10q-76 2 -162 33q-23 8 -33 8zM360 932l9 12l151 4q6 0 21 4l77 23 q33 10 54 10l633 19q-139 -49 -230 -127l-413 12q-39 2 -119 31q-14 4 -39 8zM381 41l6 14l127 2q35 0 53 6l74 23q18 10 61 10l842 15q-252 -137 -569 -138q-166 0 -273 27l-131 33q-14 4 -34 4zM471 1057l8 14l90 2q68 2 97 10l75 23q18 6 62 6l1278 14q23 -61 26 -122 l-565 6q-70 10 -115 10q-41 0 -98 -8l-569 6q-29 0 -45 6l-66 23q-23 8 -33 8zM614 1184l15 16l141 2q16 0 41 8l39 13q51 16 88 16l1057 14q57 -59 82 -120l-1162 10q-29 0 -84 19.5t-75 19.5zM840 1311l10 16l172 4q41 0 161 21.5t175 27.5q80 8 180 9q317 0 451 -132 l-842 13q-51 0 -92 16l-43 17q-14 4 -31 4zM1024 1507l6 13h148q12 0 26 6l86 22q20 6 39 6l365 19l-62 -57h35q16 0 23 2q29 8 88 22q16 6 39 8l227 15l39 -109l-287 2q-4 0 -37 8q-80 31 -102 31h-51l-45 -37l-244 4q-14 0 -37 4l-76 27q-18 6 -28 7t-56 3zM1096 422l8 14 l147 4q18 0 37 6l39 13l25 8q12 4 55 10l549 15l-21 -31l-20 -31q-27 -39 -47 -57l-486 8q-29 0 -63 16q-61 20 -72 21zM1174 1632l6 13l145 2q4 0 33 4l82 24q18 6 47 6l508 9l45 -121l-582 16l-8 2l-33 6q-8 2 -28 11q-29 10 -70 22zM1249 549l6 14l127 2q31 0 64 10 l61 19q31 10 58 10l463 14q-23 -45 -68 -122l-414 12q-39 0 -112 29q-20 8 -31 8zM1325 1755l8 14l150 3q10 0 25 4l73 20q41 12 121 10l248 -4l43 -108l-379 16l-41 8q-16 6 -74 27q-14 4 -24 6zM1346 678l6 12l151 4q12 0 33 8q10 2 33 9l78 18q14 0 24 2l406 14 q-25 -76 -49 -122l-355 12q-25 0 -74 8q-94 29 -114 29zM1378 803l2 14l154 4q8 0 41 10q78 25 141 27l387 14q-12 -76 -24 -122l-398 12q-45 2 -116 26q-29 10 -39 11zM1380 930l6 14l146 4q14 0 39 8q86 27 141 29l395 12q2 -23 2 -49q0 -8 -4 -69l-438 12q-20 0 -31 4 l-75 25q-23 8 -62 8z" />
<glyph unicode="&#xd5;" horiz-adv-x="1710" d="M168 420l8 16h103q47 0 96 15l63 18q12 4 45 8l377 12q8 -53 29.5 -79.5t75.5 -49.5l-514 21q-12 0 -29 6l-74 25q-25 8 -76 8h-104zM186 295l4 12l138 4q25 0 37 4l96 27q4 4 33 6q10 2 24 2l494 2q18 -2 43.5 -5t31.5 -3q29 0 113 14l664 9q-31 -41 -123 -123l-1268 10 q-16 2 -45 8l-68 25q-10 2 -51 4zM188 549l9 14l139 2q12 0 35 6l96 27q10 2 43 4l371 14q-20 -61 -21 -106v-16l-344 12q-66 2 -125 24q-37 14 -47 15zM227 676l6 14l150 2q14 0 78 21q43 14 80 18l411 12q-41 -59 -69 -120l-318 10q-72 2 -94 10l-65 23q-23 8 -37 8z M240 168l4 12l90 4q37 2 102 11q49 14 129 28l1170 15q-57 -49 -176 -123l-1020 12q-37 0 -123 31q-16 6 -29 6zM283 803l6 14l143 2q18 0 33 6l86 25q35 10 59 10l457 10q-74 -68 -109 -120l-335 10q-76 2 -162 33q-23 8 -33 8zM362 932l9 12l151 4q6 0 21 4l78 23 q33 10 53 10l633 19q-139 -49 -230 -127l-413 12q-39 2 -119 31q-14 4 -39 8zM383 41l6 14l127 2q35 0 53 6l74 23q18 10 62 10l841 15q-252 -137 -569 -138q-166 0 -272 27l-132 33q-14 4 -34 4zM473 1057l8 14l90 2q68 2 97 10l75 23q18 6 62 6l1278 14q23 -61 26 -122 l-565 6q-70 10 -114 10q-41 0 -99 -8l-569 6q-29 0 -45 6l-66 23q-23 8 -33 8zM616 1184l15 16l141 2q16 0 41 8l39 13q51 16 88 16l1057 14q57 -59 82 -120l-1161 10q-29 0 -84.5 19.5t-75.5 19.5zM842 1311l10 16l172 4q41 0 161 21.5t175 27.5q80 8 180 9q317 0 451 -132 l-842 13q-51 0 -92 16l-43 17q-14 4 -31 4zM1030 1497l4 12l152 2q10 0 33 9q80 29 137 28l667 8q-111 -111 -262 -110q-49 0 -88 12l-108 35q-12 4 -25 4q-49 0 -72 -33q-6 -10 -10 -12h-143q-4 0 -15 2q-16 2 -34 8l-68 23q-16 6 -29 6zM1098 422l8 14l147 4q18 0 37 6 l39 13l25 8q12 4 55 10l549 15l-21 -31l-20 -31q-27 -39 -47 -57l-486 8q-29 0 -63 16q-61 20 -72 21zM1116 1620l6 14l107 2q55 2 88 11q74 20 72 20q29 6 92 6l643 10q-27 -55 -92 -120l-621 14q-31 4 -45 8l-59 21q-35 12 -54 12h-51zM1251 549l6 14l127 2q31 0 64 10 l61 19q31 10 58 10l463 14q-23 -45 -68 -122l-414 12q-39 0 -112 29q-20 8 -31 8zM1255 1749l11 12h96q41 0 68 6l129 29q10 4 43 6h28q82 0 156 -33q35 -16 63 -20l13 -2l14 -2h8q4 -2 8 -2q47 0 86 47h189q-8 -45 -39 -104l-576 16q-33 0 -57 10l-53 21q-10 4 -101 10z M1348 678l6 12l151 4q12 0 33 8q10 2 33 9l78 18q14 0 24 2l406 14q-25 -76 -49 -122l-355 12q-25 0 -73 8q-94 29 -115 29zM1380 803l2 14l154 4q8 0 41 10q78 25 141 27l387 14q-12 -76 -24 -122l-398 12q-45 2 -116 26q-29 10 -39 11zM1382 930l7 14l145 4q14 0 39 8 q86 27 141 29l395 12q2 -23 2 -49q0 -8 -4 -69l-438 12q-20 0 -31 4l-75 25q-23 8 -62 8z" />
<glyph unicode="&#xd6;" horiz-adv-x="1710" d="M166 420l8 16h102q47 0 97 15l63 18q12 4 45 8l377 12q8 -53 29.5 -79.5t75.5 -49.5l-514 21q-12 0 -29 6l-74 25q-25 8 -76 8h-104zM184 295l4 12l138 4q25 0 36 4l97 27q4 4 33 6q10 2 24 2l494 2q18 -2 43.5 -5t31.5 -3q29 0 113 14l664 9q-31 -41 -123 -123l-1268 10 q-16 2 -45 8l-68 25q-10 2 -51 4zM186 549l9 14l139 2q12 0 35 6l96 27q10 2 43 4l371 14q-20 -61 -21 -106v-16l-344 12q-66 2 -125 24q-37 14 -47 15zM225 676l6 14l150 2q14 0 78 21q43 14 80 18l411 12q-41 -59 -69 -120l-318 10q-72 2 -94 10l-66 23q-23 8 -36 8z M238 168l4 12l90 4q37 2 102 11q49 14 129 28l1170 15q-57 -49 -177 -123l-1019 12q-37 0 -123 31q-16 6 -29 6zM281 803l6 14l143 2q18 0 33 6l86 25q35 10 59 10l457 10q-74 -68 -109 -120l-335 10q-76 2 -162 33q-23 8 -33 8zM360 932l9 12l151 4q6 0 21 4l77 23 q33 10 54 10l633 19q-139 -49 -230 -127l-413 12q-39 2 -119 31q-14 4 -39 8zM381 41l6 14l127 2q35 0 53 6l74 23q18 10 61 10l842 15q-252 -137 -569 -138q-166 0 -273 27l-131 33q-14 4 -34 4zM471 1057l8 14l90 2q68 2 97 10l75 23q18 6 62 6l1278 14q23 -61 26 -122 l-565 6q-70 10 -115 10q-41 0 -98 -8l-569 6q-29 0 -45 6l-66 23q-23 8 -33 8zM614 1184l15 16l141 2q16 0 41 8l39 13q51 16 88 16l1057 14q57 -59 82 -120l-1162 10q-29 0 -84 19.5t-75 19.5zM840 1311l10 16l172 4q41 0 161 21.5t175 27.5q80 8 180 9q317 0 451 -132 l-842 13q-51 0 -92 16l-43 17q-14 4 -31 4zM1008 1503l6 13l88 4q39 2 92 6l72 20q25 8 47 8l324 15l-25 -49l23 -2q53 -4 104 10l64 18q27 8 43 8l321 13l-57 -111l-148 4h-106q-45 0 -70 8l-59 21q-31 10 -90 10h-35l-25 -39h-284q-4 2 -8 2l-33 6q-6 2 -23 9 q-57 23 -73 22zM1076 1630l8 12l90 3q35 0 74 4l90 26q25 6 51 8l315 13l-26 -51h57q35 0 72 10l74 20q18 6 43 6l311 11l-64 -119l-252 14q-45 2 -59 6l-63 23q-29 10 -84 10h-45l-27 -51l-287 14q-10 0 -30 6l-23 7l-4 4h-2q14 0 -43 14q-12 2 -27 6zM1096 422l8 14l147 4 q18 0 37 6l39 13l25 8q12 4 55 10l549 15l-21 -31l-20 -31q-27 -39 -47 -57l-486 8q-29 0 -63 16q-61 20 -72 21zM1143 1757l13 15l114 2q41 0 54 4l79 22q37 10 64 10h297l-19 -36q4 -2 9 -2h47q43 2 57 6l90 24l31 6q6 0 14 2h15l288 -2l-55 -108l-266 14q-39 2 -56 8 l-59 23q-23 8 -82 8h-43q-10 -18 -29 -49v-2l-223 10q-63 2 -80 6q-55 23 -92 33q-10 2 -18 2zM1249 549l6 14l127 2q31 0 64 10l61 19q31 10 58 10l463 14q-23 -45 -68 -122l-414 12q-39 0 -112 29q-20 8 -31 8zM1346 678l6 12l151 4q12 0 33 8q10 2 33 9l78 18q14 0 24 2 l406 14q-25 -76 -49 -122l-355 12q-25 0 -74 8q-94 29 -114 29zM1378 803l2 14l154 4q8 0 41 10q78 25 141 27l387 14q-12 -76 -24 -122l-398 12q-45 2 -116 26q-29 10 -39 11zM1380 930l6 14l146 4q14 0 39 8q86 27 141 29l395 12q2 -23 2 -49q0 -8 -4 -69l-438 12 q-20 0 -31 4l-75 25q-23 8 -62 8z" />
<glyph unicode="&#xd8;" horiz-adv-x="1714" d="M23 41l6 14l155 4q8 0 15 2l88 25q35 10 67 10l1192 13q-221 -137 -559 -138q-47 0 -92 2l-563 25q-37 2 -133 35q-16 6 -29 6zM66 170l8 12l88 2q68 2 92 9l84 22q20 8 55 8l1338 8q-80 -63 -177 -120l-1208 16q-12 2 -14 2l-19 4q-33 14 -94 31zM121 -86l6 14l149 4 q8 0 31 5l92 26q18 6 41 6l234 6l-131 -102h-129q-39 0 -88 21l-25 10q-14 6 -29 6zM170 422l8 16l98 -2q35 0 80 8l70 23q29 10 131 12l303 8q10 -90 105 -129l-476 21q-70 6 -145 35q-18 6 -35 6zM184 297l6 12l156 4q6 0 41 11q90 27 121 26l498 2q37 -6 77 -6q33 0 88 8 l691 6q-45 -55 -125 -122l-1233 16q-51 0 -135 31q-14 6 -33 6zM186 549l9 14l155 4q6 0 19 4l96 27q12 2 27 4l389 14q-20 -55 -21 -106v-16l-366 14q-33 2 -47.5 5t-81.5 28q-16 6 -35 6zM227 676l6 14l154 4q18 0 70.5 17.5t93.5 19.5l399 10q-49 -78 -67 -120l-338 14 q-59 2 -80 10l-59 23q-16 6 -31 6zM281 805l10 12l147 4q14 0 27 4l86 25q27 8 57 8l461 10q-6 -6 -16 -14q-61 -59 -97 -104l-374 14q-33 2 -78 16l-43 15q-18 6 -29 6zM365 932l10 14h104q49 0 64 6l75 21q35 10 60 10l625 18q-133 -53 -226 -127l-436 17q-12 0 -29 6 l-71 25q-20 6 -74 8zM475 1059l8 12l111 2q47 0 65 6l76 23q29 8 92 10h64h274l918 8q27 -76 26 -123l-571 9q-57 8 -115 8q-70 0 -88 -8l-524 10q-76 2 -160 33q-12 4 -30 8zM621 1186l8 14l149 2q6 0 19 2l71 21q43 12 76 12h47l1245 12l-155 -123l-869 13q-16 0 -192 2 q-131 2 -156 10l-76 27q-14 4 -30 4zM848 1311l6 14l168 4q12 0 37 2q16 2 90 17l59 10q174 29 314 28h143l602 -10l49 -65l-75 -58l-1065 15q-57 0 -91 12l-63 23q-16 6 -33 6zM1098 420l6 14l158 2q4 0 16 4q106 33 143 33l535 12q-49 -74 -90 -120l-477 12q-27 0 -84 22 q-41 16 -70 17zM1249 547l6 12l150 4q12 0 27 4l88 25q20 6 41 6l469 14q-35 -70 -70 -123l-348 13q-100 4 -182 33q-16 8 -27 8zM1348 672l4 14l153 4q4 0 25 4q100 29 133 31l414 14q-6 -27 -11 -39l-18 -45q-6 -14 -18 -39l-388 17q-45 2 -79 16q-47 20 -74 21zM1380 801 l4 12l117 2q47 0 58 6l75 21q39 10 99 12l372 10q-6 -49 -24 -121l-371 15q-61 2 -76 6l-69 24q-18 6 -68 9zM1384 928l9 12l151 4q14 0 70 19q47 14 78 16l417 14q2 -16 2 -39q0 -51 -6 -84l-391 15q-51 2 -70.5 6t-82.5 27q-16 6 -25 6zM1720 1434l9 16l151 2q2 0 8 2 t29 6q2 2 37 13q55 16 86 16h141l80 -105l-266 11q-14 0 -56 16q-51 20 -75 21z" />
<glyph unicode="&#xd9;" d="M166 291l8 14l152 4q14 0 84 23q51 16 77 16l437 6h6l43 -10q8 -2 37 -2q45 0 100 14l481 6q-41 -70 -75 -120l-1061 10q-31 0 -68 14q-29 10 -74 23zM184 166l6 12l111 2q41 0 74 10l78 23q12 4 45 8l1011 15q-55 -72 -118 -121l-918 10q-27 4 -41 6l-78 27q-18 4 -37 4 zM199 418l6 12l151 6q4 0 78 21q49 14 90 16l334 14q-12 -37 -12 -51q0 -45 65 -76l-438 21q-37 2 -88 22q-25 10 -33 11zM246 545l8 14l149 2q4 0 17 4q49 16 137 35l367 14l-64 -122l-338 12q-25 4 -100 31q-8 2 -21 6zM285 41l6 12l153 2q2 2 13 4l69 19l19 6 q29 10 59 10l778 17q-170 -137 -518 -138q-215 0 -348 39l-70 21q-12 4 -22 4zM313 672l6 12l103 2q53 2 76 8l73 23q31 10 56 10l364 12l-63 -121l-314 13q-35 2 -92 20.5t-96 18.5zM381 799l4 12l154 4q27 6 75 21.5t80 17.5l365 14l-64 -120l-331 12q-29 2 -37 4l-66 22 l-26 9q-4 0 -9 2zM446 924l9 14l153 6q10 0 27.5 6t58.5 17.5t72 13.5l360 12l-63 -121l-338 13q-18 0 -59 16q-53 20 -72 21zM514 1051l8 16l148 2q37 8 90 25q35 12 57 12l375 16l-62 -123l-325 13q-25 0 -100 26q-29 8 -46 9zM578 1178l10 16l151 4q12 0 88 23 q39 12 60 12l373 14l-66 -121l-307 13q-70 2 -123 26q-23 10 -33 11zM645 1305l8 16l97 2q29 0 96 10l72 19q55 14 77 14h324l-55 -113l-297 11q-53 2 -101 18q-57 20 -71 21zM975 420l8 14l150 4q25 0 76 16.5t77 18.5l373 16l-64 -120l-329 10q-31 0 -68 16q-53 23 -74 23 zM1034 1751l10 14l154 4q12 0 29 7q90 31 143 30h285l18 -110l-356 14q-2 0 -8.5 2t-26.5 6q16 0 -76 25q-12 4 -22 4zM1042 547l11 14l145 2q16 0 71.5 17.5t86.5 21.5l368 12l-61 -118l-324 10q-23 0 -49 6l-78 27q-10 6 -61 6zM1087 1624l7 14l155 2q2 2 6 2l31 9 q8 2 31 8q53 16 92 18l266 15l21 -123l-308 12q-39 2 -82 18q-51 20 -69 21zM1112 674l6 14l86 -2q51 -2 90 10l68 21q29 8 59 10l371 16l-63 -120h-21l-319 10q-4 2 -9 2l-28 6l-56 18l-28 9q-4 2 -8 2zM1139 1497l8 14l149 2q10 0 37 9q88 29 109 28l254 13l16 -109h-197 q-104 0 -129 8l-71 25q-16 6 -31 6l-61 2zM1180 801l4 12l141 2q20 0 107 27q27 8 51 12l377 16l-66 -122l-297 10q-51 2 -76 10l-73 25q-10 4 -27 4zM1245 928l8 12l148 4q2 0 90 25q41 12 63 12l371 16l-63 -120l-263 8q-20 0 -61 2q-16 2 -41 6l-78 25q-10 2 -28 6z M1309 1051l8 16l151 4q12 0 25 4l82 25q25 8 43 8l373 16l-64 -120l-336 10l-30 6l-74 27q-20 4 -31 4h-147zM1376 1178l6 18l156 2q4 0 88 25q37 10 68 12l362 16l-61 -121l-340 11q-10 2 -33 8q-78 29 -90 29h-156zM1442 1305l8 18h119q33 0 61 8l72 21q51 14 217 14h197 l-56 -111l-270 11q-74 2 -90 8l-74 24q-18 6 -39 7h-145z" />
<glyph unicode="&#xda;" d="M166 291l8 14l152 4q14 0 84 23q51 16 77 16l437 6h6l43 -10q8 -2 37 -2q45 0 100 14l481 6q-41 -70 -75 -120l-1061 10q-31 0 -68 14q-29 10 -74 23zM184 166l6 12l111 2q41 0 74 10l78 23q12 4 45 8l1011 15q-55 -72 -118 -121l-918 10q-27 4 -41 6l-78 27q-18 4 -37 4 zM199 418l6 12l151 6q4 0 78 21q49 14 90 16l334 14q-12 -37 -12 -51q0 -45 65 -76l-438 21q-37 2 -88 22q-25 10 -33 11zM246 545l8 14l149 2q4 0 17 4q49 16 137 35l367 14l-64 -122l-338 12q-25 4 -100 31q-8 2 -21 6zM285 41l6 12l153 2q2 2 13 4l69 19l19 6 q29 10 59 10l778 17q-170 -137 -518 -138q-215 0 -348 39l-70 21q-12 4 -22 4zM313 672l6 12l103 2q53 2 76 8l73 23q31 10 56 10l364 12l-63 -121l-314 13q-35 2 -92 20.5t-96 18.5zM381 799l4 12l154 4q27 6 75 21.5t80 17.5l365 14l-64 -120l-331 12q-29 2 -37 4l-66 22 l-26 9q-4 0 -9 2zM446 924l9 14l153 6q10 0 27.5 6t58.5 17.5t72 13.5l360 12l-63 -121l-338 13q-18 0 -59 16q-53 20 -72 21zM514 1051l8 16l148 2q37 8 90 25q35 12 57 12l375 16l-62 -123l-325 13q-25 0 -100 26q-29 8 -46 9zM578 1178l10 16l151 4q12 0 88 23 q39 12 60 12l373 14l-66 -121l-307 13q-70 2 -123 26q-23 10 -33 11zM645 1305l8 16l97 2q29 0 96 10l72 19q55 14 77 14h324l-55 -113l-297 11q-53 2 -101 18q-57 20 -71 21zM975 420l8 14l150 4q25 0 76 16.5t77 18.5l373 16l-64 -120l-329 10q-31 0 -68 16q-53 23 -74 23 zM1042 547l11 14l145 2q16 0 71.5 17.5t86.5 21.5l368 12l-61 -118l-324 10q-23 0 -49 6l-78 27q-10 6 -61 6zM1112 674l6 14l86 -2q51 -2 90 10l68 21q29 8 59 10l371 16l-63 -120h-21l-319 10q-4 2 -9 2l-28 6l-56 18l-28 9q-4 2 -8 2zM1130 1497l6 12l154 4q31 10 96 25 l14 2q14 4 37 8l348 13l-122 -109h-193q-63 0 -94 10l-70 23q-18 6 -26 6zM1180 801l4 12l141 2q20 0 107 27q27 8 51 12l377 16l-66 -122l-297 10q-51 2 -76 10l-73 25q-10 4 -27 4zM1245 928l8 12l148 4q2 0 90 25q41 12 63 12l371 16l-63 -120l-263 8q-20 0 -61 2 q-16 2 -41 6l-78 25q-10 2 -28 6zM1247 1622l6 14l72 -2h8q68 0 102 11l86 24q25 4 39 6l369 11l-137 -121l-244 12l-23 4q-57 18 -131 37zM1309 1051l8 16l151 4q12 0 25 4l82 25q25 8 43 8l373 16l-64 -120l-336 10l-30 6l-74 27q-20 4 -31 4h-147zM1364 1749l8 14l151 2 q4 0 11 2l47 13l43 12q37 10 71 10q12 0 74 -2l289 -2l-121 -106l-293 14q-23 2 -67.5 20.5t-67.5 18.5zM1376 1178l6 18l156 2q4 0 88 25q37 10 68 12l362 16l-61 -121l-340 11q-10 2 -33 8q-78 29 -90 29h-156zM1442 1305l8 18h119q33 0 61 8l72 21q51 14 217 14h197 l-56 -111l-270 11q-74 2 -90 8l-74 24q-18 6 -39 7h-145z" />
<glyph unicode="&#xdb;" d="M166 291l8 14l152 4q14 0 84 23q51 16 77 16l437 6h6l43 -10q8 -2 37 -2q45 0 100 14l481 6q-41 -70 -75 -120l-1061 10q-31 0 -68 14q-29 10 -74 23zM184 166l6 12l111 2q41 0 74 10l78 23q12 4 45 8l1011 15q-55 -72 -118 -121l-918 10q-27 4 -41 6l-78 27q-18 4 -37 4 zM199 418l6 12l151 6q4 0 78 21q49 14 90 16l334 14q-12 -37 -12 -51q0 -45 65 -76l-438 21q-37 2 -88 22q-25 10 -33 11zM246 545l8 14l149 2q4 0 17 4q49 16 137 35l367 14l-64 -122l-338 12q-25 4 -100 31q-8 2 -21 6zM285 41l6 12l153 2q2 2 13 4l69 19l19 6 q29 10 59 10l778 17q-170 -137 -518 -138q-215 0 -348 39l-70 21q-12 4 -22 4zM313 672l6 12l103 2q53 2 76 8l73 23q31 10 56 10l364 12l-63 -121l-314 13q-35 2 -92 20.5t-96 18.5zM381 799l4 12l154 4q27 6 75 21.5t80 17.5l365 14l-64 -120l-331 12q-29 2 -37 4l-66 22 l-26 9q-4 0 -9 2zM446 924l9 14l153 6q10 0 27.5 6t58.5 17.5t72 13.5l360 12l-63 -121l-338 13q-18 0 -59 16q-53 20 -72 21zM514 1051l8 16l148 2q37 8 90 25q35 12 57 12l375 16l-62 -123l-325 13q-25 0 -100 26q-29 8 -46 9zM578 1178l10 16l151 4q12 0 88 23 q39 12 60 12l373 14l-66 -121l-307 13q-70 2 -123 26q-23 10 -33 11zM645 1305l8 16l97 2q29 0 96 10l72 19q55 14 77 14h324l-55 -113l-297 11q-53 2 -101 18q-57 20 -71 21zM913 1507l6 13h148q12 0 26 6l86 22q20 6 39 6l365 19l-62 -57h35q16 0 23 2q29 8 88 22 q16 6 39 8l227 15l39 -109l-287 2q-4 0 -37 8q-80 31 -102 31h-51l-45 -37l-244 4q-14 0 -37 4l-76 27q-18 6 -28 7t-56 3zM975 420l8 14l150 4q25 0 76 16.5t77 18.5l373 16l-64 -120l-329 10q-31 0 -68 16q-53 23 -74 23zM1042 547l11 14l145 2q16 0 71.5 17.5t86.5 21.5 l368 12l-61 -118l-324 10q-23 0 -49 6l-78 27q-10 6 -61 6zM1063 1632l6 13l145 2q4 0 33 4l82 24q18 6 47 6l508 9l45 -121l-582 16l-8 2l-33 6q-8 2 -28 11q-29 10 -70 22zM1112 674l6 14l86 -2q51 -2 90 10l68 21q29 8 59 10l371 16l-63 -120h-21l-319 10q-4 2 -9 2 l-28 6l-56 18l-28 9q-4 2 -8 2zM1180 801l4 12l141 2q20 0 107 27q27 8 51 12l377 16l-66 -122l-297 10q-51 2 -76 10l-73 25q-10 4 -27 4zM1214 1755l8 14l150 3q10 0 25 4l73 20q41 12 121 10l248 -4l43 -108l-379 16l-41 8q-16 6 -74 27q-14 4 -24 6zM1245 928l8 12 l148 4q2 0 90 25q41 12 63 12l371 16l-63 -120l-263 8q-20 0 -61 2q-16 2 -41 6l-78 25q-10 2 -28 6zM1309 1051l8 16l151 4q12 0 25 4l82 25q25 8 43 8l373 16l-64 -120l-336 10l-30 6l-74 27q-20 4 -31 4h-147zM1376 1178l6 18l156 2q4 0 88 25q37 10 68 12l362 16 l-61 -121l-340 11q-10 2 -33 8q-78 29 -90 29h-156zM1442 1305l8 18h119q33 0 61 8l72 21q51 14 217 14h197l-56 -111l-270 11q-74 2 -90 8l-74 24q-18 6 -39 7h-145z" />
<glyph unicode="&#xdc;" d="M166 291l8 14l152 4q14 0 84 23q51 16 77 16l437 6h6l43 -10q8 -2 37 -2q45 0 100 14l481 6q-41 -70 -75 -120l-1061 10q-31 0 -68 14q-29 10 -74 23zM184 166l6 12l111 2q41 0 74 10l78 23q12 4 45 8l1011 15q-55 -72 -118 -121l-918 10q-27 4 -41 6l-78 27q-18 4 -37 4 zM199 418l6 12l151 6q4 0 78 21q49 14 90 16l334 14q-12 -37 -12 -51q0 -45 65 -76l-438 21q-37 2 -88 22q-25 10 -33 11zM246 545l8 14l149 2q4 0 17 4q49 16 137 35l367 14l-64 -122l-338 12q-25 4 -100 31q-8 2 -21 6zM285 41l6 12l153 2q2 2 13 4l69 19l19 6 q29 10 59 10l778 17q-170 -137 -518 -138q-215 0 -348 39l-70 21q-12 4 -22 4zM313 672l6 12l103 2q53 2 76 8l73 23q31 10 56 10l364 12l-63 -121l-314 13q-35 2 -92 20.5t-96 18.5zM381 799l4 12l154 4q27 6 75 21.5t80 17.5l365 14l-64 -120l-331 12q-29 2 -37 4l-66 22 l-26 9q-4 0 -9 2zM446 924l9 14l153 6q10 0 27.5 6t58.5 17.5t72 13.5l360 12l-63 -121l-338 13q-18 0 -59 16q-53 20 -72 21zM514 1051l8 16l148 2q37 8 90 25q35 12 57 12l375 16l-62 -123l-325 13q-25 0 -100 26q-29 8 -46 9zM578 1178l10 16l151 4q12 0 88 23 q39 12 60 12l373 14l-66 -121l-307 13q-70 2 -123 26q-23 10 -33 11zM645 1305l8 16l97 2q29 0 96 10l72 19q55 14 77 14h324l-55 -113l-297 11q-53 2 -101 18q-57 20 -71 21zM911 1503l7 13l88 4q39 2 92 6l71 20q25 8 48 8l323 15l-24 -49l22 -2q53 -4 104 10l64 18 q27 8 43 8l322 13l-58 -111l-147 4h-107q-45 0 -69 8l-60 21q-31 10 -90 10h-35l-24 -39h-285q-4 2 -8 2l-33 6q-6 2 -22 9q-57 23 -74 22zM975 420l8 14l150 4q25 0 76 16.5t77 18.5l373 16l-64 -120l-329 10q-31 0 -68 16q-53 23 -74 23zM979 1630l8 12l90 3q35 0 74 4 l90 26q25 6 51 8l316 13l-27 -51h57q35 0 72 10l74 20q18 6 43 6l311 11l-63 -119l-252 14q-45 2 -60 6l-63 23q-29 10 -84 10h-45l-27 -51l-287 14q-10 0 -30 6l-23 7l-4 4h-2q14 0 -43 14q-12 2 -27 6zM1042 547l11 14l145 2q16 0 71.5 17.5t86.5 21.5l368 12l-61 -118 l-324 10q-23 0 -49 6l-78 27q-10 6 -61 6zM1047 1757l12 15l115 2q41 0 53 4l80 22q37 10 63 10h297l-18 -36q4 -2 8 -2h47q43 2 57 6l90 24l31 6q6 0 14 2h15l289 -2l-56 -108l-266 14q-39 2 -55 8l-60 23q-23 8 -82 8h-43q-10 -18 -28 -49v-2l-224 10q-63 2 -79 6 q-55 23 -93 33q-10 2 -18 2zM1112 674l6 14l86 -2q51 -2 90 10l68 21q29 8 59 10l371 16l-63 -120h-21l-319 10q-4 2 -9 2l-28 6l-56 18l-28 9q-4 2 -8 2zM1180 801l4 12l141 2q20 0 107 27q27 8 51 12l377 16l-66 -122l-297 10q-51 2 -76 10l-73 25q-10 4 -27 4zM1245 928 l8 12l148 4q2 0 90 25q41 12 63 12l371 16l-63 -120l-263 8q-20 0 -61 2q-16 2 -41 6l-78 25q-10 2 -28 6zM1309 1051l8 16l151 4q12 0 25 4l82 25q25 8 43 8l373 16l-64 -120l-336 10l-30 6l-74 27q-20 4 -31 4h-147zM1376 1178l6 18l156 2q4 0 88 25q37 10 68 12l362 16 l-61 -121l-340 11q-10 2 -33 8q-78 29 -90 29h-156zM1442 1305l8 18h119q33 0 61 8l72 21q51 14 217 14h197l-56 -111l-270 11q-74 2 -90 8l-74 24q-18 6 -39 7h-145z" />
<glyph unicode="&#xdf;" horiz-adv-x="819" d="M68 0v1366h684v-1366h-684zM82 14h655v1338h-655v-1338z" />
<glyph unicode="&#xe0;" d="M-150 41l7 14l157 4q10 0 78 21q43 12 72 14l436 17l-96 -111h-348q-39 0 -119 29q-20 8 -39 8zM-35 168l6 14l154 4q6 0 22 4l95 27q18 6 43 6l422 13l-105 -121l-350 12q-29 0 -76 17.5t-70 21.5zM78 295l6 14l149 2q14 0 67.5 17.5t80.5 19.5l444 23l-114 -131 l-334 14q-45 2 -121 31q-16 6 -27 6zM190 422l9 14l149 2q2 0 8 2l72 19l18 6q37 12 84 12h62l1048 12l-20 -120l-1014 10q-119 2 -137 2q-27 2 -57 14l-68 23zM301 547l8 16l113 2q43 0 63 6l90 25q20 6 52 6l1038 14l-23 -122l-1005 12q-76 0 -156 31q-16 6 -28 6z M414 674l6 14l153 4q14 0 65.5 16.5t88.5 20.5l416 10l-41 -49h37q66 0 98 10l68 21q16 4 38 6l343 16l-21 -122l-350 12q-10 2 -33 8q-90 31 -139 31h-58l-53 -62l-350 25q-12 0 -27 6q-35 14 -90 29zM526 801l6 14l150 4q8 0 27 4l88 25q12 4 45 8l411 12l-41 -49 q35 2 111 25q39 12 57 12l328 14l-20 -122l-324 12q-31 2 -51 8l-74 25q-8 4 -47 4l-45 -49l-340 12q-23 0 -59 16q-47 20 -72 21zM639 928l8 14l150 4q6 0 80 21l22 6q35 10 53 10l416 21l-29 -37q10 2 21 4l35 6q16 2 45 6l293 14l-23 -123l-280 11q-45 2 -59.5 4 t-55.5 16q-4 2 -21 6l-37 -37l-296 11q-61 2 -105 18q-59 23 -76 23zM750 1055l10 14l151 4q14 0 35 8q14 4 66 15l41 8q29 6 53 6l647 14l-20 -123l-594 11q-61 0 -140 8l-69 24q-14 6 -47 7zM864 1182l6 14l144 4q29 0 106 21q63 16 94 16l562 12l-21 -121l-506 9 q-111 2 -135 10l-65 22q-18 4 -50 9zM879 43l8 12l160 4q8 0 20 4l51 17q47 14 80 16l375 15l-19 -111h-342q-55 0 -86 10l-69 23q-2 2 -27 6zM911 168l7 14l153 4q8 0 76 21q35 10 76 16l372 13l-20 -119l-389 12q-18 0 -58 14q-12 6 -38 15q-16 8 -33 8zM942 295l6 12 l150 4q14 0 28 6l72 21q33 10 55 10l367 14l-25 -120l-368 12q-25 0 -70 18.5t-67 18.5zM977 1309l8 14l150 4q6 0 20 2l80 25q33 10 88 10h160l313 2l-18 -111l-498 13q-39 0 -59 8l-54 18q-27 10 -51 11zM1048 1751l10 14l154 4q12 0 29 7q90 31 143 30h285l18 -110 l-356 14q-2 0 -8.5 2t-26.5 6q16 0 -76 25q-12 4 -22 4zM1101 1624l7 14l155 2q2 2 6 2l31 9q8 2 31 8q53 16 92 18l266 15l21 -123l-308 12q-39 2 -82 18q-51 20 -69 21zM1153 1497l8 14l149 2q10 0 37 9q88 29 109 28l254 13l16 -109h-197q-104 0 -129 8l-71 25 q-16 6 -31 6l-61 2z" />
<glyph unicode="&#xe1;" d="M-150 41l7 14l157 4q10 0 78 21q43 12 72 14l436 17l-96 -111h-348q-39 0 -119 29q-20 8 -39 8zM-35 168l6 14l154 4q6 0 22 4l95 27q18 6 43 6l422 13l-105 -121l-350 12q-29 0 -76 17.5t-70 21.5zM78 295l6 14l149 2q14 0 67.5 17.5t80.5 19.5l444 23l-114 -131 l-334 14q-45 2 -121 31q-16 6 -27 6zM190 422l9 14l149 2q2 0 8 2l72 19l18 6q37 12 84 12h62l1048 12l-20 -120l-1014 10q-119 2 -137 2q-27 2 -57 14l-68 23zM301 547l8 16l113 2q43 0 63 6l90 25q20 6 52 6l1038 14l-23 -122l-1005 12q-76 0 -156 31q-16 6 -28 6z M414 674l6 14l153 4q14 0 65.5 16.5t88.5 20.5l416 10l-41 -49h37q66 0 98 10l68 21q16 4 38 6l343 16l-21 -122l-350 12q-10 2 -33 8q-90 31 -139 31h-58l-53 -62l-350 25q-12 0 -27 6q-35 14 -90 29zM526 801l6 14l150 4q8 0 27 4l88 25q12 4 45 8l411 12l-41 -49 q35 2 111 25q39 12 57 12l328 14l-20 -122l-324 12q-31 2 -51 8l-74 25q-8 4 -47 4l-45 -49l-340 12q-23 0 -59 16q-47 20 -72 21zM639 928l8 14l150 4q6 0 80 21l22 6q35 10 53 10l416 21l-29 -37q10 2 21 4l35 6q16 2 45 6l293 14l-23 -123l-280 11q-45 2 -59.5 4 t-55.5 16q-4 2 -21 6l-37 -37l-296 11q-61 2 -105 18q-59 23 -76 23zM750 1055l10 14l151 4q14 0 35 8q14 4 66 15l41 8q29 6 53 6l647 14l-20 -123l-594 11q-61 0 -140 8l-69 24q-14 6 -47 7zM864 1182l6 14l144 4q29 0 106 21q63 16 94 16l562 12l-21 -121l-506 9 q-111 2 -135 10l-65 22q-18 4 -50 9zM879 43l8 12l160 4q8 0 20 4l51 17q47 14 80 16l375 15l-19 -111h-342q-55 0 -86 10l-69 23q-2 2 -27 6zM911 168l7 14l153 4q8 0 76 21q35 10 76 16l372 13l-20 -119l-389 12q-18 0 -58 14q-12 6 -38 15q-16 8 -33 8zM942 295l6 12 l150 4q14 0 28 6l72 21q33 10 55 10l367 14l-25 -120l-368 12q-25 0 -70 18.5t-67 18.5zM977 1309l8 14l150 4q6 0 20 2l80 25q33 10 88 10h160l313 2l-18 -111l-498 13q-39 0 -59 8l-54 18q-27 10 -51 11zM1200 1497l6 12l154 4q31 10 96 25l14 2q14 4 37 8l348 13 l-122 -109h-193q-63 0 -94 10l-70 23q-18 6 -26 6zM1317 1622l6 14l72 -2h8q68 0 102 11l86 24q25 4 39 6l369 11l-137 -121l-244 12l-23 4q-57 18 -131 37zM1434 1749l8 14l151 2q4 0 11 2l47 13l43 12q37 10 71 10q12 0 74 -2l289 -2l-121 -106l-293 14q-23 2 -67.5 20.5 t-67.5 18.5z" />
<glyph unicode="&#xe2;" d="M-150 41l7 14l157 4q10 0 78 21q43 12 72 14l436 17l-96 -111h-348q-39 0 -119 29q-20 8 -39 8zM-35 168l6 14l154 4q6 0 22 4l95 27q18 6 43 6l422 13l-105 -121l-350 12q-29 0 -76 17.5t-70 21.5zM78 295l6 14l149 2q14 0 67.5 17.5t80.5 19.5l444 23l-114 -131 l-334 14q-45 2 -121 31q-16 6 -27 6zM190 422l9 14l149 2q2 0 8 2l72 19l18 6q37 12 84 12h62l1048 12l-20 -120l-1014 10q-119 2 -137 2q-27 2 -57 14l-68 23zM301 547l8 16l113 2q43 0 63 6l90 25q20 6 52 6l1038 14l-23 -122l-1005 12q-76 0 -156 31q-16 6 -28 6z M414 674l6 14l153 4q14 0 65.5 16.5t88.5 20.5l416 10l-41 -49h37q66 0 98 10l68 21q16 4 38 6l343 16l-21 -122l-350 12q-10 2 -33 8q-90 31 -139 31h-58l-53 -62l-350 25q-12 0 -27 6q-35 14 -90 29zM526 801l6 14l150 4q8 0 27 4l88 25q12 4 45 8l411 12l-41 -49 q35 2 111 25q39 12 57 12l328 14l-20 -122l-324 12q-31 2 -51 8l-74 25q-8 4 -47 4l-45 -49l-340 12q-23 0 -59 16q-47 20 -72 21zM639 928l8 14l150 4q6 0 80 21l22 6q35 10 53 10l416 21l-29 -37q10 2 21 4l35 6q16 2 45 6l293 14l-23 -123l-280 11q-45 2 -59.5 4 t-55.5 16q-4 2 -21 6l-37 -37l-296 11q-61 2 -105 18q-59 23 -76 23zM750 1055l10 14l151 4q14 0 35 8q14 4 66 15l41 8q29 6 53 6l647 14l-20 -123l-594 11q-61 0 -140 8l-69 24q-14 6 -47 7zM864 1182l6 14l144 4q29 0 106 21q63 16 94 16l562 12l-21 -121l-506 9 q-111 2 -135 10l-65 22q-18 4 -50 9zM879 43l8 12l160 4q8 0 20 4l51 17q47 14 80 16l375 15l-19 -111h-342q-55 0 -86 10l-69 23q-2 2 -27 6zM911 168l7 14l153 4q8 0 76 21q35 10 76 16l372 13l-20 -119l-389 12q-18 0 -58 14q-12 6 -38 15q-16 8 -33 8zM913 1507l6 13 h148q12 0 26 6l86 22q20 6 39 6l365 19l-62 -57h35q16 0 23 2q29 8 88 22q16 6 39 8l227 15l39 -109l-287 2q-4 0 -37 8q-80 31 -102 31h-51l-45 -37l-244 4q-14 0 -37 4l-76 27q-18 6 -28 7t-56 3zM942 295l6 12l150 4q14 0 28 6l72 21q33 10 55 10l367 14l-25 -120 l-368 12q-25 0 -70 18.5t-67 18.5zM977 1309l8 14l150 4q6 0 20 2l80 25q33 10 88 10h160l313 2l-18 -111l-498 13q-39 0 -59 8l-54 18q-27 10 -51 11zM1063 1632l6 13l145 2q4 0 33 4l82 24q18 6 47 6l508 9l45 -121l-582 16l-8 2l-33 6q-8 2 -28 11q-29 10 -70 22z M1214 1755l8 14l150 3q10 0 25 4l73 20q41 12 121 10l248 -4l43 -108l-379 16l-41 8q-16 6 -74 27q-14 4 -24 6z" />
</font>
</defs>
</svg>
