<?xml version="1.0" standalone="no"?>
<!DOCTYPE svg PUBLIC "-//W3C//DTD SVG 1.1//EN" "http://www.w3.org/Graphics/SVG/1.1/DTD/svg11.dtd" >
<svg xmlns="http://www.w3.org/2000/svg" xmlns:xlink="http://www.w3.org/1999/xlink" version="1.1">
<metadata></metadata>
<defs>
<font id="fishmonger_erplain" horiz-adv-x="1148" >
<font-face units-per-em="2048" ascent="1597" descent="-451" />
<missing-glyph horiz-adv-x="641" />
<glyph unicode="&#xfb01;" horiz-adv-x="1239" d="M98 903v84q0 47 47 47h117v352q0 109 66 174.5t170 65.5h567q47 0 47 -47v-82q0 -47 -47 -47h-461q-60 0 -94.5 -34t-34.5 -95v-287h586q47 0 47 -47v-940q0 -47 -47 -47h-119q-47 0 -47 47v811h-420v-811q0 -47 -47 -47h-119q-47 0 -47 47v811h-117q-47 0 -47 45z" />
<glyph unicode="&#xfb02;" horiz-adv-x="1241" d="M98 903v84q0 47 47 47h117v357q0 104 66 169.5t170 65.5h567q43 0 43 -47v-1532q0 -47 -47 -47h-119q-47 0 -47 47v1403h-291q-60 0 -94.5 -34t-34.5 -95v-287h230q45 0 45 -47v-82q0 -47 -45 -47h-230v-811q0 -47 -47 -47h-119q-47 0 -47 47v811h-117q-47 0 -47 45z" />
<glyph unicode="&#xfb03;" horiz-adv-x="1871" d="M98 903v84q0 47 47 47h117v369q0 106 66.5 167.5t167.5 61.5q19 0 127 -8l381 -33q53 35 124 35h570q47 0 47 -47v-82q0 -47 -47 -47h-461q-60 0 -94.5 -34t-34.5 -95v-287h586q47 0 47 -47v-940q0 -47 -47 -47h-117q-47 0 -47 47v811h-422v-811q0 -47 -47 -47h-119 q-47 0 -47 47v811h-420v-811q0 -47 -47 -47h-119q-47 0 -47 47v811h-117q-47 0 -47 45zM475 1034h420v320q0 63 39 102h-348q-51 0 -81 -29.5t-30 -80.5v-312z" />
<glyph unicode="&#xfb04;" horiz-adv-x="1873" d="M98 903v84q0 47 47 47h117v369q0 106 64.5 167.5t165.5 61.5q21 0 129 -8l383 -33q53 35 135 35h559q43 0 43 -47v-1532q0 -47 -47 -47h-117q-47 0 -47 47v1403h-289q-63 0 -98 -33t-35 -96v-287h229q45 0 45 -47v-82q0 -47 -45 -47h-229v-811q0 -47 -47 -47h-119 q-47 0 -47 47v811h-420v-811q0 -47 -47 -47h-119q-47 0 -47 47v811h-117q-47 0 -47 45zM475 1034h420v320q0 63 39 102h-348q-51 0 -81 -29.5t-30 -80.5v-312z" />
<glyph horiz-adv-x="0" />
<glyph horiz-adv-x="682" />
<glyph unicode="&#xd;" horiz-adv-x="1024" />
<glyph unicode=" "  horiz-adv-x="641" />
<glyph unicode="&#x09;" horiz-adv-x="641" />
<glyph unicode="&#xa0;" horiz-adv-x="641" />
<glyph unicode="!" horiz-adv-x="677" d="M221 47v127q0 47 47 47h142q47 0 47 -47v-127q0 -47 -47 -47h-142q-47 0 -47 47zM233 494v938q0 47 48 47h118q47 0 47 -47v-938q0 -45 -47 -45h-118q-48 0 -48 45z" />
<glyph unicode="&#x22;" horiz-adv-x="819" d="M139 1432q-1 22 11.5 34.5t33.5 12.5h101q50 0 47 -47l-21 -381q-6 -47 -47 -47h-57q-42 0 -45 47zM487 1432q-3 47 45 47h101q50 0 47 -47l-21 -381q-6 -47 -47 -47h-59q-42 0 -45 47z" />
<glyph unicode="#" horiz-adv-x="1513" d="M-39 387l29 78q8 23 19.5 34t33.5 11h219l154 459h-203q-23 0 -33 12.5t-2 32.5l29 78q8 25 19.5 36t33.5 11h219l101 293q15 47 57 47h88q50 0 35 -47l-101 -293h465l99 293q21 47 59 47h88q50 0 35 -47l-100 -293h215q46 0 34 -47l-30 -78q-13 -45 -51 -45h-232 l-151 -459h215q45 0 30 -45l-30 -84q-8 -22 -19 -31.5t-33 -9.5h-227l-100 -293q-15 -47 -60 -47h-90q-24 0 -32.5 12t1.5 35l99 293h-465l-98 -293q-15 -47 -60 -47h-88q-48 0 -33 47l99 293h-205q-48 0 -33 47zM444 510h463l154 459h-465z" />
<glyph unicode="$" horiz-adv-x="1093" d="M139 987v193q0 127 80.5 209.5t202.5 87.5h39v176q0 47 45 47h78q47 0 47 -47v-174h207q47 0 47 -47v-82q0 -47 -47 -47h-308q-82 0 -130 -44.5t-48 -123.5v-86q0 -126 101 -160l321 -111q85 -29 132.5 -101.5t47.5 -176.5v-199q0 -130 -79.5 -212t-200.5 -87h-43v-176 q0 -47 -47 -47h-78q-45 0 -45 47v174h-242q-47 0 -47 47v82q0 47 47 47h346q80 0 127 44.5t47 123.5v92q0 128 -98 162l-322 111q-86 29 -133 103t-47 175z" />
<glyph unicode="%" horiz-adv-x="1347" d="M119 1012v321q0 66 38.5 106t104.5 40h242q62 0 102.5 -40.5t40.5 -105.5v-276q0 -75 -56.5 -132t-131.5 -57h-197q-65 0 -104 40t-39 104zM122 13.5q-9 13.5 7 33.5l887 1385q14 24 27 35.5t34 11.5h115q24 0 33.5 -13.5t-2.5 -33.5l-889 -1385q-31 -47 -66 -47h-112 q-25 0 -34 13.5zM270 1059q0 -64 58 -64h108q34 0 47 15.5t13 48.5v223q0 70 -60 70h-108q-58 0 -58 -66v-227zM700 145v275q0 77 56.5 133.5t132.5 56.5h196q65 0 104.5 -40.5t39.5 -104.5v-320q0 -66 -39 -105.5t-105 -39.5h-239q-66 0 -106 39.5t-40 105.5zM852 193 q0 -34 13 -50t44 -16h111q34 0 46.5 16t12.5 50v227q0 35 -13.5 49t-45.5 14h-111q-31 0 -44 -14t-13 -49v-227z" />
<glyph unicode="&#x26;" horiz-adv-x="1501" d="M119 281v118q0 122 59 214t160 137q-101 44 -160 135t-59 213v100q0 125 76.5 203t203.5 78h521q47 0 47 -47v-84q0 -45 -47 -45h-424q-77 0 -121.5 -43.5t-44.5 -116.5v-78q0 -104 64 -165.5t169 -61.5h230v266q0 47 47 47h118q48 0 48 -47v-266h319q47 0 47 -47v-84 q0 -48 -47 -48h-319v-612q0 -47 -48 -47h-559q-124 0 -202 78t-78 203zM330 332q0 -73 43.5 -114.5t120.5 -41.5h299v483h-230q-105 0 -169 -62t-64 -167v-98z" />
<glyph unicode="'" horiz-adv-x="471" d="M139 1432q-1 22 11.5 34.5t33.5 12.5h101q50 0 47 -47l-21 -381q-6 -47 -47 -47h-57q-42 0 -45 47z" />
<glyph unicode="(" horiz-adv-x="747" d="M139 86v1212q0 164 113.5 278t273.5 114h97q47 0 47 -48v-81q0 -48 -47 -48h-43q-98 0 -164 -66.5t-66 -164.5v-1178q0 -98 66 -164.5t164 -66.5h43q47 0 47 -47v-82q0 -47 -47 -47h-97q-160 0 -273.5 113.5t-113.5 275.5z" />
<glyph unicode=")" horiz-adv-x="745" d="M78 -174q0 47 47 47h43q96 0 161.5 66.5t65.5 164.5v1178q0 98 -65.5 164.5t-161.5 66.5h-43q-47 0 -47 48v81q0 48 47 48h96q160 0 273.5 -114t113.5 -278v-1212q0 -162 -113.5 -275.5t-273.5 -113.5h-96q-47 0 -47 47v82z" />
<glyph unicode="*" horiz-adv-x="1028" d="M123 1157l37 113q6 14 19.5 19t31.5 -5l246 -121l-35 273q-4 17 6.5 30t28.5 13h112q18 0 27.5 -11.5t5.5 -29.5l-33 -275l246 119q13 8 29 4t22 -20l39 -107q6 -18 -1 -32t-25 -15l-271 -55l189 -201q13 -10 12 -25.5t-18 -25.5l-86 -70q-12 -12 -27.5 -7.5t-26.5 22.5 l-137 239l-133 -239q-7 -17 -23 -22.5t-28 5.5l-92 68q-17 14 -17 26q0 18 12 27l189 201l-270 59q-38 3 -29 43z" />
<glyph unicode="+" horiz-adv-x="1155" d="M98 475v86q0 47 47 47h344v342q0 47 48 47h84q45 0 45 -47v-342h346q45 0 45 -49v-84q0 -47 -45 -47h-346v-342q0 -47 -45 -47h-84q-48 0 -48 47v342h-344q-47 0 -47 47z" />
<glyph unicode="," horiz-adv-x="456" d="M117 43v143q0 19 12 31t31 12h155q19 0 32 -12t13 -31v-186l-108 -328q-14 -45 -43 -45h-92l108 373h-65q-19 0 -31 12t-12 31z" />
<glyph unicode="-" horiz-adv-x="641" d="M78 518v84q0 47 47 47h391q47 0 47 -47v-84q0 -47 -47 -47h-391q-47 0 -47 47z" />
<glyph unicode="." horiz-adv-x="438" d="M98 43v143q0 19 12 31t31 12h156q18 0 30.5 -12.5t12.5 -30.5v-143q0 -18 -12.5 -30.5t-30.5 -12.5h-156q-19 0 -31 12t-12 31z" />
<glyph unicode="/" horiz-adv-x="839" d="M-35 -250l631 1829q21 47 63 47h97q49 0 28 -47l-632 -1829q-15 -47 -64 -47h-96q-48 0 -27 47z" />
<glyph unicode="0" horiz-adv-x="1165" d="M119 270v942q0 128 69.5 197.5t196.5 69.5h393q129 0 199 -71t70 -200v-934q0 -131 -70.5 -202.5t-204.5 -71.5h-381q-130 0 -201 70.5t-71 199.5zM330 354q0 -178 176 -178h153q177 0 177 176v778q0 173 -170 173h-162q-174 0 -174 -173v-776z" />
<glyph unicode="1" horiz-adv-x="1165" d="M193 1051v82q0 49 51 49h395v250q0 47 47 47h119q47 0 47 -47v-1385q0 -47 -47 -47h-119q-47 0 -47 47v954h-395q-51 0 -51 50z" />
<glyph unicode="2" horiz-adv-x="1165" d="M111 47v168q0 43 24 64l641 663q43 43 43 117v61q0 183 -184 183h-406q-47 0 -47 45v82q0 49 47 49h488q148 0 232.5 -84t84.5 -232v-137q0 -123 -96 -219l-610 -631h653q47 0 47 -45v-82q0 -49 -47 -49h-823q-47 0 -47 47z" />
<glyph unicode="3" horiz-adv-x="1165" d="M141 49v82q0 45 47 45h365q110 0 166.5 51t56.5 148v55q0 105 -62 167t-167 62h-268q-50 0 -50 48v81q0 50 47 50h271q104 0 166.5 61.5t62.5 165.5v39q0 99 -56 149t-161 50h-369q-49 0 -49 45v82q0 49 47 49h474q153 0 241 -83.5t88 -230.5v-65q0 -124 -59 -215 t-160 -135q101 -45 160 -137t59 -214v-88q0 -146 -89 -228.5t-245 -82.5h-467q-49 0 -49 49z" />
<glyph unicode="4" horiz-adv-x="1165" d="M74 381v98q0 24 12 51l483 918q19 31 43 31h244q47 0 47 -47v-922h156q49 0 49 -49v-80q0 -49 -49 -49h-156v-285q0 -47 -47 -47h-106q-48 0 -48 47v285h-579q-49 0 -49 49zM274 510h428v799z" />
<glyph unicode="5" horiz-adv-x="1165" d="M156 49v80q0 47 47 47h397q191 0 191 189v157q0 191 -187 191h-401q-47 0 -47 49v670q0 47 47 47h751q50 0 50 -49v-82q0 -45 -50 -45h-559q-28 0 -28 -31v-381h338q142 0 220.5 -80.5t78.5 -222.5v-291q0 -140 -79 -218.5t-220 -78.5h-502q-47 0 -47 49z" />
<glyph unicode="6" horiz-adv-x="1165" d="M127 244v989q0 121 62.5 183.5t181.5 62.5h563q49 0 49 -49v-80q0 -47 -49 -47h-467q-127 0 -127 -127v-353l385 33q52 8 104 8q105 0 166.5 -63.5t61.5 -173.5v-383q0 -119 -62.5 -181.5t-183.5 -62.5h-442q-117 0 -179.5 63.5t-62.5 180.5zM340 309q0 -70 29 -101.5 t100 -31.5h244q72 0 101.5 29.5t29.5 101.5v258q0 121 -123 121h-381v-377z" />
<glyph unicode="7" horiz-adv-x="1165" d="M119 1331v99q0 49 49 49h829q45 0 45 -47v-113q0 -27 -10 -57l-559 -1229q-18 -33 -45 -33h-111q-30 0 -42 22.5t1 45.5l558 1214h-664q-51 0 -51 49z" />
<glyph unicode="8" horiz-adv-x="1165" d="M115 270v111q0 138 67.5 230t175.5 132q-108 40 -175.5 132.5t-67.5 230.5v100q0 122 75.5 197.5t196.5 75.5h389q123 0 198 -75.5t75 -197.5v-100q0 -139 -67.5 -231t-174.5 -132q108 -40 175 -132t67 -230v-111q0 -119 -75.5 -194.5t-197.5 -75.5h-389 q-121 0 -196.5 75.5t-75.5 194.5zM330 334q0 -73 43.5 -115.5t118.5 -42.5h182q74 0 118 42.5t44 115.5v78q0 110 -64 175.5t-164 65.5h-51q-100 0 -163.5 -65t-63.5 -174v-80zM330 1073q0 -109 64 -175.5t163 -66.5h53q98 0 162 66.5t64 175.5v72q0 73 -44 115.5t-118 42.5 h-182q-75 0 -118.5 -42.5t-43.5 -115.5v-72z" />
<glyph unicode="9" horiz-adv-x="1165" d="M113 795v438q0 121 62.5 183.5t184.5 62.5h443q116 0 177.5 -63t61.5 -181v-989q0 -246 -243 -246h-563q-50 0 -50 49v80q0 47 52 47h467q126 0 126 127v297l-387 -35q-39 -6 -102 -6q-105 0 -167 64t-62 172zM328 858q0 -123 112 -123h391v434q0 70 -30.5 102t-98.5 32 h-243q-72 0 -101.5 -30t-29.5 -102v-313z" />
<glyph unicode=":" horiz-adv-x="438" d="M98 45v141q0 18 12.5 30.5t30.5 12.5h156q18 0 30.5 -12.5t12.5 -30.5v-141q0 -19 -13 -32t-30 -13h-156q-17 0 -30 13t-13 32zM98 848v143q0 18 12.5 30.5t30.5 12.5h156q18 0 30.5 -12.5t12.5 -30.5v-143q0 -17 -13 -30t-30 -13h-156q-17 0 -30 13t-13 30z" />
<glyph unicode=";" horiz-adv-x="456" d="M117 43v143q0 19 12 31t31 12h155q19 0 32 -12t13 -31v-186l-108 -328q-14 -45 -43 -45h-92l108 373h-65q-19 0 -31 12t-12 31zM121 848v143q0 19 12 31t31 12h149q18 0 30.5 -12.5t12.5 -30.5v-143q0 -17 -13 -30t-30 -13h-149q-18 0 -30.5 12.5t-12.5 30.5z" />
<glyph unicode="&#x3c;" horiz-adv-x="886" d="M98 465v98q0 29 21 41l555 371q42 25 63 -12l45 -70q25 -38 -14 -64l-457 -311l457 -313q41 -24 14 -64l-45 -67q-22 -42 -63 -15l-553 369q-23 16 -23 37z" />
<glyph unicode="=" horiz-adv-x="1155" d="M98 266v84q0 47 47 47h867q45 0 45 -47v-84q0 -45 -45 -45h-867q-47 0 -47 45zM98 684v84q0 47 47 47h867q45 0 45 -47v-84q0 -47 -45 -47h-867q-47 0 -47 47z" />
<glyph unicode="&#x3e;" horiz-adv-x="886" d="M106 141q-24 41 15 64l457 313l-457 311q-37 21 -15 64l46 70q21 37 63 12l555 -371q21 -15 21 -41v-98q0 -21 -23 -37l-553 -369q-42 -25 -63 15z" />
<glyph unicode="?" horiz-adv-x="1128" d="M139 1350v82q0 47 47 47h504q132 0 216.5 -83.5t84.5 -217.5v-127q0 -100 -48.5 -176.5t-133.5 -102.5l-156 -45q-100 -34 -100 -156v-77q0 -45 -45 -45h-119q-47 0 -47 45v98q0 104 47.5 178t132.5 100l156 45q100 37 100 160v60q0 79 -48 123.5t-128 44.5h-416 q-47 0 -47 47zM330 47v127q0 47 47 47h143q47 0 47 -47v-127q0 -47 -47 -47h-143q-47 0 -47 47z" />
<glyph unicode="@" horiz-adv-x="1814" d="M139 4v680q0 166 93 258t260 92h610q103 0 168 -65t65 -170v-750q0 -49 -47 -49h-139l-27 35l-313 -33q-57 -8 -104 -8q-99 0 -161.5 63t-62.5 162v191q0 102 62 163.5t162 61.5q57 0 96 -6l321 -35v143q0 59 -33 90t-94 31h-456q-224 0 -224 -219v-588 q0 -106 56.5 -161.5t165.5 -55.5h743q219 0 219 217v936q0 47 49 47h82q47 0 47 -47v-983q0 -165 -92.5 -256.5t-257.5 -91.5h-835q-169 0 -261 92.5t-92 255.5zM680 262q0 -50 28.5 -79t77.5 -29h336v321h-336q-50 0 -78 -28.5t-28 -77.5v-107z" />
<glyph unicode="A" horiz-adv-x="1298" d="M78 51l409 1393q12 35 43 35h236q33 0 45 -35l410 -1391q5 -23 -6.5 -38t-34.5 -15h-131q-37 0 -43 35l-80 266q-9 21 -29 21h-512q-21 0 -27 -21l-79 -266q-6 -35 -43 -35h-111q-24 0 -38 15t-9 36zM408 500h469l-234 794z" />
<glyph unicode="B" horiz-adv-x="1187" d="M139 47v1385q0 47 47 47h602q123 0 202 -79t79 -202v-100q0 -122 -59 -213t-160 -135q100 -44 159.5 -136.5t59.5 -214.5v-120q0 -123 -78.5 -201t-202.5 -78h-602q-47 0 -47 47zM350 203q0 -11 8 -19t19 -8h307q79 0 125.5 44.5t46.5 121.5v88q0 105 -63 167t-168 62 h-275v-456zM350 838h275q105 0 168 61.5t63 165.5v70q0 78 -46 123t-126 45h-307q-27 0 -27 -27v-438z" />
<glyph unicode="C" horiz-adv-x="1064" d="M119 348v782q0 165 92.5 257t259.5 92h469q49 0 49 -49v-80q0 -47 -51 -47h-385q-223 0 -223 -222v-684q0 -221 221 -221h389q49 0 49 -47v-80q0 -49 -51 -49h-469q-166 0 -258 93t-92 255z" />
<glyph unicode="D" horiz-adv-x="1259" d="M139 49v1381q0 49 49 49h598q167 0 261 -92.5t94 -256.5v-782q0 -162 -92.5 -255t-257.5 -93h-603q-49 0 -49 49zM350 205q0 -29 27 -29h330q221 0 221 221v684q0 222 -223 222h-328q-27 0 -27 -29v-1069z" />
<glyph unicode="E" horiz-adv-x="1067" d="M139 43v1393q0 18 12.5 30.5t30.5 12.5h762q22 0 34.5 -12.5t12.5 -32.5v-88q0 -43 -47 -43h-565q-29 0 -29 -29v-436h494q49 0 49 -50v-81q0 -48 -51 -48h-492v-456q0 -27 29 -27h565q47 0 47 -43v-90q0 -18 -12.5 -30.5t-34.5 -12.5h-760q-20 0 -32.5 12.5t-12.5 30.5z " />
<glyph unicode="F" horiz-adv-x="1042" d="M139 43v1393q0 19 12 31t31 12h762q20 0 33.5 -12t13.5 -31v-90q0 -43 -47 -43h-567q-27 0 -27 -29v-436h486q49 0 49 -50v-81q0 -48 -49 -48h-486v-616q0 -19 -12 -31t-31 -12h-125q-19 0 -31 12t-12 31z" />
<glyph unicode="G" horiz-adv-x="1185" d="M119 348v782q0 165 92.5 257t259.5 92h475q19 0 31 -12t12 -31v-90q0 -20 -12 -31.5t-31 -11.5h-393q-223 0 -223 -222v-684q0 -221 221 -221h256q10 0 18.5 9t8.5 20v565q0 19 12 31t31 12h124q19 0 32.5 -12.5t13.5 -30.5v-727q0 -18 -13.5 -30.5t-32.5 -12.5h-532 q-165 0 -257.5 93t-92.5 255z" />
<glyph unicode="H" horiz-adv-x="1316" d="M139 47v1385q0 47 47 47h117q47 0 47 -47v-594h617v594q0 47 47 47h116q48 0 48 -47v-1385q0 -47 -48 -47h-116q-47 0 -47 47v612h-617v-612q0 -47 -47 -47h-117q-47 0 -47 47z" />
<glyph unicode="I" horiz-adv-x="489" d="M139 47v1385q0 47 47 47h117q47 0 47 -47v-1385q0 -47 -47 -47h-117q-47 0 -47 47z" />
<glyph unicode="J" horiz-adv-x="870" d="M39 49v80q0 47 49 47h266q78 0 122 45t44 123v1088q0 47 47 47h119q47 0 47 -47v-1166q0 -121 -73.5 -193.5t-196.5 -72.5h-375q-49 0 -49 49z" />
<glyph unicode="K" horiz-adv-x="1191" d="M139 47v1385q0 47 47 47h117q47 0 47 -47v-594h182q31 0 57.5 17.5t37.5 43.5l239 549q12 31 41 31h131q24 0 38 -18t7 -42l-252 -567q-20 -58 -77 -102q55 -45 77 -105l259 -590q10 -22 -5.5 -38.5t-37.5 -16.5h-129q-30 0 -46 31l-245 567q-11 25 -38 43t-57 18h-182 v-612q0 -47 -47 -47h-117q-47 0 -47 47z" />
<glyph unicode="L" horiz-adv-x="1028" d="M139 47v1385q0 47 47 47h117q47 0 47 -47v-1227q0 -11 9 -20t20 -9h563q47 0 47 -47v-82q0 -47 -47 -47h-756q-47 0 -47 47z" />
<glyph unicode="M" horiz-adv-x="1611" d="M139 47v1385q0 47 47 47h230q22 0 31 -9t14 -28l346 -1166l344 1166q9 37 45 37h229q48 0 48 -47v-1385q0 -47 -48 -47h-102q-49 0 -49 47v1190l-359 -1200q-10 -37 -47 -37h-123q-22 0 -31 9t-14 28l-360 1200v-1190q0 -47 -47 -47h-107q-47 0 -47 47z" />
<glyph unicode="N" horiz-adv-x="1310" d="M139 47v1385q0 47 47 47h205q40 0 49 -33l533 -1196v1182q0 47 47 47h106q48 0 48 -47v-1385q0 -47 -48 -47h-206q-39 0 -48 33l-532 1194v-1180q0 -47 -47 -47h-107q-47 0 -47 47z" />
<glyph unicode="O" horiz-adv-x="1239" d="M119 350v780q0 165 92.5 257t261.5 92h293q169 0 261.5 -92t92.5 -257v-782q0 -162 -92.5 -255t-257.5 -93h-301q-167 0 -258.5 92.5t-91.5 257.5zM330 395q0 -108 56.5 -163.5t162.5 -55.5h139q219 0 219 219v688q0 220 -221 220h-133q-223 0 -223 -220v-688z" />
<glyph unicode="P" horiz-adv-x="1146" d="M139 47v1385q0 47 47 47h531q167 0 259.5 -92t92.5 -257v-141q0 -162 -92.5 -256t-257.5 -94h-369v-592q0 -47 -47 -47h-117q-47 0 -47 47zM350 817h287q219 0 219 217v53q0 216 -221 216h-258q-10 0 -18.5 -9t-8.5 -20v-457z" />
<glyph unicode="Q" horiz-adv-x="1239" d="M119 350v780q0 165 92.5 257t261.5 92h293q169 0 261.5 -92t92.5 -257v-782q0 -162 -92 -255t-256 -93h-63v-246q0 -51 -47 -51h-84q-50 0 -50 51v246h-61q-165 0 -256.5 92.5t-91.5 257.5zM330 395q0 -108 56.5 -163.5t162.5 -55.5h139q219 0 219 219v688 q0 220 -221 220h-133q-223 0 -223 -220v-688z" />
<glyph unicode="R" horiz-adv-x="1191" d="M139 47v1385q0 47 47 47h529q169 0 261.5 -92t92.5 -257v-118q0 -135 -76.5 -217t-199.5 -103q32 -32 55 -90l242 -547q10 -20 -3.5 -37.5t-37.5 -17.5h-136q-27 0 -43 31l-241 567q-11 25 -37.5 43t-56.5 18h-185v-612q0 -47 -45 -47h-119q-47 0 -47 47zM350 838h287 q219 0 219 213v39q0 213 -221 213h-256q-11 0 -20 -9.5t-9 -19.5v-436z" />
<glyph unicode="S" horiz-adv-x="1077" d="M78 1008v141q0 153 88.5 241.5t241.5 88.5h471q47 0 47 -47v-82q0 -47 -47 -47h-400q-190 0 -190 -181v-53q0 -127 102 -162l428 -159q86 -29 133 -101t47 -176v-141q0 -155 -88 -242.5t-247 -87.5h-502q-47 0 -47 47v82q0 47 47 47h432q100 0 146 43t46 135v56 q0 127 -100 161l-428 158q-86 32 -133 106t-47 173z" />
<glyph unicode="T" horiz-adv-x="1112" d="M23 1350v82q0 47 47 47h970q50 0 50 -47v-82q0 -47 -50 -47h-378v-1256q0 -47 -48 -47h-116q-47 0 -47 47v1256h-381q-47 0 -47 47z" />
<glyph unicode="U" horiz-adv-x="1280" d="M139 350v1086q0 19 12 31t31 12h125q19 0 31 -12t12 -31v-1041q0 -108 56.5 -163.5t162.5 -55.5h140q219 0 219 219v1041q0 18 12.5 30.5t30.5 12.5h125q19 0 32 -12t13 -31v-1088q0 -162 -92.5 -255t-257.5 -93h-302q-167 0 -258.5 92.5t-91.5 257.5z" />
<glyph unicode="V" horiz-adv-x="1288" d="M78 1425q-6 23 9 38.5t36 15.5h125q37 0 43 -35l360 -1260l361 1260q6 35 43 35h114q19 0 33 -15t10 -37l-405 -1392q-9 -35 -41 -35h-242q-35 0 -41 35z" />
<glyph unicode="W" horiz-adv-x="1779" d="M78 1434q-1 5 -1 10q0 35 40 35h129q21 0 30.5 -10.5t14.5 -32.5l229 -1246l248 1248q2 18 13 29.5t28 11.5h162q34 0 45 -41l248 -1248l227 1246q10 43 45 43h127q40 0 40 -37q0 -5 -1 -10l-256 -1389q-2 -19 -13.5 -31t-29.5 -12h-246q-38 0 -41 41l-225 1143 l-225 -1143q-6 -41 -43 -41h-244q-35 0 -45 43z" />
<glyph unicode="X" horiz-adv-x="1259" d="M68.5 1455.5q10.5 23.5 37.5 23.5h150q24 0 39 -21l336 -526l334 524q16 23 39 23h145q22 0 37.5 -21t-0.5 -45l-430 -672l432 -675q14 -20 2.5 -43t-39.5 -23h-150q-24 0 -38 20l-334 527l-336 -527q-14 -20 -39 -20h-145q-24 0 -37 21.5t0 44.5l432 671l-434 676 q-12 19 -1.5 42.5z" />
<glyph unicode="Y" horiz-adv-x="1208" d="M44 1454.5q11 24.5 38 24.5h149q26 0 35 -21l340 -614l340 614q15 21 37 21h143q22 0 36 -21t3 -45l-454 -797v-569q0 -47 -47 -47h-119q-47 0 -47 47v569l-453 797q-12 17 -1 41.5z" />
<glyph unicode="Z" horiz-adv-x="1087" d="M78 43v190q0 21 10 31l711 1039h-674q-47 0 -47 47v82q0 47 47 47h840q20 0 33.5 -12t13.5 -31v-193q0 -18 -13 -31l-708 -1036h674q47 0 47 -47v-82q0 -47 -47 -47h-844q-19 0 -31 12t-12 31z" />
<glyph unicode="[" horiz-adv-x="747" d="M139 -256v1898q0 48 47 48h437q47 0 47 -48v-81q0 -48 -47 -48h-244q-11 0 -20 -9t-9 -19v-1583q0 -10 9 -19.5t20 -9.5h244q47 0 47 -47v-82q0 -47 -47 -47h-437q-47 0 -47 47z" />
<glyph unicode="\" horiz-adv-x="876" d="M29 1579q-21 47 30 47h95q46 0 61 -47l635 -1829q15 -47 -29 -47h-96q-45 0 -66 47z" />
<glyph unicode="]" horiz-adv-x="747" d="M78 -174q0 47 47 47h244q12 0 20 9t8 20v1583q0 11 -8 19.5t-20 8.5h-244q-47 0 -47 48v81q0 48 47 48h436q47 0 47 -48v-1898q0 -47 -47 -47h-436q-47 0 -47 47v82z" />
<glyph unicode="^" horiz-adv-x="980" d="M119 645l233 799q9 35 43 35h193q32 0 41 -35l233 -801q6 -22 -8 -36.5t-33 -14.5h-90q-34 0 -43 35l-194 667l-193 -667q-9 -35 -43 -35h-94q-20 0 -35.5 15.5t-9.5 37.5z" />
<glyph unicode="_" horiz-adv-x="1116" d="M20 -203q0 47 48 47h981q47 0 47 -47v-49q0 -45 -47 -45h-981q-48 0 -48 45v49z" />
<glyph unicode="`" horiz-adv-x="628" d="M117 1374q0 13 10 23l66 67q11 10 24.5 9.5t24.5 -11.5l258 -262q11 -11 12.5 -24t-8.5 -21l-43 -37q-5 -4 -9.5 -6t-9 -1t-6.5 1.5t-8.5 4.5t-7.5 5l-291 230q-12 9 -12 22z" />
<glyph unicode="a" horiz-adv-x="1130" d="M139 219v184q0 100 62 163t161 63q43 0 95 -8l323 -33v149q0 59 -34 90t-95 31h-413q-48 0 -48 47v82q0 47 48 47h520q104 0 168.5 -64.5t64.5 -170.5v-750q0 -49 -47 -49h-137l-27 35l-313 -33q-63 -8 -105 -8q-100 0 -161.5 62.5t-61.5 162.5zM336 262q0 -49 29 -78.5 t77 -29.5h338v321h-338q-48 0 -77 -28.5t-29 -77.5v-107z" />
<glyph unicode="b" d="M139 49v1530q0 47 47 47h117q47 0 47 -47v-584l342 33q39 6 94 6q103 0 163.5 -61t60.5 -164v-590q0 -100 -62 -162.5t-162 -62.5q-8 0 -46.5 3.5t-59.5 4.5l-330 33l-26 -35h-138q-47 0 -47 49zM350 170h338q51 0 81 30t30 81v467q0 50 -30 80t-81 30h-338v-688z" />
<glyph unicode="c" horiz-adv-x="927" d="M139 236v563q0 109 63.5 172t168.5 63h434q20 0 32.5 -12t12.5 -31v-90q0 -43 -45 -43h-328q-60 0 -92.5 -33.5t-32.5 -93.5v-428q0 -60 32.5 -93.5t92.5 -33.5h328q20 0 32.5 -12t12.5 -31v-90q0 -19 -12.5 -31t-32.5 -12h-434q-105 0 -168.5 64t-63.5 172z" />
<glyph unicode="d" d="M139 219v590q0 103 60 164t163 61q56 0 95 -6l342 -33v584q0 47 47 47h117q47 0 47 -47v-1530q0 -49 -47 -49h-138l-26 35l-332 -33q-19 -1 -57.5 -4.5t-47.5 -3.5q-100 0 -161.5 62.5t-61.5 162.5zM350 281q0 -50 30.5 -79.5t84.5 -29.5h334v686h-338q-50 0 -80.5 -30 t-30.5 -78v-469z" />
<glyph unicode="e" horiz-adv-x="1110" d="M139 233v574q0 103 62.5 165t163.5 62h401q101 0 163 -62t62 -165v-174q0 -97 -62 -159t-157 -62h-422v-111q0 -57 34.5 -91t90.5 -34h397q48 0 48 -45v-84q0 -47 -48 -47h-501q-105 0 -168.5 64t-63.5 169zM350 520l346 29q47 4 73 32.5t26 71.5v109q0 47 -29 76.5 t-74 29.5h-233q-48 0 -78.5 -29t-30.5 -79v-240z" />
<glyph unicode="f" horiz-adv-x="931" d="M98 905v82q0 47 47 47h117v352q0 109 64.5 174.5t169.5 65.5h350q47 0 47 -47v-82q0 -47 -47 -47h-246q-56 0 -90.5 -34t-34.5 -91v-291h320q45 0 45 -47v-82q0 -47 -45 -47h-320v-811q0 -47 -47 -47h-119q-47 0 -47 47v811h-117q-47 0 -47 47z" />
<glyph unicode="g" d="M139 225v590q0 100 61.5 162.5t161.5 62.5q13 0 56 -3.5t51 -4.5l330 -33l26 35h138q47 0 47 -49v-1192q0 -108 -64 -172.5t-168 -64.5h-479q-47 0 -47 47v84q0 47 47 47h373q60 0 93.5 32.5t33.5 92.5v180l-342 -33q-75 -6 -95 -6q-103 0 -163 61t-60 164zM350 287 q0 -50 30 -80.5t79 -30.5h340v686h-340q-50 0 -79.5 -29.5t-29.5 -78.5v-467z" />
<glyph unicode="h" d="M139 47v1532q0 47 47 47h117q47 0 47 -47v-584l342 33q39 6 96 6q100 0 161 -61.5t61 -163.5v-762q0 -47 -47 -47h-117q-47 0 -47 47v701q0 50 -30 80t-79 30h-340v-811q0 -47 -47 -47h-117q-47 0 -47 47z" />
<glyph unicode="i" horiz-adv-x="487" d="M127 1307v120q0 48 47 48h141q47 0 47 -48v-120q0 -47 -47 -47h-141q-47 0 -47 47zM139 47v940q0 47 47 47h117q47 0 47 -47v-940q0 -47 -47 -47h-117q-47 0 -47 47z" />
<glyph unicode="j" horiz-adv-x="610" d="M-41 -315q0 49 47 49h129q58 0 91.5 28t33.5 86v1139q0 47 47 47h119q47 0 47 -47v-1204q0 -104 -67 -165.5t-173 -61.5h-225q-49 0 -49 47v82zM248 1307v120q0 48 47 48h141q47 0 47 -48v-120q0 -47 -47 -47h-141q-47 0 -47 47z" />
<glyph unicode="k" horiz-adv-x="1091" d="M139 47v1532q0 47 47 47h117q47 0 47 -47v-963h176q31 0 58 17t37 43l145 328q11 30 43 30h135q21 0 36 -16.5t5 -38.5l-156 -350q-22 -59 -79 -103q58 -44 79 -102l162 -365q11 -23 -1 -41t-38 -18h-135q-29 0 -43 33l-153 346q-12 26 -38.5 41.5t-56.5 15.5h-176v-389 q0 -47 -47 -47h-117q-47 0 -47 47z" />
<glyph unicode="l" horiz-adv-x="489" d="M139 47v1532q0 47 45 47h119q47 0 47 -47v-1532q0 -47 -47 -47h-119q-45 0 -45 47z" />
<glyph unicode="m" horiz-adv-x="1730" d="M139 47v940q0 47 47 47h138l26 -33l316 33q75 6 84 6q79 0 133 -43l401 37q12 1 41.5 3.5t42.5 2.5q98 0 160.5 -62.5t62.5 -162.5v-768q0 -47 -47 -47h-119q-47 0 -47 47v707q0 50 -29.5 80t-78.5 30h-330q31 -42 31 -94v-723q0 -47 -47 -47h-117q-47 0 -47 47v707 q0 50 -30 80t-79 30h-301v-817q0 -47 -47 -47h-117q-47 0 -47 47z" />
<glyph unicode="n" d="M139 47v940q0 47 45 47h140l26 -33l352 33q9 1 40 3.5t44 2.5q100 0 162 -62.5t62 -162.5v-768q0 -47 -47 -47h-117q-47 0 -47 47v707q0 50 -30 80t-81 30h-338v-817q0 -47 -47 -47h-117q-47 0 -47 47z" />
<glyph unicode="o" horiz-adv-x="1187" d="M139 227v580q0 103 62.5 165t163.5 62h458q103 0 164.5 -61.5t61.5 -165.5v-580q0 -103 -62.5 -165t-163.5 -62h-458q-101 0 -163.5 62t-62.5 165zM350 295q0 -53 33 -86t84 -33h250q54 0 86.5 32.5t32.5 86.5v444q0 54 -32.5 86.5t-86.5 32.5h-250q-51 0 -84 -33 t-33 -86v-444z" />
<glyph unicode="p" d="M139 -397v1382q0 49 47 49h138l26 -35l336 33q13 1 49 4.5t53 3.5q98 0 160 -62.5t62 -162.5v-590q0 -103 -60.5 -164t-163.5 -61q-23 0 -92 6l-344 33v-436q0 -47 -47 -47h-117q-47 0 -47 47zM350 176h338q51 0 81 30.5t30 80.5v467q0 51 -30 80.5t-81 29.5h-338v-688z " />
<glyph unicode="q" d="M139 225v590q0 100 61.5 162.5t161.5 62.5q11 0 103 -8l334 -33l26 35h138q47 0 47 -47v-1384q0 -47 -47 -47h-117q-47 0 -47 47v436l-342 -33q-81 -6 -95 -6q-103 0 -163 61t-60 164zM350 287q0 -49 31 -80t80 -31h338v688h-338q-50 0 -80.5 -29.5t-30.5 -80.5v-467z " />
<glyph unicode="r" horiz-adv-x="854" d="M139 47v940q0 47 47 47h138l26 -59l400 61q12 2 22 2q43 0 43 -47v-110q0 -19 -12.5 -31t-32.5 -12h-420v-791q0 -47 -47 -47h-117q-47 0 -47 47z" />
<glyph unicode="s" horiz-adv-x="1034" d="M113 694v109q0 105 63 168t166 63h492q20 0 32.5 -12t12.5 -31v-73q0 -19 -12.5 -31.5t-32.5 -12.5h-428q-50 0 -80.5 -28.5t-30.5 -77.5v-35q0 -42 22.5 -68t61.5 -34l369 -68q78 -18 126 -75.5t48 -147.5v-107q0 -106 -62.5 -169.5t-165.5 -63.5h-493q-20 0 -31.5 12 t-11.5 31v74q0 18 11.5 30.5t31.5 12.5h430q49 0 77.5 28t28.5 76v37q0 84 -82 105l-368 67q-79 14 -126.5 72t-47.5 149z" />
<glyph unicode="t" horiz-adv-x="925" d="M98 905v82q0 47 47 47h111v250q0 47 47 47h119q47 0 47 -47v-250h319q46 0 46 -47v-84q0 -45 -46 -45h-319v-557q0 -57 34.5 -91t90.5 -34h246q47 0 47 -47v-82q0 -47 -47 -47h-351q-105 0 -169 65t-64 175v618h-111q-47 0 -47 47z" />
<glyph unicode="u" d="M139 217v770q0 47 47 47h117q47 0 47 -47v-706q0 -50 30.5 -80.5t78.5 -30.5h340v817q0 47 47 47h117q47 0 47 -47v-940q0 -47 -45 -47h-140l-26 35l-336 -33q-10 -1 -49 -4.5t-52 -3.5q-99 0 -161 62t-62 161z" />
<glyph unicode="v" horiz-adv-x="1064" d="M80 981q-6 23 5 38t36 15h125q31 0 43 -35l243 -843l246 843q12 35 43 35h123q22 0 35 -15t6 -38l-272 -944q-12 -37 -41 -37h-277q-35 0 -45 37z" />
<glyph unicode="w" horiz-adv-x="1656" d="M78 999q-4 17 5.5 26t27.5 9h143q28 0 37 -33l209 -833l209 836q11 30 34 30h172q24 0 35 -30l207 -838l211 835q3 33 33 33h145q18 0 27.5 -9t5.5 -26l-238 -966q-9 -33 -36 -33h-244q-25 0 -37 31l-197 766l-194 -766q-12 -31 -37 -31h-246q-26 0 -35 33z" />
<glyph unicode="x" horiz-adv-x="1089" d="M84.5 20q-15.5 20 1.5 43l334 455l-332 453q-17 19 -3.5 41t38.5 22h143q26 0 43 -24l236 -326l237 328q16 22 41 22h152q21 0 31 -20t-5 -43l-331 -453l336 -455q13 -20 -0.5 -41.5t-38.5 -21.5h-140q-26 0 -45 27l-237 323l-238 -325q-18 -25 -49 -25h-133 q-25 0 -40.5 20z" />
<glyph unicode="y" horiz-adv-x="1064" d="M78 981q-5 24 7 38.5t36 14.5h125q32 0 41 -33l243 -845l246 843q5 14 17.5 24.5t25.5 10.5h125q22 0 35 -14.5t6 -36.5l-403 -1389q-6 -38 -41 -38h-121q-21 0 -35 16t-10 39l117 389h-101q-35 0 -41 35z" />
<glyph unicode="z" horiz-adv-x="1007" d="M78 47v150q0 23 14 43l588 618h-555q-47 0 -47 47v82q0 47 47 47h760q47 0 47 -47v-149q0 -27 -17 -41l-587 -621h557q47 0 47 -47v-82q0 -47 -47 -47h-760q-47 0 -47 47z" />
<glyph unicode="{" horiz-adv-x="864" d="M41 653v82q0 47 47 47h25q69 0 108 39t39 107v522q0 109 64.5 174.5t169.5 65.5h247q47 0 47 -48v-81q0 -48 -47 -48h-143q-60 0 -93.5 -34t-33.5 -95v-428q0 -102 -46.5 -167t-115.5 -95q69 -32 115.5 -97t46.5 -165v-430q0 -61 33.5 -95t93.5 -34h145q45 0 45 -47v-82 q0 -47 -47 -47h-247q-105 0 -169.5 65.5t-64.5 174.5v524q0 66 -39 105.5t-106 39.5h-27q-47 0 -47 47z" />
<glyph unicode="|" horiz-adv-x="489" d="M139 -397v2039q0 48 45 48h119q47 0 47 -48v-2039q0 -47 -47 -47h-119q-45 0 -45 47z" />
<glyph unicode="}" horiz-adv-x="864" d="M78 -174q0 47 47 47h141q61 0 96 34t35 95v430q0 186 160 262q-68 28 -114 94.5t-46 167.5v428q0 61 -35 95t-96 34h-141q-47 0 -47 48v81q0 48 47 48h250q104 0 167.5 -65.5t63.5 -174.5v-524q0 -66 39.5 -105t106.5 -39h26q45 0 45 -47v-82q0 -47 -45 -47h-26 q-67 0 -106.5 -39.5t-39.5 -105.5v-524q0 -109 -63.5 -174.5t-167.5 -65.5h-250q-47 0 -47 47v82z" />
<glyph unicode="~" horiz-adv-x="1292" d="M120.5 414.5q-9.5 17.5 2.5 29.5l104 136q49 65 127 90.5t157.5 13t147.5 -54.5l142 -90q29 -19 58.5 -16t41.5 26l41 63q23 37 57 37h158q18 0 25.5 -11.5t-2.5 -31.5l-101 -153q-40 -63 -121 -84.5t-163 -7t-144 52.5l-129 75q-79 48 -125 -12l-32 -49q-25 -31 -54 -31 h-159q-22 0 -31.5 17.5z" />
<glyph unicode="&#xa1;" horiz-adv-x="677" d="M221 860v127q0 47 47 47h142q47 0 47 -47v-127q0 -47 -47 -47h-142q-47 0 -47 47zM233 -397v938q0 45 48 45h118q47 0 47 -45v-938q0 -47 -47 -47h-118q-48 0 -48 47z" />
<glyph unicode="&#xa2;" horiz-adv-x="927" d="M139 680v563q0 108 60 169.5t159 66.5h88v174q0 47 46 47h77q45 0 45 -47v-174h193q43 0 43 -47v-82q0 -47 -47 -47h-320q-131 0 -131 -132v-419q0 -63 33 -97t98 -34h320q47 0 47 -48v-86q0 -19 -11.5 -31t-31.5 -12h-193v-174q0 -47 -45 -47h-77q-46 0 -46 47v174h-88 q-98 5 -158.5 68.5t-60.5 167.5z" />
<glyph unicode="&#xa3;" horiz-adv-x="1183" d="M78 47v82q0 47 47 47h233v463h-233q-47 0 -47 45v84q0 47 47 47h233v328q0 146 95 241t241 95h228q47 0 47 -47v-82q0 -47 -47 -47h-142q-92 0 -151.5 -59.5t-59.5 -153.5v-275h353q47 0 47 -47v-84q0 -45 -47 -45h-353v-86q0 -82 -8 -129l-22 -248h520q47 0 47 -47v-82 q0 -47 -47 -47h-934q-47 0 -47 47z" />
<glyph unicode="&#xa4;" horiz-adv-x="1181" d="M86 1108q-20 23 2 49l64 64q11 10 24 9t21 -9l202 -203l27 24q74 73 163 72.5t161 -72.5l22 -24l201 199q23 23 45 2l65 -66q11 -11 11 -25q0 -13 -9 -22l-200 -199l26 -28q70 -75 66.5 -164t-68.5 -158l-24 -25l200 -200q25 -24 2 -47l-63 -66q-10 -10 -25 -10 q-14 0 -22 8l-205 205l-24 -27q-68 -71 -162 -71q-89 0 -162 73l-25 27l-198 -203q-10 -10 -25 -10q-12 0 -22 10l-66 66q-22 23 2 47l201 198l-29 27q-72 72 -71 161t73 161l25 24zM347 721q0 -50 42 -92l105 -109q41 -41 90 -41q51 0 96 45l102 103q41 41 42 93t-40 93 l-106 107q-41 41 -90 41q-50 0 -96 -43l-101 -103q-44 -44 -44 -94z" />
<glyph unicode="&#xa5;" horiz-adv-x="1208" d="M43 1415q-11 21 2 42.5t37 21.5h149q25 0 39 -25l336 -610l338 610q11 25 39 25h143q24 0 38 -21t1 -43l-454 -799v-92h317q47 0 47 -47v-76q0 -47 -47 -47h-317v-307q0 -47 -47 -47h-121q-45 0 -45 47v307h-318q-47 0 -47 47v76q0 47 47 47h318v92z" />
<glyph unicode="&#xa6;" horiz-adv-x="489" d="M139 348q0 47 45 47h119q47 0 47 -47v-745q0 -47 -47 -47h-119q-45 0 -45 47v745zM139 897v745q0 22 12.5 35t32.5 13h119q47 0 47 -48v-745q0 -47 -47 -47h-117q-47 0 -47 47z" />
<glyph unicode="&#xa7;" horiz-adv-x="1144" d="M139 563v156q0 97 37 158q-37 61 -37 157v144q0 134 84.5 217.5t216.5 83.5h445q47 0 47 -47v-82q0 -47 -47 -47h-357q-82 0 -130 -44.5t-48 -123.5v-82q0 -121 103 -162l372 -139q86 -30 133.5 -103.5t47.5 -181.5v-152q0 -96 -39 -155q39 -62 39 -158v-145 q0 -131 -85 -216t-216 -85h-482q-47 0 -47 47v84q0 45 47 45h393q80 0 128.5 45.5t48.5 122.5v84q0 122 -99 163l-372 138q-86 31 -134.5 104.5t-48.5 173.5zM315 590q0 -120 101 -160l344 -125q34 -14 55 -31q12 28 12 72v100q0 122 -98 162l-340 123q-31 10 -59 31 q-15 -34 -15 -76v-96z" />
<glyph unicode="&#xa8;" horiz-adv-x="913" d="M123 1278v108q0 39 43 39h123q39 0 39 -39v-108q0 -41 -39 -41h-123q-43 0 -43 41zM586 1278v108q0 39 41 39h123q41 0 41 -39v-108q0 -41 -41 -41h-123q-41 0 -41 41z" />
<glyph unicode="&#xa9;" horiz-adv-x="1429" d="M119 369v741q0 174 98 271.5t277 97.5h442q181 0 278 -97t97 -272v-741q0 -175 -96 -272t-275 -97h-451q-178 0 -274 97t-96 272zM274 391q0 -235 234 -235h410q237 0 237 235v696q0 236 -240 236h-403q-238 0 -238 -236v-696zM397 492v495q0 97 58 155t153 58h371 q13 0 24 -11t11 -24v-71q0 -14 -11 -24.5t-24 -10.5h-295q-56 0 -87.5 -30.5t-31.5 -84.5v-407q0 -54 31.5 -85.5t85.5 -31.5h297q13 0 24 -11t11 -24v-70q0 -16 -10.5 -26t-24.5 -10h-371q-95 0 -153 58t-58 155z" />
<glyph unicode="&#xaa;" horiz-adv-x="720" d="M119 1018v104q0 57 35 92t92 35q9 0 55 -4l170 -18v69q0 40 -16 56t-54 16h-227q-27 0 -27 27v57q0 27 27 27h297q60 0 96.5 -37.5t36.5 -98.5v-421q0 -29 -29 -29h-90l-14 20l-164 -18q-10 -1 -24 -2.5t-24 -2.5t-13 -1q-57 0 -92 36t-35 93zM248 1038q0 -24 12.5 -39.5 t36.5 -15.5h174v172h-174q-23 0 -36 -14.5t-13 -38.5v-64z" />
<glyph unicode="&#xab;" horiz-adv-x="1179" d="M98 688v100q0 24 21 39l416 371q32 32 63 -12l49 -60q29 -29 -14 -63l-357 -320l357 -321q14 -14 19.5 -22t5.5 -19.5t-11 -24.5l-49 -57q-29 -37 -63 -14l-414 368q-23 20 -23 35zM526 688v100q0 23 19 39l418 371q30 30 63 -12l49 -60q25 -32 -14 -63l-356 -320 l356 -321q19 -19 22.5 -31.5t-8.5 -34.5l-49 -59q-28 -36 -63 -12l-416 368q-21 18 -21 35z" />
<glyph unicode="&#xac;" horiz-adv-x="1157" d="M98 471v84q0 47 47 47h869q45 0 45 -47v-469q0 -47 -45 -47h-84q-47 0 -47 47v338h-738q-47 0 -47 47z" />
<glyph unicode="&#xad;" horiz-adv-x="641" d="M78 518v84q0 47 47 47h391q47 0 47 -47v-84q0 -47 -47 -47h-391q-47 0 -47 47z" />
<glyph unicode="&#xae;" horiz-adv-x="1044" d="M119 971v448q0 96 56.5 151.5t150.5 55.5h395q93 0 150 -56.5t57 -152.5v-446q0 -97 -57 -153t-150 -56h-395q-93 0 -150 56t-57 153zM236 983q0 -47 29.5 -75.5t74.5 -28.5h365q47 0 75.5 28.5t28.5 75.5v422q0 48 -29 75t-75 27h-365q-46 0 -75 -27t-29 -75v-422z M342 954v478q0 20 18 20h232q60 0 92.5 -32t32.5 -89v-59q0 -45 -26 -74t-64 -37q4 -3 7 -8t6 -12.5t5 -10.5l86 -172q5 -8 -0.5 -15t-15.5 -7h-78q-15 0 -21 14l-81 174q-10 23 -31 23h-60v-191q0 -20 -16 -20h-68q-18 0 -18 18zM444 1229h107q30 0 44.5 12.5t14.5 42.5v23 q0 57 -59 57h-92q-15 0 -15 -14v-121z" />
<glyph unicode="&#xaf;" horiz-adv-x="837" d="M119 1284v47q0 47 47 47h539q47 0 47 -47v-47q0 -47 -47 -47h-539q-47 0 -47 47z" />
<glyph unicode="&#xb0;" horiz-adv-x="919" d="M61 995v174q0 135 86.5 222.5t221.5 87.5h176q137 0 225 -87.5t88 -226.5v-168q0 -138 -87.5 -226.5t-223.5 -88.5h-178q-135 0 -221.5 88t-86.5 225zM233 1018q0 -77 46.5 -124.5t119.5 -47.5h115q78 0 125 46.5t47 125.5v125q0 80 -47.5 126t-124.5 46h-113 q-75 0 -121.5 -46.5t-46.5 -125.5v-125z" />
<glyph unicode="&#xb1;" horiz-adv-x="1155" d="M98 45v84q0 47 47 47h867q45 0 45 -47v-84q0 -45 -45 -45h-867q-47 0 -47 45zM98 709v84q0 47 47 47h344v344q0 47 48 47h84q45 0 45 -47v-344h346q45 0 45 -47v-84q0 -45 -45 -45h-346v-347q0 -47 -45 -47h-84q-48 0 -48 47v347h-344q-47 0 -47 45z" />
<glyph unicode="&#xb2;" horiz-adv-x="729" d="M123 893v96q0 29 14 37l299 221q19 13 19 39v21q0 25 -16 38t-42 13h-221q-26 0 -26 26v66q0 29 26 29h303q60 0 93.5 -33.5t33.5 -93.5v-70q0 -27 -11.5 -53t-31.5 -39l-282 -203h297q24 0 24 -29v-63q0 -27 -24 -27h-428q-27 0 -27 25z" />
<glyph unicode="&#xb3;" horiz-adv-x="698" d="M123 895v68q0 26 27 26h210q37 0 55.5 12t18.5 41v19q0 59 -76 59h-168q-26 0 -26 27v59q0 27 26 27h168q76 0 76 61v19q0 45 -76 45h-206q-29 0 -29 26v66q0 29 27 29h305q55 0 87.5 -33.5t32.5 -89.5v-35q0 -102 -90 -143q90 -41 90 -146v-41q0 -57 -33 -90t-87 -33 h-303q-29 0 -29 27z" />
<glyph unicode="&#xb4;" horiz-adv-x="628" d="M116.5 1176q1.5 13 12.5 24l258 262q27 24 49 2l66 -67q24 -24 -2 -45l-291 -230q-2 -1 -6.5 -4t-6.5 -4t-6 -2t-6.5 -1t-7 2t-8.5 5l-43 37q-10 8 -8.5 21z" />
<glyph unicode="&#xb5;" horiz-adv-x="1144" d="M137 -397v1384q0 47 47 47h117q47 0 47 -47v-706q0 -51 29.5 -81t79.5 -30h340v817q0 47 47 47h117q47 0 47 -47v-944q0 -19 -12 -31t-31 -12h-142l-26 35l-297 -27q-42 -6 -78 -6q-34 0 -62.5 12.5t-42.5 32.5l23 -149q8 -57 8 -115v-180q0 -47 -47 -47h-119 q-45 0 -45 47z" />
<glyph unicode="&#xb6;" horiz-adv-x="1726" d="M98 1137v262q0 103 62.5 165t163.5 62h1280q45 0 45 -47v-82q0 -47 -45 -47h-240v-1847q0 -47 -47 -47h-119q-45 0 -45 47v1847h-256v-1847q0 -47 -47 -47h-119q-47 0 -47 47v1312h-367q-95 0 -157 62.5t-62 159.5zM299 1200q0 -45 26.5 -76.5t73.5 -31.5h285v358h-278 q-47 0 -77 -31t-30 -78v-141z" />
<glyph unicode="&#xb7;" horiz-adv-x="428" d="M98 645v143q0 19 12 31t31 12h146q19 0 31 -12t12 -31v-143q0 -18 -12.5 -30.5t-30.5 -12.5h-146q-18 0 -30.5 12.5t-12.5 30.5z" />
<glyph unicode="&#xb8;" horiz-adv-x="571" d="M109 -332q0 27 22 27h176q21 0 30 6.5t9 24.5v14q0 29 -43 29h-127q-12 0 -20 9t-4 21l61 201h113l-41 -139h82q44 0 71 -28t27 -71v-63q0 -44 -27 -71t-69 -27h-234q-26 0 -26 24v43z" />
<glyph unicode="&#xb9;" horiz-adv-x="630" d="M123 1274v65q0 29 27 29h206v84q0 27 27 27h98q27 0 27 -27v-559q0 -25 -27 -25h-98q-27 0 -27 25v354h-204q-29 0 -29 27z" />
<glyph unicode="&#xba;" horiz-adv-x="749" d="M119 1022v328q0 60 34.5 94.5t92.5 34.5h260q58 0 92.5 -34.5t34.5 -94.5v-328q0 -59 -35.5 -94t-91.5 -35h-260q-58 0 -92.5 34.5t-34.5 94.5zM252 1053q0 -52 49 -52h150q23 0 36 14t13 38v266q0 49 -49 49h-150q-21 0 -35 -13t-14 -36v-266z" />
<glyph unicode="&#xbb;" horiz-adv-x="1179" d="M110.5 390.5q3.5 12.5 22.5 31.5l356 321l-356 320q-39 31 -14 63l49 60q34 43 65 12l416 -371q19 -16 19 -39v-100q0 -17 -21 -35l-414 -368q-31 -22 -65 12l-49 59q-12 22 -8.5 34.5zM537.5 390.5q3.5 11.5 23.5 31.5l357 321l-357 320q-43 34 -14 63l49 60 q33 42 63 12l416 -371q21 -15 21 -39v-100q0 -15 -23 -35l-414 -368q-34 -23 -63 14l-47 57q-15 23 -11.5 34.5z" />
<glyph unicode="&#xbc;" horiz-adv-x="1347" d="M119 1274v65q0 29 26 29h207v84q0 27 27 27h98q27 0 27 -27v-559q0 -25 -27 -25h-98q-27 0 -27 25v354h-207q-26 0 -26 27zM131.5 14q-10.5 14 1.5 33l887 1385q20 27 32 37t31 10h105q22 0 31 -12t-5 -35l-886 -1387q-11 -16 -18 -23.5t-19 -14.5t-27 -7h-98 q-24 0 -34.5 14zM698 145v64q0 8 4 20l228 361q5 11 9.5 15.5t14.5 4.5h164q27 0 27 -26v-346h57q27 0 27 -25v-70q0 -26 -25 -26h-59v-92q0 -25 -27 -25h-69q-29 0 -29 27v90h-295q-27 0 -27 28zM836 238h184v278z" />
<glyph unicode="&#xbd;" horiz-adv-x="1347" d="M119 1274v67q0 27 26 27h207v84q0 27 27 27h98q27 0 27 -27v-559q0 -25 -27 -25h-98q-27 0 -27 25v354h-207q-26 0 -26 27zM131.5 14q-10.5 14 1.5 33l887 1385q20 27 32 37t31 10h105q22 0 31 -12t-5 -35l-886 -1387q-11 -16 -18 -23.5t-19 -14.5t-27 -7h-98 q-24 0 -34.5 14zM748 27v94q0 28 14 39l299 219q16 16 16 41v18q0 51 -59 51h-217q-27 0 -27 25v70q0 26 27 26h303q57 0 91 -35t34 -92v-67q0 -60 -43 -97l-281 -200h297q25 0 25 -27v-65q0 -27 -25 -27h-428q-26 0 -26 27z" />
<glyph unicode="&#xbe;" horiz-adv-x="1347" d="M119 893v70q0 26 26 26h211q72 0 72 53v19q0 59 -74 59h-170q-24 0 -24 27v57q0 29 26 29h168q74 0 74 57v15q0 30 -17.5 41.5t-54.5 11.5h-211q-26 0 -26 24v70q0 27 26 27h304q56 0 89 -33t33 -90v-35q0 -49 -24 -87.5t-66 -55.5q90 -38 90 -146v-41q0 -57 -33 -90 t-87 -33h-306q-26 0 -26 25zM131.5 14q-10.5 14 1.5 33l887 1385q20 27 32 37t31 10h105q22 0 31 -12t-5 -35l-886 -1387q-11 -16 -18 -23.5t-19 -14.5t-27 -7h-98q-24 0 -34.5 14zM698 143v66q0 4 1.5 9t4 10.5t3.5 7.5l223 354q11 20 26 20h164q25 0 25 -26v-346h57 q27 0 27 -25v-70q0 -26 -27 -26h-57v-90q0 -27 -27 -27h-67q-31 0 -31 27v90h-295q-27 0 -27 26zM836 238h184v278z" />
<glyph unicode="&#xbf;" horiz-adv-x="1128" d="M139 -8q0 99 47.5 173t132.5 103l78 31q101 37 101 156v86q0 45 47 45h119q47 0 47 -45v-107q0 -102 -47.5 -173.5t-133.5 -102.5l-77 -31q-103 -41 -103 -160v-67q0 -79 48 -123.5t130 -44.5h416q47 0 47 -47v-82q0 -47 -49 -47h-504q-130 0 -214.5 83.5t-84.5 217.5 v135zM485 860v127q0 47 47 47h144q47 0 47 -47v-127q0 -47 -47 -47h-144q-47 0 -47 47z" />
<glyph unicode="&#xc0;" horiz-adv-x="1298" d="M78 51l409 1393q12 35 43 35h236q33 0 45 -35l410 -1391q5 -23 -6.5 -38t-34.5 -15h-131q-37 0 -43 35l-80 266q-9 21 -29 21h-512q-21 0 -27 -21l-79 -266q-6 -35 -43 -35h-111q-24 0 -38 15t-9 36zM338 1690l27 84q4 13 18 17.5t27 -1.5l381 -137q13 -4 20 -15t2 -22 l-12 -41q-4 -13 -15.5 -18.5t-23.5 -0.5l-402 91q-12 5 -19 18t-3 25zM408 500h469l-234 794z" />
<glyph unicode="&#xc1;" horiz-adv-x="1298" d="M78 51l409 1393q12 35 43 35h236q33 0 45 -35l410 -1391q5 -23 -6.5 -38t-34.5 -15h-131q-37 0 -43 35l-80 266q-9 21 -29 21h-512q-21 0 -27 -21l-79 -266q-6 -35 -43 -35h-111q-24 0 -38 15t-9 36zM408 500h469l-234 794zM489 1616q-2 11 4.5 22t18.5 15l383 137 q14 6 26 1t17 -17l27 -84q4 -13 -3.5 -25.5t-21.5 -17.5l-397 -91q-12 -5 -23.5 0.5t-15.5 18.5z" />
<glyph unicode="&#xc2;" horiz-adv-x="1298" d="M78 51l409 1393q12 35 43 35h236q33 0 45 -35l410 -1391q5 -23 -6.5 -38t-34.5 -15h-131q-37 0 -43 35l-80 266q-9 21 -29 21h-512q-21 0 -27 -21l-79 -266q-6 -35 -43 -35h-111q-24 0 -38 15t-9 36zM299.5 1629q1.5 12 11.5 18l256 139q17 14 43 14h64q10 0 43 -14 l256 -139q10 -6 11.5 -18t-3.5 -19l-29 -49q-6 -15 -37 -2l-274 116l-270 -116q-30 -13 -39 2l-29 49q-5 7 -3.5 19zM408 500h469l-234 794z" />
<glyph unicode="&#xc3;" horiz-adv-x="1298" d="M78 51l409 1393q12 35 43 35h236q33 0 45 -35l410 -1391q5 -23 -6.5 -38t-34.5 -15h-131q-37 0 -43 35l-80 266q-9 21 -29 21h-512q-21 0 -27 -21l-79 -266q-6 -35 -43 -35h-111q-24 0 -38 15t-9 36zM299.5 1569.5q-6.5 8.5 3.5 21.5l66 86q33 40 84.5 54t99.5 6t94 -29 l115 -47q53 -21 76 4l28 37q12 15 18 19.5t19 4.5h98q39 0 17 -28l-66 -88q-79 -105 -278 -29l-115 45q-56 26 -78 -2l-24 -41q-22 -22 -37 -22h-96q-18 0 -24.5 8.5zM408 500h469l-234 794z" />
<glyph unicode="&#xc4;" horiz-adv-x="1298" d="M78 51l409 1393q12 35 43 35h236q33 0 45 -35l410 -1391q5 -23 -6.5 -38t-34.5 -15h-131q-37 0 -43 35l-80 266q-9 21 -29 21h-512q-21 0 -27 -21l-79 -266q-6 -35 -43 -35h-111q-24 0 -38 15t-9 36zM307 1608v106q0 41 43 41h123q39 0 39 -41v-106q0 -41 -39 -41h-123 q-43 0 -43 41zM408 500h469l-234 794zM770 1608v106q0 41 41 41h123q41 0 41 -41v-106q0 -41 -41 -41h-123q-41 0 -41 41z" />
<glyph unicode="&#xc5;" horiz-adv-x="1298" d="M78 51l409 1393q12 35 43 35h236q33 0 45 -35l410 -1391q5 -23 -6.5 -38t-34.5 -15h-131q-37 0 -43 35l-80 266q-9 21 -29 21h-512q-21 0 -27 -21l-79 -266q-6 -35 -43 -35h-111q-24 0 -38 15t-9 36zM408 500h469l-234 794zM475 1698q0 69 49.5 117.5t118.5 48.5 q71 0 119.5 -48t48.5 -118q0 -72 -48 -121t-120 -49q-69 0 -118.5 49t-49.5 121zM561 1698q0 -35 23.5 -59.5t58.5 -24.5t58.5 24.5t23.5 59.5t-23.5 58.5t-58.5 23.5t-58.5 -23.5t-23.5 -58.5z" />
<glyph unicode="&#xc6;" horiz-adv-x="1882" d="M27 15.5q-9 15.5 2 35.5l817 1393q16 35 49 35h864q47 0 47 -49v-80q0 -47 -47 -47h-563q-29 0 -29 -29v-436h494q47 0 47 -47v-84q0 -48 -47 -48h-494v-456q0 -27 27 -27h565q47 0 47 -47v-82q0 -47 -47 -47h-768q-37 0 -37 35v287h-534q-19 0 -29 -23l-162 -264 q-15 -35 -49 -35h-121q-23 0 -32 15.5zM494 500h460v778z" />
<glyph unicode="&#xc7;" horiz-adv-x="1064" d="M119 348v782q0 165 92.5 257t259.5 92h469q49 0 49 -49v-80q0 -47 -51 -47h-385q-223 0 -223 -222v-684q0 -221 221 -221h389q49 0 49 -47v-80q0 -49 -51 -49h-240l-41 -139h82q44 0 71.5 -28t27.5 -71v-63q0 -44 -27.5 -71t-69.5 -27h-233q-27 0 -27 24v43q0 27 23 27 h176q21 0 30 6.5t9 24.5v14q0 29 -43 29h-127q-13 0 -21 9t-4 21l62 201h-117q-166 0 -258 93t-92 255z" />
<glyph unicode="&#xc8;" horiz-adv-x="1067" d="M139 43v1393q0 18 12.5 30.5t30.5 12.5h762q22 0 34.5 -12.5t12.5 -32.5v-88q0 -43 -47 -43h-565q-29 0 -29 -29v-436h494q49 0 49 -50v-81q0 -48 -51 -48h-492v-456q0 -27 29 -27h565q47 0 47 -43v-90q0 -18 -12.5 -30.5t-34.5 -12.5h-760q-20 0 -32.5 12.5t-12.5 30.5z M289 1690l26 84q4 13 18 17.5t27 -1.5l381 -137q14 -5 20.5 -16t2.5 -21l-12 -41q-4 -13 -15.5 -18.5t-23.5 -0.5l-402 91q-12 5 -19 18t-3 25z" />
<glyph unicode="&#xc9;" horiz-adv-x="1067" d="M139 43v1393q0 18 12.5 30.5t30.5 12.5h762q22 0 34.5 -12.5t12.5 -32.5v-88q0 -43 -47 -43h-565q-29 0 -29 -29v-436h494q49 0 49 -50v-81q0 -48 -51 -48h-492v-456q0 -27 29 -27h565q47 0 47 -43v-90q0 -18 -12.5 -30.5t-34.5 -12.5h-760q-20 0 -32.5 12.5t-12.5 30.5z M369 1616q-4 27 22 37l383 137q14 6 26 1t17 -17l27 -84q4 -13 -3.5 -25.5t-21.5 -17.5l-397 -91q-12 -5 -23.5 0.5t-15.5 18.5z" />
<glyph unicode="&#xca;" horiz-adv-x="1067" d="M139 43v1393q0 18 12.5 30.5t30.5 12.5h762q22 0 34.5 -12.5t12.5 -32.5v-88q0 -43 -47 -43h-565q-29 0 -29 -29v-436h494q49 0 49 -50v-81q0 -48 -51 -48h-492v-456q0 -27 29 -27h565q47 0 47 -43v-90q0 -18 -12.5 -30.5t-34.5 -12.5h-760q-20 0 -32.5 12.5t-12.5 30.5z M203.5 1629q1.5 12 11.5 18l256 139q17 14 43 14h64q10 0 43 -14l256 -139q10 -6 11.5 -18t-3.5 -19l-29 -49q-6 -15 -37 -2l-274 116l-271 -116q-30 -13 -38 2l-29 49q-5 7 -3.5 19z" />
<glyph unicode="&#xcb;" horiz-adv-x="1067" d="M139 43v1393q0 18 12.5 30.5t30.5 12.5h762q22 0 34.5 -12.5t12.5 -32.5v-88q0 -43 -47 -43h-565q-29 0 -29 -29v-436h494q49 0 49 -50v-81q0 -48 -51 -48h-492v-456q0 -27 29 -27h565q47 0 47 -43v-90q0 -18 -12.5 -30.5t-34.5 -12.5h-760q-20 0 -32.5 12.5t-12.5 30.5z M225 1608v106q0 41 43 41h123q39 0 39 -41v-106q0 -41 -39 -41h-123q-43 0 -43 41zM688 1608v106q0 41 41 41h123q41 0 41 -41v-106q0 -41 -41 -41h-123q-41 0 -41 41z" />
<glyph unicode="&#xcc;" horiz-adv-x="489" d="M-119 1690l27 84q4 13 18 17.5t27 -1.5l381 -137q13 -4 20 -15t2 -22l-12 -41q-4 -13 -15.5 -18.5t-23.5 -0.5l-401 91q-12 5 -19.5 18t-3.5 25zM139 47v1385q0 47 47 47h117q47 0 47 -47v-1385q0 -47 -47 -47h-117q-47 0 -47 47z" />
<glyph unicode="&#xcd;" horiz-adv-x="489" d="M115 1616q-4 27 22 37l383 137q14 6 26 1t17 -17l27 -84q4 -13 -3.5 -25.5t-21.5 -17.5l-397 -91q-12 -5 -23.5 0.5t-15.5 18.5zM139 47v1385q0 47 47 47h117q47 0 47 -47v-1385q0 -47 -47 -47h-117q-47 0 -47 47z" />
<glyph unicode="&#xce;" horiz-adv-x="489" d="M-97.5 1629q1.5 12 11.5 18l256 139q17 14 43 14h63q10 0 43 -14l256 -139q10 -6 12 -18t-3 -19l-29 -49q-6 -15 -37 -2l-274 116l-271 -116q-30 -13 -39 2l-28 49q-5 7 -3.5 19zM139 47v1385q0 47 47 47h117q47 0 47 -47v-1385q0 -47 -47 -47h-117q-47 0 -47 47z" />
<glyph unicode="&#xcf;" horiz-adv-x="489" d="M-90 1608v106q0 41 43 41h123q39 0 39 -41v-106q0 -41 -39 -41h-123q-43 0 -43 41zM139 47v1385q0 47 47 47h117q47 0 47 -47v-1385q0 -47 -47 -47h-117q-47 0 -47 47zM373 1608v106q0 41 41 41h123q41 0 41 -41v-106q0 -41 -41 -41h-123q-41 0 -41 41z" />
<glyph unicode="&#xd0;" horiz-adv-x="1259" d="M20 717v47q0 47 48 47h71v619q0 49 49 49h598q167 0 261 -92.5t94 -256.5v-782q0 -162 -92.5 -255t-257.5 -93h-603q-49 0 -49 49v621h-71q-48 0 -48 47zM350 205q0 -29 27 -29h330q221 0 221 221v684q0 222 -223 222h-328q-27 0 -27 -29v-463h256q47 0 47 -47v-47 q0 -47 -47 -47h-256v-465z" />
<glyph unicode="&#xd1;" horiz-adv-x="1310" d="M139 47v1385q0 47 47 47h205q40 0 49 -33l533 -1196v1182q0 47 47 47h106q48 0 48 -47v-1385q0 -47 -48 -47h-206q-39 0 -48 33l-532 1194v-1180q0 -47 -47 -47h-107q-47 0 -47 47zM330 1569.5q-6 8.5 4 21.5l65 86q33 40 85 54t100 6t94 -29l115 -47q53 -21 75 4l29 37 q12 15 18 19.5t19 4.5h98q39 0 17 -28l-66 -88q-79 -105 -278 -29l-115 45q-56 26 -78 -2l-25 -41l-4 -4l-4.5 -4.5l-3.5 -3.5t-3.5 -3t-3.5 -2.5t-3.5 -2t-4 -1.5t-4.5 -1h-5h-97q-18 0 -24 8.5z" />
<glyph unicode="&#xd2;" horiz-adv-x="1239" d="M119 350v780q0 165 92.5 257t261.5 92h293q169 0 261.5 -92t92.5 -257v-782q0 -162 -92.5 -255t-257.5 -93h-301q-167 0 -258.5 92.5t-91.5 257.5zM330 395q0 -108 56.5 -163.5t162.5 -55.5h139q219 0 219 219v688q0 220 -221 220h-133q-223 0 -223 -220v-688zM377 1690 l26 84q4 13 18.5 17.5t27.5 -1.5l380 -137q14 -5 20.5 -16t2.5 -21l-12 -41q-4 -13 -15.5 -18.5t-23.5 -0.5l-402 91q-12 5 -19 18t-3 25z" />
<glyph unicode="&#xd3;" horiz-adv-x="1239" d="M119 350v780q0 165 92.5 257t261.5 92h293q169 0 261.5 -92t92.5 -257v-782q0 -162 -92.5 -255t-257.5 -93h-301q-167 0 -258.5 92.5t-91.5 257.5zM330 395q0 -108 56.5 -163.5t162.5 -55.5h139q219 0 219 219v688q0 220 -221 220h-133q-223 0 -223 -220v-688zM434 1616 q-2 11 4.5 22t18.5 15l383 137q14 6 26 1t17 -17l26 -84q4 -13 -3 -25.5t-21 -17.5l-398 -91q-12 -5 -23 0.5t-15 18.5z" />
<glyph unicode="&#xd4;" horiz-adv-x="1239" d="M119 350v780q0 165 92.5 257t261.5 92h293q169 0 261.5 -92t92.5 -257v-782q0 -162 -92.5 -255t-257.5 -93h-301q-167 0 -258.5 92.5t-91.5 257.5zM277.5 1629q1.5 12 11.5 18l256 139q17 14 43 14h63q10 0 43 -14l256 -139q10 -6 11.5 -18t-3.5 -19l-28 -49 q-6 -15 -37 -2l-275 116l-270 -116q-30 -13 -39 2l-28 49q-5 7 -3.5 19zM330 395q0 -108 56.5 -163.5t162.5 -55.5h139q219 0 219 219v688q0 220 -221 220h-133q-223 0 -223 -220v-688z" />
<glyph unicode="&#xd5;" horiz-adv-x="1239" d="M119 350v780q0 165 92.5 257t261.5 92h293q169 0 261.5 -92t92.5 -257v-782q0 -162 -92.5 -255t-257.5 -93h-301q-167 0 -258.5 92.5t-91.5 257.5zM270.5 1569.5q-6.5 8.5 3.5 21.5l66 86q33 40 84.5 54t99.5 6t94 -29l115 -47q53 -21 76 4l29 37q9 11 12 14.5t9 6.5 t15 3h99q38 0 16 -28l-65 -88q-80 -105 -279 -29l-115 45q-56 25 -77 -2l-25 -41q-22 -22 -37 -22h-96q-18 0 -24.5 8.5zM330 395q0 -108 56.5 -163.5t162.5 -55.5h139q219 0 219 219v688q0 220 -221 220h-133q-223 0 -223 -220v-688z" />
<glyph unicode="&#xd6;" horiz-adv-x="1239" d="M119 350v780q0 165 92.5 257t261.5 92h293q169 0 261.5 -92t92.5 -257v-782q0 -162 -92.5 -255t-257.5 -93h-301q-167 0 -258.5 92.5t-91.5 257.5zM285 1608v106q0 41 43 41h123q38 0 38 -41v-106q0 -41 -38 -41h-123q-43 0 -43 41zM330 395q0 -108 56.5 -163.5 t162.5 -55.5h139q219 0 219 219v688q0 220 -221 220h-133q-223 0 -223 -220v-688zM748 1608v106q0 41 40 41h123q41 0 41 -41v-106q0 -41 -41 -41h-123q-40 0 -40 41z" />
<glyph unicode="&#xd7;" horiz-adv-x="1155" d="M209 209q-33 33 0 67l242 244l-242 242q-33 32 0 65l59 60q33 33 66 0l241 -242l246 244q32 32 66 -2l59 -60q34 -33 2 -65l-243 -246l241 -242q32 -32 0 -65l-59 -59q-33 -33 -66 0l-241 241l-244 -241q-34 -34 -68 0z" />
<glyph unicode="&#xd8;" horiz-adv-x="1239" d="M119 350v780q0 166 91.5 257.5t262.5 91.5h272l78 260q9 35 45 35h97q24 0 33 -12.5t-1 -35.5l-79 -276q101 -34 151.5 -119.5t50.5 -200.5v-782q0 -162 -92.5 -255t-257.5 -93h-281l-73 -258q-15 -37 -47 -37h-101q-45 0 -30 47l81 275q-200 71 -200 323zM330 395 q0 -106 55.5 -162.5t163.5 -56.5h141q108 0 162.5 56t54.5 163v686q0 222 -221 222h-133q-223 0 -223 -220v-688z" />
<glyph unicode="&#xd9;" horiz-adv-x="1280" d="M139 350v1086q0 19 12 31t31 12h125q19 0 31 -12t12 -31v-1041q0 -108 56.5 -163.5t162.5 -55.5h140q219 0 219 219v1041q0 18 12.5 30.5t30.5 12.5h125q19 0 32 -12t13 -31v-1088q0 -162 -92.5 -255t-257.5 -93h-302q-167 0 -258.5 92.5t-91.5 257.5zM356 1690l27 84 q4 13 18 17.5t27 -1.5l381 -137q13 -4 20 -15t2 -22l-12 -41q-4 -13 -15.5 -18.5t-23.5 -0.5l-401 91q-12 5 -19.5 18t-3.5 25z" />
<glyph unicode="&#xda;" horiz-adv-x="1280" d="M139 350v1086q0 19 12 31t31 12h125q19 0 31 -12t12 -31v-1041q0 -108 56.5 -163.5t162.5 -55.5h140q219 0 219 219v1041q0 18 12.5 30.5t30.5 12.5h125q19 0 32 -12t13 -31v-1088q0 -162 -92.5 -255t-257.5 -93h-302q-167 0 -258.5 92.5t-91.5 257.5zM473 1616 q-2 11 4.5 22t18.5 15l383 137q14 6 26 1t17 -17l26 -84q4 -13 -3 -25.5t-21 -17.5l-398 -91q-12 -5 -23.5 0.5t-15.5 18.5z" />
<glyph unicode="&#xdb;" horiz-adv-x="1280" d="M139 350v1086q0 19 12 31t31 12h125q19 0 31 -12t12 -31v-1041q0 -108 56.5 -163.5t162.5 -55.5h140q219 0 219 219v1041q0 18 12.5 30.5t30.5 12.5h125q19 0 32 -12t13 -31v-1088q0 -162 -92.5 -255t-257.5 -93h-302q-167 0 -258.5 92.5t-91.5 257.5zM297.5 1629 q1.5 12 11.5 18l256 139q17 14 43 14h64q10 0 43 -14l256 -139q10 -6 11.5 -18t-3.5 -19l-29 -49q-6 -15 -37 -2l-274 116l-270 -116q-30 -13 -39 2l-29 49q-5 7 -3.5 19z" />
<glyph unicode="&#xdc;" horiz-adv-x="1280" d="M139 350v1086q0 19 12 31t31 12h125q19 0 31 -12t12 -31v-1041q0 -108 56.5 -163.5t162.5 -55.5h140q219 0 219 219v1041q0 18 12.5 30.5t30.5 12.5h125q19 0 32 -12t13 -31v-1088q0 -162 -92.5 -255t-257.5 -93h-302q-167 0 -258.5 92.5t-91.5 257.5zM305 1608v106 q0 41 43 41h123q39 0 39 -41v-106q0 -41 -39 -41h-123q-43 0 -43 41zM768 1608v106q0 41 41 41h123q41 0 41 -41v-106q0 -41 -41 -41h-123q-41 0 -41 41z" />
<glyph unicode="&#xdd;" horiz-adv-x="1208" d="M44 1454.5q11 24.5 38 24.5h149q26 0 35 -21l340 -614l340 614q15 21 37 21h143q22 0 36 -21t3 -45l-454 -797v-569q0 -47 -47 -47h-119q-47 0 -47 47v569l-453 797q-12 17 -1 41.5zM481 1616q-2 11 4.5 22t18.5 15l383 137q14 6 26 1t17 -17l26 -84q4 -13 -3 -25.5 t-21 -17.5l-397 -91q-12 -5 -23.5 0.5t-15.5 18.5z" />
<glyph unicode="&#xde;" horiz-adv-x="1146" d="M139 47v1385q0 47 47 47h117q47 0 47 -47v-265h367q167 0 259.5 -91.5t92.5 -256.5v-141q0 -162 -92.5 -256t-257.5 -94h-369v-281q0 -47 -47 -47h-117q-47 0 -47 47zM350 506h287q219 0 219 217v53q0 215 -221 215h-258q-10 0 -18.5 -8.5t-8.5 -19.5v-457z" />
<glyph unicode="&#xdf;" horiz-adv-x="1329" d="M98 905v82q0 47 47 47h117v352q0 109 64.5 174.5t169.5 65.5h452q115 0 184.5 -70.5t69.5 -183.5v-117q0 -113 -53 -193t-129 -116q77 -36 129.5 -115t52.5 -192v-385q0 -113 -69.5 -183.5t-184.5 -70.5h-295q-47 0 -47 47v84q0 45 47 45h181q72 0 114.5 44t42.5 116v332 q0 88 -52 139t-140 51h-146q-47 0 -47 47v82q0 47 47 47h146q87 0 139.5 52t52.5 139v73q0 72 -41.5 112t-113.5 40h-232q-60 0 -94.5 -34t-34.5 -95v-1274q0 -47 -51 -47h-115q-47 0 -47 47v811h-117q-47 0 -47 47z" />
<glyph unicode="&#xe0;" horiz-adv-x="1130" d="M139 219v184q0 100 62 163t161 63q43 0 95 -8l323 -33v149q0 59 -34 90t-95 31h-413q-48 0 -48 47v82q0 47 48 47h520q104 0 168.5 -64.5t64.5 -170.5v-750q0 -49 -47 -49h-137l-27 35l-313 -33q-63 -8 -105 -8q-100 0 -161.5 62.5t-61.5 162.5zM336 262q0 -49 29 -78.5 t77 -29.5h338v321h-338q-48 0 -77 -28.5t-29 -77.5v-107zM356 1374q0 12 11 23l65 67q11 10 24.5 9.5t24.5 -11.5l258 -262q11 -11 12.5 -24t-8.5 -21l-43 -37q-5 -4 -9.5 -6t-9 -1t-6.5 1.5t-8.5 4.5t-7.5 5l-290 230q-13 10 -13 22z" />
<glyph unicode="&#xe1;" horiz-adv-x="1130" d="M139 219v184q0 100 62 163t161 63q43 0 95 -8l323 -33v149q0 59 -34 90t-95 31h-413q-48 0 -48 47v82q0 47 48 47h520q104 0 168.5 -64.5t64.5 -170.5v-750q0 -49 -47 -49h-137l-27 35l-313 -33q-63 -8 -105 -8q-100 0 -161.5 62.5t-61.5 162.5zM336 262q0 -49 29 -78.5 t77 -29.5h338v321h-338q-48 0 -77 -28.5t-29 -77.5v-107zM395 1176q2 13 13 24l258 262q27 24 49 2l65 -67q24 -24 -2 -45l-291 -230q-2 -1 -6.5 -4t-6.5 -4t-6 -2t-6.5 -1t-7 2t-8.5 5l-43 37q-10 8 -8 21z" />
<glyph unicode="&#xe2;" horiz-adv-x="1130" d="M139 219v184q0 100 62 163t161 63q43 0 95 -8l323 -33v149q0 59 -34 90t-95 31h-413q-48 0 -48 47v82q0 47 48 47h520q104 0 168.5 -64.5t64.5 -170.5v-750q0 -49 -47 -49h-137l-27 35l-313 -33q-63 -8 -105 -8q-100 0 -161.5 62.5t-61.5 162.5zM262 1188q-15 15 4 41 l207 229q17 21 37 21h88q22 0 37 -21l209 -229q8 -8 8 -23q0 -12 -6 -18l-43 -35q-13 -13 -39 6l-209 182l-209 -182q-26 -21 -41 -6zM336 262q0 -49 29 -78.5t77 -29.5h338v321h-338q-48 0 -77 -28.5t-29 -77.5v-107z" />
<glyph unicode="&#xe3;" horiz-adv-x="1130" d="M139 219v184q0 100 62 163t161 63q43 0 95 -8l323 -33v149q0 59 -34 90t-95 31h-413q-48 0 -48 47v82q0 47 48 47h520q104 0 168.5 -64.5t64.5 -170.5v-750q0 -49 -47 -49h-137l-27 35l-313 -33q-63 -8 -105 -8q-100 0 -161.5 62.5t-61.5 162.5zM243.5 1247.5 q-5.5 8.5 2.5 20.5l65 102q46 68 131 68q79 0 150 -41l113 -58q51 -26 75 4l27 39q3 3 7 7.5t6 6.5t5.5 4.5t5.5 3.5t5.5 2t7.5 1h100q39 0 17 -31l-66 -98q-31 -43 -82.5 -57.5t-101 -5.5t-97.5 32l-112 58q-50 26 -78 -2l-25 -39q-9 -11 -12.5 -14.5t-10 -7t-14.5 -3.5 h-96q-17 0 -22.5 8.5zM336 262q0 -49 29 -78.5t77 -29.5h338v321h-338q-48 0 -77 -28.5t-29 -77.5v-107z" />
<glyph unicode="&#xe4;" horiz-adv-x="1130" d="M139 219v184q0 100 62 163t161 63q43 0 95 -8l323 -33v149q0 59 -34 90t-95 31h-413q-48 0 -48 47v82q0 47 48 47h520q104 0 168.5 -64.5t64.5 -170.5v-750q0 -49 -47 -49h-137l-27 35l-313 -33q-63 -8 -105 -8q-100 0 -161.5 62.5t-61.5 162.5zM225 1278v108q0 39 43 39 h123q39 0 39 -39v-108q0 -41 -39 -41h-123q-43 0 -43 41zM336 262q0 -49 29 -78.5t77 -29.5h338v321h-338q-48 0 -77 -28.5t-29 -77.5v-107zM688 1278v108q0 39 41 39h123q41 0 41 -39v-108q0 -41 -41 -41h-123q-41 0 -41 41z" />
<glyph unicode="&#xe5;" horiz-adv-x="1130" d="M139 219v184q0 100 62 163t161 63q43 0 95 -8l323 -33v149q0 59 -34 90t-95 31h-413q-48 0 -48 47v82q0 47 48 47h520q104 0 168.5 -64.5t64.5 -170.5v-750q0 -49 -47 -49h-137l-27 35l-313 -33q-63 -8 -105 -8q-100 0 -161.5 62.5t-61.5 162.5zM336 262q0 -49 29 -78.5 t77 -29.5h338v321h-338q-48 0 -77 -28.5t-29 -77.5v-107zM401 1333q0 69 49.5 118.5t118.5 49.5q71 0 119.5 -49t48.5 -119t-48.5 -120t-119.5 -50q-69 0 -118.5 50.5t-49.5 119.5zM487 1333q0 -35 23.5 -59.5t58.5 -24.5t58.5 24.5t23.5 59.5t-23.5 58.5t-58.5 23.5 t-58.5 -23.5t-23.5 -58.5z" />
<glyph unicode="&#xe6;" horiz-adv-x="1751" d="M139 225v183q0 100 61.5 161.5t161.5 61.5q64 0 95 -6l323 -35v153q0 55 -35.5 85t-93.5 30h-413q-48 0 -48 47v82q0 47 48 47h483q109 0 174 -76q61 76 170 76h342q101 0 163 -62t62 -165v-174q0 -97 -63 -159t-156 -62h-422v-113q0 -123 133 -123h387q48 0 48 -47v-82 q0 -47 -48 -47h-442q-112 0 -174 78q-58 -78 -178 -78h-355q-100 0 -161.5 62.5t-61.5 162.5zM336 266q0 -108 113 -108h221q110 0 110 114v209h-331q-113 0 -113 -112v-103zM991 520l346 29q47 4 73 31.5t26 70.5v111q0 47 -29 76.5t-76 29.5h-231q-48 0 -78.5 -31.5 t-30.5 -76.5v-240z" />
<glyph unicode="&#xe7;" horiz-adv-x="927" d="M139 236v563q0 109 63.5 172t168.5 63h434q20 0 32.5 -12t12.5 -31v-90q0 -43 -45 -43h-328q-60 0 -92.5 -33.5t-32.5 -93.5v-428q0 -60 32.5 -93.5t92.5 -33.5h328q20 0 32.5 -12t12.5 -31v-90q0 -19 -12.5 -31t-32.5 -12h-193l-41 -139h82q44 0 71.5 -28t27.5 -71v-63 q0 -44 -27.5 -71t-69.5 -27h-233q-27 0 -27 24v43q0 27 23 27h176q21 0 30 6.5t9 24.5v14q0 29 -43 29h-127q-13 0 -21 9t-4 21l62 201h-129q-105 0 -168.5 64t-63.5 172z" />
<glyph unicode="&#xe8;" horiz-adv-x="1110" d="M139 233v574q0 103 62.5 165t163.5 62h401q101 0 163 -62t62 -165v-174q0 -97 -62 -159t-157 -62h-422v-111q0 -57 34.5 -91t90.5 -34h397q48 0 48 -45v-84q0 -47 -48 -47h-501q-105 0 -168.5 64t-63.5 169zM350 520l346 29q47 4 73 32.5t26 71.5v109q0 47 -29 76.5 t-74 29.5h-233q-48 0 -78.5 -29t-30.5 -79v-240zM350 1374q0 13 10 23l66 67q11 10 24.5 9.5t24.5 -11.5l258 -262q11 -11 12.5 -24t-8.5 -21l-43 -37q-5 -4 -9.5 -6t-9 -1t-6.5 1.5t-8.5 4.5t-7.5 5l-291 230q-12 9 -12 22z" />
<glyph unicode="&#xe9;" horiz-adv-x="1110" d="M139 233v574q0 103 62.5 165t163.5 62h401q101 0 163 -62t62 -165v-174q0 -97 -62 -159t-157 -62h-422v-111q0 -57 34.5 -91t90.5 -34h397q48 0 48 -45v-84q0 -47 -48 -47h-501q-105 0 -168.5 64t-63.5 169zM350 520l346 29q47 4 73 32.5t26 71.5v109q0 47 -29 76.5 t-74 29.5h-233q-48 0 -78.5 -29t-30.5 -79v-240zM423.5 1176q1.5 13 12.5 24l258 262q27 24 49 2l66 -67q24 -24 -2 -45l-291 -230q-2 -1 -6.5 -4t-6.5 -4t-6 -2t-6.5 -1t-7 2t-8.5 5l-43 37q-10 8 -8.5 21z" />
<glyph unicode="&#xea;" horiz-adv-x="1110" d="M139 233v574q0 103 62.5 165t163.5 62h401q101 0 163 -62t62 -165v-174q0 -97 -62 -159t-157 -62h-422v-111q0 -57 34.5 -91t90.5 -34h397q48 0 48 -45v-84q0 -47 -48 -47h-501q-105 0 -168.5 64t-63.5 169zM289 1188q-15 15 4 41l207 229q17 21 37 21h88q22 0 37 -21 l208 -229q9 -9 9 -23q0 -11 -7 -18l-43 -35q-12 -12 -38 6l-209 182l-209 -182q-26 -21 -41 -6zM350 520l346 29q47 4 73 32.5t26 71.5v109q0 47 -29 76.5t-74 29.5h-233q-48 0 -78.5 -29t-30.5 -79v-240z" />
<glyph unicode="&#xeb;" horiz-adv-x="1110" d="M139 233v574q0 103 62.5 165t163.5 62h401q101 0 163 -62t62 -165v-174q0 -97 -62 -159t-157 -62h-422v-111q0 -57 34.5 -91t90.5 -34h397q48 0 48 -45v-84q0 -47 -48 -47h-501q-105 0 -168.5 64t-63.5 169zM238 1278v108q0 39 43 39h122q39 0 39 -39v-108q0 -41 -39 -41 h-122q-43 0 -43 41zM350 520l346 29q47 4 73 32.5t26 71.5v109q0 47 -29 76.5t-74 29.5h-233q-48 0 -78.5 -29t-30.5 -79v-240zM700 1278v108q0 39 41 39h123q41 0 41 -39v-108q0 -41 -41 -41h-123q-41 0 -41 41z" />
<glyph unicode="&#xec;" horiz-adv-x="489" d="M-37 1374q0 13 10 23l66 67q11 10 24.5 9.5t24.5 -11.5l258 -262q11 -11 12.5 -24t-8.5 -21l-43 -37q-5 -4 -9.5 -6t-9 -1t-6.5 1.5t-8.5 4.5t-7.5 5l-291 230q-12 9 -12 22zM139 47v940q0 47 47 47h117q47 0 47 -47v-940q0 -47 -47 -47h-117q-47 0 -47 47z" />
<glyph unicode="&#xed;" horiz-adv-x="489" d="M130.5 1176q1.5 13 12.5 24l258 262q28 24 50 2l65 -67q24 -24 -2 -45l-291 -230q-2 -1 -6.5 -4t-6.5 -4t-6 -2t-6.5 -1t-7 2t-8.5 5l-43 37q-10 8 -8.5 21zM139 47v940q0 47 47 47h117q47 0 47 -47v-940q0 -47 -47 -47h-117q-47 0 -47 47z" />
<glyph unicode="&#xee;" horiz-adv-x="489" d="M-47 1188q-15 15 4 41l207 229q17 21 37 21h88q22 0 37 -21l209 -229q8 -8 8 -23q0 -12 -6 -18l-43 -35q-13 -13 -39 6l-209 182l-209 -182q-26 -21 -41 -6zM139 47v940q0 47 47 47h117q47 0 47 -47v-940q0 -47 -47 -47h-117q-47 0 -47 47z" />
<glyph unicode="&#xef;" horiz-adv-x="489" d="M-96 1278v108q0 39 43 39h123q39 0 39 -39v-108q0 -41 -39 -41h-123q-43 0 -43 41zM139 47v940q0 47 47 47h117q47 0 47 -47v-940q0 -47 -47 -47h-117q-47 0 -47 47zM367 1278v108q0 39 41 39h122q41 0 41 -39v-108q0 -41 -41 -41h-122q-41 0 -41 41z" />
<glyph unicode="&#xf0;" d="M139 219v590q0 103 60 164t163 61q56 0 95 -6l342 -33v242h-256q-47 0 -47 47v47q0 47 47 47h256v201q0 47 47 47h117q47 0 47 -47v-201h71q47 0 47 -47v-47q0 -47 -47 -47h-71v-1188q0 -49 -47 -49h-138l-26 35l-332 -33q-19 -1 -57.5 -4.5t-47.5 -3.5 q-100 0 -161.5 62.5t-61.5 162.5zM350 281q0 -50 30.5 -79.5t84.5 -29.5h334v686h-338q-50 0 -80.5 -30t-30.5 -78v-469z" />
<glyph unicode="&#xf1;" d="M139 47v940q0 47 45 47h140l26 -33l352 33q9 1 40 3.5t44 2.5q100 0 162 -62.5t62 -162.5v-768q0 -47 -47 -47h-117q-47 0 -47 47v707q0 50 -30 80t-81 30h-338v-817q0 -47 -47 -47h-117q-47 0 -47 47zM219 1247.5q-6 8.5 2 20.5l66 102q46 68 131 68q78 0 149 -41 l113 -58q52 -27 76 4l26 39q10 12 18.5 18.5t18.5 6.5h101q38 0 16 -31l-66 -98q-31 -43 -82.5 -57.5t-100.5 -5.5t-97 32l-113 58q-50 26 -78 -2l-24 -39q-9 -11 -12.5 -14.5t-10 -7t-14.5 -3.5h-96q-17 0 -23 8.5z" />
<glyph unicode="&#xf2;" horiz-adv-x="1187" d="M139 227v580q0 103 62.5 165t163.5 62h458q103 0 164.5 -61.5t61.5 -165.5v-580q0 -103 -62.5 -165t-163.5 -62h-458q-101 0 -163.5 62t-62.5 165zM350 295q0 -53 33 -86t84 -33h250q54 0 86.5 32.5t32.5 86.5v444q0 54 -32.5 86.5t-86.5 32.5h-250q-51 0 -84 -33 t-33 -86v-444zM391 1374q0 13 10 23l66 67q11 10 24.5 9.5t24.5 -11.5l258 -262q11 -11 12.5 -24t-8.5 -21l-43 -37q-5 -4 -9.5 -6t-9 -1t-6.5 1.5t-8.5 4.5t-7.5 5l-291 230q-12 9 -12 22z" />
<glyph unicode="&#xf3;" horiz-adv-x="1187" d="M139 227v580q0 103 62.5 165t163.5 62h458q103 0 164.5 -61.5t61.5 -165.5v-580q0 -103 -62.5 -165t-163.5 -62h-458q-101 0 -163.5 62t-62.5 165zM350 295q0 -53 33 -86t84 -33h250q54 0 86.5 32.5t32.5 86.5v444q0 54 -32.5 86.5t-86.5 32.5h-250q-51 0 -84 -33 t-33 -86v-444zM448.5 1176q1.5 13 12.5 24l258 262q27 24 49 2l66 -67q24 -24 -3 -45l-290 -230q-2 -1 -6.5 -4t-6.5 -4t-6 -2t-6.5 -1t-7 2t-8.5 5l-43 37q-10 8 -8.5 21z" />
<glyph unicode="&#xf4;" horiz-adv-x="1187" d="M139 227v580q0 103 62.5 165t163.5 62h458q103 0 164.5 -61.5t61.5 -165.5v-580q0 -103 -62.5 -165t-163.5 -62h-458q-101 0 -163.5 62t-62.5 165zM303 1188q-15 15 4 41l207 229q17 21 37 21h88q22 0 37 -21l209 -229q8 -8 8 -23q0 -12 -6 -18l-43 -35q-13 -13 -39 6 l-209 182l-209 -182q-26 -21 -41 -6zM350 295q0 -53 33 -86t84 -33h250q54 0 86.5 32.5t32.5 86.5v444q0 54 -32.5 86.5t-86.5 32.5h-250q-51 0 -84 -33t-33 -86v-444z" />
<glyph unicode="&#xf5;" horiz-adv-x="1187" d="M139 227v580q0 103 62.5 165t163.5 62h458q103 0 164.5 -61.5t61.5 -165.5v-580q0 -103 -62.5 -165t-163.5 -62h-458q-101 0 -163.5 62t-62.5 165zM184 1247.5q-6 8.5 2 20.5l66 102q46 68 131 68q78 0 149 -41l113 -58q52 -27 76 4l27 39q3 3 8 8.5t7 7.5t5.5 4.5t7 3.5 t8.5 1h101q38 0 16 -31l-65 -98q-31 -43 -82.5 -57.5t-101 -5.5t-97.5 32l-113 58q-50 25 -77 -2l-25 -39q-9 -11 -12.5 -14.5t-10 -7t-14.5 -3.5h-96q-17 0 -23 8.5zM350 295q0 -53 33 -86t84 -33h250q54 0 86.5 32.5t32.5 86.5v444q0 54 -32.5 86.5t-86.5 32.5h-250 q-51 0 -84 -33t-33 -86v-444z" />
<glyph unicode="&#xf6;" horiz-adv-x="1187" d="M139 227v580q0 103 62.5 165t163.5 62h458q103 0 164.5 -61.5t61.5 -165.5v-580q0 -103 -62.5 -165t-163.5 -62h-458q-101 0 -163.5 62t-62.5 165zM252 1278v108q0 39 43 39h123q39 0 39 -39v-108q0 -41 -39 -41h-123q-43 0 -43 41zM350 295q0 -53 33 -86t84 -33h250 q54 0 86.5 32.5t32.5 86.5v444q0 54 -32.5 86.5t-86.5 32.5h-250q-51 0 -84 -33t-33 -86v-444zM715 1278v108q0 39 41 39h123q41 0 41 -39v-108q0 -41 -41 -41h-123q-41 0 -41 41z" />
<glyph unicode="&#xf7;" horiz-adv-x="1155" d="M94 498v86q0 47 47 47h865q47 0 47 -47v-86q0 -47 -47 -47h-867q-45 0 -45 47zM453 45v141q0 19 13 31t32 12h153q19 0 32 -12t13 -31v-141q0 -19 -13 -32t-32 -13h-153q-19 0 -32 13t-13 32zM453 895v141q0 19 13 31t32 12h153q19 0 32 -12t13 -31v-141q0 -19 -13 -32 t-32 -13h-153q-19 0 -32 13t-13 32z" />
<glyph unicode="&#xf8;" horiz-adv-x="1187" d="M139 227v580q0 103 62.5 165t163.5 62h374l119 262q12 20 19.5 26.5t23.5 6.5h103q23 0 31 -13.5t-3 -33.5l-119 -264q136 -55 136 -215v-576q0 -103 -62.5 -165t-163.5 -62h-372l-117 -258q-21 -37 -47 -37h-101q-21 0 -29 12t1 35l118 264q-66 25 -101.5 79t-35.5 132z M350 295q0 -54 32.5 -86.5t86.5 -32.5h248q54 0 86.5 32.5t32.5 86.5v444q0 54 -32.5 86.5t-86.5 32.5h-248q-54 0 -86.5 -32.5t-32.5 -86.5v-444z" />
<glyph unicode="&#xf9;" d="M139 217v770q0 47 47 47h117q47 0 47 -47v-706q0 -50 30.5 -80.5t78.5 -30.5h340v817q0 47 47 47h117q47 0 47 -47v-940q0 -47 -45 -47h-140l-26 35l-336 -33q-10 -1 -49 -4.5t-52 -3.5q-99 0 -161 62t-62 161zM340 1374q0 13 10 23l66 67q11 10 24.5 9.5t24.5 -11.5 l258 -262q11 -11 12.5 -24t-8.5 -21l-43 -37q-5 -4 -9.5 -6t-9 -1t-6.5 1.5t-8.5 4.5t-7.5 5l-291 230q-12 9 -12 22z" />
<glyph unicode="&#xfa;" d="M139 217v770q0 47 47 47h117q47 0 47 -47v-706q0 -50 30.5 -80.5t78.5 -30.5h340v817q0 47 47 47h117q47 0 47 -47v-940q0 -47 -45 -47h-140l-26 35l-336 -33q-10 -1 -49 -4.5t-52 -3.5q-99 0 -161 62t-62 161zM427.5 1176q1.5 13 12.5 24l258 262q28 24 50 2l65 -67 q24 -24 -2 -45l-291 -230q-2 -1 -6.5 -4t-6.5 -4t-6 -2t-6.5 -1t-7 2t-8.5 5l-43 37q-10 8 -8.5 21z" />
<glyph unicode="&#xfb;" d="M139 217v770q0 47 47 47h117q47 0 47 -47v-706q0 -50 30.5 -80.5t78.5 -30.5h340v817q0 47 47 47h117q47 0 47 -47v-940q0 -47 -45 -47h-140l-26 35l-336 -33q-10 -1 -49 -4.5t-52 -3.5q-99 0 -161 62t-62 161zM283 1188q-15 15 4 41l207 229q17 21 36 21h88q22 0 37 -21 l209 -229q8 -8 8 -23q0 -12 -6 -18l-43 -35q-13 -13 -39 6l-209 182l-208 -182q-26 -21 -41 -6z" />
<glyph unicode="&#xfc;" d="M139 217v770q0 47 47 47h117q47 0 47 -47v-706q0 -50 30.5 -80.5t78.5 -30.5h340v817q0 47 47 47h117q47 0 47 -47v-940q0 -47 -45 -47h-140l-26 35l-336 -33q-10 -1 -49 -4.5t-52 -3.5q-99 0 -161 62t-62 161zM244 1278v108q0 39 43 39h123q39 0 39 -39v-108 q0 -41 -39 -41h-123q-43 0 -43 41zM707 1278v108q0 39 41 39h122q41 0 41 -39v-108q0 -41 -41 -41h-122q-41 0 -41 41z" />
<glyph unicode="&#xfd;" horiz-adv-x="1064" d="M78 981q-5 24 7 38.5t36 14.5h125q32 0 41 -33l243 -845l246 843q5 14 17.5 24.5t25.5 10.5h125q22 0 35 -14.5t6 -36.5l-403 -1389q-6 -38 -41 -38h-121q-21 0 -35 16t-10 39l117 389h-101q-35 0 -41 35zM452.5 1176q1.5 13 12.5 24l258 262q27 24 49 2l66 -67 q24 -24 -2 -45l-291 -230q-2 -1 -6.5 -4t-6.5 -4t-6 -2t-6.5 -1t-7 2t-8.5 5l-43 37q-10 8 -8.5 21z" />
<glyph unicode="&#xfe;" d="M139 -397v1976q0 47 45 47h119q47 0 47 -47v-580l336 33q13 1 49 4.5t53 3.5q98 0 160 -62.5t62 -162.5v-590q0 -103 -60.5 -164t-163.5 -61q-23 0 -92 6l-344 33v-436q0 -47 -47 -47h-117q-47 0 -47 47zM350 176h338q51 0 81 30.5t30 80.5v467q0 51 -30 80.5t-81 29.5 h-338v-688z" />
<glyph unicode="&#xff;" horiz-adv-x="1064" d="M78 981q-5 24 7 38.5t36 14.5h125q32 0 41 -33l243 -845l246 843q5 14 17.5 24.5t25.5 10.5h125q22 0 35 -14.5t6 -36.5l-403 -1389q-6 -38 -41 -38h-121q-21 0 -35 16t-10 39l117 389h-101q-35 0 -41 35zM195 1278v108q0 39 43 39h122q39 0 39 -39v-108q0 -41 -39 -41 h-122q-43 0 -43 41zM657 1278v108q0 39 41 39h123q41 0 41 -39v-108q0 -41 -41 -41h-123q-41 0 -41 41z" />
<glyph unicode="&#x152;" horiz-adv-x="1835" d="M119 350v780q0 165 92.5 257t261.5 92h1239q47 0 47 -49v-80q0 -47 -47 -47h-563q-29 0 -29 -29v-436h494q47 0 47 -47v-84q0 -48 -47 -48h-494v-456q0 -27 27 -27h565q47 0 47 -47v-82q0 -47 -47 -47h-1243q-165 0 -257.5 92.5t-92.5 257.5zM330 395q0 -106 56.5 -162.5 t162.5 -56.5h358v1127h-354q-223 0 -223 -220v-688z" />
<glyph unicode="&#x153;" horiz-adv-x="1806" d="M139 227v580q0 104 61.5 165.5t164.5 61.5h415q99 0 172 -73q64 73 170 73h342q99 0 161.5 -62t62.5 -165v-174q0 -97 -62.5 -159t-157.5 -62h-419v-119q0 -55 33.5 -86t93.5 -31h393q47 0 47 -47v-82q0 -47 -47 -47h-443q-114 0 -174 76q-60 -76 -172 -76h-415 q-101 0 -163.5 62t-62.5 165zM350 301q0 -59 32.5 -92t84.5 -33h250q55 0 87 33t32 92v434q0 59 -32 91t-87 32h-250q-53 0 -85 -32t-32 -91v-434zM1049 520l344 29q47 4 72.5 32.5t25.5 73.5v107q0 47 -29 76.5t-76 29.5h-231q-48 0 -77 -29t-29 -79v-240z" />
<glyph unicode="&#x178;" horiz-adv-x="1208" d="M44 1454.5q11 24.5 38 24.5h149q26 0 35 -21l340 -614l340 614q15 21 37 21h143q22 0 36 -21t3 -45l-454 -797v-569q0 -47 -47 -47h-119q-47 0 -47 47v569l-453 797q-12 17 -1 41.5zM270 1608v106q0 41 43 41h123q39 0 39 -41v-106q0 -41 -39 -41h-123q-43 0 -43 41z M733 1608v106q0 41 41 41h123q41 0 41 -41v-106q0 -41 -41 -41h-123q-41 0 -41 41z" />
<glyph unicode="&#x2c6;" horiz-adv-x="833" d="M125 1188q-15 15 4 41l207 229q17 21 37 21h88q22 0 37 -21l209 -229q8 -8 8 -23q0 -12 -6 -18l-43 -35q-13 -13 -39 6l-209 182l-209 -182q-26 -21 -41 -6z" />
<glyph unicode="&#x2dc;" horiz-adv-x="940" d="M112.5 1247.5q-5.5 8.5 2.5 20.5l65 102q46 68 131 68q79 0 150 -41l112 -58q52 -27 76 4l27 39q3 3 7 7.5t6 6.5t5.5 4.5t5.5 3.5t5.5 2t7.5 1h100q38 0 16 -31l-65 -98q-31 -43 -82.5 -57.5t-101 -5.5t-97.5 32l-112 58q-50 26 -78 -2l-25 -39q-9 -11 -12.5 -14.5 t-10 -7t-14.5 -3.5h-96q-17 0 -22.5 8.5z" />
<glyph unicode="&#x2000;" horiz-adv-x="932" />
<glyph unicode="&#x2001;" horiz-adv-x="1864" />
<glyph unicode="&#x2002;" horiz-adv-x="932" />
<glyph unicode="&#x2003;" horiz-adv-x="1864" />
<glyph unicode="&#x2004;" horiz-adv-x="621" />
<glyph unicode="&#x2005;" horiz-adv-x="466" />
<glyph unicode="&#x2006;" horiz-adv-x="310" />
<glyph unicode="&#x2007;" horiz-adv-x="310" />
<glyph unicode="&#x2008;" horiz-adv-x="233" />
<glyph unicode="&#x2009;" horiz-adv-x="372" />
<glyph unicode="&#x200a;" horiz-adv-x="103" />
<glyph unicode="&#x2010;" horiz-adv-x="641" d="M78 518v84q0 47 47 47h391q47 0 47 -47v-84q0 -47 -47 -47h-391q-47 0 -47 47z" />
<glyph unicode="&#x2011;" horiz-adv-x="641" d="M78 518v84q0 47 47 47h391q47 0 47 -47v-84q0 -47 -47 -47h-391q-47 0 -47 47z" />
<glyph unicode="&#x2012;" horiz-adv-x="641" d="M78 518v84q0 47 47 47h391q47 0 47 -47v-84q0 -47 -47 -47h-391q-47 0 -47 47z" />
<glyph unicode="&#x2013;" horiz-adv-x="1095" d="M78 518v84q0 47 47 47h846q47 0 47 -47v-84q0 -47 -47 -47h-846q-47 0 -47 47z" />
<glyph unicode="&#x2014;" horiz-adv-x="1439" d="M78 518v84q0 47 47 47h1192q47 0 47 -47v-84q0 -47 -47 -47h-1192q-47 0 -47 47z" />
<glyph unicode="&#x2018;" horiz-adv-x="456" d="M98 1210v187l107 327q14 45 43 45h92l-107 -372h64q17 0 30 -13t13 -32v-142q0 -18 -12.5 -30.5t-30.5 -12.5h-156q-19 0 -31 12t-12 31z" />
<glyph unicode="&#x2019;" horiz-adv-x="456" d="M117 1024l108 373h-65q-18 0 -30.5 12.5t-12.5 30.5v143q0 19 12 31t31 12h155q19 0 32 -12t13 -31v-186l-108 -330q-15 -43 -43 -43h-92z" />
<glyph unicode="&#x201a;" horiz-adv-x="456" d="M117 43v143q0 19 12 31t31 12h155q19 0 32 -12t13 -31v-186l-108 -328q-14 -45 -43 -45h-92l108 373h-65q-19 0 -31 12t-12 31z" />
<glyph unicode="&#x201c;" horiz-adv-x="798" d="M98 1210v187l107 327q16 45 43 45h92l-107 -372h64q17 0 30 -13t13 -32v-142q0 -18 -12.5 -30.5t-30.5 -12.5h-156q-18 0 -30.5 12.5t-12.5 30.5zM438 1210v187l107 327q9 23 18 34t25 11h92l-107 -372h64q19 0 32 -13t13 -32v-142q0 -19 -13 -31t-32 -12h-156 q-18 0 -30.5 12.5t-12.5 30.5z" />
<glyph unicode="&#x201d;" horiz-adv-x="798" d="M117 1024l108 373h-65q-17 0 -30 13t-13 30v143q0 18 12.5 30.5t30.5 12.5h155q19 0 32 -12t13 -31v-186l-108 -330q-14 -43 -43 -43h-92zM459 1024l106 373h-63q-18 0 -30.5 12.5t-12.5 30.5v143q0 19 12 31t31 12h153q19 0 32 -12t13 -31v-186l-108 -330 q-11 -43 -41 -43h-92z" />
<glyph unicode="&#x201e;" horiz-adv-x="796" d="M117 45v141q0 18 12.5 30.5t30.5 12.5h155q19 0 32 -12t13 -31v-186l-108 -328q-15 -45 -43 -45h-92l108 373h-65q-17 0 -30 13t-13 32zM459 45v141q0 19 12 31t31 12h153q19 0 32 -12t13 -31v-186l-108 -328q-11 -45 -41 -45h-92l106 373h-63q-19 0 -31 13t-12 32z" />
<glyph unicode="&#x2022;" horiz-adv-x="843" d="M150 618v203q0 81 43 125.5t116 44.5h223q74 0 118 -44.5t44 -127.5v-201q0 -78 -44.5 -123.5t-117.5 -45.5h-221q-73 0 -117 45t-44 124z" />
<glyph unicode="&#x2026;" horiz-adv-x="1705" d="M98 43v143q0 19 12 31t31 12h156q18 0 30.5 -12.5t12.5 -30.5v-143q0 -18 -12.5 -30.5t-30.5 -12.5h-156q-19 0 -31 12t-12 31zM733 43v143q0 19 12 31t31 12h156q18 0 30.5 -12.5t12.5 -30.5v-143q0 -18 -12.5 -30.5t-30.5 -12.5h-156q-19 0 -31 12t-12 31zM1366 43v143 q0 19 13 31t32 12h154q19 0 32 -12t13 -31v-143q0 -19 -13 -31t-32 -12h-154q-19 0 -32 12t-13 31z" />
<glyph unicode="&#x202f;" horiz-adv-x="372" />
<glyph unicode="&#x2039;" horiz-adv-x="751" d="M98 688v100q0 24 21 39l416 371q32 32 63 -12l49 -60q29 -29 -14 -63l-357 -320l357 -323q42 -33 14 -64l-49 -59q-28 -36 -63 -12l-414 368q-23 20 -23 35z" />
<glyph unicode="&#x203a;" horiz-adv-x="751" d="M121 356q-29 32 12 64l356 323l-356 320q-42 33 -12 63l47 60q33 42 63 12l416 -371q21 -15 21 -39v-100q0 -15 -23 -35l-414 -368q-35 -24 -63 12z" />
<glyph unicode="&#x205f;" horiz-adv-x="466" />
<glyph unicode="&#x20ac;" horiz-adv-x="1155" d="M0 537v51q0 47 45 47h164v211h-162q-47 0 -47 45v51q0 47 47 47h162v139q0 166 92.5 258.5t259.5 92.5h471q47 0 47 -47v-82q0 -47 -47 -47h-399q-213 0 -213 -211v-103h493q45 0 45 -49v-49q0 -45 -45 -45h-493v-211h491q47 0 47 -47v-51q0 -45 -47 -45h-491v-105 q0 -211 213 -211h399q47 0 47 -47v-82q0 -47 -47 -47h-473q-166 0 -258 93t-92 255v144h-162q-47 0 -47 45z" />
<glyph unicode="&#x2122;" horiz-adv-x="1544" d="M23 1393v59q0 27 24 27h526q27 0 27 -27v-59q0 -25 -27 -25h-196v-448q0 -27 -25 -27h-84q-24 0 -24 27v448h-197q-24 0 -24 25zM678 920v532q0 27 27 27h145q19 0 22 -21l179 -436l176 436q6 21 24 21h144q26 0 26 -27v-532q0 -27 -26 -27h-76q-25 0 -25 27v423 l-166 -423q-4 -9 -6.5 -13.5t-9 -9t-14.5 -4.5h-94q-21 0 -33 27l-166 423v-423q0 -27 -25 -27h-75q-27 0 -27 27z" />
<glyph unicode="&#x25fc;" horiz-adv-x="1034" d="M0 0v1034h1034v-1034h-1034z" />
</font>
</defs>
</svg>
